0
SECTION
2
HEADER
9
$INSUNITS
70
4
9
$ACADVER
1
AC1014
9
$HANDSEED
5
FFFF
0
ENDSEC
0
SECTION
2
TABLES
0
TABLE
2
VPORT
5
8
100
AcDbSymbolTable
0
ENDTAB
0
TABLE
2
LTYPE
5
5
100
AcDbSymbolTable
0
LTYPE
5
14
100
AcDbSymbolTableRecord
100
AcDbLinetypeTableRecord
2
BYBLOCK
70
0
0
LTYPE
5
15
100
AcDbSymbolTableRecord
100
AcDbLinetypeTableRecord
2
BYLAYER
70
0
0
ENDTAB
0
TABLE
2
LAYER
5
2
100
AcDbSymbolTable
70
2
0
LAYER
5
50
100
AcDbSymbolTableRecord
100
AcDbLayerTableRecord
2
0
70
0
6
CONTINUOUS
0
ENDTAB
0
TABLE
2
STYLE
5
3
100
AcDbSymbolTable
70
1
0
STYLE
5
11
100
AcDbSymbolTableRecord
100
AcDbTextStyleTableRecord
2
STANDARD
70
0
0
ENDTAB
0
TABLE
2
VIEW
5
6
100
AcDbSymbolTable
70
0
0
ENDTAB
0
TABLE
2
UCS
5
7
100
AcDbSymbolTable
70
0
0
ENDTAB
0
TABLE
2
APPID
5
9
100
AcDbSymbolTable
70
2
0
APPID
5
12
100
AcDbSymbolTableRecord
100
AcDbRegAppTableRecord
2
ACAD
70
0
0
ENDTAB
0
TABLE
2
DIMSTYLE
5
A
100
AcDbSymbolTable
70
1
0
ENDTAB
0
TABLE
2
BLOCK_RECORD
5
1
100
AcDbSymbolTable
70
1
0
BLOCK_RECORD
5
1F
100
AcDbSymbolTableRecord
100
AcDbBlockTableRecord
2
*MODEL_SPACE
0
BLOCK_RECORD
5
1B
100
AcDbSymbolTableRecord
100
AcDbBlockTableRecord
2
*PAPER_SPACE
0
ENDTAB
0
ENDSEC
0
SECTION
2
BLOCKS
0
BLOCK
5
20
100
AcDbEntity
100
AcDbBlockBegin
2
*MODEL_SPACE
0
ENDBLK
5
21
100
AcDbEntity
100
AcDbBlockEnd
0
BLOCK
5
1C
100
AcDbEntity
100
AcDbBlockBegin
2
*PAPER_SPACE
0
ENDBLK
5
1D
100
AcDbEntity
100
AcDbBlockEnd
0
ENDSEC
0
SECTION
2
ENTITIES
0
CIRCLE
5
100
100
AcDbEntity
8
0
100
AcDbCircle
10
-54.250001028180108
20
54.150001341104506
30
0
40
1.0999999999999943
210
0
220
-0
230
1
0
CIRCLE
5
101
100
AcDbEntity
8
0
100
AcDbCircle
10
-186.75000102818012
20
143.85000134110453
30
0
40
1.0999999999999943
210
0
220
-0
230
1
0
CIRCLE
5
102
100
AcDbEntity
8
0
100
AcDbCircle
10
-186.75000102818012
20
54.150001341104506
30
0
40
1.0999999999999943
210
0
220
-0
230
1
0
LWPOLYLINE
5
103
100
AcDbEntity
8
0
100
AcDbPolyline
90
29
70
1
43
0.0
10
-127.15000099837781
20
64.740001095235371
10
-127.15000099837781
20
64.360001095235347
42
0.41421356237307944
10
-126.15000099837783
20
63.360001095235354
10
-108.15000078976153
20
63.360001095235347
42
0.41421356237309509
10
-107.15000078976153
20
64.360001095235347
10
-107.15000078976153
20
64.740001095235343
42
-0.41421356237309509
10
-106.15000078976153
20
65.740001095235343
10
-89.000001311302185
20
65.740001095235343
42
0.41421356237309509
10
-88.000001311302185
20
66.740001095235343
10
-88.000001311302185
20
69.500001095235348
42
-0.41421356237309509
10
-87.000001311302185
20
70.500001095235348
10
-53.00000074505806
20
70.500001095235348
42
-0.41421356237309936
10
-50.00000074505806
20
67.500001095235348
10
-50.00000074505806
20
53.00000074505806
42
-0.41421356237309936
10
-53.000000745058045
20
50.00000074505806
10
-187.69999573752284
20
50.000000745058067
42
-0.4142135623730942
10
-190.69999573752284
20
53.000000745058067
10
-190.69999573752281
20
148.9565548697652
42
-0.16894333630922054
10
-190.05248132528291
20
150.8182238949631
10
-189.6585493670959
20
151.31601337400036
10
-165.62944465664521
20
132.30027947304282
42
-0.22922909038612926
10
-165.25000099837783
20
131.51611761045612
10
-165.25000099837783
20
69.120001095235352
42
0.41421356237308726
10
-164.2500009983778
20
68.120001095235367
10
-147.20000099837782
20
68.120001095235352
42
-0.41421356237309509
10
-146.20000099837782
20
67.120001095235352
10
-146.20000099837782
20
66.740001095235357
42
0.41421356237309509
10
-145.20000099837782
20
65.740001095235357
10
-128.15000099837783
20
65.740001095235357
42
-0.41421356237308726
0
ENDSEC
0
SECTION
2
OBJECTS
0
DICTIONARY
5
C
100
AcDbDictionary
3
ACAD_GROUP
350
D
3
ACAD_MLINESTYLE
350
17
0
DICTIONARY
5
D
100
AcDbDictionary
0
DICTIONARY
5
1A
330
C
100
AcDbDictionary
0
DICTIONARY
5
17
100
AcDbDictionary
0
ENDSEC
0
EOF
