  0
SECTION
  2
HEADER
  9
$ACADVER
  1
AC1014
  9
$HANDSEED
  5
FFFF
  9
$MEASUREMENT
 70
     1
  0
ENDSEC
  0
SECTION
  2
TABLES
  0
TABLE
  2
VPORT
  5
8
330
0
100
AcDbSymbolTable
 70
     4
  0
VPORT
  5
2E
330
8
100
AcDbSymbolTableRecord
100
AcDbViewportTableRecord
  2
*ACTIVE
 70
     0
 10
0.0
 20
0.0
 11
1.0
 21
1.0
 12
210.0
 22
148.5
 13
0.0
 23
0.0
 14
10.0
 24
10.0
 15
10.0
 25
10.0
 16
0.0
 26
0.0
 36
1.0
 17
0.0
 27
0.0
 37
0.0
 40
341.0
 41
1.24
 42
50.0
 43
0.0
 44
0.0
 50
0.0
 51
0.0
 71
     0
 72
   100
 73
     1
 74
     3
 75
     0
 76
     0
 77
     0
 78
     0
  0
ENDTAB
  0
TABLE
  2
LTYPE
  5
5
330
0
100
AcDbSymbolTable
 70
     1
  0
LTYPE
  5
14
330
5
100
AcDbSymbolTableRecord
100
AcDbLinetypeTableRecord
  2
BYBLOCK
 70
     0
  3

 72
    65
 73
     0
 40
0.0
  0
LTYPE
  5
15
330
5
100
AcDbSymbolTableRecord
100
AcDbLinetypeTableRecord
  2
BYLAYER
 70
     0
  3

 72
    65
 73
     0
 40
0.0
  0
LTYPE
  5
16
330
5
100
AcDbSymbolTableRecord
100
AcDbLinetypeTableRecord
  2
CONTINUOUS
 70
     0
  3
Solid line
 72
    65
 73
     0
 40
0.0
  0
ENDTAB
  0
TABLE
  2
LAYER
  5
2
100
AcDbSymbolTable
 70
1
  0
LAYER
  5
50
100
AcDbSymbolTableRecord
100
AcDbLayerTableRecord
  2
0
 70
0
  6
CONTINUOUS
  0
ENDTAB
  0
TABLE
  2
STYLE
  5
3
330
0
100
AcDbSymbolTable
 70
     1
  0
STYLE
  5
11
330
3
100
AcDbSymbolTableRecord
100
AcDbTextStyleTableRecord
  2
STANDARD
 70
     0
 40
0.0
 41
1.0
 50
0.0
 71
     0
 42
2.5
  3
txt
  4

  0
ENDTAB
  0
TABLE
  2
VIEW
  5
6
330
0
100
AcDbSymbolTable
 70
     0
  0
ENDTAB
  0
TABLE
  2
UCS
  5
7
330
0
100
AcDbSymbolTable
 70
     0
  0
ENDTAB
  0
TABLE
  2
APPID
  5
9
330
0
100
AcDbSymbolTable
 70
     2
  0
APPID
  5
12
330
9
100
AcDbSymbolTableRecord
100
AcDbRegAppTableRecord
  2
ACAD
 70
     0
  0
ENDTAB
  0
TABLE
  2
DIMSTYLE
  5
A
330
0
100
AcDbSymbolTable
 70
     1
  0
DIMSTYLE
105
27
330
A
100
AcDbSymbolTableRecord
100
AcDbDimStyleTableRecord
  2
ISO-25
 70
     0
  3

  4

  5

  6

  7

 40
1.0
 41
2.5
 42
0.625
 43
3.75
 44
1.25
 45
0.0
 46
0.0
 47
0.0
 48
0.0
140
2.5
141
2.5
142
0.0
143
0.03937007874016
144
1.0
145
0.0
146
1.0
147
0.625
 71
     0
 72
     0
 73
     0
 74
     0
 75
     0
 76
     0
 77
     1
 78
     8
170
     0
171
     3
172
     1
173
     0
174
     0
175
     0
176
     0
177
     0
178
     0
270
     2
271
     2
272
     2
273
     2
274
     3
340
11
275
     0
280
     0
281
     0
282
     0
283
     0
284
     8
285
     0
286
     0
287
     3
288
     0
  0
ENDTAB
  0
TABLE
  2
BLOCK_RECORD
  5
1
330
0
100
AcDbSymbolTable
 70
     1
  0
BLOCK_RECORD
  5
1F
330
1
100
AcDbSymbolTableRecord
100
AcDbBlockTableRecord
  2
*MODEL_SPACE
  0
BLOCK_RECORD
  5
1B
330
1
100
AcDbSymbolTableRecord
100
AcDbBlockTableRecord
  2
*PAPER_SPACE
  0
ENDTAB
  0
ENDSEC
  0
SECTION
  2
BLOCKS
  0
BLOCK
  5
20
330
1F
100
AcDbEntity
  8
0
100
AcDbBlockBegin
  2
*MODEL_SPACE
 70
     0
 10
0.0
 20
0.0
 30
0.0
  3
*MODEL_SPACE
  1

  0
ENDBLK
  5
21
330
1F
100
AcDbEntity
  8
0
100
AcDbBlockEnd
  0
BLOCK
  5
1C
330
1B
100
AcDbEntity
 67
     1
  8
0
100
AcDbBlockBegin
  2
*PAPER_SPACE
  1

  0
ENDBLK
  5
1D
330
1B
100
AcDbEntity
 67
     1
  8
0
100
AcDbBlockEnd
  0
ENDSEC
  0
SECTION
  2
ENTITIES
  0
SPLINE
  5
100
100
AcDbEntity
  8
0
 62
7
100
AcDbSpline
 70
8
 71
3
 72
8
 73
4
 74
0
 40
0
 40
0
 40
0
 40
0
 40
1
 40
1
 40
1
 40
1
 10
210.138840
 20
-132.153704
 30
0.0
 10
210.621468
 20
-132.667800
 30
0.0
 10
211.370520
 20
-132.832250
 30
0.0
 10
212.024116
 20
-132.567605
 30
0.0
  0
SPLINE
  5
101
100
AcDbEntity
  8
0
 62
7
100
AcDbSpline
 70
8
 71
3
 72
8
 73
4
 74
0
 40
0
 40
0
 40
0
 40
0
 40
1
 40
1
 40
1
 40
1
 10
212.024116
 20
-132.567605
 30
0.0
 10
212.677711
 20
-132.302961
 30
0.0
 10
213.101331
 20
-131.663690
 30
0.0
 10
213.090319
 20
-130.958634
 30
0.0
  0
LWPOLYLINE
  5
102
100
AcDbEntity
  8
0
 62
7
100
AcDbPolyline
 90
2
 70
0
 10
208.091601
 20
-126.179626
 30
0.0
 10
208.127161
 20
-126.400605
 30
0.0
  0
LWPOLYLINE
  5
103
100
AcDbEntity
  8
0
 62
7
100
AcDbPolyline
 90
2
 70
0
 10
208.104301
 20
-125.956106
 30
0.0
 10
208.091601
 20
-126.179626
 30
0.0
  0
LWPOLYLINE
  5
104
100
AcDbEntity
  8
0
 62
7
100
AcDbPolyline
 90
3
 70
0
 10
212.676299
 20
-33.784611
 30
0.0
 10
212.803299
 20
-34.015751
 30
0.0
 10
212.904899
 20
-34.259591
 30
0.0
  0
LWPOLYLINE
  5
105
100
AcDbEntity
  8
0
 62
7
100
AcDbPolyline
 90
2
 70
0
 10
77.416257
 20
-36.972311
 30
0.0
 10
77.505157
 20
-36.766571
 30
0.0
  0
LWPOLYLINE
  5
106
100
AcDbEntity
  8
0
 62
7
100
AcDbPolyline
 90
2
 70
0
 10
77.286717
 20
-37.152651
 30
0.0
 10
77.416257
 20
-36.972311
 30
0.0
  0
LWPOLYLINE
  5
107
100
AcDbEntity
  8
0
 62
7
100
AcDbPolyline
 90
2
 70
0
 10
188.586946
 20
-114.848689
 30
0.0
 10
210.138840
 20
-132.153704
 30
0.0
  0
LWPOLYLINE
  5
108
100
AcDbEntity
  8
0
 62
7
100
AcDbPolyline
 90
3
 70
0
 10
212.155599
 20
-33.177552
 30
0.0
 10
212.351179
 20
-33.362972
 30
0.0
 10
212.396899
 20
-33.411232
 30
0.0
  0
LWPOLYLINE
  5
109
100
AcDbEntity
  8
0
 62
7
100
AcDbPolyline
 90
2
 70
0
 10
209.356520
 20
-35.763271
 30
0.0
 10
209.138080
 20
-35.707391
 30
0.0
  0
LWPOLYLINE
  5
10a
100
AcDbEntity
  8
0
 62
7
100
AcDbPolyline
 90
2
 70
0
 10
209.554640
 20
-35.867411
 30
0.0
 10
209.356520
 20
-35.763271
 30
0.0
  0
LWPOLYLINE
  5
10b
100
AcDbEntity
  8
0
 62
7
100
AcDbPolyline
 90
3
 70
0
 10
212.396899
 20
-33.411232
 30
0.0
 10
212.526439
 20
-33.566172
 30
0.0
 10
212.676299
 20
-33.784611
 30
0.0
  0
LWPOLYLINE
  5
10c
100
AcDbEntity
  8
0
 62
7
100
AcDbPolyline
 90
2
 70
0
 10
209.379380
 20
-37.665730
 30
0.0
 10
209.580040
 20
-37.553970
 30
0.0
  0
LWPOLYLINE
  5
10d
100
AcDbEntity
  8
0
 62
7
100
AcDbPolyline
 90
2
 70
0
 10
209.811180
 20
-36.111251
 30
0.0
 10
209.712120
 20
-35.994411
 30
0.0
  0
LWPOLYLINE
  5
10e
100
AcDbEntity
  8
0
 62
7
100
AcDbPolyline
 90
3
 70
0
 10
72.427699
 20
-34.597411
 30
0.0
 10
72.483579
 20
-34.348491
 30
0.0
 10
72.562319
 20
-34.112271
 30
0.0
  0
LWPOLYLINE
  5
10f
100
AcDbEntity
  8
0
 62
7
100
AcDbPolyline
 90
3
 70
0
 10
72.783299
 20
-33.667772
 30
0.0
 10
72.925539
 20
-33.464572
 30
0.0
 10
73.083018
 20
-33.276612
 30
0.0
  0
LWPOLYLINE
  5
110
100
AcDbEntity
  8
0
 62
7
100
AcDbPolyline
 90
2
 70
0
 10
210.011840
 20
-36.720851
 30
0.0
 10
209.991520
 20
-36.517651
 30
0.0
  0
LWPOLYLINE
  5
111
100
AcDbEntity
  8
0
 62
7
100
AcDbPolyline
 90
2
 70
0
 10
209.138080
 20
-35.707391
 30
0.0
 10
208.985680
 20
-35.694691
 30
0.0
  0
LWPOLYLINE
  5
112
100
AcDbEntity
  8
0
 62
7
100
AcDbPolyline
 90
3
 70
0
 10
210.514760
 20
-32.575572
 30
0.0
 10
210.715420
 20
-32.583192
 30
0.0
 10
210.977040
 20
-32.618752
 30
0.0
  0
LWPOLYLINE
  5
113
100
AcDbEntity
  8
0
 62
7
100
AcDbPolyline
 90
3
 70
0
 10
211.721260
 20
-32.880372
 30
0.0
 10
211.947320
 20
-33.017532
 30
0.0
 10
212.155599
 20
-33.177552
 30
0.0
  0
LWPOLYLINE
  5
114
100
AcDbEntity
  8
0
 62
7
100
AcDbPolyline
 90
2
 70
0
 10
73.060159
 20
-51.833846
 30
0.0
 10
72.905219
 20
-51.640806
 30
0.0
  0
LWPOLYLINE
  5
115
100
AcDbEntity
  8
0
 62
7
100
AcDbPolyline
 90
2
 70
0
 10
111.495428
 20
-48.427707
 30
0.0
 10
111.543688
 20
-48.209267
 30
0.0
  0
LWPOLYLINE
  5
116
100
AcDbEntity
  8
0
 62
7
100
AcDbPolyline
 90
2
 70
0
 10
111.495428
 20
-52.176746
 30
0.0
 10
111.495428
 20
-48.427707
 30
0.0
  0
LWPOLYLINE
  5
117
100
AcDbEntity
  8
0
 62
7
100
AcDbPolyline
 90
3
 70
0
 10
211.947320
 20
-33.017532
 30
0.0
 10
212.155599
 20
-33.180092
 30
0.0
 10
212.302919
 20
-33.314712
 30
0.0
  0
LWPOLYLINE
  5
118
100
AcDbEntity
  8
0
 62
7
100
AcDbPolyline
 90
5
 70
0
 10
73.083018
 20
-33.276612
 30
0.0
 10
73.260818
 20
-33.103892
 30
0.0
 10
73.451318
 20
-32.948952
 30
0.0
 10
73.657058
 20
-32.811792
 30
0.0
 10
73.878038
 20
-32.694952
 30
0.0
  0
LWPOLYLINE
  5
119
100
AcDbEntity
  8
0
 62
7
100
AcDbPolyline
 90
3
 70
0
 10
210.977040
 20
-32.618752
 30
0.0
 10
211.233580
 20
-32.679712
 30
0.0
 10
211.482500
 20
-32.768612
 30
0.0
  0
LWPOLYLINE
  5
11a
100
AcDbEntity
  8
0
 62
7
100
AcDbPolyline
 90
2
 70
0
 10
77.545797
 20
-36.543051
 30
0.0
 10
77.550877
 20
-36.466851
 30
0.0
  0
LWPOLYLINE
  5
11b
100
AcDbEntity
  8
0
 62
7
100
AcDbPolyline
 90
2
 70
0
 10
77.505157
 20
-36.766571
 30
0.0
 10
77.545797
 20
-36.543051
 30
0.0
  0
LWPOLYLINE
  5
11c
100
AcDbEntity
  8
0
 62
7
100
AcDbPolyline
 90
2
 70
0
 10
75.069298
 20
-52.702526
 30
0.0
 10
110.995048
 20
-52.677126
 30
0.0
  0
LWPOLYLINE
  5
11d
100
AcDbEntity
  8
0
 62
7
100
AcDbPolyline
 90
2
 70
0
 10
111.871348
 20
-47.942568
 30
0.0
 10
111.995808
 20
-47.927328
 30
0.0
  0
LWPOLYLINE
  5
11e
100
AcDbEntity
  8
0
 62
7
100
AcDbPolyline
 90
2
 70
0
 10
212.302919
 20
-33.314712
 30
0.0
 10
212.396899
 20
-33.411232
 30
0.0
  0
LWPOLYLINE
  5
11f
100
AcDbEntity
  8
0
 62
7
100
AcDbPolyline
 90
2
 70
0
 10
208.167801
 20
-125.735126
 30
0.0
 10
208.104301
 20
-125.956106
 30
0.0
  0
LWPOLYLINE
  5
120
100
AcDbEntity
  8
0
 62
7
100
AcDbPolyline
 90
3
 70
0
 10
74.350478
 20
-32.524772
 30
0.0
 10
74.604478
 20
-32.473972
 30
0.0
 10
74.866098
 20
-32.448572
 30
0.0
  0
LWPOLYLINE
  5
121
100
AcDbEntity
  8
0
 62
7
100
AcDbPolyline
 90
3
 70
0
 10
73.878038
 20
-32.694952
 30
0.0
 10
74.109178
 20
-32.598432
 30
0.0
 10
74.350478
 20
-32.524772
 30
0.0
  0
LWPOLYLINE
  5
122
100
AcDbEntity
  8
0
 62
7
100
AcDbPolyline
 90
3
 70
0
 10
211.233580
 20
-32.679712
 30
0.0
 10
211.482500
 20
-32.768612
 30
0.0
 10
211.721260
 20
-32.880372
 30
0.0
  0
LWPOLYLINE
  5
123
100
AcDbEntity
  8
0
 62
7
100
AcDbPolyline
 90
3
 70
0
 10
72.562319
 20
-34.112271
 30
0.0
 10
72.663919
 20
-33.883671
 30
0.0
 10
72.783299
 20
-33.667772
 30
0.0
  0
LWPOLYLINE
  5
124
100
AcDbEntity
  8
0
 62
7
100
AcDbPolyline
 90
3
 70
0
 10
211.482500
 20
-32.768612
 30
0.0
 10
211.721260
 20
-32.880372
 30
0.0
 10
211.947320
 20
-33.017532
 30
0.0
  0
LWPOLYLINE
  5
125
100
AcDbEntity
  8
0
 62
7
100
AcDbPolyline
 90
2
 70
0
 10
111.675768
 20
-48.041627
 30
0.0
 10
111.871348
 20
-47.942568
 30
0.0
  0
LWPOLYLINE
  5
126
100
AcDbEntity
  8
0
 62
7
100
AcDbPolyline
 90
2
 70
0
 10
111.543688
 20
-48.209267
 30
0.0
 10
111.675768
 20
-48.041627
 30
0.0
  0
LWPOLYLINE
  5
127
100
AcDbEntity
  8
0
 62
7
100
AcDbPolyline
 90
2
 70
0
 10
209.922940
 20
-36.304291
 30
0.0
 10
209.811180
 20
-36.111251
 30
0.0
  0
LWPOLYLINE
  5
128
100
AcDbEntity
  8
0
 62
7
100
AcDbPolyline
 90
2
 70
0
 10
209.991520
 20
-36.517651
 30
0.0
 10
209.922940
 20
-36.304291
 30
0.0
  0
LWPOLYLINE
  5
129
100
AcDbEntity
  8
0
 62
7
100
AcDbPolyline
 90
2
 70
0
 10
77.119077
 20
-37.299970
 30
0.0
 10
77.286717
 20
-37.152651
 30
0.0
  0
LWPOLYLINE
  5
12a
100
AcDbEntity
  8
0
 62
7
100
AcDbPolyline
 90
2
 70
0
 10
76.918417
 20
-37.411730
 30
0.0
 10
77.119077
 20
-37.299970
 30
0.0
  0
LWPOLYLINE
  5
12b
100
AcDbEntity
  8
0
 62
7
100
AcDbPolyline
 90
3
 70
0
 10
72.389599
 20
-35.113031
 30
0.0
 10
72.394679
 20
-34.851411
 30
0.0
 10
72.427699
 20
-34.597411
 30
0.0
  0
LWPOLYLINE
  5
12c
100
AcDbEntity
  8
0
 62
7
100
AcDbPolyline
 90
2
 70
0
 10
208.988220
 20
-127.144825
 30
0.0
 10
209.211740
 20
-127.147365
 30
0.0
  0
LWPOLYLINE
  5
12d
100
AcDbEntity
  8
0
 62
7
100
AcDbPolyline
 90
2
 70
0
 10
208.769780
 20
-127.091485
 30
0.0
 10
208.988220
 20
-127.144825
 30
0.0
  0
LWPOLYLINE
  5
12e
100
AcDbEntity
  8
0
 62
7
100
AcDbPolyline
 90
2
 70
0
 10
209.432720
 20
-127.099105
 30
0.0
 10
209.506380
 20
-127.073705
 30
0.0
  0
LWPOLYLINE
  5
12f
100
AcDbEntity
  8
0
 62
7
100
AcDbPolyline
 90
2
 70
0
 10
209.211740
 20
-127.147365
 30
0.0
 10
209.432720
 20
-127.099105
 30
0.0
  0
LWPOLYLINE
  5
130
100
AcDbEntity
  8
0
 62
7
100
AcDbPolyline
 90
3
 70
0
 10
72.427699
 20
-34.597411
 30
0.0
 10
72.483579
 20
-34.348491
 30
0.0
 10
72.562319
 20
-34.112271
 30
0.0
  0
LWPOLYLINE
  5
131
100
AcDbEntity
  8
0
 62
7
100
AcDbPolyline
 90
2
 70
0
 10
209.712120
 20
-35.994411
 30
0.0
 10
209.554640
 20
-35.867411
 30
0.0
  0
LWPOLYLINE
  5
132
100
AcDbEntity
  8
0
 62
7
100
AcDbPolyline
 90
3
 70
0
 10
72.562319
 20
-34.112271
 30
0.0
 10
72.663919
 20
-33.883671
 30
0.0
 10
72.783299
 20
-33.667772
 30
0.0
  0
LWPOLYLINE
  5
133
100
AcDbEntity
  8
0
 62
7
100
AcDbPolyline
 90
2
 70
0
 10
76.181818
 20
-37.429510
 30
0.0
 10
76.400258
 20
-37.482850
 30
0.0
  0
LWPOLYLINE
  5
134
100
AcDbEntity
  8
0
 62
7
100
AcDbPolyline
 90
2
 70
0
 10
75.981158
 20
-37.332990
 30
0.0
 10
76.181818
 20
-37.429510
 30
0.0
  0
LWPOLYLINE
  5
135
100
AcDbEntity
  8
0
 62
7
100
AcDbPolyline
 90
2
 70
0
 10
75.800818
 20
-37.190751
 30
0.0
 10
75.981158
 20
-37.332990
 30
0.0
  0
LWPOLYLINE
  5
136
100
AcDbEntity
  8
0
 62
7
100
AcDbPolyline
 90
2
 70
0
 10
208.208441
 20
-126.606345
 30
0.0
 10
208.337981
 20
-126.794305
 30
0.0
  0
LWPOLYLINE
  5
137
100
AcDbEntity
  8
0
 62
7
100
AcDbPolyline
 90
2
 70
0
 10
208.127161
 20
-126.400605
 30
0.0
 10
208.208441
 20
-126.606345
 30
0.0
  0
LWPOLYLINE
  5
138
100
AcDbEntity
  8
0
 62
7
100
AcDbPolyline
 90
2
 70
0
 10
76.844757
 20
-37.437130
 30
0.0
 10
76.918417
 20
-37.411730
 30
0.0
  0
LWPOLYLINE
  5
139
100
AcDbEntity
  8
0
 62
7
100
AcDbPolyline
 90
2
 70
0
 10
76.623778
 20
-37.485390
 30
0.0
 10
76.844757
 20
-37.437130
 30
0.0
  0
LWPOLYLINE
  5
13a
100
AcDbEntity
  8
0
 62
7
100
AcDbPolyline
 90
2
 70
0
 10
76.400258
 20
-37.482850
 30
0.0
 10
76.623778
 20
-37.485390
 30
0.0
  0
LWPOLYLINE
  5
13b
100
AcDbEntity
  8
0
 62
7
100
AcDbPolyline
 90
3
 70
0
 10
72.389599
 20
-35.113031
 30
0.0
 10
72.394679
 20
-34.851411
 30
0.0
 10
72.427699
 20
-34.597411
 30
0.0
  0
LWPOLYLINE
  5
13c
100
AcDbEntity
  8
0
 62
7
100
AcDbPolyline
 90
2
 70
0
 10
111.995808
 20
-47.927328
 30
0.0
 10
129.996783
 20
-47.927328
 30
0.0
  0
LWPOLYLINE
  5
13d
100
AcDbEntity
  8
0
 62
7
100
AcDbPolyline
 90
2
 70
0
 10
130.870542
 20
-45.692128
 30
0.0
 10
130.995002
 20
-45.676888
 30
0.0
  0
LWPOLYLINE
  5
13e
100
AcDbEntity
  8
0
 62
7
100
AcDbPolyline
 90
3
 70
0
 10
213.052219
 20
-35.034291
 30
0.0
 10
213.049679
 20
-35.234951
 30
0.0
 10
213.042059
 20
-35.367031
 30
0.0
  0
LWPOLYLINE
  5
13f
100
AcDbEntity
  8
0
 62
7
100
AcDbPolyline
 90
2
 70
0
 10
76.677117
 20
-35.453391
 30
0.0
 10
76.524718
 20
-35.440691
 30
0.0
  0
LWPOLYLINE
  5
140
100
AcDbEntity
  8
0
 62
7
100
AcDbPolyline
 90
2
 70
0
 10
76.895557
 20
-35.509271
 30
0.0
 10
76.677117
 20
-35.453391
 30
0.0
  0
LWPOLYLINE
  5
141
100
AcDbEntity
  8
0
 62
7
100
AcDbPolyline
 90
3
 70
0
 10
73.420838
 20
-52.166586
 30
0.0
 10
73.232878
 20
-52.009106
 30
0.0
 10
73.060159
 20
-51.833846
 30
0.0
  0
LWPOLYLINE
  5
142
100
AcDbEntity
  8
0
 62
7
100
AcDbPolyline
 90
2
 70
0
 10
209.112680
 20
-125.102666
 30
0.0
 10
208.886620
 20
-125.128066
 30
0.0
  0
LWPOLYLINE
  5
143
100
AcDbEntity
  8
0
 62
7
100
AcDbPolyline
 90
2
 70
0
 10
208.337981
 20
-126.794305
 30
0.0
 10
208.388781
 20
-126.852725
 30
0.0
  0
LWPOLYLINE
  5
144
100
AcDbEntity
  8
0
 62
7
100
AcDbPolyline
 90
2
 70
0
 10
130.677502
 20
-45.791188
 30
0.0
 10
130.870542
 20
-45.692128
 30
0.0
  0
LWPOLYLINE
  5
145
100
AcDbEntity
  8
0
 62
7
100
AcDbPolyline
 90
2
 70
0
 10
210.006760
 20
-36.797051
 30
0.0
 10
210.011840
 20
-36.720851
 30
0.0
  0
LWPOLYLINE
  5
146
100
AcDbEntity
  8
0
 62
7
100
AcDbPolyline
 90
2
 70
0
 10
77.530557
 20
-36.263651
 30
0.0
 10
77.461977
 20
-36.050291
 30
0.0
  0
LWPOLYLINE
  5
147
100
AcDbEntity
  8
0
 62
7
100
AcDbPolyline
 90
2
 70
0
 10
77.550877
 20
-36.466851
 30
0.0
 10
77.530557
 20
-36.263651
 30
0.0
  0
LWPOLYLINE
  5
148
100
AcDbEntity
  8
0
 62
7
100
AcDbPolyline
 90
3
 70
0
 10
212.981099
 20
-34.511051
 30
0.0
 10
213.029359
 20
-34.770131
 30
0.0
 10
213.052219
 20
-35.034291
 30
0.0
  0
LWPOLYLINE
  5
149
100
AcDbEntity
  8
0
 62
7
100
AcDbPolyline
 90
2
 70
0
 10
77.093677
 20
-35.613411
 30
0.0
 10
76.895557
 20
-35.509271
 30
0.0
  0
LWPOLYLINE
  5
14a
100
AcDbEntity
  8
0
 62
7
100
AcDbPolyline
 90
2
 70
0
 10
77.251157
 20
-35.740411
 30
0.0
 10
77.093677
 20
-35.613411
 30
0.0
  0
LWPOLYLINE
  5
14b
100
AcDbEntity
  8
0
 62
7
100
AcDbPolyline
 90
2
 70
0
 10
209.966120
 20
-37.020571
 30
0.0
 10
210.006760
 20
-36.797051
 30
0.0
  0
LWPOLYLINE
  5
14c
100
AcDbEntity
  8
0
 62
7
100
AcDbPolyline
 90
2
 70
0
 10
209.877220
 20
-37.226311
 30
0.0
 10
209.966120
 20
-37.020571
 30
0.0
  0
LWPOLYLINE
  5
14d
100
AcDbEntity
  8
0
 62
7
100
AcDbPolyline
 90
2
 70
0
 10
209.747680
 20
-37.406650
 30
0.0
 10
209.877220
 20
-37.226311
 30
0.0
  0
LWPOLYLINE
  5
14e
100
AcDbEntity
  8
0
 62
7
100
AcDbPolyline
 90
2
 70
0
 10
209.580040
 20
-37.553970
 30
0.0
 10
209.747680
 20
-37.406650
 30
0.0
  0
LWPOLYLINE
  5
14f
100
AcDbEntity
  8
0
 62
7
100
AcDbPolyline
 90
2
 70
0
 10
77.350217
 20
-35.857251
 30
0.0
 10
77.251157
 20
-35.740411
 30
0.0
  0
LWPOLYLINE
  5
150
100
AcDbEntity
  8
0
 62
7
100
AcDbPolyline
 90
2
 70
0
 10
77.461977
 20
-36.050291
 30
0.0
 10
77.350217
 20
-35.857251
 30
0.0
  0
LWPOLYLINE
  5
151
100
AcDbEntity
  8
0
 62
7
100
AcDbPolyline
 90
2
 70
0
 10
72.430239
 20
-50.487647
 30
0.0
 10
72.402299
 20
-50.228567
 30
0.0
  0
LWPOLYLINE
  5
152
100
AcDbEntity
  8
0
 62
7
100
AcDbPolyline
 90
2
 70
0
 10
130.382862
 20
-47.744448
 30
0.0
 10
130.479382
 20
-47.551408
 30
0.0
  0
LWPOLYLINE
  5
153
100
AcDbEntity
  8
0
 62
7
100
AcDbPolyline
 90
2
 70
0
 10
167.680212
 20
-50.312387
 30
0.0
 10
167.873252
 20
-50.411447
 30
0.0
  0
LWPOLYLINE
  5
154
100
AcDbEntity
  8
0
 62
7
100
AcDbPolyline
 90
2
 70
0
 10
167.548132
 20
-50.144747
 30
0.0
 10
167.680212
 20
-50.312387
 30
0.0
  0
LWPOLYLINE
  5
155
100
AcDbEntity
  8
0
 62
7
100
AcDbPolyline
 90
2
 70
0
 10
208.442121
 20
-37.586990
 30
0.0
 10
208.642780
 20
-37.683510
 30
0.0
  0
LWPOLYLINE
  5
156
100
AcDbEntity
  8
0
 62
7
100
AcDbPolyline
 90
2
 70
0
 10
208.261781
 20
-37.444750
 30
0.0
 10
208.442121
 20
-37.586990
 30
0.0
  0
LWPOLYLINE
  5
157
100
AcDbEntity
  8
0
 62
7
100
AcDbPolyline
 90
2
 70
0
 10
167.499872
 20
-49.926307
 30
0.0
 10
167.548132
 20
-50.144747
 30
0.0
  0
LWPOLYLINE
  5
158
100
AcDbEntity
  8
0
 62
7
100
AcDbPolyline
 90
2
 70
0
 10
167.499872
 20
-48.427707
 30
0.0
 10
167.499872
 20
-49.926307
 30
0.0
  0
LWPOLYLINE
  5
159
100
AcDbEntity
  8
0
 62
7
100
AcDbPolyline
 90
2
 70
0
 10
111.381128
 20
-52.494246
 30
0.0
 10
111.480188
 20
-52.301206
 30
0.0
  0
LWPOLYLINE
  5
15a
100
AcDbEntity
  8
0
 62
7
100
AcDbPolyline
 90
2
 70
0
 10
111.210948
 20
-52.628866
 30
0.0
 10
111.381128
 20
-52.494246
 30
0.0
  0
LWPOLYLINE
  5
15b
100
AcDbEntity
  8
0
 62
7
100
AcDbPolyline
 90
2
 70
0
 10
75.503638
 20
-36.517651
 30
0.0
 10
75.539198
 20
-36.738631
 30
0.0
  0
LWPOLYLINE
  5
15c
100
AcDbEntity
  8
0
 62
7
100
AcDbPolyline
 90
2
 70
0
 10
75.516338
 20
-36.294131
 30
0.0
 10
75.503638
 20
-36.517651
 30
0.0
  0
LWPOLYLINE
  5
15d
100
AcDbEntity
  8
0
 62
7
100
AcDbPolyline
 90
2
 70
0
 10
75.579838
 20
-36.073151
 30
0.0
 10
75.516338
 20
-36.294131
 30
0.0
  0
LWPOLYLINE
  5
15e
100
AcDbEntity
  8
0
 62
7
100
AcDbPolyline
 90
2
 70
0
 10
208.673260
 20
-125.201726
 30
0.0
 10
208.485301
 20
-125.318566
 30
0.0
  0
LWPOLYLINE
  5
15f
100
AcDbEntity
  8
0
 62
7
100
AcDbPolyline
 90
2
 70
0
 10
208.886620
 20
-125.128066
 30
0.0
 10
208.673260
 20
-125.201726
 30
0.0
  0
LWPOLYLINE
  5
160
100
AcDbEntity
  8
0
 62
7
100
AcDbPolyline
 90
2
 70
0
 10
75.750018
 20
-37.132331
 30
0.0
 10
75.800818
 20
-37.190751
 30
0.0
  0
LWPOLYLINE
  5
161
100
AcDbEntity
  8
0
 62
7
100
AcDbPolyline
 90
2
 70
0
 10
75.620478
 20
-36.944371
 30
0.0
 10
75.750018
 20
-37.132331
 30
0.0
  0
LWPOLYLINE
  5
162
100
AcDbEntity
  8
0
 62
7
100
AcDbPolyline
 90
2
 70
0
 10
75.539198
 20
-36.738631
 30
0.0
 10
75.620478
 20
-36.944371
 30
0.0
  0
LWPOLYLINE
  5
163
100
AcDbEntity
  8
0
 62
7
100
AcDbPolyline
 90
2
 70
0
 10
148.998517
 20
-47.927328
 30
0.0
 10
166.999492
 20
-47.927328
 30
0.0
  0
LWPOLYLINE
  5
164
100
AcDbEntity
  8
0
 62
7
100
AcDbPolyline
 90
2
 70
0
 10
167.873252
 20
-50.411447
 30
0.0
 10
167.997712
 20
-50.426687
 30
0.0
  0
LWPOLYLINE
  5
165
100
AcDbEntity
  8
0
 62
7
100
AcDbPolyline
 90
2
 70
0
 10
76.085298
 20
-35.539751
 30
0.0
 10
75.897338
 20
-35.656591
 30
0.0
  0
LWPOLYLINE
  5
166
100
AcDbEntity
  8
0
 62
7
100
AcDbPolyline
 90
2
 70
0
 10
76.298658
 20
-35.466091
 30
0.0
 10
76.085298
 20
-35.539751
 30
0.0
  0
LWPOLYLINE
  5
167
100
AcDbEntity
  8
0
 62
7
100
AcDbPolyline
 90
2
 70
0
 10
76.524718
 20
-35.440691
 30
0.0
 10
76.298658
 20
-35.466091
 30
0.0
  0
LWPOLYLINE
  5
168
100
AcDbEntity
  8
0
 62
7
100
AcDbPolyline
 90
2
 70
0
 10
110.995048
 20
-52.677126
 30
0.0
 10
111.210948
 20
-52.628866
 30
0.0
  0
LWPOLYLINE
  5
169
100
AcDbEntity
  8
0
 62
7
100
AcDbPolyline
 90
2
 70
0
 10
208.861220
 20
-37.736850
 30
0.0
 10
209.084740
 20
-37.739390
 30
0.0
  0
LWPOLYLINE
  5
16a
100
AcDbEntity
  8
0
 62
7
100
AcDbPolyline
 90
2
 70
0
 10
208.642780
 20
-37.683510
 30
0.0
 10
208.861220
 20
-37.736850
 30
0.0
  0
LWPOLYLINE
  5
16b
100
AcDbEntity
  8
0
 62
7
100
AcDbPolyline
 90
2
 70
0
 10
130.212682
 20
-47.876528
 30
0.0
 10
130.382862
 20
-47.744448
 30
0.0
  0
LWPOLYLINE
  5
16c
100
AcDbEntity
  8
0
 62
7
100
AcDbPolyline
 90
2
 70
0
 10
129.996783
 20
-47.927328
 30
0.0
 10
130.212682
 20
-47.876528
 30
0.0
  0
LWPOLYLINE
  5
16d
100
AcDbEntity
  8
0
 62
7
100
AcDbPolyline
 90
2
 70
0
 10
111.480188
 20
-52.301206
 30
0.0
 10
111.495428
 20
-52.176746
 30
0.0
  0
LWPOLYLINE
  5
16e
100
AcDbEntity
  8
0
 62
7
100
AcDbPolyline
 90
2
 70
0
 10
167.215392
 20
-47.975587
 30
0.0
 10
167.385572
 20
-48.107667
 30
0.0
  0
LWPOLYLINE
  5
16f
100
AcDbEntity
  8
0
 62
7
100
AcDbPolyline
 90
2
 70
0
 10
166.999492
 20
-47.927328
 30
0.0
 10
167.215392
 20
-47.975587
 30
0.0
  0
LWPOLYLINE
  5
170
100
AcDbEntity
  8
0
 62
7
100
AcDbPolyline
 90
2
 70
0
 10
167.997712
 20
-50.426687
 30
0.0
 10
186.935947
 20
-50.459707
 30
0.0
  0
LWPOLYLINE
  5
171
100
AcDbEntity
  8
0
 62
7
100
AcDbPolyline
 90
2
 70
0
 10
187.443946
 20
-50.967707
 30
0.0
 10
187.443946
 20
-112.816689
 30
0.0
  0
LWPOLYLINE
  5
172
100
AcDbEntity
  8
0
 62
7
100
AcDbPolyline
 90
2
 70
0
 10
212.904899
 20
-34.259591
 30
0.0
 10
212.981099
 20
-34.511051
 30
0.0
  0
LWPOLYLINE
  5
173
100
AcDbEntity
  8
0
 62
7
100
AcDbPolyline
 90
2
 70
0
 10
167.482092
 20
-48.300707
 30
0.0
 10
167.499872
 20
-48.427707
 30
0.0
  0
LWPOLYLINE
  5
174
100
AcDbEntity
  8
0
 62
7
100
AcDbPolyline
 90
2
 70
0
 10
167.385572
 20
-48.107667
 30
0.0
 10
167.482092
 20
-48.300707
 30
0.0
  0
LWPOLYLINE
  5
175
100
AcDbEntity
  8
0
 62
7
100
AcDbPolyline
 90
2
 70
0
 10
130.995002
 20
-45.676888
 30
0.0
 10
147.997757
 20
-45.676888
 30
0.0
  0
LWPOLYLINE
  5
176
100
AcDbEntity
  8
0
 62
7
100
AcDbPolyline
 90
2
 70
0
 10
148.871517
 20
-47.909548
 30
0.0
 10
148.998517
 20
-47.927328
 30
0.0
  0
LWPOLYLINE
  5
177
100
AcDbEntity
  8
0
 62
7
100
AcDbPolyline
 90
2
 70
0
 10
208.000161
 20
-36.992631
 30
0.0
 10
208.081441
 20
-37.198371
 30
0.0
  0
LWPOLYLINE
  5
178
100
AcDbEntity
  8
0
 62
7
100
AcDbPolyline
 90
2
 70
0
 10
207.964601
 20
-36.771651
 30
0.0
 10
208.000161
 20
-36.992631
 30
0.0
  0
LWPOLYLINE
  5
179
100
AcDbEntity
  8
0
 62
7
100
AcDbPolyline
 90
3
 70
0
 10
74.350478
 20
-32.524772
 30
0.0
 10
74.604478
 20
-32.473972
 30
0.0
 10
74.863558
 20
-32.448572
 30
0.0
  0
LWPOLYLINE
  5
17a
100
AcDbEntity
  8
0
 62
7
100
AcDbPolyline
 90
2
 70
0
 10
72.394679
 20
-35.125731
 30
0.0
 10
72.402299
 20
-50.228567
 30
0.0
  0
LWPOLYLINE
  5
17b
100
AcDbEntity
  8
0
 62
7
100
AcDbPolyline
 90
2
 70
0
 10
210.514760
 20
-32.575572
 30
0.0
 10
74.866098
 20
-32.448572
 30
0.0
  0
LWPOLYLINE
  5
17c
100
AcDbEntity
  8
0
 62
7
100
AcDbPolyline
 90
3
 70
0
 10
75.069298
 20
-52.702526
 30
0.0
 10
74.807678
 20
-52.697446
 30
0.0
 10
74.551138
 20
-52.664426
 30
0.0
  0
LWPOLYLINE
  5
17d
100
AcDbEntity
  8
0
 62
7
100
AcDbPolyline
 90
2
 70
0
 10
208.200821
 20
-125.666546
 30
0.0
 10
208.167801
 20
-125.735126
 30
0.0
  0
LWPOLYLINE
  5
17e
100
AcDbEntity
  8
0
 62
7
100
AcDbPolyline
 90
2
 70
0
 10
148.480357
 20
-46.050268
 30
0.0
 10
148.498137
 20
-46.177268
 30
0.0
  0
LWPOLYLINE
  5
17f
100
AcDbEntity
  8
0
 62
7
100
AcDbPolyline
 90
2
 70
0
 10
148.383837
 20
-45.857228
 30
0.0
 10
148.480357
 20
-46.050268
 30
0.0
  0
LWPOLYLINE
  5
180
100
AcDbEntity
  8
0
 62
7
100
AcDbPolyline
 90
2
 70
0
 10
212.396899
 20
-33.411232
 30
0.0
 10
212.526439
 20
-33.566172
 30
0.0
  0
LWPOLYLINE
  5
181
100
AcDbEntity
  8
0
 62
7
100
AcDbPolyline
 90
2
 70
0
 10
209.938180
 20
-125.519226
 30
0.0
 10
209.839120
 20
-125.402386
 30
0.0
  0
LWPOLYLINE
  5
182
100
AcDbEntity
  8
0
 62
7
100
AcDbPolyline
 90
2
 70
0
 10
210.049940
 20
-125.712266
 30
0.0
 10
209.938180
 20
-125.519226
 30
0.0
  0
LWPOLYLINE
  5
183
100
AcDbEntity
  8
0
 62
7
100
AcDbPolyline
 90
3
 70
0
 10
72.783299
 20
-33.667772
 30
0.0
 10
72.925539
 20
-33.464572
 30
0.0
 10
73.083018
 20
-33.276612
 30
0.0
  0
LWPOLYLINE
  5
184
100
AcDbEntity
  8
0
 62
7
100
AcDbPolyline
 90
2
 70
0
 10
130.497162
 20
-46.177268
 30
0.0
 10
130.545422
 20
-45.958828
 30
0.0
  0
LWPOLYLINE
  5
185
100
AcDbEntity
  8
0
 62
7
100
AcDbPolyline
 90
2
 70
0
 10
130.497162
 20
-47.426948
 30
0.0
 10
130.497162
 20
-46.177268
 30
0.0
  0
LWPOLYLINE
  5
186
100
AcDbEntity
  8
0
 62
7
100
AcDbPolyline
 90
3
 70
0
 10
187.294086
 20
-50.607027
 30
0.0
 10
187.408386
 20
-50.782287
 30
0.0
 10
187.443946
 20
-50.967707
 30
0.0
  0
LWPOLYLINE
  5
187
100
AcDbEntity
  8
0
 62
7
100
AcDbPolyline
 90
3
 70
0
 10
186.935947
 20
-50.459707
 30
0.0
 10
187.141686
 20
-50.502887
 30
0.0
 10
187.294086
 20
-50.607027
 30
0.0
  0
LWPOLYLINE
  5
188
100
AcDbEntity
  8
0
 62
7
100
AcDbPolyline
 90
2
 70
0
 10
187.443946
 20
-112.816689
 30
0.0
 10
187.469346
 20
-113.052909
 30
0.0
  0
LWPOLYLINE
  5
189
100
AcDbEntity
  8
0
 62
7
100
AcDbPolyline
 90
2
 70
0
 10
187.512526
 20
-113.281509
 30
0.0
 10
187.573486
 20
-113.505029
 30
0.0
  0
LWPOLYLINE
  5
18a
100
AcDbEntity
  8
0
 62
7
100
AcDbPolyline
 90
2
 70
0
 10
187.469346
 20
-113.052909
 30
0.0
 10
187.512526
 20
-113.281509
 30
0.0
  0
LWPOLYLINE
  5
18b
100
AcDbEntity
  8
0
 62
7
100
AcDbPolyline
 90
2
 70
0
 10
187.652226
 20
-113.718389
 30
0.0
 10
187.748746
 20
-113.921589
 30
0.0
  0
LWPOLYLINE
  5
18c
100
AcDbEntity
  8
0
 62
7
100
AcDbPolyline
 90
2
 70
0
 10
187.573486
 20
-113.505029
 30
0.0
 10
187.652226
 20
-113.718389
 30
0.0
  0
LWPOLYLINE
  5
18d
100
AcDbEntity
  8
0
 62
7
100
AcDbPolyline
 90
2
 70
0
 10
209.265080
 20
-125.115366
 30
0.0
 10
209.112680
 20
-125.102666
 30
0.0
  0
LWPOLYLINE
  5
18e
100
AcDbEntity
  8
0
 62
7
100
AcDbPolyline
 90
2
 70
0
 10
209.483520
 20
-125.171246
 30
0.0
 10
209.265080
 20
-125.115366
 30
0.0
  0
LWPOLYLINE
  5
18f
100
AcDbEntity
  8
0
 62
7
100
AcDbPolyline
 90
2
 70
0
 10
212.904899
 20
-34.259591
 30
0.0
 10
212.981099
 20
-34.511051
 30
0.0
  0
LWPOLYLINE
  5
190
100
AcDbEntity
  8
0
 62
7
100
AcDbPolyline
 90
4
 70
0
 10
210.514760
 20
-32.575572
 30
0.0
 10
210.715420
 20
-32.583192
 30
0.0
 10
210.977040
 20
-32.618752
 30
0.0
 10
211.233580
 20
-32.679712
 30
0.0
  0
LWPOLYLINE
  5
191
100
AcDbEntity
  8
0
 62
7
100
AcDbPolyline
 90
2
 70
0
 10
148.213657
 20
-45.725148
 30
0.0
 10
148.383837
 20
-45.857228
 30
0.0
  0
LWPOLYLINE
  5
192
100
AcDbEntity
  8
0
 62
7
100
AcDbPolyline
 90
2
 70
0
 10
147.997757
 20
-45.676888
 30
0.0
 10
148.213657
 20
-45.725148
 30
0.0
  0
LWPOLYLINE
  5
193
100
AcDbEntity
  8
0
 62
7
100
AcDbPolyline
 90
2
 70
0
 10
213.044599
 20
-35.367031
 30
0.0
 10
213.090319
 20
-130.957364
 30
0.0
  0
LWPOLYLINE
  5
194
100
AcDbEntity
  8
0
 62
7
100
AcDbPolyline
 90
2
 70
0
 10
74.551138
 20
-52.664426
 30
0.0
 10
74.304758
 20
-52.608546
 30
0.0
  0
LWPOLYLINE
  5
195
100
AcDbEntity
  8
0
 62
7
100
AcDbPolyline
 90
2
 70
0
 10
210.118520
 20
-125.925626
 30
0.0
 10
210.049940
 20
-125.712266
 30
0.0
  0
LWPOLYLINE
  5
196
100
AcDbEntity
  8
0
 62
7
100
AcDbPolyline
 90
2
 70
0
 10
210.138840
 20
-126.128826
 30
0.0
 10
210.118520
 20
-125.925626
 30
0.0
  0
LWPOLYLINE
  5
197
100
AcDbEntity
  8
0
 62
7
100
AcDbPolyline
 90
2
 70
0
 10
208.358301
 20
-35.910591
 30
0.0
 10
208.198281
 20
-36.068071
 30
0.0
  0
LWPOLYLINE
  5
198
100
AcDbEntity
  8
0
 62
7
100
AcDbPolyline
 90
2
 70
0
 10
208.546260
 20
-35.793751
 30
0.0
 10
208.358301
 20
-35.910591
 30
0.0
  0
LWPOLYLINE
  5
199
100
AcDbEntity
  8
0
 62
7
100
AcDbPolyline
 90
3
 70
0
 10
73.083018
 20
-33.276612
 30
0.0
 10
73.258278
 20
-33.106432
 30
0.0
 10
73.451318
 20
-32.948952
 30
0.0
  0
LWPOLYLINE
  5
19a
100
AcDbEntity
  8
0
 62
7
100
AcDbPolyline
 90
2
 70
0
 10
208.759620
 20
-35.720091
 30
0.0
 10
208.546260
 20
-35.793751
 30
0.0
  0
LWPOLYLINE
  5
19b
100
AcDbEntity
  8
0
 62
7
100
AcDbPolyline
 90
2
 70
0
 10
208.985680
 20
-35.694691
 30
0.0
 10
208.759620
 20
-35.720091
 30
0.0
  0
LWPOLYLINE
  5
19c
100
AcDbEntity
  8
0
 62
7
100
AcDbPolyline
 90
2
 70
0
 10
208.073821
 20
-36.258571
 30
0.0
 10
208.040801
 20
-36.327151
 30
0.0
  0
LWPOLYLINE
  5
19d
100
AcDbEntity
  8
0
 62
7
100
AcDbPolyline
 90
2
 70
0
 10
208.198281
 20
-36.068071
 30
0.0
 10
208.073821
 20
-36.258571
 30
0.0
  0
LWPOLYLINE
  5
19e
100
AcDbEntity
  8
0
 62
7
100
AcDbPolyline
 90
3
 70
0
 10
73.451318
 20
-32.948952
 30
0.0
 10
73.657058
 20
-32.814332
 30
0.0
 10
73.875498
 20
-32.694952
 30
0.0
  0
LWPOLYLINE
  5
19f
100
AcDbEntity
  8
0
 62
7
100
AcDbPolyline
 90
2
 70
0
 10
208.325281
 20
-125.476046
 30
0.0
 10
208.200821
 20
-125.666546
 30
0.0
  0
LWPOLYLINE
  5
1a0
100
AcDbEntity
  8
0
 62
7
100
AcDbPolyline
 90
2
 70
0
 10
208.485301
 20
-125.318566
 30
0.0
 10
208.325281
 20
-125.476046
 30
0.0
  0
LWPOLYLINE
  5
1a1
100
AcDbEntity
  8
0
 62
7
100
AcDbPolyline
 90
2
 70
0
 10
207.977301
 20
-36.548131
 30
0.0
 10
207.964601
 20
-36.771651
 30
0.0
  0
LWPOLYLINE
  5
1a2
100
AcDbEntity
  8
0
 62
7
100
AcDbPolyline
 90
2
 70
0
 10
208.040801
 20
-36.327151
 30
0.0
 10
207.977301
 20
-36.548131
 30
0.0
  0
LWPOLYLINE
  5
1a3
100
AcDbEntity
  8
0
 62
7
100
AcDbPolyline
 90
2
 70
0
 10
209.305720
 20
-37.691130
 30
0.0
 10
209.379380
 20
-37.665730
 30
0.0
  0
LWPOLYLINE
  5
1a4
100
AcDbEntity
  8
0
 62
7
100
AcDbPolyline
 90
2
 70
0
 10
209.084740
 20
-37.739390
 30
0.0
 10
209.305720
 20
-37.691130
 30
0.0
  0
LWPOLYLINE
  5
1a5
100
AcDbEntity
  8
0
 62
7
100
AcDbPolyline
 90
2
 70
0
 10
130.479382
 20
-47.551408
 30
0.0
 10
130.497162
 20
-47.426948
 30
0.0
  0
LWPOLYLINE
  5
1a6
100
AcDbEntity
  8
0
 62
7
100
AcDbPolyline
 90
2
 70
0
 10
187.860506
 20
-114.114629
 30
0.0
 10
187.987506
 20
-114.297509
 30
0.0
  0
LWPOLYLINE
  5
1a7
100
AcDbEntity
  8
0
 62
7
100
AcDbPolyline
 90
2
 70
0
 10
187.748746
 20
-113.921589
 30
0.0
 10
187.860506
 20
-114.114629
 30
0.0
  0
LWPOLYLINE
  5
1a8
100
AcDbEntity
  8
0
 62
7
100
AcDbPolyline
 90
4
 70
0
 10
212.526439
 20
-33.566172
 30
0.0
 10
212.676299
 20
-33.784611
 30
0.0
 10
212.803299
 20
-34.015751
 30
0.0
 10
212.904899
 20
-34.259591
 30
0.0
  0
LWPOLYLINE
  5
1a9
100
AcDbEntity
  8
0
 62
7
100
AcDbPolyline
 90
3
 70
0
 10
73.875498
 20
-32.694952
 30
0.0
 10
74.109178
 20
-32.598432
 30
0.0
 10
74.350478
 20
-32.524772
 30
0.0
  0
LWPOLYLINE
  5
1aa
100
AcDbEntity
  8
0
 62
7
100
AcDbPolyline
 90
2
 70
0
 10
188.132286
 20
-114.467689
 30
0.0
 10
188.289766
 20
-114.622629
 30
0.0
  0
LWPOLYLINE
  5
1ab
100
AcDbEntity
  8
0
 62
7
100
AcDbPolyline
 90
2
 70
0
 10
187.987506
 20
-114.297509
 30
0.0
 10
188.132286
 20
-114.467689
 30
0.0
  0
LWPOLYLINE
  5
1ac
100
AcDbEntity
  8
0
 62
7
100
AcDbPolyline
 90
2
 70
0
 10
209.681640
 20
-125.275386
 30
0.0
 10
209.483520
 20
-125.171246
 30
0.0
  0
LWPOLYLINE
  5
1ad
100
AcDbEntity
  8
0
 62
7
100
AcDbPolyline
 90
2
 70
0
 10
209.839120
 20
-125.402386
 30
0.0
 10
209.681640
 20
-125.275386
 30
0.0
  0
LWPOLYLINE
  5
1ae
100
AcDbEntity
  8
0
 62
7
100
AcDbPolyline
 90
3
 70
0
 10
73.837398
 20
-52.428206
 30
0.0
 10
73.621498
 20
-52.308826
 30
0.0
 10
73.420838
 20
-52.166586
 30
0.0
  0
LWPOLYLINE
  5
1af
100
AcDbEntity
  8
0
 62
7
100
AcDbPolyline
 90
2
 70
0
 10
130.545422
 20
-45.958828
 30
0.0
 10
130.677502
 20
-45.791188
 30
0.0
  0
LWPOLYLINE
  5
1b0
100
AcDbEntity
  8
0
 62
7
100
AcDbPolyline
 90
3
 70
0
 10
213.052219
 20
-35.034291
 30
0.0
 10
213.047139
 20
-35.300991
 30
0.0
 10
213.042059
 20
-35.367031
 30
0.0
  0
LWPOLYLINE
  5
1b1
100
AcDbEntity
  8
0
 62
7
100
AcDbPolyline
 90
3
 70
0
 10
212.981099
 20
-34.511051
 30
0.0
 10
213.029359
 20
-34.770131
 30
0.0
 10
213.052219
 20
-35.034291
 30
0.0
  0
LWPOLYLINE
  5
1b2
100
AcDbEntity
  8
0
 62
7
100
AcDbPolyline
 90
3
 70
0
 10
72.554699
 20
-50.982947
 30
0.0
 10
72.481039
 20
-50.741647
 30
0.0
 10
72.430239
 20
-50.487647
 30
0.0
  0
LWPOLYLINE
  5
1b3
100
AcDbEntity
  8
0
 62
7
100
AcDbPolyline
 90
2
 70
0
 10
208.569120
 20
-126.994965
 30
0.0
 10
208.769780
 20
-127.091485
 30
0.0
  0
LWPOLYLINE
  5
1b4
100
AcDbEntity
  8
0
 62
7
100
AcDbPolyline
 90
2
 70
0
 10
208.388781
 20
-126.852725
 30
0.0
 10
208.569120
 20
-126.994965
 30
0.0
  0
LWPOLYLINE
  5
1b5
100
AcDbEntity
  8
0
 62
7
100
AcDbPolyline
 90
4
 70
0
 10
72.905219
 20
-51.640806
 30
0.0
 10
72.768059
 20
-51.435067
 30
0.0
 10
72.651219
 20
-51.216627
 30
0.0
 10
72.554699
 20
-50.982947
 30
0.0
  0
LWPOLYLINE
  5
1b6
100
AcDbEntity
  8
0
 62
7
100
AcDbPolyline
 90
2
 70
0
 10
210.133760
 20
-126.205026
 30
0.0
 10
210.138840
 20
-126.128826
 30
0.0
  0
LWPOLYLINE
  5
1b7
100
AcDbEntity
  8
0
 62
7
100
AcDbPolyline
 90
2
 70
0
 10
210.093120
 20
-126.428545
 30
0.0
 10
210.133760
 20
-126.205026
 30
0.0
  0
LWPOLYLINE
  5
1b8
100
AcDbEntity
  8
0
 62
7
100
AcDbPolyline
 90
2
 70
0
 10
210.004220
 20
-126.634285
 30
0.0
 10
210.093120
 20
-126.428545
 30
0.0
  0
LWPOLYLINE
  5
1b9
100
AcDbEntity
  8
0
 62
7
100
AcDbPolyline
 90
2
 70
0
 10
209.874680
 20
-126.814625
 30
0.0
 10
210.004220
 20
-126.634285
 30
0.0
  0
LWPOLYLINE
  5
1ba
100
AcDbEntity
  8
0
 62
7
100
AcDbPolyline
 90
2
 70
0
 10
188.465026
 20
-114.762329
 30
0.0
 10
188.586946
 20
-114.848689
 30
0.0
  0
LWPOLYLINE
  5
1bb
100
AcDbEntity
  8
0
 62
7
100
AcDbPolyline
 90
2
 70
0
 10
188.289766
 20
-114.622629
 30
0.0
 10
188.465026
 20
-114.762329
 30
0.0
  0
LWPOLYLINE
  5
1bc
100
AcDbEntity
  8
0
 62
7
100
AcDbPolyline
 90
2
 70
0
 10
148.678477
 20
-47.813028
 30
0.0
 10
148.871517
 20
-47.909548
 30
0.0
  0
LWPOLYLINE
  5
1bd
100
AcDbEntity
  8
0
 62
7
100
AcDbPolyline
 90
2
 70
0
 10
148.546397
 20
-47.642848
 30
0.0
 10
148.678477
 20
-47.813028
 30
0.0
  0
LWPOLYLINE
  5
1be
100
AcDbEntity
  8
0
 62
7
100
AcDbPolyline
 90
3
 70
0
 10
74.304758
 20
-52.608546
 30
0.0
 10
74.065998
 20
-52.529806
 30
0.0
 10
73.837398
 20
-52.428206
 30
0.0
  0
LWPOLYLINE
  5
1bf
100
AcDbEntity
  8
0
 62
7
100
AcDbPolyline
 90
2
 70
0
 10
75.612858
 20
-36.004571
 30
0.0
 10
75.579838
 20
-36.073151
 30
0.0
  0
LWPOLYLINE
  5
1c0
100
AcDbEntity
  8
0
 62
7
100
AcDbPolyline
 90
2
 70
0
 10
75.737318
 20
-35.814071
 30
0.0
 10
75.612858
 20
-36.004571
 30
0.0
  0
LWPOLYLINE
  5
1c1
100
AcDbEntity
  8
0
 62
7
100
AcDbPolyline
 90
2
 70
0
 10
75.897338
 20
-35.656591
 30
0.0
 10
75.737318
 20
-35.814071
 30
0.0
  0
LWPOLYLINE
  5
1c2
100
AcDbEntity
  8
0
 62
7
100
AcDbPolyline
 90
2
 70
0
 10
208.210981
 20
-37.386330
 30
0.0
 10
208.261781
 20
-37.444750
 30
0.0
  0
LWPOLYLINE
  5
1c3
100
AcDbEntity
  8
0
 62
7
100
AcDbPolyline
 90
2
 70
0
 10
208.081441
 20
-37.198371
 30
0.0
 10
208.210981
 20
-37.386330
 30
0.0
  0
LWPOLYLINE
  5
1c4
100
AcDbEntity
  8
0
 62
7
100
AcDbPolyline
 90
2
 70
0
 10
148.498137
 20
-47.426948
 30
0.0
 10
148.546397
 20
-47.642848
 30
0.0
  0
LWPOLYLINE
  5
1c5
100
AcDbEntity
  8
0
 62
7
100
AcDbPolyline
 90
2
 70
0
 10
148.498137
 20
-46.177268
 30
0.0
 10
148.498137
 20
-47.426948
 30
0.0
  0
LWPOLYLINE
  5
1c6
100
AcDbEntity
  8
0
 62
7
100
AcDbPolyline
 90
2
 70
0
 10
209.707040
 20
-126.961945
 30
0.0
 10
209.874680
 20
-126.814625
 30
0.0
  0
LWPOLYLINE
  5
1c7
100
AcDbEntity
  8
0
 62
7
100
AcDbPolyline
 90
2
 70
0
 10
209.506380
 20
-127.073705
 30
0.0
 10
209.707040
 20
-126.961945
 30
0.0
  0
ENDSEC
  0
SECTION
  2
OBJECTS
  0
DICTIONARY
  5
C
330
0
100
AcDbDictionary
  3
ACAD_GROUP
350
D
  3
ACAD_MLINESTYLE
350
17
  0
DICTIONARY
  5
D
330
C
100
AcDbDictionary
  0
DICTIONARY
  5
1A
330
C
100
AcDbDictionary
  0
DICTIONARY
  5
17
330
C
100
AcDbDictionary
  3
STANDARD
350
18
  0
DICTIONARY
  5
19
330
C
100
AcDbDictionary
  0
ENDSEC
  0
EOF
