  0
SECTION
  2
HEADER
  9
$ACADVER
  1
AC1014
  9
$HANDSEED
  5
FFFF
  9
$MEASUREMENT
 70
     1
  0
ENDSEC
  0
SECTION
  2
TABLES
  0
TABLE
  2
VPORT
  5
8
330
0
100
AcDbSymbolTable
 70
     4
  0
VPORT
  5
2E
330
8
100
AcDbSymbolTableRecord
100
AcDbViewportTableRecord
  2
*ACTIVE
 70
     0
 10
0.0
 20
0.0
 11
1.0
 21
1.0
 12
210.0
 22
148.5
 13
0.0
 23
0.0
 14
10.0
 24
10.0
 15
10.0
 25
10.0
 16
0.0
 26
0.0
 36
1.0
 17
0.0
 27
0.0
 37
0.0
 40
341.0
 41
1.24
 42
50.0
 43
0.0
 44
0.0
 50
0.0
 51
0.0
 71
     0
 72
   100
 73
     1
 74
     3
 75
     0
 76
     0
 77
     0
 78
     0
  0
ENDTAB
  0
TABLE
  2
LTYPE
  5
5
330
0
100
AcDbSymbolTable
 70
     1
  0
LTYPE
  5
14
330
5
100
AcDbSymbolTableRecord
100
AcDbLinetypeTableRecord
  2
BYBLOCK
 70
     0
  3

 72
    65
 73
     0
 40
0.0
  0
LTYPE
  5
15
330
5
100
AcDbSymbolTableRecord
100
AcDbLinetypeTableRecord
  2
BYLAYER
 70
     0
  3

 72
    65
 73
     0
 40
0.0
  0
LTYPE
  5
16
330
5
100
AcDbSymbolTableRecord
100
AcDbLinetypeTableRecord
  2
CONTINUOUS
 70
     0
  3
Solid line
 72
    65
 73
     0
 40
0.0
  0
ENDTAB
  0
TABLE
  2
LAYER
  5
2
100
AcDbSymbolTable
 70
1
  0
LAYER
  5
50
100
AcDbSymbolTableRecord
100
AcDbLayerTableRecord
  2
0
 70
0
  6
CONTINUOUS
  0
ENDTAB
  0
TABLE
  2
STYLE
  5
3
330
0
100
AcDbSymbolTable
 70
     1
  0
STYLE
  5
11
330
3
100
AcDbSymbolTableRecord
100
AcDbTextStyleTableRecord
  2
STANDARD
 70
     0
 40
0.0
 41
1.0
 50
0.0
 71
     0
 42
2.5
  3
txt
  4

  0
ENDTAB
  0
TABLE
  2
VIEW
  5
6
330
0
100
AcDbSymbolTable
 70
     0
  0
ENDTAB
  0
TABLE
  2
UCS
  5
7
330
0
100
AcDbSymbolTable
 70
     0
  0
ENDTAB
  0
TABLE
  2
APPID
  5
9
330
0
100
AcDbSymbolTable
 70
     2
  0
APPID
  5
12
330
9
100
AcDbSymbolTableRecord
100
AcDbRegAppTableRecord
  2
ACAD
 70
     0
  0
ENDTAB
  0
TABLE
  2
DIMSTYLE
  5
A
330
0
100
AcDbSymbolTable
 70
     1
  0
DIMSTYLE
105
27
330
A
100
AcDbSymbolTableRecord
100
AcDbDimStyleTableRecord
  2
ISO-25
 70
     0
  3

  4

  5

  6

  7

 40
1.0
 41
2.5
 42
0.625
 43
3.75
 44
1.25
 45
0.0
 46
0.0
 47
0.0
 48
0.0
140
2.5
141
2.5
142
0.0
143
0.03937007874016
144
1.0
145
0.0
146
1.0
147
0.625
 71
     0
 72
     0
 73
     0
 74
     0
 75
     0
 76
     0
 77
     1
 78
     8
170
     0
171
     3
172
     1
173
     0
174
     0
175
     0
176
     0
177
     0
178
     0
270
     2
271
     2
272
     2
273
     2
274
     3
340
11
275
     0
280
     0
281
     0
282
     0
283
     0
284
     8
285
     0
286
     0
287
     3
288
     0
  0
ENDTAB
  0
TABLE
  2
BLOCK_RECORD
  5
1
330
0
100
AcDbSymbolTable
 70
     1
  0
BLOCK_RECORD
  5
1F
330
1
100
AcDbSymbolTableRecord
100
AcDbBlockTableRecord
  2
*MODEL_SPACE
  0
BLOCK_RECORD
  5
1B
330
1
100
AcDbSymbolTableRecord
100
AcDbBlockTableRecord
  2
*PAPER_SPACE
  0
ENDTAB
  0
ENDSEC
  0
SECTION
  2
BLOCKS
  0
BLOCK
  5
20
330
1F
100
AcDbEntity
  8
0
100
AcDbBlockBegin
  2
*MODEL_SPACE
 70
     0
 10
0.0
 20
0.0
 30
0.0
  3
*MODEL_SPACE
  1

  0
ENDBLK
  5
21
330
1F
100
AcDbEntity
  8
0
100
AcDbBlockEnd
  0
BLOCK
  5
1C
330
1B
100
AcDbEntity
 67
     1
  8
0
100
AcDbBlockBegin
  2
*PAPER_SPACE
  1

  0
ENDBLK
  5
1D
330
1B
100
AcDbEntity
 67
     1
  8
0
100
AcDbBlockEnd
  0
ENDSEC
  0
SECTION
  2
ENTITIES
  0
SPLINE
  5
100
100
AcDbEntity
  8
0
 62
7
100
AcDbSpline
 70
8
 71
3
 72
8
 73
4
 74
0
 40
0
 40
0
 40
0
 40
0
 40
1
 40
1
 40
1
 40
1
 10
210.138899
 20
-132.153741
 30
0.0
 10
210.621527
 20
-132.667837
 30
0.0
 10
211.370579
 20
-132.832287
 30
0.0
 10
212.024175
 20
-132.567642
 30
0.0
  0
SPLINE
  5
101
100
AcDbEntity
  8
0
 62
7
100
AcDbSpline
 70
8
 71
3
 72
8
 73
4
 74
0
 40
0
 40
0
 40
0
 40
0
 40
1
 40
1
 40
1
 40
1
 10
212.024175
 20
-132.567642
 30
0.0
 10
212.677771
 20
-132.302998
 30
0.0
 10
213.101391
 20
-131.663727
 30
0.0
 10
213.090379
 20
-130.958671
 30
0.0
  0
LWPOLYLINE
  5
102
100
AcDbEntity
  8
0
 62
7
100
AcDbPolyline
 90
2
 70
0
 10
208.091659
 20
-126.179661
 30
0.0
 10
208.127219
 20
-126.400641
 30
0.0
  0
LWPOLYLINE
  5
103
100
AcDbEntity
  8
0
 62
7
100
AcDbPolyline
 90
2
 70
0
 10
208.104359
 20
-125.956141
 30
0.0
 10
208.091659
 20
-126.179661
 30
0.0
  0
LWPOLYLINE
  5
104
100
AcDbEntity
  8
0
 62
7
100
AcDbPolyline
 90
3
 70
0
 10
212.676359
 20
-33.784621
 30
0.0
 10
212.803359
 20
-34.015761
 30
0.0
 10
212.904959
 20
-34.259601
 30
0.0
  0
LWPOLYLINE
  5
105
100
AcDbEntity
  8
0
 62
7
100
AcDbPolyline
 90
2
 70
0
 10
77.416279
 20
-36.972321
 30
0.0
 10
77.505179
 20
-36.766581
 30
0.0
  0
LWPOLYLINE
  5
106
100
AcDbEntity
  8
0
 62
7
100
AcDbPolyline
 90
2
 70
0
 10
77.286739
 20
-37.152661
 30
0.0
 10
77.416279
 20
-36.972321
 30
0.0
  0
LWPOLYLINE
  5
107
100
AcDbEntity
  8
0
 62
7
100
AcDbPolyline
 90
2
 70
0
 10
188.586999
 20
-114.848721
 30
0.0
 10
210.138899
 20
-132.153741
 30
0.0
  0
LWPOLYLINE
  5
108
100
AcDbEntity
  8
0
 62
7
100
AcDbPolyline
 90
3
 70
0
 10
212.155659
 20
-33.177561
 30
0.0
 10
212.351239
 20
-33.362981
 30
0.0
 10
212.396959
 20
-33.411241
 30
0.0
  0
LWPOLYLINE
  5
109
100
AcDbEntity
  8
0
 62
7
100
AcDbPolyline
 90
2
 70
0
 10
192.567179
 20
-112.458581
 30
0.0
 10
192.607819
 20
-112.235061
 30
0.0
  0
LWPOLYLINE
  5
10a
100
AcDbEntity
  8
0
 62
7
100
AcDbPolyline
 90
2
 70
0
 10
192.478279
 20
-112.664321
 30
0.0
 10
192.567179
 20
-112.458581
 30
0.0
  0
LWPOLYLINE
  5
10b
100
AcDbEntity
  8
0
 62
7
100
AcDbPolyline
 90
2
 70
0
 10
192.348739
 20
-112.844661
 30
0.0
 10
192.478279
 20
-112.664321
 30
0.0
  0
LWPOLYLINE
  5
10c
100
AcDbEntity
  8
0
 62
7
100
AcDbPolyline
 90
2
 70
0
 10
192.181099
 20
-112.991981
 30
0.0
 10
192.348739
 20
-112.844661
 30
0.0
  0
LWPOLYLINE
  5
10d
100
AcDbEntity
  8
0
 62
7
100
AcDbPolyline
 90
2
 70
0
 10
192.313179
 20
-111.432421
 30
0.0
 10
192.155699
 20
-111.305421
 30
0.0
  0
LWPOLYLINE
  5
10e
100
AcDbEntity
  8
0
 62
7
100
AcDbPolyline
 90
2
 70
0
 10
192.607819
 20
-112.235061
 30
0.0
 10
192.612899
 20
-112.158861
 30
0.0
  0
LWPOLYLINE
  5
10f
100
AcDbEntity
  8
0
 62
7
100
AcDbPolyline
 90
2
 70
0
 10
209.356579
 20
-35.763281
 30
0.0
 10
209.138139
 20
-35.707401
 30
0.0
  0
LWPOLYLINE
  5
110
100
AcDbEntity
  8
0
 62
7
100
AcDbPolyline
 90
2
 70
0
 10
209.554699
 20
-35.867421
 30
0.0
 10
209.356579
 20
-35.763281
 30
0.0
  0
LWPOLYLINE
  5
111
100
AcDbEntity
  8
0
 62
7
100
AcDbPolyline
 90
3
 70
0
 10
212.396959
 20
-33.411241
 30
0.0
 10
212.526499
 20
-33.566181
 30
0.0
 10
212.676359
 20
-33.784621
 30
0.0
  0
LWPOLYLINE
  5
112
100
AcDbEntity
  8
0
 62
7
100
AcDbPolyline
 90
2
 70
0
 10
209.379439
 20
-37.665741
 30
0.0
 10
209.580099
 20
-37.553981
 30
0.0
  0
LWPOLYLINE
  5
113
100
AcDbEntity
  8
0
 62
7
100
AcDbPolyline
 90
2
 70
0
 10
209.811239
 20
-36.111261
 30
0.0
 10
209.712179
 20
-35.994421
 30
0.0
  0
LWPOLYLINE
  5
114
100
AcDbEntity
  8
0
 62
7
100
AcDbPolyline
 90
3
 70
0
 10
72.427719
 20
-34.597421
 30
0.0
 10
72.483599
 20
-34.348501
 30
0.0
 10
72.562339
 20
-34.112281
 30
0.0
  0
LWPOLYLINE
  5
115
100
AcDbEntity
  8
0
 62
7
100
AcDbPolyline
 90
3
 70
0
 10
72.783319
 20
-33.667781
 30
0.0
 10
72.925559
 20
-33.464581
 30
0.0
 10
73.083039
 20
-33.276621
 30
0.0
  0
LWPOLYLINE
  5
116
100
AcDbEntity
  8
0
 62
7
100
AcDbPolyline
 90
2
 70
0
 10
210.011899
 20
-36.720861
 30
0.0
 10
209.991579
 20
-36.517661
 30
0.0
  0
LWPOLYLINE
  5
117
100
AcDbEntity
  8
0
 62
7
100
AcDbPolyline
 90
2
 70
0
 10
209.138139
 20
-35.707401
 30
0.0
 10
208.985739
 20
-35.694701
 30
0.0
  0
LWPOLYLINE
  5
118
100
AcDbEntity
  8
0
 62
7
100
AcDbPolyline
 90
3
 70
0
 10
210.514819
 20
-32.575581
 30
0.0
 10
210.715479
 20
-32.583201
 30
0.0
 10
210.977099
 20
-32.618761
 30
0.0
  0
LWPOLYLINE
  5
119
100
AcDbEntity
  8
0
 62
7
100
AcDbPolyline
 90
3
 70
0
 10
211.721319
 20
-32.880381
 30
0.0
 10
211.947379
 20
-33.017541
 30
0.0
 10
212.155659
 20
-33.177561
 30
0.0
  0
LWPOLYLINE
  5
11a
100
AcDbEntity
  8
0
 62
7
100
AcDbPolyline
 90
2
 70
0
 10
73.060179
 20
-51.833861
 30
0.0
 10
72.905239
 20
-51.640821
 30
0.0
  0
LWPOLYLINE
  5
11b
100
AcDbEntity
  8
0
 62
7
100
AcDbPolyline
 90
2
 70
0
 10
76.717779
 20
-49.629141
 30
0.0
 10
76.791439
 20
-49.603741
 30
0.0
  0
LWPOLYLINE
  5
11c
100
AcDbEntity
  8
0
 62
7
100
AcDbPolyline
 90
2
 70
0
 10
111.495459
 20
-48.427721
 30
0.0
 10
111.543719
 20
-48.209281
 30
0.0
  0
LWPOLYLINE
  5
11d
100
AcDbEntity
  8
0
 62
7
100
AcDbPolyline
 90
2
 70
0
 10
111.495459
 20
-52.176761
 30
0.0
 10
111.495459
 20
-48.427721
 30
0.0
  0
LWPOLYLINE
  5
11e
100
AcDbEntity
  8
0
 62
7
100
AcDbPolyline
 90
3
 70
0
 10
211.947379
 20
-33.017541
 30
0.0
 10
212.155659
 20
-33.180101
 30
0.0
 10
212.302979
 20
-33.314721
 30
0.0
  0
LWPOLYLINE
  5
11f
100
AcDbEntity
  8
0
 62
7
100
AcDbPolyline
 90
5
 70
0
 10
73.083039
 20
-33.276621
 30
0.0
 10
73.260839
 20
-33.103901
 30
0.0
 10
73.451339
 20
-32.948961
 30
0.0
 10
73.657079
 20
-32.811801
 30
0.0
 10
73.878059
 20
-32.694961
 30
0.0
  0
LWPOLYLINE
  5
120
100
AcDbEntity
  8
0
 62
7
100
AcDbPolyline
 90
3
 70
0
 10
210.977099
 20
-32.618761
 30
0.0
 10
211.233639
 20
-32.679721
 30
0.0
 10
211.482559
 20
-32.768621
 30
0.0
  0
LWPOLYLINE
  5
121
100
AcDbEntity
  8
0
 62
7
100
AcDbPolyline
 90
2
 70
0
 10
77.545819
 20
-36.543061
 30
0.0
 10
77.550899
 20
-36.466861
 30
0.0
  0
LWPOLYLINE
  5
122
100
AcDbEntity
  8
0
 62
7
100
AcDbPolyline
 90
2
 70
0
 10
77.505179
 20
-36.766581
 30
0.0
 10
77.545819
 20
-36.543061
 30
0.0
  0
LWPOLYLINE
  5
123
100
AcDbEntity
  8
0
 62
7
100
AcDbPolyline
 90
2
 70
0
 10
192.612899
 20
-112.158861
 30
0.0
 10
192.592579
 20
-111.955661
 30
0.0
  0
LWPOLYLINE
  5
124
100
AcDbEntity
  8
0
 62
7
100
AcDbPolyline
 90
2
 70
0
 10
191.739139
 20
-111.145401
 30
0.0
 10
191.586739
 20
-111.132701
 30
0.0
  0
LWPOLYLINE
  5
125
100
AcDbEntity
  8
0
 62
7
100
AcDbPolyline
 90
2
 70
0
 10
191.957579
 20
-111.201281
 30
0.0
 10
191.739139
 20
-111.145401
 30
0.0
  0
LWPOLYLINE
  5
126
100
AcDbEntity
  8
0
 62
7
100
AcDbPolyline
 90
2
 70
0
 10
192.155699
 20
-111.305421
 30
0.0
 10
191.957579
 20
-111.201281
 30
0.0
  0
LWPOLYLINE
  5
127
100
AcDbEntity
  8
0
 62
7
100
AcDbPolyline
 90
2
 70
0
 10
75.069319
 20
-52.702541
 30
0.0
 10
110.995079
 20
-52.677141
 30
0.0
  0
LWPOLYLINE
  5
128
100
AcDbEntity
  8
0
 62
7
100
AcDbPolyline
 90
2
 70
0
 10
111.871379
 20
-47.942581
 30
0.0
 10
111.995839
 20
-47.927341
 30
0.0
  0
LWPOLYLINE
  5
129
100
AcDbEntity
  8
0
 62
7
100
AcDbPolyline
 90
2
 70
0
 10
212.302979
 20
-33.314721
 30
0.0
 10
212.396959
 20
-33.411241
 30
0.0
  0
LWPOLYLINE
  5
12a
100
AcDbEntity
  8
0
 62
7
100
AcDbPolyline
 90
2
 70
0
 10
208.167859
 20
-125.735161
 30
0.0
 10
208.104359
 20
-125.956141
 30
0.0
  0
LWPOLYLINE
  5
12b
100
AcDbEntity
  8
0
 62
7
100
AcDbPolyline
 90
2
 70
0
 10
192.412239
 20
-111.549261
 30
0.0
 10
192.313179
 20
-111.432421
 30
0.0
  0
LWPOLYLINE
  5
12c
100
AcDbEntity
  8
0
 62
7
100
AcDbPolyline
 90
3
 70
0
 10
74.350499
 20
-32.524781
 30
0.0
 10
74.604499
 20
-32.473981
 30
0.0
 10
74.866119
 20
-32.448581
 30
0.0
  0
LWPOLYLINE
  5
12d
100
AcDbEntity
  8
0
 62
7
100
AcDbPolyline
 90
3
 70
0
 10
73.878059
 20
-32.694961
 30
0.0
 10
74.109199
 20
-32.598441
 30
0.0
 10
74.350499
 20
-32.524781
 30
0.0
  0
LWPOLYLINE
  5
12e
100
AcDbEntity
  8
0
 62
7
100
AcDbPolyline
 90
2
 70
0
 10
76.496799
 20
-49.677401
 30
0.0
 10
76.717779
 20
-49.629141
 30
0.0
  0
LWPOLYLINE
  5
12f
100
AcDbEntity
  8
0
 62
7
100
AcDbPolyline
 90
2
 70
0
 10
76.273279
 20
-49.674861
 30
0.0
 10
76.496799
 20
-49.677401
 30
0.0
  0
LWPOLYLINE
  5
130
100
AcDbEntity
  8
0
 62
7
100
AcDbPolyline
 90
3
 70
0
 10
211.233639
 20
-32.679721
 30
0.0
 10
211.482559
 20
-32.768621
 30
0.0
 10
211.721319
 20
-32.880381
 30
0.0
  0
LWPOLYLINE
  5
131
100
AcDbEntity
  8
0
 62
7
100
AcDbPolyline
 90
2
 70
0
 10
192.523999
 20
-111.742301
 30
0.0
 10
192.412239
 20
-111.549261
 30
0.0
  0
LWPOLYLINE
  5
132
100
AcDbEntity
  8
0
 62
7
100
AcDbPolyline
 90
2
 70
0
 10
192.592579
 20
-111.955661
 30
0.0
 10
192.523999
 20
-111.742301
 30
0.0
  0
LWPOLYLINE
  5
133
100
AcDbEntity
  8
0
 62
7
100
AcDbPolyline
 90
3
 70
0
 10
72.562339
 20
-34.112281
 30
0.0
 10
72.663939
 20
-33.883681
 30
0.0
 10
72.783319
 20
-33.667781
 30
0.0
  0
LWPOLYLINE
  5
134
100
AcDbEntity
  8
0
 62
7
100
AcDbPolyline
 90
3
 70
0
 10
211.482559
 20
-32.768621
 30
0.0
 10
211.721319
 20
-32.880381
 30
0.0
 10
211.947379
 20
-33.017541
 30
0.0
  0
LWPOLYLINE
  5
135
100
AcDbEntity
  8
0
 62
7
100
AcDbPolyline
 90
2
 70
0
 10
111.675799
 20
-48.041641
 30
0.0
 10
111.871379
 20
-47.942581
 30
0.0
  0
LWPOLYLINE
  5
136
100
AcDbEntity
  8
0
 62
7
100
AcDbPolyline
 90
2
 70
0
 10
111.543719
 20
-48.209281
 30
0.0
 10
111.675799
 20
-48.041641
 30
0.0
  0
LWPOLYLINE
  5
137
100
AcDbEntity
  8
0
 62
7
100
AcDbPolyline
 90
2
 70
0
 10
209.922999
 20
-36.304301
 30
0.0
 10
209.811239
 20
-36.111261
 30
0.0
  0
LWPOLYLINE
  5
138
100
AcDbEntity
  8
0
 62
7
100
AcDbPolyline
 90
2
 70
0
 10
209.991579
 20
-36.517661
 30
0.0
 10
209.922999
 20
-36.304301
 30
0.0
  0
LWPOLYLINE
  5
139
100
AcDbEntity
  8
0
 62
7
100
AcDbPolyline
 90
2
 70
0
 10
77.119099
 20
-37.299981
 30
0.0
 10
77.286739
 20
-37.152661
 30
0.0
  0
LWPOLYLINE
  5
13a
100
AcDbEntity
  8
0
 62
7
100
AcDbPolyline
 90
2
 70
0
 10
76.918439
 20
-37.411741
 30
0.0
 10
77.119099
 20
-37.299981
 30
0.0
  0
LWPOLYLINE
  5
13b
100
AcDbEntity
  8
0
 62
7
100
AcDbPolyline
 90
3
 70
0
 10
72.389619
 20
-35.113041
 30
0.0
 10
72.394699
 20
-34.851421
 30
0.0
 10
72.427719
 20
-34.597421
 30
0.0
  0
LWPOLYLINE
  5
13c
100
AcDbEntity
  8
0
 62
7
100
AcDbPolyline
 90
2
 70
0
 10
208.988279
 20
-127.144861
 30
0.0
 10
209.211799
 20
-127.147401
 30
0.0
  0
LWPOLYLINE
  5
13d
100
AcDbEntity
  8
0
 62
7
100
AcDbPolyline
 90
2
 70
0
 10
208.769839
 20
-127.091521
 30
0.0
 10
208.988279
 20
-127.144861
 30
0.0
  0
LWPOLYLINE
  5
13e
100
AcDbEntity
  8
0
 62
7
100
AcDbPolyline
 90
2
 70
0
 10
209.432779
 20
-127.099141
 30
0.0
 10
209.506439
 20
-127.073741
 30
0.0
  0
LWPOLYLINE
  5
13f
100
AcDbEntity
  8
0
 62
7
100
AcDbPolyline
 90
2
 70
0
 10
209.211799
 20
-127.147401
 30
0.0
 10
209.432779
 20
-127.099141
 30
0.0
  0
LWPOLYLINE
  5
140
100
AcDbEntity
  8
0
 62
7
100
AcDbPolyline
 90
3
 70
0
 10
72.427719
 20
-34.597421
 30
0.0
 10
72.483599
 20
-34.348501
 30
0.0
 10
72.562339
 20
-34.112281
 30
0.0
  0
LWPOLYLINE
  5
141
100
AcDbEntity
  8
0
 62
7
100
AcDbPolyline
 90
2
 70
0
 10
209.712179
 20
-35.994421
 30
0.0
 10
209.554699
 20
-35.867421
 30
0.0
  0
LWPOLYLINE
  5
142
100
AcDbEntity
  8
0
 62
7
100
AcDbPolyline
 90
2
 70
0
 10
76.054839
 20
-49.621521
 30
0.0
 10
76.273279
 20
-49.674861
 30
0.0
  0
LWPOLYLINE
  5
143
100
AcDbEntity
  8
0
 62
7
100
AcDbPolyline
 90
2
 70
0
 10
75.854179
 20
-49.525001
 30
0.0
 10
76.054839
 20
-49.621521
 30
0.0
  0
LWPOLYLINE
  5
144
100
AcDbEntity
  8
0
 62
7
100
AcDbPolyline
 90
3
 70
0
 10
72.562339
 20
-34.112281
 30
0.0
 10
72.663939
 20
-33.883681
 30
0.0
 10
72.783319
 20
-33.667781
 30
0.0
  0
LWPOLYLINE
  5
145
100
AcDbEntity
  8
0
 62
7
100
AcDbPolyline
 90
2
 70
0
 10
76.181839
 20
-37.429521
 30
0.0
 10
76.400279
 20
-37.482861
 30
0.0
  0
LWPOLYLINE
  5
146
100
AcDbEntity
  8
0
 62
7
100
AcDbPolyline
 90
2
 70
0
 10
75.981179
 20
-37.333001
 30
0.0
 10
76.181839
 20
-37.429521
 30
0.0
  0
LWPOLYLINE
  5
147
100
AcDbEntity
  8
0
 62
7
100
AcDbPolyline
 90
2
 70
0
 10
75.800839
 20
-37.190761
 30
0.0
 10
75.981179
 20
-37.333001
 30
0.0
  0
LWPOLYLINE
  5
148
100
AcDbEntity
  8
0
 62
7
100
AcDbPolyline
 90
2
 70
0
 10
208.208499
 20
-126.606381
 30
0.0
 10
208.338039
 20
-126.794341
 30
0.0
  0
LWPOLYLINE
  5
149
100
AcDbEntity
  8
0
 62
7
100
AcDbPolyline
 90
2
 70
0
 10
208.127219
 20
-126.400641
 30
0.0
 10
208.208499
 20
-126.606381
 30
0.0
  0
LWPOLYLINE
  5
14a
100
AcDbEntity
  8
0
 62
7
100
AcDbPolyline
 90
2
 70
0
 10
76.844779
 20
-37.437141
 30
0.0
 10
76.918439
 20
-37.411741
 30
0.0
  0
LWPOLYLINE
  5
14b
100
AcDbEntity
  8
0
 62
7
100
AcDbPolyline
 90
2
 70
0
 10
76.623799
 20
-37.485401
 30
0.0
 10
76.844779
 20
-37.437141
 30
0.0
  0
LWPOLYLINE
  5
14c
100
AcDbEntity
  8
0
 62
7
100
AcDbPolyline
 90
2
 70
0
 10
76.400279
 20
-37.482861
 30
0.0
 10
76.623799
 20
-37.485401
 30
0.0
  0
LWPOLYLINE
  5
14d
100
AcDbEntity
  8
0
 62
7
100
AcDbPolyline
 90
3
 70
0
 10
72.389619
 20
-35.113041
 30
0.0
 10
72.394699
 20
-34.851421
 30
0.0
 10
72.427719
 20
-34.597421
 30
0.0
  0
LWPOLYLINE
  5
14e
100
AcDbEntity
  8
0
 62
7
100
AcDbPolyline
 90
2
 70
0
 10
111.995839
 20
-47.927341
 30
0.0
 10
129.996819
 20
-47.927341
 30
0.0
  0
LWPOLYLINE
  5
14f
100
AcDbEntity
  8
0
 62
7
100
AcDbPolyline
 90
2
 70
0
 10
130.870579
 20
-45.692141
 30
0.0
 10
130.995039
 20
-45.676901
 30
0.0
  0
LWPOLYLINE
  5
150
100
AcDbEntity
  8
0
 62
7
100
AcDbPolyline
 90
3
 70
0
 10
213.052279
 20
-35.034301
 30
0.0
 10
213.049739
 20
-35.234961
 30
0.0
 10
213.042119
 20
-35.367041
 30
0.0
  0
LWPOLYLINE
  5
151
100
AcDbEntity
  8
0
 62
7
100
AcDbPolyline
 90
2
 70
0
 10
76.677139
 20
-35.453401
 30
0.0
 10
76.524739
 20
-35.440701
 30
0.0
  0
LWPOLYLINE
  5
152
100
AcDbEntity
  8
0
 62
7
100
AcDbPolyline
 90
2
 70
0
 10
76.895579
 20
-35.509281
 30
0.0
 10
76.677139
 20
-35.453401
 30
0.0
  0
LWPOLYLINE
  5
153
100
AcDbEntity
  8
0
 62
7
100
AcDbPolyline
 90
3
 70
0
 10
73.420859
 20
-52.166601
 30
0.0
 10
73.232899
 20
-52.009121
 30
0.0
 10
73.060179
 20
-51.833861
 30
0.0
  0
LWPOLYLINE
  5
154
100
AcDbEntity
  8
0
 62
7
100
AcDbPolyline
 90
2
 70
0
 10
209.112739
 20
-125.102701
 30
0.0
 10
208.886679
 20
-125.128101
 30
0.0
  0
LWPOLYLINE
  5
155
100
AcDbEntity
  8
0
 62
7
100
AcDbPolyline
 90
2
 70
0
 10
208.338039
 20
-126.794341
 30
0.0
 10
208.388839
 20
-126.852761
 30
0.0
  0
LWPOLYLINE
  5
156
100
AcDbEntity
  8
0
 62
7
100
AcDbPolyline
 90
2
 70
0
 10
130.677539
 20
-45.791201
 30
0.0
 10
130.870579
 20
-45.692141
 30
0.0
  0
LWPOLYLINE
  5
157
100
AcDbEntity
  8
0
 62
7
100
AcDbPolyline
 90
2
 70
0
 10
210.006819
 20
-36.797061
 30
0.0
 10
210.011899
 20
-36.720861
 30
0.0
  0
LWPOLYLINE
  5
158
100
AcDbEntity
  8
0
 62
7
100
AcDbPolyline
 90
2
 70
0
 10
77.530579
 20
-36.263661
 30
0.0
 10
77.461999
 20
-36.050301
 30
0.0
  0
LWPOLYLINE
  5
159
100
AcDbEntity
  8
0
 62
7
100
AcDbPolyline
 90
2
 70
0
 10
77.550899
 20
-36.466861
 30
0.0
 10
77.530579
 20
-36.263661
 30
0.0
  0
LWPOLYLINE
  5
15a
100
AcDbEntity
  8
0
 62
7
100
AcDbPolyline
 90
3
 70
0
 10
212.981159
 20
-34.511061
 30
0.0
 10
213.029419
 20
-34.770141
 30
0.0
 10
213.052279
 20
-35.034301
 30
0.0
  0
LWPOLYLINE
  5
15b
100
AcDbEntity
  8
0
 62
7
100
AcDbPolyline
 90
2
 70
0
 10
77.093699
 20
-35.613421
 30
0.0
 10
76.895579
 20
-35.509281
 30
0.0
  0
LWPOLYLINE
  5
15c
100
AcDbEntity
  8
0
 62
7
100
AcDbPolyline
 90
2
 70
0
 10
77.251179
 20
-35.740421
 30
0.0
 10
77.093699
 20
-35.613421
 30
0.0
  0
LWPOLYLINE
  5
15d
100
AcDbEntity
  8
0
 62
7
100
AcDbPolyline
 90
2
 70
0
 10
209.966179
 20
-37.020581
 30
0.0
 10
210.006819
 20
-36.797061
 30
0.0
  0
LWPOLYLINE
  5
15e
100
AcDbEntity
  8
0
 62
7
100
AcDbPolyline
 90
2
 70
0
 10
209.877279
 20
-37.226321
 30
0.0
 10
209.966179
 20
-37.020581
 30
0.0
  0
LWPOLYLINE
  5
15f
100
AcDbEntity
  8
0
 62
7
100
AcDbPolyline
 90
2
 70
0
 10
209.747739
 20
-37.406661
 30
0.0
 10
209.877279
 20
-37.226321
 30
0.0
  0
LWPOLYLINE
  5
160
100
AcDbEntity
  8
0
 62
7
100
AcDbPolyline
 90
2
 70
0
 10
209.580099
 20
-37.553981
 30
0.0
 10
209.747739
 20
-37.406661
 30
0.0
  0
LWPOLYLINE
  5
161
100
AcDbEntity
  8
0
 62
7
100
AcDbPolyline
 90
2
 70
0
 10
77.350239
 20
-35.857261
 30
0.0
 10
77.251179
 20
-35.740421
 30
0.0
  0
LWPOLYLINE
  5
162
100
AcDbEntity
  8
0
 62
7
100
AcDbPolyline
 90
2
 70
0
 10
77.461999
 20
-36.050301
 30
0.0
 10
77.350239
 20
-35.857261
 30
0.0
  0
LWPOLYLINE
  5
163
100
AcDbEntity
  8
0
 62
7
100
AcDbPolyline
 90
2
 70
0
 10
76.171679
 20
-47.658101
 30
0.0
 10
75.958319
 20
-47.731761
 30
0.0
  0
LWPOLYLINE
  5
164
100
AcDbEntity
  8
0
 62
7
100
AcDbPolyline
 90
2
 70
0
 10
76.397739
 20
-47.632701
 30
0.0
 10
76.171679
 20
-47.658101
 30
0.0
  0
LWPOLYLINE
  5
165
100
AcDbEntity
  8
0
 62
7
100
AcDbPolyline
 90
1
 70
1
 10
76.524739
 20
-35.440701
 30
0.0
  0
LWPOLYLINE
  5
166
100
AcDbEntity
  8
0
 62
7
100
AcDbPolyline
 90
2
 70
0
 10
72.430259
 20
-50.487661
 30
0.0
 10
72.402319
 20
-50.228581
 30
0.0
  0
LWPOLYLINE
  5
167
100
AcDbEntity
  8
0
 62
7
100
AcDbPolyline
 90
2
 70
0
 10
130.382899
 20
-47.744461
 30
0.0
 10
130.479419
 20
-47.551421
 30
0.0
  0
LWPOLYLINE
  5
168
100
AcDbEntity
  8
0
 62
7
100
AcDbPolyline
 90
2
 70
0
 10
167.680259
 20
-50.312401
 30
0.0
 10
167.873299
 20
-50.411461
 30
0.0
  0
LWPOLYLINE
  5
169
100
AcDbEntity
  8
0
 62
7
100
AcDbPolyline
 90
2
 70
0
 10
167.548179
 20
-50.144761
 30
0.0
 10
167.680259
 20
-50.312401
 30
0.0
  0
LWPOLYLINE
  5
16a
100
AcDbEntity
  8
0
 62
7
100
AcDbPolyline
 90
2
 70
0
 10
75.389359
 20
-48.486141
 30
0.0
 10
75.376659
 20
-48.709661
 30
0.0
  0
LWPOLYLINE
  5
16b
100
AcDbEntity
  8
0
 62
7
100
AcDbPolyline
 90
2
 70
0
 10
75.452859
 20
-48.265161
 30
0.0
 10
75.389359
 20
-48.486141
 30
0.0
  0
LWPOLYLINE
  5
16c
100
AcDbEntity
  8
0
 62
7
100
AcDbPolyline
 90
2
 70
0
 10
208.442179
 20
-37.587001
 30
0.0
 10
208.642839
 20
-37.683521
 30
0.0
  0
LWPOLYLINE
  5
16d
100
AcDbEntity
  8
0
 62
7
100
AcDbPolyline
 90
2
 70
0
 10
208.261839
 20
-37.444761
 30
0.0
 10
208.442179
 20
-37.587001
 30
0.0
  0
LWPOLYLINE
  5
16e
100
AcDbEntity
  8
0
 62
7
100
AcDbPolyline
 90
2
 70
0
 10
167.499919
 20
-49.926321
 30
0.0
 10
167.548179
 20
-50.144761
 30
0.0
  0
LWPOLYLINE
  5
16f
100
AcDbEntity
  8
0
 62
7
100
AcDbPolyline
 90
2
 70
0
 10
167.499919
 20
-48.427721
 30
0.0
 10
167.499919
 20
-49.926321
 30
0.0
  0
LWPOLYLINE
  5
170
100
AcDbEntity
  8
0
 62
7
100
AcDbPolyline
 90
2
 70
0
 10
75.770359
 20
-47.848601
 30
0.0
 10
75.610339
 20
-48.006081
 30
0.0
  0
LWPOLYLINE
  5
171
100
AcDbEntity
  8
0
 62
7
100
AcDbPolyline
 90
2
 70
0
 10
75.958319
 20
-47.731761
 30
0.0
 10
75.770359
 20
-47.848601
 30
0.0
  0
LWPOLYLINE
  5
172
100
AcDbEntity
  8
0
 62
7
100
AcDbPolyline
 90
2
 70
0
 10
111.381159
 20
-52.494261
 30
0.0
 10
111.480219
 20
-52.301221
 30
0.0
  0
LWPOLYLINE
  5
173
100
AcDbEntity
  8
0
 62
7
100
AcDbPolyline
 90
2
 70
0
 10
111.210979
 20
-52.628881
 30
0.0
 10
111.381159
 20
-52.494261
 30
0.0
  0
LWPOLYLINE
  5
174
100
AcDbEntity
  8
0
 62
7
100
AcDbPolyline
 90
2
 70
0
 10
75.503659
 20
-36.517661
 30
0.0
 10
75.539219
 20
-36.738641
 30
0.0
  0
LWPOLYLINE
  5
175
100
AcDbEntity
  8
0
 62
7
100
AcDbPolyline
 90
2
 70
0
 10
75.516359
 20
-36.294141
 30
0.0
 10
75.503659
 20
-36.517661
 30
0.0
  0
LWPOLYLINE
  5
176
100
AcDbEntity
  8
0
 62
7
100
AcDbPolyline
 90
2
 70
0
 10
75.579859
 20
-36.073161
 30
0.0
 10
75.516359
 20
-36.294141
 30
0.0
  0
LWPOLYLINE
  5
177
100
AcDbEntity
  8
0
 62
7
100
AcDbPolyline
 90
2
 70
0
 10
208.673319
 20
-125.201761
 30
0.0
 10
208.485359
 20
-125.318601
 30
0.0
  0
LWPOLYLINE
  5
178
100
AcDbEntity
  8
0
 62
7
100
AcDbPolyline
 90
2
 70
0
 10
208.886679
 20
-125.128101
 30
0.0
 10
208.673319
 20
-125.201761
 30
0.0
  0
LWPOLYLINE
  5
179
100
AcDbEntity
  8
0
 62
7
100
AcDbPolyline
 90
2
 70
0
 10
75.750039
 20
-37.132341
 30
0.0
 10
75.800839
 20
-37.190761
 30
0.0
  0
LWPOLYLINE
  5
17a
100
AcDbEntity
  8
0
 62
7
100
AcDbPolyline
 90
2
 70
0
 10
75.620499
 20
-36.944381
 30
0.0
 10
75.750039
 20
-37.132341
 30
0.0
  0
LWPOLYLINE
  5
17b
100
AcDbEntity
  8
0
 62
7
100
AcDbPolyline
 90
2
 70
0
 10
75.539219
 20
-36.738641
 30
0.0
 10
75.620499
 20
-36.944381
 30
0.0
  0
LWPOLYLINE
  5
17c
100
AcDbEntity
  8
0
 62
7
100
AcDbPolyline
 90
2
 70
0
 10
191.685799
 20
-113.177401
 30
0.0
 10
191.906779
 20
-113.129141
 30
0.0
  0
LWPOLYLINE
  5
17d
100
AcDbEntity
  8
0
 62
7
100
AcDbPolyline
 90
2
 70
0
 10
191.462279
 20
-113.174861
 30
0.0
 10
191.685799
 20
-113.177401
 30
0.0
  0
LWPOLYLINE
  5
17e
100
AcDbEntity
  8
0
 62
7
100
AcDbPolyline
 90
1
 70
1
 10
76.397739
 20
-47.632701
 30
0.0
  0
LWPOLYLINE
  5
17f
100
AcDbEntity
  8
0
 62
7
100
AcDbPolyline
 90
2
 70
0
 10
77.423899
 20
-48.658861
 30
0.0
 10
77.403579
 20
-48.455661
 30
0.0
  0
LWPOLYLINE
  5
180
100
AcDbEntity
  8
0
 62
7
100
AcDbPolyline
 90
2
 70
0
 10
148.998559
 20
-47.927341
 30
0.0
 10
166.999539
 20
-47.927341
 30
0.0
  0
LWPOLYLINE
  5
181
100
AcDbEntity
  8
0
 62
7
100
AcDbPolyline
 90
2
 70
0
 10
167.873299
 20
-50.411461
 30
0.0
 10
167.997759
 20
-50.426701
 30
0.0
  0
LWPOLYLINE
  5
182
100
AcDbEntity
  8
0
 62
7
100
AcDbPolyline
 90
2
 70
0
 10
76.085319
 20
-35.539761
 30
0.0
 10
75.897359
 20
-35.656601
 30
0.0
  0
LWPOLYLINE
  5
183
100
AcDbEntity
  8
0
 62
7
100
AcDbPolyline
 90
2
 70
0
 10
76.298679
 20
-35.466101
 30
0.0
 10
76.085319
 20
-35.539761
 30
0.0
  0
LWPOLYLINE
  5
184
100
AcDbEntity
  8
0
 62
7
100
AcDbPolyline
 90
2
 70
0
 10
76.524739
 20
-35.440701
 30
0.0
 10
76.298679
 20
-35.466101
 30
0.0
  0
LWPOLYLINE
  5
185
100
AcDbEntity
  8
0
 62
7
100
AcDbPolyline
 90
2
 70
0
 10
190.862839
 20
-112.882761
 30
0.0
 10
191.043179
 20
-113.025001
 30
0.0
  0
LWPOLYLINE
  5
186
100
AcDbEntity
  8
0
 62
7
100
AcDbPolyline
 90
2
 70
0
 10
110.995079
 20
-52.677141
 30
0.0
 10
111.210979
 20
-52.628881
 30
0.0
  0
LWPOLYLINE
  5
187
100
AcDbEntity
  8
0
 62
7
100
AcDbPolyline
 90
2
 70
0
 10
208.861279
 20
-37.736861
 30
0.0
 10
209.084799
 20
-37.739401
 30
0.0
  0
LWPOLYLINE
  5
188
100
AcDbEntity
  8
0
 62
7
100
AcDbPolyline
 90
2
 70
0
 10
208.642839
 20
-37.683521
 30
0.0
 10
208.861279
 20
-37.736861
 30
0.0
  0
LWPOLYLINE
  5
189
100
AcDbEntity
  8
0
 62
7
100
AcDbPolyline
 90
2
 70
0
 10
130.212719
 20
-47.876541
 30
0.0
 10
130.382899
 20
-47.744461
 30
0.0
  0
LWPOLYLINE
  5
18a
100
AcDbEntity
  8
0
 62
7
100
AcDbPolyline
 90
2
 70
0
 10
129.996819
 20
-47.927341
 30
0.0
 10
130.212719
 20
-47.876541
 30
0.0
  0
LWPOLYLINE
  5
18b
100
AcDbEntity
  8
0
 62
7
100
AcDbPolyline
 90
2
 70
0
 10
111.480219
 20
-52.301221
 30
0.0
 10
111.495459
 20
-52.176761
 30
0.0
  0
LWPOLYLINE
  5
18c
100
AcDbEntity
  8
0
 62
7
100
AcDbPolyline
 90
2
 70
0
 10
191.243839
 20
-113.121521
 30
0.0
 10
191.462279
 20
-113.174861
 30
0.0
  0
LWPOLYLINE
  5
18d
100
AcDbEntity
  8
0
 62
7
100
AcDbPolyline
 90
2
 70
0
 10
191.043179
 20
-113.025001
 30
0.0
 10
191.243839
 20
-113.121521
 30
0.0
  0
LWPOLYLINE
  5
18e
100
AcDbEntity
  8
0
 62
7
100
AcDbPolyline
 90
2
 70
0
 10
167.215439
 20
-47.975601
 30
0.0
 10
167.385619
 20
-48.107681
 30
0.0
  0
LWPOLYLINE
  5
18f
100
AcDbEntity
  8
0
 62
7
100
AcDbPolyline
 90
2
 70
0
 10
166.999539
 20
-47.927341
 30
0.0
 10
167.215439
 20
-47.975601
 30
0.0
  0
LWPOLYLINE
  5
190
100
AcDbEntity
  8
0
 62
7
100
AcDbPolyline
 90
2
 70
0
 10
75.485879
 20
-48.196581
 30
0.0
 10
75.452859
 20
-48.265161
 30
0.0
  0
LWPOLYLINE
  5
191
100
AcDbEntity
  8
0
 62
7
100
AcDbPolyline
 90
2
 70
0
 10
75.610339
 20
-48.006081
 30
0.0
 10
75.485879
 20
-48.196581
 30
0.0
  0
LWPOLYLINE
  5
192
100
AcDbEntity
  8
0
 62
7
100
AcDbPolyline
 90
2
 70
0
 10
167.997759
 20
-50.426701
 30
0.0
 10
186.935999
 20
-50.459721
 30
0.0
  0
LWPOLYLINE
  5
193
100
AcDbEntity
  8
0
 62
7
100
AcDbPolyline
 90
2
 70
0
 10
187.443999
 20
-50.967721
 30
0.0
 10
187.443999
 20
-112.816721
 30
0.0
  0
LWPOLYLINE
  5
194
100
AcDbEntity
  8
0
 62
7
100
AcDbPolyline
 90
2
 70
0
 10
75.623039
 20
-49.324341
 30
0.0
 10
75.673839
 20
-49.382761
 30
0.0
  0
LWPOLYLINE
  5
195
100
AcDbEntity
  8
0
 62
7
100
AcDbPolyline
 90
2
 70
0
 10
75.493499
 20
-49.136381
 30
0.0
 10
75.623039
 20
-49.324341
 30
0.0
  0
LWPOLYLINE
  5
196
100
AcDbEntity
  8
0
 62
7
100
AcDbPolyline
 90
2
 70
0
 10
212.904959
 20
-34.259601
 30
0.0
 10
212.981159
 20
-34.511061
 30
0.0
  0
LWPOLYLINE
  5
197
100
AcDbEntity
  8
0
 62
7
100
AcDbPolyline
 90
2
 70
0
 10
75.412219
 20
-48.930641
 30
0.0
 10
75.493499
 20
-49.136381
 30
0.0
  0
LWPOLYLINE
  5
198
100
AcDbEntity
  8
0
 62
7
100
AcDbPolyline
 90
2
 70
0
 10
75.376659
 20
-48.709661
 30
0.0
 10
75.412219
 20
-48.930641
 30
0.0
  0
LWPOLYLINE
  5
199
100
AcDbEntity
  8
0
 62
7
100
AcDbPolyline
 90
2
 70
0
 10
167.482139
 20
-48.300721
 30
0.0
 10
167.499919
 20
-48.427721
 30
0.0
  0
LWPOLYLINE
  5
19a
100
AcDbEntity
  8
0
 62
7
100
AcDbPolyline
 90
2
 70
0
 10
167.385619
 20
-48.107681
 30
0.0
 10
167.482139
 20
-48.300721
 30
0.0
  0
LWPOLYLINE
  5
19b
100
AcDbEntity
  8
0
 62
7
100
AcDbPolyline
 90
2
 70
0
 10
130.995039
 20
-45.676901
 30
0.0
 10
147.997799
 20
-45.676901
 30
0.0
  0
LWPOLYLINE
  5
19c
100
AcDbEntity
  8
0
 62
7
100
AcDbPolyline
 90
2
 70
0
 10
148.871559
 20
-47.909561
 30
0.0
 10
148.998559
 20
-47.927341
 30
0.0
  0
LWPOLYLINE
  5
19d
100
AcDbEntity
  8
0
 62
7
100
AcDbPolyline
 90
2
 70
0
 10
208.000219
 20
-36.992641
 30
0.0
 10
208.081499
 20
-37.198381
 30
0.0
  0
LWPOLYLINE
  5
19e
100
AcDbEntity
  8
0
 62
7
100
AcDbPolyline
 90
2
 70
0
 10
207.964659
 20
-36.771661
 30
0.0
 10
208.000219
 20
-36.992641
 30
0.0
  0
LWPOLYLINE
  5
19f
100
AcDbEntity
  8
0
 62
7
100
AcDbPolyline
 90
3
 70
0
 10
74.350499
 20
-32.524781
 30
0.0
 10
74.604499
 20
-32.473981
 30
0.0
 10
74.863579
 20
-32.448581
 30
0.0
  0
LWPOLYLINE
  5
1a0
100
AcDbEntity
  8
0
 62
7
100
AcDbPolyline
 90
2
 70
0
 10
72.394699
 20
-35.125741
 30
0.0
 10
72.402319
 20
-50.228581
 30
0.0
  0
LWPOLYLINE
  5
1a1
100
AcDbEntity
  8
0
 62
7
100
AcDbPolyline
 90
2
 70
0
 10
210.514819
 20
-32.575581
 30
0.0
 10
74.866119
 20
-32.448581
 30
0.0
  0
LWPOLYLINE
  5
1a2
100
AcDbEntity
  8
0
 62
7
100
AcDbPolyline
 90
3
 70
0
 10
75.069319
 20
-52.702541
 30
0.0
 10
74.807699
 20
-52.697461
 30
0.0
 10
74.551159
 20
-52.664441
 30
0.0
  0
LWPOLYLINE
  5
1a3
100
AcDbEntity
  8
0
 62
7
100
AcDbPolyline
 90
2
 70
0
 10
208.200879
 20
-125.666581
 30
0.0
 10
208.167859
 20
-125.735161
 30
0.0
  0
LWPOLYLINE
  5
1a4
100
AcDbEntity
  8
0
 62
7
100
AcDbPolyline
 90
2
 70
0
 10
148.480399
 20
-46.050281
 30
0.0
 10
148.498179
 20
-46.177281
 30
0.0
  0
LWPOLYLINE
  5
1a5
100
AcDbEntity
  8
0
 62
7
100
AcDbPolyline
 90
2
 70
0
 10
148.383879
 20
-45.857241
 30
0.0
 10
148.480399
 20
-46.050281
 30
0.0
  0
LWPOLYLINE
  5
1a6
100
AcDbEntity
  8
0
 62
7
100
AcDbPolyline
 90
2
 70
0
 10
212.396959
 20
-33.411241
 30
0.0
 10
212.526499
 20
-33.566181
 30
0.0
  0
LWPOLYLINE
  5
1a7
100
AcDbEntity
  8
0
 62
7
100
AcDbPolyline
 90
2
 70
0
 10
209.938239
 20
-125.519261
 30
0.0
 10
209.839179
 20
-125.402421
 30
0.0
  0
LWPOLYLINE
  5
1a8
100
AcDbEntity
  8
0
 62
7
100
AcDbPolyline
 90
2
 70
0
 10
210.049999
 20
-125.712301
 30
0.0
 10
209.938239
 20
-125.519261
 30
0.0
  0
LWPOLYLINE
  5
1a9
100
AcDbEntity
  8
0
 62
7
100
AcDbPolyline
 90
3
 70
0
 10
72.783319
 20
-33.667781
 30
0.0
 10
72.925559
 20
-33.464581
 30
0.0
 10
73.083039
 20
-33.276621
 30
0.0
  0
LWPOLYLINE
  5
1aa
100
AcDbEntity
  8
0
 62
7
100
AcDbPolyline
 90
2
 70
0
 10
130.497199
 20
-46.177281
 30
0.0
 10
130.545459
 20
-45.958841
 30
0.0
  0
LWPOLYLINE
  5
1ab
100
AcDbEntity
  8
0
 62
7
100
AcDbPolyline
 90
2
 70
0
 10
130.497199
 20
-47.426961
 30
0.0
 10
130.497199
 20
-46.177281
 30
0.0
  0
LWPOLYLINE
  5
1ac
100
AcDbEntity
  8
0
 62
7
100
AcDbPolyline
 90
3
 70
0
 10
187.294139
 20
-50.607041
 30
0.0
 10
187.408439
 20
-50.782301
 30
0.0
 10
187.443999
 20
-50.967721
 30
0.0
  0
LWPOLYLINE
  5
1ad
100
AcDbEntity
  8
0
 62
7
100
AcDbPolyline
 90
3
 70
0
 10
186.935999
 20
-50.459721
 30
0.0
 10
187.141739
 20
-50.502901
 30
0.0
 10
187.294139
 20
-50.607041
 30
0.0
  0
LWPOLYLINE
  5
1ae
100
AcDbEntity
  8
0
 62
7
100
AcDbPolyline
 90
2
 70
0
 10
187.443999
 20
-112.816721
 30
0.0
 10
187.469399
 20
-113.052941
 30
0.0
  0
LWPOLYLINE
  5
1af
100
AcDbEntity
  8
0
 62
7
100
AcDbPolyline
 90
2
 70
0
 10
187.512579
 20
-113.281541
 30
0.0
 10
187.573539
 20
-113.505061
 30
0.0
  0
LWPOLYLINE
  5
1b0
100
AcDbEntity
  8
0
 62
7
100
AcDbPolyline
 90
2
 70
0
 10
187.469399
 20
-113.052941
 30
0.0
 10
187.512579
 20
-113.281541
 30
0.0
  0
LWPOLYLINE
  5
1b1
100
AcDbEntity
  8
0
 62
7
100
AcDbPolyline
 90
2
 70
0
 10
187.652279
 20
-113.718421
 30
0.0
 10
187.748799
 20
-113.921621
 30
0.0
  0
LWPOLYLINE
  5
1b2
100
AcDbEntity
  8
0
 62
7
100
AcDbPolyline
 90
2
 70
0
 10
187.573539
 20
-113.505061
 30
0.0
 10
187.652279
 20
-113.718421
 30
0.0
  0
LWPOLYLINE
  5
1b3
100
AcDbEntity
  8
0
 62
7
100
AcDbPolyline
 90
2
 70
0
 10
191.147319
 20
-111.231761
 30
0.0
 10
190.959359
 20
-111.348601
 30
0.0
  0
LWPOLYLINE
  5
1b4
100
AcDbEntity
  8
0
 62
7
100
AcDbPolyline
 90
2
 70
0
 10
191.360679
 20
-111.158101
 30
0.0
 10
191.147319
 20
-111.231761
 30
0.0
  0
LWPOLYLINE
  5
1b5
100
AcDbEntity
  8
0
 62
7
100
AcDbPolyline
 90
2
 70
0
 10
209.265139
 20
-125.115401
 30
0.0
 10
209.112739
 20
-125.102701
 30
0.0
  0
LWPOLYLINE
  5
1b6
100
AcDbEntity
  8
0
 62
7
100
AcDbPolyline
 90
2
 70
0
 10
209.483579
 20
-125.171281
 30
0.0
 10
209.265139
 20
-125.115401
 30
0.0
  0
LWPOLYLINE
  5
1b7
100
AcDbEntity
  8
0
 62
7
100
AcDbPolyline
 90
2
 70
0
 10
212.904959
 20
-34.259601
 30
0.0
 10
212.981159
 20
-34.511061
 30
0.0
  0
LWPOLYLINE
  5
1b8
100
AcDbEntity
  8
0
 62
7
100
AcDbPolyline
 90
3
 70
0
 10
210.514819
 20
-32.575581
 30
0.0
 10
210.715479
 20
-32.583201
 30
0.0
 10
210.977099
 20
-32.618761
 30
0.0
  0
LWPOLYLINE
  5
1b9
100
AcDbEntity
  8
0
 62
7
100
AcDbPolyline
 90
2
 70
0
 10
77.334999
 20
-48.242301
 30
0.0
 10
77.223239
 20
-48.049261
 30
0.0
  0
LWPOLYLINE
  5
1ba
100
AcDbEntity
  8
0
 62
7
100
AcDbPolyline
 90
2
 70
0
 10
77.403579
 20
-48.455661
 30
0.0
 10
77.334999
 20
-48.242301
 30
0.0
  0
LWPOLYLINE
  5
1bb
100
AcDbEntity
  8
0
 62
7
100
AcDbPolyline
 90
2
 70
0
 10
190.682499
 20
-112.636381
 30
0.0
 10
190.812039
 20
-112.824341
 30
0.0
  0
LWPOLYLINE
  5
1bc
100
AcDbEntity
  8
0
 62
7
100
AcDbPolyline
 90
2
 70
0
 10
190.601219
 20
-112.430641
 30
0.0
 10
190.682499
 20
-112.636381
 30
0.0
  0
LWPOLYLINE
  5
1bd
100
AcDbEntity
  8
0
 62
7
100
AcDbPolyline
 90
2
 70
0
 10
210.977099
 20
-32.618761
 30
0.0
 10
211.233639
 20
-32.679721
 30
0.0
  0
LWPOLYLINE
  5
1be
100
AcDbEntity
  8
0
 62
7
100
AcDbPolyline
 90
2
 70
0
 10
76.550139
 20
-47.645401
 30
0.0
 10
76.397739
 20
-47.632701
 30
0.0
  0
LWPOLYLINE
  5
1bf
100
AcDbEntity
  8
0
 62
7
100
AcDbPolyline
 90
2
 70
0
 10
76.768579
 20
-47.701281
 30
0.0
 10
76.550139
 20
-47.645401
 30
0.0
  0
LWPOLYLINE
  5
1c0
100
AcDbEntity
  8
0
 62
7
100
AcDbPolyline
 90
2
 70
0
 10
148.213699
 20
-45.725161
 30
0.0
 10
148.383879
 20
-45.857241
 30
0.0
  0
LWPOLYLINE
  5
1c1
100
AcDbEntity
  8
0
 62
7
100
AcDbPolyline
 90
2
 70
0
 10
147.997799
 20
-45.676901
 30
0.0
 10
148.213699
 20
-45.725161
 30
0.0
  0
LWPOLYLINE
  5
1c2
100
AcDbEntity
  8
0
 62
7
100
AcDbPolyline
 90
2
 70
0
 10
213.044659
 20
-35.367041
 30
0.0
 10
213.090379
 20
-130.957401
 30
0.0
  0
LWPOLYLINE
  5
1c3
100
AcDbEntity
  8
0
 62
7
100
AcDbPolyline
 90
2
 70
0
 10
74.551159
 20
-52.664441
 30
0.0
 10
74.304779
 20
-52.608561
 30
0.0
  0
LWPOLYLINE
  5
1c4
100
AcDbEntity
  8
0
 62
7
100
AcDbPolyline
 90
2
 70
0
 10
210.118579
 20
-125.925661
 30
0.0
 10
210.049999
 20
-125.712301
 30
0.0
  0
LWPOLYLINE
  5
1c5
100
AcDbEntity
  8
0
 62
7
100
AcDbPolyline
 90
2
 70
0
 10
210.138899
 20
-126.128861
 30
0.0
 10
210.118579
 20
-125.925661
 30
0.0
  0
LWPOLYLINE
  5
1c6
100
AcDbEntity
  8
0
 62
7
100
AcDbPolyline
 90
2
 70
0
 10
77.378179
 20
-48.958581
 30
0.0
 10
77.418819
 20
-48.735061
 30
0.0
  0
LWPOLYLINE
  5
1c7
100
AcDbEntity
  8
0
 62
7
100
AcDbPolyline
 90
2
 70
0
 10
77.289279
 20
-49.164321
 30
0.0
 10
77.378179
 20
-48.958581
 30
0.0
  0
LWPOLYLINE
  5
1c8
100
AcDbEntity
  8
0
 62
7
100
AcDbPolyline
 90
2
 70
0
 10
208.358359
 20
-35.910601
 30
0.0
 10
208.198339
 20
-36.068081
 30
0.0
  0
LWPOLYLINE
  5
1c9
100
AcDbEntity
  8
0
 62
7
100
AcDbPolyline
 90
2
 70
0
 10
208.546319
 20
-35.793761
 30
0.0
 10
208.358359
 20
-35.910601
 30
0.0
  0
LWPOLYLINE
  5
1ca
100
AcDbEntity
  8
0
 62
7
100
AcDbPolyline
 90
3
 70
0
 10
73.083039
 20
-33.276621
 30
0.0
 10
73.258299
 20
-33.106441
 30
0.0
 10
73.451339
 20
-32.948961
 30
0.0
  0
LWPOLYLINE
  5
1cb
100
AcDbEntity
  8
0
 62
7
100
AcDbPolyline
 90
2
 70
0
 10
208.759679
 20
-35.720101
 30
0.0
 10
208.546319
 20
-35.793761
 30
0.0
  0
LWPOLYLINE
  5
1cc
100
AcDbEntity
  8
0
 62
7
100
AcDbPolyline
 90
2
 70
0
 10
208.985739
 20
-35.694701
 30
0.0
 10
208.759679
 20
-35.720101
 30
0.0
  0
LWPOLYLINE
  5
1cd
100
AcDbEntity
  8
0
 62
7
100
AcDbPolyline
 90
2
 70
0
 10
208.073879
 20
-36.258581
 30
0.0
 10
208.040859
 20
-36.327161
 30
0.0
  0
LWPOLYLINE
  5
1ce
100
AcDbEntity
  8
0
 62
7
100
AcDbPolyline
 90
2
 70
0
 10
208.198339
 20
-36.068081
 30
0.0
 10
208.073879
 20
-36.258581
 30
0.0
  0
LWPOLYLINE
  5
1cf
100
AcDbEntity
  8
0
 62
7
100
AcDbPolyline
 90
3
 70
0
 10
73.451339
 20
-32.948961
 30
0.0
 10
73.657079
 20
-32.814341
 30
0.0
 10
73.875519
 20
-32.694961
 30
0.0
  0
LWPOLYLINE
  5
1d0
100
AcDbEntity
  8
0
 62
7
100
AcDbPolyline
 90
2
 70
0
 10
208.325339
 20
-125.476081
 30
0.0
 10
208.200879
 20
-125.666581
 30
0.0
  0
LWPOLYLINE
  5
1d1
100
AcDbEntity
  8
0
 62
7
100
AcDbPolyline
 90
2
 70
0
 10
208.485359
 20
-125.318601
 30
0.0
 10
208.325339
 20
-125.476081
 30
0.0
  0
LWPOLYLINE
  5
1d2
100
AcDbEntity
  8
0
 62
7
100
AcDbPolyline
 90
2
 70
0
 10
190.812039
 20
-112.824341
 30
0.0
 10
190.862839
 20
-112.882761
 30
0.0
  0
LWPOLYLINE
  5
1d3
100
AcDbEntity
  8
0
 62
7
100
AcDbPolyline
 90
2
 70
0
 10
77.159739
 20
-49.344661
 30
0.0
 10
77.289279
 20
-49.164321
 30
0.0
  0
LWPOLYLINE
  5
1d4
100
AcDbEntity
  8
0
 62
7
100
AcDbPolyline
 90
2
 70
0
 10
76.992099
 20
-49.491981
 30
0.0
 10
77.159739
 20
-49.344661
 30
0.0
  0
LWPOLYLINE
  5
1d5
100
AcDbEntity
  8
0
 62
7
100
AcDbPolyline
 90
1
 70
1
 10
191.586739
 20
-111.132701
 30
0.0
  0
LWPOLYLINE
  5
1d6
100
AcDbEntity
  8
0
 62
7
100
AcDbPolyline
 90
2
 70
0
 10
207.977359
 20
-36.548141
 30
0.0
 10
207.964659
 20
-36.771661
 30
0.0
  0
LWPOLYLINE
  5
1d7
100
AcDbEntity
  8
0
 62
7
100
AcDbPolyline
 90
2
 70
0
 10
208.040859
 20
-36.327161
 30
0.0
 10
207.977359
 20
-36.548141
 30
0.0
  0
LWPOLYLINE
  5
1d8
100
AcDbEntity
  8
0
 62
7
100
AcDbPolyline
 90
2
 70
0
 10
209.305779
 20
-37.691141
 30
0.0
 10
209.379439
 20
-37.665741
 30
0.0
  0
LWPOLYLINE
  5
1d9
100
AcDbEntity
  8
0
 62
7
100
AcDbPolyline
 90
2
 70
0
 10
209.084799
 20
-37.739401
 30
0.0
 10
209.305779
 20
-37.691141
 30
0.0
  0
LWPOLYLINE
  5
1da
100
AcDbEntity
  8
0
 62
7
100
AcDbPolyline
 90
2
 70
0
 10
130.479419
 20
-47.551421
 30
0.0
 10
130.497199
 20
-47.426961
 30
0.0
  0
LWPOLYLINE
  5
1db
100
AcDbEntity
  8
0
 62
7
100
AcDbPolyline
 90
2
 70
0
 10
187.860559
 20
-114.114661
 30
0.0
 10
187.987559
 20
-114.297541
 30
0.0
  0
LWPOLYLINE
  5
1dc
100
AcDbEntity
  8
0
 62
7
100
AcDbPolyline
 90
2
 70
0
 10
187.748799
 20
-113.921621
 30
0.0
 10
187.860559
 20
-114.114661
 30
0.0
  0
LWPOLYLINE
  5
1dd
100
AcDbEntity
  8
0
 62
7
100
AcDbPolyline
 90
4
 70
0
 10
212.526499
 20
-33.566181
 30
0.0
 10
212.676359
 20
-33.784621
 30
0.0
 10
212.803359
 20
-34.015761
 30
0.0
 10
212.904959
 20
-34.259601
 30
0.0
  0
LWPOLYLINE
  5
1de
100
AcDbEntity
  8
0
 62
7
100
AcDbPolyline
 90
1
 70
1
 10
208.985739
 20
-35.694701
 30
0.0
  0
LWPOLYLINE
  5
1df
100
AcDbEntity
  8
0
 62
7
100
AcDbPolyline
 90
2
 70
0
 10
190.674879
 20
-111.696581
 30
0.0
 10
190.641859
 20
-111.765161
 30
0.0
  0
LWPOLYLINE
  5
1e0
100
AcDbEntity
  8
0
 62
7
100
AcDbPolyline
 90
3
 70
0
 10
73.875519
 20
-32.694961
 30
0.0
 10
74.109199
 20
-32.598441
 30
0.0
 10
74.350499
 20
-32.524781
 30
0.0
  0
LWPOLYLINE
  5
1e1
100
AcDbEntity
  8
0
 62
7
100
AcDbPolyline
 90
2
 70
0
 10
188.132339
 20
-114.467721
 30
0.0
 10
188.289819
 20
-114.622661
 30
0.0
  0
LWPOLYLINE
  5
1e2
100
AcDbEntity
  8
0
 62
7
100
AcDbPolyline
 90
2
 70
0
 10
187.987559
 20
-114.297541
 30
0.0
 10
188.132339
 20
-114.467721
 30
0.0
  0
LWPOLYLINE
  5
1e3
100
AcDbEntity
  8
0
 62
7
100
AcDbPolyline
 90
1
 70
1
 10
209.112739
 20
-125.102701
 30
0.0
  0
LWPOLYLINE
  5
1e4
100
AcDbEntity
  8
0
 62
7
100
AcDbPolyline
 90
2
 70
0
 10
209.681699
 20
-125.275421
 30
0.0
 10
209.483579
 20
-125.171281
 30
0.0
  0
LWPOLYLINE
  5
1e5
100
AcDbEntity
  8
0
 62
7
100
AcDbPolyline
 90
2
 70
0
 10
209.839179
 20
-125.402421
 30
0.0
 10
209.681699
 20
-125.275421
 30
0.0
  0
LWPOLYLINE
  5
1e6
100
AcDbEntity
  8
0
 62
7
100
AcDbPolyline
 90
3
 70
0
 10
73.837419
 20
-52.428221
 30
0.0
 10
73.621519
 20
-52.308841
 30
0.0
 10
73.420859
 20
-52.166601
 30
0.0
  0
LWPOLYLINE
  5
1e7
100
AcDbEntity
  8
0
 62
7
100
AcDbPolyline
 90
2
 70
0
 10
75.673839
 20
-49.382761
 30
0.0
 10
75.854179
 20
-49.525001
 30
0.0
  0
LWPOLYLINE
  5
1e8
100
AcDbEntity
  8
0
 62
7
100
AcDbPolyline
 90
2
 70
0
 10
77.418819
 20
-48.735061
 30
0.0
 10
77.423899
 20
-48.658861
 30
0.0
  0
LWPOLYLINE
  5
1e9
100
AcDbEntity
  8
0
 62
7
100
AcDbPolyline
 90
2
 70
0
 10
130.545459
 20
-45.958841
 30
0.0
 10
130.677539
 20
-45.791201
 30
0.0
  0
LWPOLYLINE
  5
1ea
100
AcDbEntity
  8
0
 62
7
100
AcDbPolyline
 90
3
 70
0
 10
213.052279
 20
-35.034301
 30
0.0
 10
213.047199
 20
-35.301001
 30
0.0
 10
213.042119
 20
-35.367041
 30
0.0
  0
LWPOLYLINE
  5
1eb
100
AcDbEntity
  8
0
 62
7
100
AcDbPolyline
 90
3
 70
0
 10
212.981159
 20
-34.511061
 30
0.0
 10
213.029419
 20
-34.770141
 30
0.0
 10
213.052279
 20
-35.034301
 30
0.0
  0
LWPOLYLINE
  5
1ec
100
AcDbEntity
  8
0
 62
7
100
AcDbPolyline
 90
3
 70
0
 10
72.554719
 20
-50.982961
 30
0.0
 10
72.481059
 20
-50.741661
 30
0.0
 10
72.430259
 20
-50.487661
 30
0.0
  0
LWPOLYLINE
  5
1ed
100
AcDbEntity
  8
0
 62
7
100
AcDbPolyline
 90
2
 70
0
 10
208.569179
 20
-126.995001
 30
0.0
 10
208.769839
 20
-127.091521
 30
0.0
  0
LWPOLYLINE
  5
1ee
100
AcDbEntity
  8
0
 62
7
100
AcDbPolyline
 90
2
 70
0
 10
208.388839
 20
-126.852761
 30
0.0
 10
208.569179
 20
-126.995001
 30
0.0
  0
LWPOLYLINE
  5
1ef
100
AcDbEntity
  8
0
 62
7
100
AcDbPolyline
 90
2
 70
0
 10
191.980439
 20
-113.103741
 30
0.0
 10
192.181099
 20
-112.991981
 30
0.0
  0
LWPOLYLINE
  5
1f0
100
AcDbEntity
  8
0
 62
7
100
AcDbPolyline
 90
2
 70
0
 10
72.905239
 20
-51.640821
 30
0.0
 10
72.768079
 20
-51.435081
 30
0.0
  0
LWPOLYLINE
  5
1f1
100
AcDbEntity
  8
0
 62
7
100
AcDbPolyline
 90
2
 70
0
 10
190.641859
 20
-111.765161
 30
0.0
 10
190.578359
 20
-111.986141
 30
0.0
  0
LWPOLYLINE
  5
1f2
100
AcDbEntity
  8
0
 62
7
100
AcDbPolyline
 90
2
 70
0
 10
191.906779
 20
-113.129141
 30
0.0
 10
191.980439
 20
-113.103741
 30
0.0
  0
LWPOLYLINE
  5
1f3
100
AcDbEntity
  8
0
 62
7
100
AcDbPolyline
 90
2
 70
0
 10
190.565659
 20
-112.209661
 30
0.0
 10
190.601219
 20
-112.430641
 30
0.0
  0
LWPOLYLINE
  5
1f4
100
AcDbEntity
  8
0
 62
7
100
AcDbPolyline
 90
2
 70
0
 10
190.578359
 20
-111.986141
 30
0.0
 10
190.565659
 20
-112.209661
 30
0.0
  0
LWPOLYLINE
  5
1f5
100
AcDbEntity
  8
0
 62
7
100
AcDbPolyline
 90
3
 70
0
 10
72.768079
 20
-51.435081
 30
0.0
 10
72.651239
 20
-51.216641
 30
0.0
 10
72.554719
 20
-50.982961
 30
0.0
  0
LWPOLYLINE
  5
1f6
100
AcDbEntity
  8
0
 62
7
100
AcDbPolyline
 90
2
 70
0
 10
210.133819
 20
-126.205061
 30
0.0
 10
210.138899
 20
-126.128861
 30
0.0
  0
LWPOLYLINE
  5
1f7
100
AcDbEntity
  8
0
 62
7
100
AcDbPolyline
 90
2
 70
0
 10
210.093179
 20
-126.428581
 30
0.0
 10
210.133819
 20
-126.205061
 30
0.0
  0
LWPOLYLINE
  5
1f8
100
AcDbEntity
  8
0
 62
7
100
AcDbPolyline
 90
2
 70
0
 10
210.004279
 20
-126.634321
 30
0.0
 10
210.093179
 20
-126.428581
 30
0.0
  0
LWPOLYLINE
  5
1f9
100
AcDbEntity
  8
0
 62
7
100
AcDbPolyline
 90
2
 70
0
 10
209.874739
 20
-126.814661
 30
0.0
 10
210.004279
 20
-126.634321
 30
0.0
  0
LWPOLYLINE
  5
1fa
100
AcDbEntity
  8
0
 62
7
100
AcDbPolyline
 90
2
 70
0
 10
76.966699
 20
-47.805421
 30
0.0
 10
76.768579
 20
-47.701281
 30
0.0
  0
LWPOLYLINE
  5
1fb
100
AcDbEntity
  8
0
 62
7
100
AcDbPolyline
 90
2
 70
0
 10
77.124179
 20
-47.932421
 30
0.0
 10
76.966699
 20
-47.805421
 30
0.0
  0
LWPOLYLINE
  5
1fc
100
AcDbEntity
  8
0
 62
7
100
AcDbPolyline
 90
2
 70
0
 10
188.465079
 20
-114.762361
 30
0.0
 10
188.586999
 20
-114.848721
 30
0.0
  0
LWPOLYLINE
  5
1fd
100
AcDbEntity
  8
0
 62
7
100
AcDbPolyline
 90
2
 70
0
 10
188.289819
 20
-114.622661
 30
0.0
 10
188.465079
 20
-114.762361
 30
0.0
  0
LWPOLYLINE
  5
1fe
100
AcDbEntity
  8
0
 62
7
100
AcDbPolyline
 90
2
 70
0
 10
148.678519
 20
-47.813041
 30
0.0
 10
148.871559
 20
-47.909561
 30
0.0
  0
LWPOLYLINE
  5
1ff
100
AcDbEntity
  8
0
 62
7
100
AcDbPolyline
 90
2
 70
0
 10
148.546439
 20
-47.642861
 30
0.0
 10
148.678519
 20
-47.813041
 30
0.0
  0
LWPOLYLINE
  5
200
100
AcDbEntity
  8
0
 62
7
100
AcDbPolyline
 90
3
 70
0
 10
74.304779
 20
-52.608561
 30
0.0
 10
74.066019
 20
-52.529821
 30
0.0
 10
73.837419
 20
-52.428221
 30
0.0
  0
LWPOLYLINE
  5
201
100
AcDbEntity
  8
0
 62
7
100
AcDbPolyline
 90
2
 70
0
 10
75.612879
 20
-36.004581
 30
0.0
 10
75.579859
 20
-36.073161
 30
0.0
  0
LWPOLYLINE
  5
202
100
AcDbEntity
  8
0
 62
7
100
AcDbPolyline
 90
2
 70
0
 10
75.737339
 20
-35.814081
 30
0.0
 10
75.612879
 20
-36.004581
 30
0.0
  0
LWPOLYLINE
  5
203
100
AcDbEntity
  8
0
 62
7
100
AcDbPolyline
 90
2
 70
0
 10
75.897359
 20
-35.656601
 30
0.0
 10
75.737339
 20
-35.814081
 30
0.0
  0
LWPOLYLINE
  5
204
100
AcDbEntity
  8
0
 62
7
100
AcDbPolyline
 90
2
 70
0
 10
191.586739
 20
-111.132701
 30
0.0
 10
191.360679
 20
-111.158101
 30
0.0
  0
LWPOLYLINE
  5
205
100
AcDbEntity
  8
0
 62
7
100
AcDbPolyline
 90
2
 70
0
 10
208.211039
 20
-37.386341
 30
0.0
 10
208.261839
 20
-37.444761
 30
0.0
  0
LWPOLYLINE
  5
206
100
AcDbEntity
  8
0
 62
7
100
AcDbPolyline
 90
2
 70
0
 10
208.081499
 20
-37.198381
 30
0.0
 10
208.211039
 20
-37.386341
 30
0.0
  0
LWPOLYLINE
  5
207
100
AcDbEntity
  8
0
 62
7
100
AcDbPolyline
 90
2
 70
0
 10
190.799339
 20
-111.506081
 30
0.0
 10
190.674879
 20
-111.696581
 30
0.0
  0
LWPOLYLINE
  5
208
100
AcDbEntity
  8
0
 62
7
100
AcDbPolyline
 90
2
 70
0
 10
190.959359
 20
-111.348601
 30
0.0
 10
190.799339
 20
-111.506081
 30
0.0
  0
LWPOLYLINE
  5
209
100
AcDbEntity
  8
0
 62
7
100
AcDbPolyline
 90
2
 70
0
 10
148.498179
 20
-47.426961
 30
0.0
 10
148.546439
 20
-47.642861
 30
0.0
  0
LWPOLYLINE
  5
20a
100
AcDbEntity
  8
0
 62
7
100
AcDbPolyline
 90
2
 70
0
 10
148.498179
 20
-46.177281
 30
0.0
 10
148.498179
 20
-47.426961
 30
0.0
  0
LWPOLYLINE
  5
20b
100
AcDbEntity
  8
0
 62
7
100
AcDbPolyline
 90
2
 70
0
 10
209.707099
 20
-126.961981
 30
0.0
 10
209.874739
 20
-126.814661
 30
0.0
  0
LWPOLYLINE
  5
20c
100
AcDbEntity
  8
0
 62
7
100
AcDbPolyline
 90
2
 70
0
 10
209.506439
 20
-127.073741
 30
0.0
 10
209.707099
 20
-126.961981
 30
0.0
  0
LWPOLYLINE
  5
20d
100
AcDbEntity
  8
0
 62
7
100
AcDbPolyline
 90
2
 70
0
 10
76.791439
 20
-49.603741
 30
0.0
 10
76.992099
 20
-49.491981
 30
0.0
  0
LWPOLYLINE
  5
20e
100
AcDbEntity
  8
0
 62
7
100
AcDbPolyline
 90
2
 70
0
 10
77.223239
 20
-48.049261
 30
0.0
 10
77.124179
 20
-47.932421
 30
0.0
  0
ENDSEC
  0
SECTION
  2
OBJECTS
  0
DICTIONARY
  5
C
330
0
100
AcDbDictionary
  3
ACAD_GROUP
350
D
  3
ACAD_MLINESTYLE
350
17
  0
DICTIONARY
  5
D
330
C
100
AcDbDictionary
  0
DICTIONARY
  5
1A
330
C
100
AcDbDictionary
  0
DICTIONARY
  5
17
330
C
100
AcDbDictionary
  3
STANDARD
350
18
  0
DICTIONARY
  5
19
330
C
100
AcDbDictionary
  0
ENDSEC
  0
EOF
