  0
SECTION
  2
HEADER
  9
$ACADVER
  1
AC1014
  9
$HANDSEED
  5
FFFF
  9
$MEASUREMENT
 70
     1
  0
ENDSEC
  0
SECTION
  2
TABLES
  0
TABLE
  2
VPORT
  5
8
330
0
100
AcDbSymbolTable
 70
     4
  0
VPORT
  5
2E
330
8
100
AcDbSymbolTableRecord
100
AcDbViewportTableRecord
  2
*ACTIVE
 70
     0
 10
0.0
 20
0.0
 11
1.0
 21
1.0
 12
210.0
 22
148.5
 13
0.0
 23
0.0
 14
10.0
 24
10.0
 15
10.0
 25
10.0
 16
0.0
 26
0.0
 36
1.0
 17
0.0
 27
0.0
 37
0.0
 40
341.0
 41
1.24
 42
50.0
 43
0.0
 44
0.0
 50
0.0
 51
0.0
 71
     0
 72
   100
 73
     1
 74
     3
 75
     0
 76
     0
 77
     0
 78
     0
  0
ENDTAB
  0
TABLE
  2
LTYPE
  5
5
330
0
100
AcDbSymbolTable
 70
     1
  0
LTYPE
  5
14
330
5
100
AcDbSymbolTableRecord
100
AcDbLinetypeTableRecord
  2
BYBLOCK
 70
     0
  3

 72
    65
 73
     0
 40
0.0
  0
LTYPE
  5
15
330
5
100
AcDbSymbolTableRecord
100
AcDbLinetypeTableRecord
  2
BYLAYER
 70
     0
  3

 72
    65
 73
     0
 40
0.0
  0
LTYPE
  5
16
330
5
100
AcDbSymbolTableRecord
100
AcDbLinetypeTableRecord
  2
CONTINUOUS
 70
     0
  3
Solid line
 72
    65
 73
     0
 40
0.0
  0
ENDTAB
  0
TABLE
  2
LAYER
  5
2
100
AcDbSymbolTable
 70
1
  0
LAYER
  5
50
100
AcDbSymbolTableRecord
100
AcDbLayerTableRecord
  2
0
 70
0
  6
CONTINUOUS
  0
ENDTAB
  0
TABLE
  2
STYLE
  5
3
330
0
100
AcDbSymbolTable
 70
     1
  0
STYLE
  5
11
330
3
100
AcDbSymbolTableRecord
100
AcDbTextStyleTableRecord
  2
STANDARD
 70
     0
 40
0.0
 41
1.0
 50
0.0
 71
     0
 42
2.5
  3
txt
  4

  0
ENDTAB
  0
TABLE
  2
VIEW
  5
6
330
0
100
AcDbSymbolTable
 70
     0
  0
ENDTAB
  0
TABLE
  2
UCS
  5
7
330
0
100
AcDbSymbolTable
 70
     0
  0
ENDTAB
  0
TABLE
  2
APPID
  5
9
330
0
100
AcDbSymbolTable
 70
     2
  0
APPID
  5
12
330
9
100
AcDbSymbolTableRecord
100
AcDbRegAppTableRecord
  2
ACAD
 70
     0
  0
ENDTAB
  0
TABLE
  2
DIMSTYLE
  5
A
330
0
100
AcDbSymbolTable
 70
     1
  0
DIMSTYLE
105
27
330
A
100
AcDbSymbolTableRecord
100
AcDbDimStyleTableRecord
  2
ISO-25
 70
     0
  3

  4

  5

  6

  7

 40
1.0
 41
2.5
 42
0.625
 43
3.75
 44
1.25
 45
0.0
 46
0.0
 47
0.0
 48
0.0
140
2.5
141
2.5
142
0.0
143
0.03937007874016
144
1.0
145
0.0
146
1.0
147
0.625
 71
     0
 72
     0
 73
     0
 74
     0
 75
     0
 76
     0
 77
     1
 78
     8
170
     0
171
     3
172
     1
173
     0
174
     0
175
     0
176
     0
177
     0
178
     0
270
     2
271
     2
272
     2
273
     2
274
     3
340
11
275
     0
280
     0
281
     0
282
     0
283
     0
284
     8
285
     0
286
     0
287
     3
288
     0
  0
ENDTAB
  0
TABLE
  2
BLOCK_RECORD
  5
1
330
0
100
AcDbSymbolTable
 70
     1
  0
BLOCK_RECORD
  5
1F
330
1
100
AcDbSymbolTableRecord
100
AcDbBlockTableRecord
  2
*MODEL_SPACE
  0
BLOCK_RECORD
  5
1B
330
1
100
AcDbSymbolTableRecord
100
AcDbBlockTableRecord
  2
*PAPER_SPACE
  0
ENDTAB
  0
ENDSEC
  0
SECTION
  2
BLOCKS
  0
BLOCK
  5
20
330
1F
100
AcDbEntity
  8
0
100
AcDbBlockBegin
  2
*MODEL_SPACE
 70
     0
 10
0.0
 20
0.0
 30
0.0
  3
*MODEL_SPACE
  1

  0
ENDBLK
  5
21
330
1F
100
AcDbEntity
  8
0
100
AcDbBlockEnd
  0
BLOCK
  5
1C
330
1B
100
AcDbEntity
 67
     1
  8
0
100
AcDbBlockBegin
  2
*PAPER_SPACE
  1

  0
ENDBLK
  5
1D
330
1B
100
AcDbEntity
 67
     1
  8
0
100
AcDbBlockEnd
  0
ENDSEC
  0
SECTION
  2
ENTITIES
  0
LWPOLYLINE
  5
100
100
AcDbEntity
  8
0
 62
7
100
AcDbPolyline
 90
4
 70
1
 10
177.002186
 20
-163.991219
 30
0.0
 10
285.002224
 20
-163.991219
 30
0.0
 10
285.002224
 20
-195.991155
 30
0.0
 10
177.002186
 20
-195.991155
 30
0.0
  0
LWPOLYLINE
  5
101
100
AcDbEntity
  8
0
 62
7
100
AcDbPolyline
 90
4
 70
1
 10
10.000005
 20
-7.983936
 30
0.0
 10
287.002245
 20
-7.983936
 30
0.0
 10
287.002245
 20
-197.991176
 30
0.0
 10
10.000005
 20
-197.991176
 30
0.0
  0
LWPOLYLINE
  5
102
100
AcDbEntity
  8
0
 62
7
100
AcDbPolyline
 90
4
 70
1
 10
12.000001
 20
-9.983932
 30
0.0
 10
285.001741
 20
-9.983932
 30
0.0
 10
285.001741
 20
-195.991180
 30
0.0
 10
12.000001
 20
-195.991180
 30
0.0
  0
LWPOLYLINE
  5
103
100
AcDbEntity
  8
0
 62
7
100
AcDbPolyline
 90
2
 70
0
 10
59.999880
 20
-9.982891
 30
0.0
 10
59.999880
 20
-7.983911
 30
0.0
  0
LWPOLYLINE
  5
104
100
AcDbEntity
  8
0
 62
7
100
AcDbPolyline
 90
2
 70
0
 10
109.999780
 20
-9.982891
 30
0.0
 10
109.999780
 20
-7.983911
 30
0.0
  0
LWPOLYLINE
  5
105
100
AcDbEntity
  8
0
 62
7
100
AcDbPolyline
 90
2
 70
0
 10
159.999680
 20
-9.982891
 30
0.0
 10
159.999680
 20
-7.983911
 30
0.0
  0
LWPOLYLINE
  5
106
100
AcDbEntity
  8
0
 62
7
100
AcDbPolyline
 90
2
 70
0
 10
209.999580
 20
-9.982891
 30
0.0
 10
209.999580
 20
-7.983911
 30
0.0
  0
LWPOLYLINE
  5
107
100
AcDbEntity
  8
0
 62
7
100
AcDbPolyline
 90
2
 70
0
 10
259.999480
 20
-9.982891
 30
0.0
 10
259.999480
 20
-7.983911
 30
0.0
  0
LWPOLYLINE
  5
108
100
AcDbEntity
  8
0
 62
7
100
AcDbPolyline
 90
2
 70
0
 10
36.065460
 20
-9.571411
 30
0.0
 10
35.321240
 20
-9.571411
 30
0.0
  0
LWPOLYLINE
  5
109
100
AcDbEntity
  8
0
 62
7
100
AcDbPolyline
 90
5
 70
0
 10
35.692080
 20
-9.571411
 30
0.0
 10
35.692080
 20
-8.270931
 30
0.0
 10
35.570160
 20
-8.456351
 30
0.0
 10
35.445700
 20
-8.580811
 30
0.0
 10
35.321240
 20
-8.641771
 30
0.0
  0
LWPOLYLINE
  5
10a
100
AcDbEntity
  8
0
 62
7
100
AcDbPolyline
 90
11
 70
0
 10
85.321140
 20
-8.395391
 30
0.0
 10
85.382100
 20
-8.331891
 30
0.0
 10
85.506560
 20
-8.270931
 30
0.0
 10
85.816440
 20
-8.270931
 30
0.0
 10
85.940900
 20
-8.331891
 30
0.0
 10
86.001860
 20
-8.395391
 30
0.0
 10
86.065360
 20
-8.517311
 30
0.0
 10
86.065360
 20
-8.641771
 30
0.0
 10
86.001860
 20
-8.827191
 30
0.0
 10
85.260180
 20
-9.571411
 30
0.0
 10
86.065360
 20
-9.571411
 30
0.0
  0
LWPOLYLINE
  5
10b
100
AcDbEntity
  8
0
 62
7
100
AcDbPolyline
 90
14
 70
0
 10
135.260080
 20
-8.270931
 30
0.0
 10
136.065260
 20
-8.270931
 30
0.0
 10
135.630920
 20
-8.766231
 30
0.0
 10
135.816340
 20
-8.766231
 30
0.0
 10
135.940800
 20
-8.827191
 30
0.0
 10
136.001760
 20
-8.890691
 30
0.0
 10
136.065260
 20
-9.012611
 30
0.0
 10
136.065260
 20
-9.322491
 30
0.0
 10
136.001760
 20
-9.446951
 30
0.0
 10
135.940800
 20
-9.507911
 30
0.0
 10
135.816340
 20
-9.571411
 30
0.0
 10
135.445500
 20
-9.571411
 30
0.0
 10
135.321040
 20
-9.507911
 30
0.0
 10
135.260080
 20
-9.446951
 30
0.0
  0
LWPOLYLINE
  5
10c
100
AcDbEntity
  8
0
 62
7
100
AcDbPolyline
 90
2
 70
0
 10
185.940700
 20
-8.705271
 30
0.0
 10
185.940700
 20
-9.571411
 30
0.0
  0
LWPOLYLINE
  5
10d
100
AcDbEntity
  8
0
 62
7
100
AcDbPolyline
 90
3
 70
0
 10
185.630820
 20
-8.209971
 30
0.0
 10
185.320940
 20
-9.137071
 30
0.0
 10
186.126120
 20
-9.137071
 30
0.0
  0
LWPOLYLINE
  5
10e
100
AcDbEntity
  8
0
 62
7
100
AcDbPolyline
 90
16
 70
0
 10
236.001560
 20
-8.270931
 30
0.0
 10
235.384340
 20
-8.270931
 30
0.0
 10
235.320840
 20
-8.890691
 30
0.0
 10
235.384340
 20
-8.827191
 30
0.0
 10
235.506260
 20
-8.766231
 30
0.0
 10
235.816140
 20
-8.766231
 30
0.0
 10
235.940600
 20
-8.827191
 30
0.0
 10
236.001560
 20
-8.890691
 30
0.0
 10
236.065060
 20
-9.012611
 30
0.0
 10
236.065060
 20
-9.322491
 30
0.0
 10
236.001560
 20
-9.446951
 30
0.0
 10
235.940600
 20
-9.507911
 30
0.0
 10
235.816140
 20
-9.571411
 30
0.0
 10
235.506260
 20
-9.571411
 30
0.0
 10
235.384340
 20
-9.507911
 30
0.0
 10
235.320840
 20
-9.446951
 30
0.0
  0
LWPOLYLINE
  5
10f
100
AcDbEntity
  8
0
 62
7
100
AcDbPolyline
 90
22
 70
0
 10
285.940500
 20
-8.270931
 30
0.0
 10
285.691580
 20
-8.270931
 30
0.0
 10
285.569660
 20
-8.331891
 30
0.0
 10
285.506160
 20
-8.395391
 30
0.0
 10
285.384240
 20
-8.580811
 30
0.0
 10
285.320740
 20
-8.827191
 30
0.0
 10
285.320740
 20
-9.322491
 30
0.0
 10
285.384240
 20
-9.446951
 30
0.0
 10
285.445200
 20
-9.507911
 30
0.0
 10
285.569660
 20
-9.571411
 30
0.0
 10
285.816040
 20
-9.571411
 30
0.0
 10
285.940500
 20
-9.507911
 30
0.0
 10
286.001460
 20
-9.446951
 30
0.0
 10
286.064960
 20
-9.322491
 30
0.0
 10
286.064960
 20
-9.012611
 30
0.0
 10
286.001460
 20
-8.890691
 30
0.0
 10
285.940500
 20
-8.827191
 30
0.0
 10
285.816040
 20
-8.766231
 30
0.0
 10
285.569660
 20
-8.766231
 30
0.0
 10
285.445200
 20
-8.827191
 30
0.0
 10
285.384240
 20
-8.890691
 30
0.0
 10
285.320740
 20
-9.012611
 30
0.0
  0
LWPOLYLINE
  5
110
100
AcDbEntity
  8
0
 62
7
100
AcDbPolyline
 90
2
 70
0
 10
59.999880
 20
-195.989631
 30
0.0
 10
59.999880
 20
-197.988611
 30
0.0
  0
LWPOLYLINE
  5
111
100
AcDbEntity
  8
0
 62
7
100
AcDbPolyline
 90
2
 70
0
 10
109.999780
 20
-195.989631
 30
0.0
 10
109.999780
 20
-197.988611
 30
0.0
  0
LWPOLYLINE
  5
112
100
AcDbEntity
  8
0
 62
7
100
AcDbPolyline
 90
2
 70
0
 10
159.999680
 20
-195.989631
 30
0.0
 10
159.999680
 20
-197.988611
 30
0.0
  0
LWPOLYLINE
  5
113
100
AcDbEntity
  8
0
 62
7
100
AcDbPolyline
 90
2
 70
0
 10
209.999580
 20
-195.989631
 30
0.0
 10
209.999580
 20
-197.988611
 30
0.0
  0
LWPOLYLINE
  5
114
100
AcDbEntity
  8
0
 62
7
100
AcDbPolyline
 90
2
 70
0
 10
259.999480
 20
-195.989631
 30
0.0
 10
259.999480
 20
-197.988611
 30
0.0
  0
LWPOLYLINE
  5
115
100
AcDbEntity
  8
0
 62
7
100
AcDbPolyline
 90
2
 70
0
 10
36.065460
 20
-197.577131
 30
0.0
 10
35.321240
 20
-197.577131
 30
0.0
  0
LWPOLYLINE
  5
116
100
AcDbEntity
  8
0
 62
7
100
AcDbPolyline
 90
5
 70
0
 10
35.692080
 20
-197.577131
 30
0.0
 10
35.692080
 20
-196.279191
 30
0.0
 10
35.570160
 20
-196.464611
 30
0.0
 10
35.445700
 20
-196.586531
 30
0.0
 10
35.321240
 20
-196.650031
 30
0.0
  0
LWPOLYLINE
  5
117
100
AcDbEntity
  8
0
 62
7
100
AcDbPolyline
 90
11
 70
0
 10
85.321140
 20
-196.401111
 30
0.0
 10
85.382100
 20
-196.340151
 30
0.0
 10
85.506560
 20
-196.279191
 30
0.0
 10
85.816440
 20
-196.279191
 30
0.0
 10
85.940900
 20
-196.340151
 30
0.0
 10
86.001860
 20
-196.401111
 30
0.0
 10
86.065360
 20
-196.525571
 30
0.0
 10
86.065360
 20
-196.650031
 30
0.0
 10
86.001860
 20
-196.835451
 30
0.0
 10
85.260180
 20
-197.577131
 30
0.0
 10
86.065360
 20
-197.577131
 30
0.0
  0
LWPOLYLINE
  5
118
100
AcDbEntity
  8
0
 62
7
100
AcDbPolyline
 90
14
 70
0
 10
135.260080
 20
-196.279191
 30
0.0
 10
136.065260
 20
-196.279191
 30
0.0
 10
135.630920
 20
-196.771951
 30
0.0
 10
135.816340
 20
-196.771951
 30
0.0
 10
135.940800
 20
-196.835451
 30
0.0
 10
136.001760
 20
-196.896411
 30
0.0
 10
136.065260
 20
-197.020871
 30
0.0
 10
136.065260
 20
-197.330751
 30
0.0
 10
136.001760
 20
-197.455211
 30
0.0
 10
135.940800
 20
-197.516171
 30
0.0
 10
135.816340
 20
-197.577131
 30
0.0
 10
135.445500
 20
-197.577131
 30
0.0
 10
135.321040
 20
-197.516171
 30
0.0
 10
135.260080
 20
-197.455211
 30
0.0
  0
LWPOLYLINE
  5
119
100
AcDbEntity
  8
0
 62
7
100
AcDbPolyline
 90
2
 70
0
 10
185.940700
 20
-196.710991
 30
0.0
 10
185.940700
 20
-197.577131
 30
0.0
  0
LWPOLYLINE
  5
11a
100
AcDbEntity
  8
0
 62
7
100
AcDbPolyline
 90
3
 70
0
 10
185.630820
 20
-196.215691
 30
0.0
 10
185.320940
 20
-197.145331
 30
0.0
 10
186.126120
 20
-197.145331
 30
0.0
  0
LWPOLYLINE
  5
11b
100
AcDbEntity
  8
0
 62
7
100
AcDbPolyline
 90
16
 70
0
 10
236.001560
 20
-196.279191
 30
0.0
 10
235.384340
 20
-196.279191
 30
0.0
 10
235.320840
 20
-196.896411
 30
0.0
 10
235.384340
 20
-196.835451
 30
0.0
 10
235.506260
 20
-196.771951
 30
0.0
 10
235.816140
 20
-196.771951
 30
0.0
 10
235.940600
 20
-196.835451
 30
0.0
 10
236.001560
 20
-196.896411
 30
0.0
 10
236.065060
 20
-197.020871
 30
0.0
 10
236.065060
 20
-197.330751
 30
0.0
 10
236.001560
 20
-197.455211
 30
0.0
 10
235.940600
 20
-197.516171
 30
0.0
 10
235.816140
 20
-197.577131
 30
0.0
 10
235.506260
 20
-197.577131
 30
0.0
 10
235.384340
 20
-197.516171
 30
0.0
 10
235.320840
 20
-197.455211
 30
0.0
  0
LWPOLYLINE
  5
11c
100
AcDbEntity
  8
0
 62
7
100
AcDbPolyline
 90
22
 70
0
 10
285.940500
 20
-196.279191
 30
0.0
 10
285.691580
 20
-196.279191
 30
0.0
 10
285.569660
 20
-196.340151
 30
0.0
 10
285.506160
 20
-196.401111
 30
0.0
 10
285.384240
 20
-196.586531
 30
0.0
 10
285.320740
 20
-196.835451
 30
0.0
 10
285.320740
 20
-197.330751
 30
0.0
 10
285.384240
 20
-197.455211
 30
0.0
 10
285.445200
 20
-197.516171
 30
0.0
 10
285.569660
 20
-197.577131
 30
0.0
 10
285.816040
 20
-197.577131
 30
0.0
 10
285.940500
 20
-197.516171
 30
0.0
 10
286.001460
 20
-197.455211
 30
0.0
 10
286.064960
 20
-197.330751
 30
0.0
 10
286.064960
 20
-197.020871
 30
0.0
 10
286.001460
 20
-196.896411
 30
0.0
 10
285.940500
 20
-196.835451
 30
0.0
 10
285.816040
 20
-196.771951
 30
0.0
 10
285.569660
 20
-196.771951
 30
0.0
 10
285.445200
 20
-196.835451
 30
0.0
 10
285.384240
 20
-196.896411
 30
0.0
 10
285.320740
 20
-197.020871
 30
0.0
  0
LWPOLYLINE
  5
11d
100
AcDbEntity
  8
0
 62
7
100
AcDbPolyline
 90
2
 70
0
 10
9.999980
 20
-57.983811
 30
0.0
 10
11.998960
 20
-57.983811
 30
0.0
  0
LWPOLYLINE
  5
11e
100
AcDbEntity
  8
0
 62
7
100
AcDbPolyline
 90
2
 70
0
 10
9.999980
 20
-107.983711
 30
0.0
 10
11.998960
 20
-107.983711
 30
0.0
  0
LWPOLYLINE
  5
11f
100
AcDbEntity
  8
0
 62
7
100
AcDbPolyline
 90
2
 70
0
 10
9.999980
 20
-157.983611
 30
0.0
 10
11.998960
 20
-157.983611
 30
0.0
  0
LWPOLYLINE
  5
120
100
AcDbEntity
  8
0
 62
7
100
AcDbPolyline
 90
2
 70
0
 10
10.688320
 20
-33.198491
 30
0.0
 10
11.308080
 20
-33.198491
 30
0.0
  0
LWPOLYLINE
  5
121
100
AcDbEntity
  8
0
 62
7
100
AcDbPolyline
 90
3
 70
0
 10
10.566400
 20
-33.571871
 30
0.0
 10
10.998200
 20
-32.271391
 30
0.0
 10
11.432540
 20
-33.571871
 30
0.0
  0
LWPOLYLINE
  5
122
100
AcDbEntity
  8
0
 62
7
100
AcDbPolyline
 90
19
 70
0
 10
11.092180
 20
-82.891051
 30
0.0
 10
11.277600
 20
-82.952011
 30
0.0
 10
11.338560
 20
-83.012971
 30
0.0
 10
11.402060
 20
-83.137431
 30
0.0
 10
11.402060
 20
-83.322851
 30
0.0
 10
11.338560
 20
-83.447311
 30
0.0
 10
11.277600
 20
-83.508271
 30
0.0
 10
11.153140
 20
-83.571771
 30
0.0
 10
10.657840
 20
-83.571771
 30
0.0
 10
10.657840
 20
-82.271291
 30
0.0
 10
11.092180
 20
-82.271291
 30
0.0
 10
11.216640
 20
-82.332251
 30
0.0
 10
11.277600
 20
-82.395751
 30
0.0
 10
11.338560
 20
-82.517671
 30
0.0
 10
11.338560
 20
-82.642131
 30
0.0
 10
11.277600
 20
-82.766591
 30
0.0
 10
11.216640
 20
-82.827551
 30
0.0
 10
11.092180
 20
-82.891051
 30
0.0
 10
10.657840
 20
-82.891051
 30
0.0
  0
LWPOLYLINE
  5
123
100
AcDbEntity
  8
0
 62
7
100
AcDbPolyline
 90
16
 70
0
 10
11.402060
 20
-133.447211
 30
0.0
 10
11.338560
 20
-133.508171
 30
0.0
 10
11.153140
 20
-133.571671
 30
0.0
 10
11.028680
 20
-133.571671
 30
0.0
 10
10.843260
 20
-133.508171
 30
0.0
 10
10.721340
 20
-133.386251
 30
0.0
 10
10.657840
 20
-133.261791
 30
0.0
 10
10.596880
 20
-133.012871
 30
0.0
 10
10.596880
 20
-132.827451
 30
0.0
 10
10.657840
 20
-132.581071
 30
0.0
 10
10.721340
 20
-132.456611
 30
0.0
 10
10.843260
 20
-132.332151
 30
0.0
 10
11.028680
 20
-132.271191
 30
0.0
 10
11.153140
 20
-132.271191
 30
0.0
 10
11.338560
 20
-132.332151
 30
0.0
 10
11.402060
 20
-132.395651
 30
0.0
  0
LWPOLYLINE
  5
124
100
AcDbEntity
  8
0
 62
7
100
AcDbPolyline
 90
12
 70
1
 10
10.657840
 20
-183.571571
 30
0.0
 10
10.657840
 20
-182.271091
 30
0.0
 10
10.967720
 20
-182.271091
 30
0.0
 10
11.153140
 20
-182.332051
 30
0.0
 10
11.277600
 20
-182.456511
 30
0.0
 10
11.338560
 20
-182.580971
 30
0.0
 10
11.402060
 20
-182.827351
 30
0.0
 10
11.402060
 20
-183.012771
 30
0.0
 10
11.338560
 20
-183.261691
 30
0.0
 10
11.277600
 20
-183.386151
 30
0.0
 10
11.153140
 20
-183.508071
 30
0.0
 10
10.967720
 20
-183.571571
 30
0.0
  0
LWPOLYLINE
  5
125
100
AcDbEntity
  8
0
 62
7
100
AcDbPolyline
 90
2
 70
0
 10
286.999680
 20
-57.983811
 30
0.0
 10
285.000700
 20
-57.983811
 30
0.0
  0
LWPOLYLINE
  5
126
100
AcDbEntity
  8
0
 62
7
100
AcDbPolyline
 90
2
 70
0
 10
286.999680
 20
-107.983711
 30
0.0
 10
285.000700
 20
-107.983711
 30
0.0
  0
LWPOLYLINE
  5
127
100
AcDbEntity
  8
0
 62
7
100
AcDbPolyline
 90
2
 70
0
 10
286.999680
 20
-157.983611
 30
0.0
 10
285.000700
 20
-157.983611
 30
0.0
  0
LWPOLYLINE
  5
128
100
AcDbEntity
  8
0
 62
7
100
AcDbPolyline
 90
2
 70
0
 10
285.691580
 20
-33.198491
 30
0.0
 10
286.311340
 20
-33.198491
 30
0.0
  0
LWPOLYLINE
  5
129
100
AcDbEntity
  8
0
 62
7
100
AcDbPolyline
 90
3
 70
0
 10
285.567120
 20
-33.571871
 30
0.0
 10
286.001460
 20
-32.271391
 30
0.0
 10
286.433260
 20
-33.571871
 30
0.0
  0
LWPOLYLINE
  5
12a
100
AcDbEntity
  8
0
 62
7
100
AcDbPolyline
 90
19
 70
0
 10
286.092900
 20
-82.891051
 30
0.0
 10
286.278320
 20
-82.952011
 30
0.0
 10
286.341820
 20
-83.012971
 30
0.0
 10
286.402780
 20
-83.137431
 30
0.0
 10
286.402780
 20
-83.322851
 30
0.0
 10
286.341820
 20
-83.447311
 30
0.0
 10
286.278320
 20
-83.508271
 30
0.0
 10
286.156400
 20
-83.571771
 30
0.0
 10
285.661100
 20
-83.571771
 30
0.0
 10
285.661100
 20
-82.271291
 30
0.0
 10
286.092900
 20
-82.271291
 30
0.0
 10
286.217360
 20
-82.332251
 30
0.0
 10
286.278320
 20
-82.395751
 30
0.0
 10
286.341820
 20
-82.517671
 30
0.0
 10
286.341820
 20
-82.642131
 30
0.0
 10
286.278320
 20
-82.766591
 30
0.0
 10
286.217360
 20
-82.827551
 30
0.0
 10
286.092900
 20
-82.891051
 30
0.0
 10
285.661100
 20
-82.891051
 30
0.0
  0
LWPOLYLINE
  5
12b
100
AcDbEntity
  8
0
 62
7
100
AcDbPolyline
 90
16
 70
0
 10
286.402780
 20
-133.447211
 30
0.0
 10
286.341820
 20
-133.508171
 30
0.0
 10
286.156400
 20
-133.571671
 30
0.0
 10
286.031940
 20
-133.571671
 30
0.0
 10
285.846520
 20
-133.508171
 30
0.0
 10
285.722060
 20
-133.386251
 30
0.0
 10
285.661100
 20
-133.261791
 30
0.0
 10
285.597600
 20
-133.012871
 30
0.0
 10
285.597600
 20
-132.827451
 30
0.0
 10
285.661100
 20
-132.581071
 30
0.0
 10
285.722060
 20
-132.456611
 30
0.0
 10
285.846520
 20
-132.332151
 30
0.0
 10
286.031940
 20
-132.271191
 30
0.0
 10
286.156400
 20
-132.271191
 30
0.0
 10
286.341820
 20
-132.332151
 30
0.0
 10
286.402780
 20
-132.395651
 30
0.0
  0
LWPOLYLINE
  5
12c
100
AcDbEntity
  8
0
 62
7
100
AcDbPolyline
 90
12
 70
1
 10
285.661100
 20
-183.571571
 30
0.0
 10
285.661100
 20
-182.271091
 30
0.0
 10
285.970980
 20
-182.271091
 30
0.0
 10
286.156400
 20
-182.332051
 30
0.0
 10
286.278320
 20
-182.456511
 30
0.0
 10
286.341820
 20
-182.580971
 30
0.0
 10
286.402780
 20
-182.827351
 30
0.0
 10
286.402780
 20
-183.012771
 30
0.0
 10
286.341820
 20
-183.261691
 30
0.0
 10
286.278320
 20
-183.386151
 30
0.0
 10
286.156400
 20
-183.508071
 30
0.0
 10
285.970980
 20
-183.571571
 30
0.0
  0
LWPOLYLINE
  5
12d
100
AcDbEntity
  8
0
 62
7
100
AcDbPolyline
 90
12
 70
1
 10
200.433940
 20
-191.768151
 30
0.0
 10
200.433940
 20
-190.269551
 30
0.0
 10
200.789540
 20
-190.269551
 30
0.0
 10
201.005440
 20
-190.340671
 30
0.0
 10
201.147680
 20
-190.482911
 30
0.0
 10
201.218800
 20
-190.625151
 30
0.0
 10
201.289920
 20
-190.912171
 30
0.0
 10
201.289920
 20
-191.125531
 30
0.0
 10
201.218800
 20
-191.412551
 30
0.0
 10
201.147680
 20
-191.554791
 30
0.0
 10
201.005440
 20
-191.697031
 30
0.0
 10
200.789540
 20
-191.768151
 30
0.0
  0
LWPOLYLINE
  5
12e
100
AcDbEntity
  8
0
 62
7
100
AcDbPolyline
 90
6
 70
0
 10
202.575160
 20
-191.768151
 30
0.0
 10
202.575160
 20
-190.983291
 30
0.0
 10
202.504040
 20
-190.841051
 30
0.0
 10
202.361800
 20
-190.767391
 30
0.0
 10
202.074780
 20
-190.767391
 30
0.0
 10
201.932540
 20
-190.841051
 30
0.0
  0
LWPOLYLINE
  5
12f
100
AcDbEntity
  8
0
 62
7
100
AcDbPolyline
 90
10
 70
0
 10
202.575160
 20
-191.697031
 30
0.0
 10
202.432920
 20
-191.768151
 30
0.0
 10
202.074780
 20
-191.768151
 30
0.0
 10
201.932540
 20
-191.697031
 30
0.0
 10
201.861420
 20
-191.554791
 30
0.0
 10
201.861420
 20
-191.412551
 30
0.0
 10
201.932540
 20
-191.267771
 30
0.0
 10
202.074780
 20
-191.196651
 30
0.0
 10
202.432920
 20
-191.196651
 30
0.0
 10
202.575160
 20
-191.125531
 30
0.0
  0
LWPOLYLINE
  5
130
100
AcDbEntity
  8
0
 62
7
100
AcDbPolyline
 90
2
 70
0
 10
203.075540
 20
-190.767391
 30
0.0
 10
203.647040
 20
-190.767391
 30
0.0
  0
LWPOLYLINE
  5
131
100
AcDbEntity
  8
0
 62
7
100
AcDbPolyline
 90
5
 70
0
 10
203.291440
 20
-190.269551
 30
0.0
 10
203.291440
 20
-191.554791
 30
0.0
 10
203.362560
 20
-191.697031
 30
0.0
 10
203.504800
 20
-191.768151
 30
0.0
 10
203.647040
 20
-191.768151
 30
0.0
  0
LWPOLYLINE
  5
132
100
AcDbEntity
  8
0
 62
7
100
AcDbPolyline
 90
13
 70
0
 10
204.718920
 20
-191.697031
 30
0.0
 10
204.576680
 20
-191.768151
 30
0.0
 10
204.289660
 20
-191.768151
 30
0.0
 10
204.147420
 20
-191.697031
 30
0.0
 10
204.076300
 20
-191.554791
 30
0.0
 10
204.076300
 20
-190.983291
 30
0.0
 10
204.147420
 20
-190.841051
 30
0.0
 10
204.289660
 20
-190.767391
 30
0.0
 10
204.576680
 20
-190.767391
 30
0.0
 10
204.718920
 20
-190.841051
 30
0.0
 10
204.790040
 20
-190.983291
 30
0.0
 10
204.790040
 20
-191.125531
 30
0.0
 10
204.076300
 20
-191.267771
 30
0.0
  0
LWPOLYLINE
  5
133
100
AcDbEntity
  8
0
 62
7
100
AcDbPolyline
 90
6
 70
0
 10
205.432660
 20
-191.625911
 30
0.0
 10
205.503780
 20
-191.697031
 30
0.0
 10
205.432660
 20
-191.768151
 30
0.0
 10
205.361540
 20
-191.697031
 30
0.0
 10
205.432660
 20
-191.625911
 30
0.0
 10
205.432660
 20
-191.768151
 30
0.0
  0
LWPOLYLINE
  5
134
100
AcDbEntity
  8
0
 62
7
100
AcDbPolyline
 90
6
 70
0
 10
205.432660
 20
-190.841051
 30
0.0
 10
205.503780
 20
-190.912171
 30
0.0
 10
205.432660
 20
-190.983291
 30
0.0
 10
205.361540
 20
-190.912171
 30
0.0
 10
205.432660
 20
-190.841051
 30
0.0
 10
205.432660
 20
-190.983291
 30
0.0
  0
LWPOLYLINE
  5
135
100
AcDbEntity
  8
0
 62
7
100
AcDbPolyline
 90
2
 70
0
 10
176.999900
 20
-192.489511
 30
0.0
 10
285.000700
 20
-192.489511
 30
0.0
  0
LWPOLYLINE
  5
136
100
AcDbEntity
  8
0
 62
7
100
AcDbPolyline
 90
2
 70
0
 10
178.432460
 20
-194.567231
 30
0.0
 10
178.432460
 20
-193.068631
 30
0.0
  0
LWPOLYLINE
  5
137
100
AcDbEntity
  8
0
 62
7
100
AcDbPolyline
 90
2
 70
0
 10
179.290980
 20
-194.567231
 30
0.0
 10
178.648360
 20
-193.711251
 30
0.0
  0
LWPOLYLINE
  5
138
100
AcDbEntity
  8
0
 62
7
100
AcDbPolyline
 90
2
 70
0
 10
179.290980
 20
-193.068631
 30
0.0
 10
178.432460
 20
-193.924611
 30
0.0
  0
LWPOLYLINE
  5
139
100
AcDbEntity
  8
0
 62
7
100
AcDbPolyline
 90
2
 70
0
 10
179.933600
 20
-194.567231
 30
0.0
 10
179.933600
 20
-193.569011
 30
0.0
  0
LWPOLYLINE
  5
13a
100
AcDbEntity
  8
0
 62
7
100
AcDbPolyline
 90
6
 70
0
 10
179.933600
 20
-193.068631
 30
0.0
 10
179.862480
 20
-193.139751
 30
0.0
 10
179.933600
 20
-193.210871
 30
0.0
 10
180.004720
 20
-193.139751
 30
0.0
 10
179.933600
 20
-193.068631
 30
0.0
 10
179.933600
 20
-193.210871
 30
0.0
  0
LWPOLYLINE
  5
13b
100
AcDbEntity
  8
0
 62
7
100
AcDbPolyline
 90
16
 70
0
 10
181.503320
 20
-194.424991
 30
0.0
 10
181.432200
 20
-194.496111
 30
0.0
 10
181.218840
 20
-194.567231
 30
0.0
 10
181.076600
 20
-194.567231
 30
0.0
 10
180.860700
 20
-194.496111
 30
0.0
 10
180.718460
 20
-194.353871
 30
0.0
 10
180.647340
 20
-194.211631
 30
0.0
 10
180.576220
 20
-193.924611
 30
0.0
 10
180.576220
 20
-193.711251
 30
0.0
 10
180.647340
 20
-193.426771
 30
0.0
 10
180.718460
 20
-193.281991
 30
0.0
 10
180.860700
 20
-193.139751
 30
0.0
 10
181.076600
 20
-193.068631
 30
0.0
 10
181.218840
 20
-193.068631
 30
0.0
 10
181.432200
 20
-193.139751
 30
0.0
 10
181.503320
 20
-193.210871
 30
0.0
  0
LWPOLYLINE
  5
13c
100
AcDbEntity
  8
0
 62
7
100
AcDbPolyline
 90
6
 70
0
 10
182.791100
 20
-194.567231
 30
0.0
 10
182.791100
 20
-193.782371
 30
0.0
 10
182.719980
 20
-193.640131
 30
0.0
 10
182.575200
 20
-193.569011
 30
0.0
 10
182.290720
 20
-193.569011
 30
0.0
 10
182.148480
 20
-193.640131
 30
0.0
  0
LWPOLYLINE
  5
13d
100
AcDbEntity
  8
0
 62
7
100
AcDbPolyline
 90
10
 70
0
 10
182.791100
 20
-194.496111
 30
0.0
 10
182.646320
 20
-194.567231
 30
0.0
 10
182.290720
 20
-194.567231
 30
0.0
 10
182.148480
 20
-194.496111
 30
0.0
 10
182.074820
 20
-194.353871
 30
0.0
 10
182.074820
 20
-194.211631
 30
0.0
 10
182.148480
 20
-194.069391
 30
0.0
 10
182.290720
 20
-193.998271
 30
0.0
 10
182.646320
 20
-193.998271
 30
0.0
 10
182.791100
 20
-193.924611
 30
0.0
  0
LWPOLYLINE
  5
13e
100
AcDbEntity
  8
0
 62
7
100
AcDbPolyline
 90
2
 70
0
 10
184.147460
 20
-194.567231
 30
0.0
 10
184.147460
 20
-193.068631
 30
0.0
  0
LWPOLYLINE
  5
13f
100
AcDbEntity
  8
0
 62
7
100
AcDbPolyline
 90
12
 70
0
 10
184.147460
 20
-194.496111
 30
0.0
 10
184.005220
 20
-194.567231
 30
0.0
 10
183.718200
 20
-194.567231
 30
0.0
 10
183.575960
 20
-194.496111
 30
0.0
 10
183.504840
 20
-194.424991
 30
0.0
 10
183.433720
 20
-194.282751
 30
0.0
 10
183.433720
 20
-193.853491
 30
0.0
 10
183.504840
 20
-193.711251
 30
0.0
 10
183.575960
 20
-193.640131
 30
0.0
 10
183.718200
 20
-193.569011
 30
0.0
 10
184.005220
 20
-193.569011
 30
0.0
 10
184.147460
 20
-193.640131
 30
0.0
  0
LWPOLYLINE
  5
140
100
AcDbEntity
  8
0
 62
7
100
AcDbPolyline
 90
2
 70
0
 10
186.004200
 20
-193.782371
 30
0.0
 10
186.504580
 20
-193.782371
 30
0.0
  0
LWPOLYLINE
  5
141
100
AcDbEntity
  8
0
 62
7
100
AcDbPolyline
 90
4
 70
0
 10
186.717940
 20
-194.567231
 30
0.0
 10
186.004200
 20
-194.567231
 30
0.0
 10
186.004200
 20
-193.068631
 30
0.0
 10
186.717940
 20
-193.068631
 30
0.0
  0
LWPOLYLINE
  5
142
100
AcDbEntity
  8
0
 62
7
100
AcDbPolyline
 90
6
 70
0
 10
187.360560
 20
-194.424991
 30
0.0
 10
187.434220
 20
-194.496111
 30
0.0
 10
187.360560
 20
-194.567231
 30
0.0
 10
187.289440
 20
-194.496111
 30
0.0
 10
187.360560
 20
-194.424991
 30
0.0
 10
187.360560
 20
-194.567231
 30
0.0
  0
LWPOLYLINE
  5
143
100
AcDbEntity
  8
0
 62
7
100
AcDbPolyline
 90
12
 70
1
 10
188.076840
 20
-194.567231
 30
0.0
 10
188.076840
 20
-193.068631
 30
0.0
 10
188.432440
 20
-193.068631
 30
0.0
 10
188.648340
 20
-193.139751
 30
0.0
 10
188.790580
 20
-193.281991
 30
0.0
 10
188.861700
 20
-193.426771
 30
0.0
 10
188.932820
 20
-193.711251
 30
0.0
 10
188.932820
 20
-193.924611
 30
0.0
 10
188.861700
 20
-194.211631
 30
0.0
 10
188.790580
 20
-194.353871
 30
0.0
 10
188.648340
 20
-194.496111
 30
0.0
 10
188.432440
 20
-194.567231
 30
0.0
  0
LWPOLYLINE
  5
144
100
AcDbEntity
  8
0
 62
7
100
AcDbPolyline
 90
6
 70
0
 10
189.575440
 20
-194.424991
 30
0.0
 10
189.646560
 20
-194.496111
 30
0.0
 10
189.575440
 20
-194.567231
 30
0.0
 10
189.504320
 20
-194.496111
 30
0.0
 10
189.575440
 20
-194.424991
 30
0.0
 10
189.575440
 20
-194.567231
 30
0.0
  0
LWPOLYLINE
  5
145
100
AcDbEntity
  8
0
 62
7
100
AcDbPolyline
 90
2
 70
0
 10
190.218060
 20
-194.140511
 30
0.0
 10
190.934340
 20
-194.140511
 30
0.0
  0
LWPOLYLINE
  5
146
100
AcDbEntity
  8
0
 62
7
100
AcDbPolyline
 90
3
 70
0
 10
190.075820
 20
-194.567231
 30
0.0
 10
190.576200
 20
-193.068631
 30
0.0
 10
191.076580
 20
-194.567231
 30
0.0
  0
LWPOLYLINE
  5
147
100
AcDbEntity
  8
0
 62
7
100
AcDbPolyline
 90
6
 70
0
 10
191.576960
 20
-194.424991
 30
0.0
 10
191.648080
 20
-194.496111
 30
0.0
 10
191.576960
 20
-194.567231
 30
0.0
 10
191.503300
 20
-194.496111
 30
0.0
 10
191.576960
 20
-194.424991
 30
0.0
 10
191.576960
 20
-194.567231
 30
0.0
  0
LWPOLYLINE
  5
148
100
AcDbEntity
  8
0
 62
7
100
AcDbPolyline
 90
2
 70
0
 10
194.576700
 20
-194.567231
 30
0.0
 10
194.576700
 20
-193.068631
 30
0.0
  0
LWPOLYLINE
  5
149
100
AcDbEntity
  8
0
 62
7
100
AcDbPolyline
 90
2
 70
0
 10
194.718940
 20
-193.998271
 30
0.0
 10
195.148200
 20
-194.567231
 30
0.0
  0
LWPOLYLINE
  5
14a
100
AcDbEntity
  8
0
 62
7
100
AcDbPolyline
 90
2
 70
0
 10
195.148200
 20
-193.569011
 30
0.0
 10
194.576700
 20
-194.140511
 30
0.0
  0
LWPOLYLINE
  5
14b
100
AcDbEntity
  8
0
 62
7
100
AcDbPolyline
 90
2
 70
0
 10
195.790820
 20
-194.567231
 30
0.0
 10
195.790820
 20
-193.569011
 30
0.0
  0
LWPOLYLINE
  5
14c
100
AcDbEntity
  8
0
 62
7
100
AcDbPolyline
 90
6
 70
0
 10
195.790820
 20
-193.068631
 30
0.0
 10
195.719700
 20
-193.139751
 30
0.0
 10
195.790820
 20
-193.210871
 30
0.0
 10
195.861940
 20
-193.139751
 30
0.0
 10
195.790820
 20
-193.068631
 30
0.0
 10
195.790820
 20
-193.210871
 30
0.0
  0
LWPOLYLINE
  5
14d
100
AcDbEntity
  8
0
 62
7
100
AcDbPolyline
 90
12
 70
0
 10
197.147180
 20
-194.496111
 30
0.0
 10
197.004940
 20
-194.567231
 30
0.0
 10
196.717920
 20
-194.567231
 30
0.0
 10
196.575680
 20
-194.496111
 30
0.0
 10
196.504560
 20
-194.424991
 30
0.0
 10
196.433440
 20
-194.282751
 30
0.0
 10
196.433440
 20
-193.853491
 30
0.0
 10
196.504560
 20
-193.711251
 30
0.0
 10
196.575680
 20
-193.640131
 30
0.0
 10
196.717920
 20
-193.569011
 30
0.0
 10
197.004940
 20
-193.569011
 30
0.0
 10
197.147180
 20
-193.640131
 30
0.0
  0
LWPOLYLINE
  5
14e
100
AcDbEntity
  8
0
 62
7
100
AcDbPolyline
 90
6
 70
0
 10
198.432420
 20
-194.567231
 30
0.0
 10
198.432420
 20
-193.782371
 30
0.0
 10
198.361300
 20
-193.640131
 30
0.0
 10
198.219060
 20
-193.569011
 30
0.0
 10
197.932040
 20
-193.569011
 30
0.0
 10
197.789800
 20
-193.640131
 30
0.0
  0
LWPOLYLINE
  5
14f
100
AcDbEntity
  8
0
 62
7
100
AcDbPolyline
 90
10
 70
0
 10
198.432420
 20
-194.496111
 30
0.0
 10
198.290180
 20
-194.567231
 30
0.0
 10
197.932040
 20
-194.567231
 30
0.0
 10
197.789800
 20
-194.496111
 30
0.0
 10
197.718680
 20
-194.353871
 30
0.0
 10
197.718680
 20
-194.211631
 30
0.0
 10
197.789800
 20
-194.069391
 30
0.0
 10
197.932040
 20
-193.998271
 30
0.0
 10
198.290180
 20
-193.998271
 30
0.0
 10
198.432420
 20
-193.924611
 30
0.0
  0
LWPOLYLINE
  5
150
100
AcDbEntity
  8
0
 62
7
100
AcDbPolyline
 90
2
 70
0
 10
199.791320
 20
-194.567231
 30
0.0
 10
199.791320
 20
-193.068631
 30
0.0
  0
LWPOLYLINE
  5
151
100
AcDbEntity
  8
0
 62
7
100
AcDbPolyline
 90
12
 70
0
 10
199.791320
 20
-194.496111
 30
0.0
 10
199.646540
 20
-194.567231
 30
0.0
 10
199.362060
 20
-194.567231
 30
0.0
 10
199.219820
 20
-194.496111
 30
0.0
 10
199.146160
 20
-194.424991
 30
0.0
 10
199.075040
 20
-194.282751
 30
0.0
 10
199.075040
 20
-193.853491
 30
0.0
 10
199.146160
 20
-193.711251
 30
0.0
 10
199.219820
 20
-193.640131
 30
0.0
 10
199.362060
 20
-193.569011
 30
0.0
 10
199.646540
 20
-193.569011
 30
0.0
 10
199.791320
 20
-193.640131
 30
0.0
  0
LWPOLYLINE
  5
152
100
AcDbEntity
  8
0
 62
7
100
AcDbPolyline
 90
12
 70
0
 10
202.074780
 20
-195.138731
 30
0.0
 10
202.003660
 20
-195.067611
 30
0.0
 10
201.861420
 20
-194.854251
 30
0.0
 10
201.790300
 20
-194.712011
 30
0.0
 10
201.719180
 20
-194.496111
 30
0.0
 10
201.648060
 20
-194.140511
 30
0.0
 10
201.648060
 20
-193.853491
 30
0.0
 10
201.719180
 20
-193.497891
 30
0.0
 10
201.790300
 20
-193.281991
 30
0.0
 10
201.861420
 20
-193.139751
 30
0.0
 10
202.003660
 20
-192.926391
 30
0.0
 10
202.074780
 20
-192.855271
 30
0.0
  0
LWPOLYLINE
  5
153
100
AcDbEntity
  8
0
 62
7
100
AcDbPolyline
 90
16
 70
0
 10
203.362560
 20
-193.068631
 30
0.0
 10
202.646280
 20
-193.068631
 30
0.0
 10
202.575160
 20
-193.782371
 30
0.0
 10
202.646280
 20
-193.711251
 30
0.0
 10
202.791060
 20
-193.640131
 30
0.0
 10
203.146660
 20
-193.640131
 30
0.0
 10
203.291440
 20
-193.711251
 30
0.0
 10
203.362560
 20
-193.782371
 30
0.0
 10
203.433680
 20
-193.924611
 30
0.0
 10
203.433680
 20
-194.282751
 30
0.0
 10
203.362560
 20
-194.424991
 30
0.0
 10
203.291440
 20
-194.496111
 30
0.0
 10
203.146660
 20
-194.567231
 30
0.0
 10
202.791060
 20
-194.567231
 30
0.0
 10
202.646280
 20
-194.496111
 30
0.0
 10
202.575160
 20
-194.424991
 30
0.0
  0
LWPOLYLINE
  5
154
100
AcDbEntity
  8
0
 62
7
100
AcDbPolyline
 90
6
 70
0
 10
204.076300
 20
-194.424991
 30
0.0
 10
204.147420
 20
-194.496111
 30
0.0
 10
204.076300
 20
-194.567231
 30
0.0
 10
204.005180
 20
-194.496111
 30
0.0
 10
204.076300
 20
-194.424991
 30
0.0
 10
204.076300
 20
-194.567231
 30
0.0
  0
LWPOLYLINE
  5
155
100
AcDbEntity
  8
0
 62
7
100
AcDbPolyline
 90
2
 70
0
 10
205.574900
 20
-194.567231
 30
0.0
 10
204.718920
 20
-194.567231
 30
0.0
  0
LWPOLYLINE
  5
156
100
AcDbEntity
  8
0
 62
7
100
AcDbPolyline
 90
5
 70
0
 10
205.148180
 20
-194.567231
 30
0.0
 10
205.148180
 20
-193.068631
 30
0.0
 10
205.003400
 20
-193.281991
 30
0.0
 10
204.861160
 20
-193.426771
 30
0.0
 10
204.718920
 20
-193.497891
 30
0.0
  0
LWPOLYLINE
  5
157
100
AcDbEntity
  8
0
 62
7
100
AcDbPolyline
 90
6
 70
0
 10
206.217520
 20
-194.424991
 30
0.0
 10
206.291180
 20
-194.496111
 30
0.0
 10
206.217520
 20
-194.567231
 30
0.0
 10
206.146400
 20
-194.496111
 30
0.0
 10
206.217520
 20
-194.424991
 30
0.0
 10
206.217520
 20
-194.567231
 30
0.0
  0
LWPOLYLINE
  5
158
100
AcDbEntity
  8
0
 62
7
100
AcDbPolyline
 90
22
 70
0
 10
207.576420
 20
-193.068631
 30
0.0
 10
207.289400
 20
-193.068631
 30
0.0
 10
207.147160
 20
-193.139751
 30
0.0
 10
207.076040
 20
-193.210871
 30
0.0
 10
206.933800
 20
-193.426771
 30
0.0
 10
206.862680
 20
-193.711251
 30
0.0
 10
206.862680
 20
-194.282751
 30
0.0
 10
206.933800
 20
-194.424991
 30
0.0
 10
207.004920
 20
-194.496111
 30
0.0
 10
207.147160
 20
-194.567231
 30
0.0
 10
207.434180
 20
-194.567231
 30
0.0
 10
207.576420
 20
-194.496111
 30
0.0
 10
207.647540
 20
-194.424991
 30
0.0
 10
207.718660
 20
-194.282751
 30
0.0
 10
207.718660
 20
-193.924611
 30
0.0
 10
207.647540
 20
-193.782371
 30
0.0
 10
207.576420
 20
-193.711251
 30
0.0
 10
207.434180
 20
-193.640131
 30
0.0
 10
207.147160
 20
-193.640131
 30
0.0
 10
207.004920
 20
-193.711251
 30
0.0
 10
206.933800
 20
-193.782371
 30
0.0
 10
206.862680
 20
-193.924611
 30
0.0
  0
LWPOLYLINE
  5
159
100
AcDbEntity
  8
0
 62
7
100
AcDbPolyline
 90
2
 70
0
 10
208.361280
 20
-193.998271
 30
0.0
 10
209.504280
 20
-193.998271
 30
0.0
  0
LWPOLYLINE
  5
15a
100
AcDbEntity
  8
0
 62
7
100
AcDbPolyline
 90
20
 70
1
 10
210.505040
 20
-193.068631
 30
0.0
 10
210.647280
 20
-193.068631
 30
0.0
 10
210.789520
 20
-193.139751
 30
0.0
 10
210.860640
 20
-193.210871
 30
0.0
 10
210.934300
 20
-193.353111
 30
0.0
 10
211.005420
 20
-193.640131
 30
0.0
 10
211.005420
 20
-193.998271
 30
0.0
 10
210.934300
 20
-194.282751
 30
0.0
 10
210.860640
 20
-194.424991
 30
0.0
 10
210.789520
 20
-194.496111
 30
0.0
 10
210.647280
 20
-194.567231
 30
0.0
 10
210.505040
 20
-194.567231
 30
0.0
 10
210.362800
 20
-194.496111
 30
0.0
 10
210.289140
 20
-194.424991
 30
0.0
 10
210.218020
 20
-194.282751
 30
0.0
 10
210.146900
 20
-193.998271
 30
0.0
 10
210.146900
 20
-193.640131
 30
0.0
 10
210.218020
 20
-193.353111
 30
0.0
 10
210.289140
 20
-193.210871
 30
0.0
 10
210.362800
 20
-193.139751
 30
0.0
  0
LWPOLYLINE
  5
15b
100
AcDbEntity
  8
0
 62
7
100
AcDbPolyline
 90
2
 70
0
 10
211.648040
 20
-193.998271
 30
0.0
 10
212.791040
 20
-193.998271
 30
0.0
  0
LWPOLYLINE
  5
15c
100
AcDbEntity
  8
0
 62
7
100
AcDbPolyline
 90
2
 70
0
 10
214.289640
 20
-194.567231
 30
0.0
 10
213.433660
 20
-194.567231
 30
0.0
  0
LWPOLYLINE
  5
15d
100
AcDbEntity
  8
0
 62
7
100
AcDbPolyline
 90
5
 70
0
 10
213.860380
 20
-194.567231
 30
0.0
 10
213.860380
 20
-193.068631
 30
0.0
 10
213.718140
 20
-193.281991
 30
0.0
 10
213.575900
 20
-193.426771
 30
0.0
 10
213.433660
 20
-193.497891
 30
0.0
  0
LWPOLYLINE
  5
15e
100
AcDbEntity
  8
0
 62
7
100
AcDbPolyline
 90
20
 70
1
 10
215.219280
 20
-193.068631
 30
0.0
 10
215.361520
 20
-193.068631
 30
0.0
 10
215.503760
 20
-193.139751
 30
0.0
 10
215.574880
 20
-193.210871
 30
0.0
 10
215.648540
 20
-193.353111
 30
0.0
 10
215.719660
 20
-193.640131
 30
0.0
 10
215.719660
 20
-193.998271
 30
0.0
 10
215.648540
 20
-194.282751
 30
0.0
 10
215.574880
 20
-194.424991
 30
0.0
 10
215.503760
 20
-194.496111
 30
0.0
 10
215.361520
 20
-194.567231
 30
0.0
 10
215.219280
 20
-194.567231
 30
0.0
 10
215.077040
 20
-194.496111
 30
0.0
 10
215.003380
 20
-194.424991
 30
0.0
 10
214.932260
 20
-194.282751
 30
0.0
 10
214.861140
 20
-193.998271
 30
0.0
 10
214.861140
 20
-193.640131
 30
0.0
 10
214.932260
 20
-193.353111
 30
0.0
 10
215.003380
 20
-193.210871
 30
0.0
 10
215.077040
 20
-193.139751
 30
0.0
  0
LWPOLYLINE
  5
15f
100
AcDbEntity
  8
0
 62
7
100
AcDbPolyline
 90
2
 70
0
 10
216.004140
 20
-194.712011
 30
0.0
 10
217.147140
 20
-194.712011
 30
0.0
  0
LWPOLYLINE
  5
160
100
AcDbEntity
  8
0
 62
7
100
AcDbPolyline
 90
2
 70
0
 10
218.290140
 20
-194.567231
 30
0.0
 10
217.434160
 20
-194.567231
 30
0.0
  0
LWPOLYLINE
  5
161
100
AcDbEntity
  8
0
 62
7
100
AcDbPolyline
 90
5
 70
0
 10
217.860880
 20
-194.567231
 30
0.0
 10
217.860880
 20
-193.068631
 30
0.0
 10
217.718640
 20
-193.281991
 30
0.0
 10
217.576400
 20
-193.426771
 30
0.0
 10
217.434160
 20
-193.497891
 30
0.0
  0
LWPOLYLINE
  5
162
100
AcDbEntity
  8
0
 62
7
100
AcDbPolyline
 90
2
 70
0
 10
219.575380
 20
-193.569011
 30
0.0
 10
219.575380
 20
-194.567231
 30
0.0
  0
LWPOLYLINE
  5
163
100
AcDbEntity
  8
0
 62
7
100
AcDbPolyline
 90
3
 70
0
 10
219.219780
 20
-192.997511
 30
0.0
 10
218.861640
 20
-194.069391
 30
0.0
 10
219.791280
 20
-194.069391
 30
0.0
  0
LWPOLYLINE
  5
164
100
AcDbEntity
  8
0
 62
7
100
AcDbPolyline
 90
12
 70
0
 10
220.218000
 20
-195.138731
 30
0.0
 10
220.289120
 20
-195.067611
 30
0.0
 10
220.433900
 20
-194.854251
 30
0.0
 10
220.505020
 20
-194.712011
 30
0.0
 10
220.576140
 20
-194.496111
 30
0.0
 10
220.647260
 20
-194.140511
 30
0.0
 10
220.647260
 20
-193.853491
 30
0.0
 10
220.576140
 20
-193.497891
 30
0.0
 10
220.505020
 20
-193.281991
 30
0.0
 10
220.433900
 20
-193.139751
 30
0.0
 10
220.289120
 20
-192.926391
 30
0.0
 10
220.218000
 20
-192.855271
 30
0.0
  0
LWPOLYLINE
  5
165
100
AcDbEntity
  8
0
 62
7
100
AcDbPolyline
 90
2
 70
0
 10
176.999900
 20
-189.489771
 30
0.0
 10
285.000700
 20
-189.489771
 30
0.0
  0
LWPOLYLINE
  5
166
100
AcDbEntity
  8
0
 62
7
100
AcDbPolyline
 90
2
 70
0
 10
264.411460
 20
-191.768151
 30
0.0
 10
263.911080
 20
-191.054411
 30
0.0
  0
LWPOLYLINE
  5
167
100
AcDbEntity
  8
0
 62
7
100
AcDbPolyline
 90
11
 70
0
 10
263.552940
 20
-191.768151
 30
0.0
 10
263.552940
 20
-190.269551
 30
0.0
 10
264.124440
 20
-190.269551
 30
0.0
 10
264.266680
 20
-190.340671
 30
0.0
 10
264.337800
 20
-190.411791
 30
0.0
 10
264.411460
 20
-190.554031
 30
0.0
 10
264.411460
 20
-190.767391
 30
0.0
 10
264.337800
 20
-190.912171
 30
0.0
 10
264.266680
 20
-190.983291
 30
0.0
 10
264.124440
 20
-191.054411
 30
0.0
 10
263.552940
 20
-191.054411
 30
0.0
  0
LWPOLYLINE
  5
168
100
AcDbEntity
  8
0
 62
7
100
AcDbPolyline
 90
13
 70
0
 10
265.625580
 20
-191.697031
 30
0.0
 10
265.480800
 20
-191.768151
 30
0.0
 10
265.196320
 20
-191.768151
 30
0.0
 10
265.054080
 20
-191.697031
 30
0.0
 10
264.980420
 20
-191.554791
 30
0.0
 10
264.980420
 20
-190.983291
 30
0.0
 10
265.054080
 20
-190.841051
 30
0.0
 10
265.196320
 20
-190.767391
 30
0.0
 10
265.480800
 20
-190.767391
 30
0.0
 10
265.625580
 20
-190.841051
 30
0.0
 10
265.696700
 20
-190.983291
 30
0.0
 10
265.696700
 20
-191.125531
 30
0.0
 10
264.980420
 20
-191.267771
 30
0.0
  0
LWPOLYLINE
  5
169
100
AcDbEntity
  8
0
 62
7
100
AcDbPolyline
 90
3
 70
0
 10
266.197080
 20
-190.767391
 30
0.0
 10
266.552680
 20
-191.768151
 30
0.0
 10
266.910820
 20
-190.767391
 30
0.0
  0
LWPOLYLINE
  5
16a
100
AcDbEntity
  8
0
 62
7
100
AcDbPolyline
 90
6
 70
0
 10
267.482320
 20
-191.625911
 30
0.0
 10
267.553440
 20
-191.697031
 30
0.0
 10
267.482320
 20
-191.768151
 30
0.0
 10
267.411200
 20
-191.697031
 30
0.0
 10
267.482320
 20
-191.625911
 30
0.0
 10
267.482320
 20
-191.768151
 30
0.0
  0
LWPOLYLINE
  5
16b
100
AcDbEntity
  8
0
 62
7
100
AcDbPolyline
 90
6
 70
0
 10
267.482320
 20
-190.841051
 30
0.0
 10
267.553440
 20
-190.912171
 30
0.0
 10
267.482320
 20
-190.983291
 30
0.0
 10
267.411200
 20
-190.912171
 30
0.0
 10
267.482320
 20
-190.841051
 30
0.0
 10
267.482320
 20
-190.983291
 30
0.0
  0
LWPOLYLINE
  5
16c
100
AcDbEntity
  8
0
 62
7
100
AcDbPolyline
 90
3
 70
0
 10
269.196820
 20
-190.767391
 30
0.0
 10
269.552420
 20
-191.768151
 30
0.0
 10
269.910560
 20
-190.767391
 30
0.0
  0
LWPOLYLINE
  5
16d
100
AcDbEntity
  8
0
 62
7
100
AcDbPolyline
 90
2
 70
0
 10
271.266920
 20
-191.768151
 30
0.0
 10
270.410940
 20
-191.768151
 30
0.0
  0
LWPOLYLINE
  5
16e
100
AcDbEntity
  8
0
 62
7
100
AcDbPolyline
 90
5
 70
0
 10
270.837660
 20
-191.768151
 30
0.0
 10
270.837660
 20
-190.269551
 30
0.0
 10
270.695420
 20
-190.482911
 30
0.0
 10
270.553180
 20
-190.625151
 30
0.0
 10
270.410940
 20
-190.696271
 30
0.0
  0
LWPOLYLINE
  5
16f
100
AcDbEntity
  8
0
 62
7
100
AcDbPolyline
 90
20
 70
0
 10
178.361340
 20
-191.697031
 30
0.0
 10
178.574700
 20
-191.768151
 30
0.0
 10
178.932840
 20
-191.768151
 30
0.0
 10
179.075080
 20
-191.697031
 30
0.0
 10
179.146200
 20
-191.625911
 30
0.0
 10
179.219860
 20
-191.483671
 30
0.0
 10
179.219860
 20
-191.338891
 30
0.0
 10
179.146200
 20
-191.196651
 30
0.0
 10
179.075080
 20
-191.125531
 30
0.0
 10
178.932840
 20
-191.054411
 30
0.0
 10
178.648360
 20
-190.983291
 30
0.0
 10
178.503580
 20
-190.912171
 30
0.0
 10
178.432460
 20
-190.841051
 30
0.0
 10
178.361340
 20
-190.696271
 30
0.0
 10
178.361340
 20
-190.554031
 30
0.0
 10
178.432460
 20
-190.411791
 30
0.0
 10
178.503580
 20
-190.340671
 30
0.0
 10
178.648360
 20
-190.269551
 30
0.0
 10
179.003960
 20
-190.269551
 30
0.0
 10
179.219860
 20
-190.340671
 30
0.0
  0
LWPOLYLINE
  5
170
100
AcDbEntity
  8
0
 62
7
100
AcDbPolyline
 90
2
 70
0
 10
179.862480
 20
-191.768151
 30
0.0
 10
179.862480
 20
-190.767391
 30
0.0
  0
LWPOLYLINE
  5
171
100
AcDbEntity
  8
0
 62
7
100
AcDbPolyline
 90
6
 70
0
 10
179.862480
 20
-190.269551
 30
0.0
 10
179.791360
 20
-190.340671
 30
0.0
 10
179.862480
 20
-190.411791
 30
0.0
 10
179.933600
 20
-190.340671
 30
0.0
 10
179.862480
 20
-190.269551
 30
0.0
 10
179.862480
 20
-190.411791
 30
0.0
  0
LWPOLYLINE
  5
172
100
AcDbEntity
  8
0
 62
7
100
AcDbPolyline
 90
4
 70
0
 10
180.433980
 20
-190.767391
 30
0.0
 10
181.218840
 20
-190.767391
 30
0.0
 10
180.433980
 20
-191.768151
 30
0.0
 10
181.218840
 20
-191.768151
 30
0.0
  0
LWPOLYLINE
  5
173
100
AcDbEntity
  8
0
 62
7
100
AcDbPolyline
 90
13
 70
0
 10
182.361840
 20
-191.697031
 30
0.0
 10
182.219600
 20
-191.768151
 30
0.0
 10
181.932580
 20
-191.768151
 30
0.0
 10
181.790340
 20
-191.697031
 30
0.0
 10
181.719220
 20
-191.554791
 30
0.0
 10
181.719220
 20
-190.983291
 30
0.0
 10
181.790340
 20
-190.841051
 30
0.0
 10
181.932580
 20
-190.767391
 30
0.0
 10
182.219600
 20
-190.767391
 30
0.0
 10
182.361840
 20
-190.841051
 30
0.0
 10
182.432960
 20
-190.983291
 30
0.0
 10
182.432960
 20
-191.125531
 30
0.0
 10
181.719220
 20
-191.267771
 30
0.0
  0
LWPOLYLINE
  5
174
100
AcDbEntity
  8
0
 62
7
100
AcDbPolyline
 90
6
 70
0
 10
183.075580
 20
-191.625911
 30
0.0
 10
183.146700
 20
-191.697031
 30
0.0
 10
183.075580
 20
-191.768151
 30
0.0
 10
183.004460
 20
-191.697031
 30
0.0
 10
183.075580
 20
-191.625911
 30
0.0
 10
183.075580
 20
-191.768151
 30
0.0
  0
LWPOLYLINE
  5
175
100
AcDbEntity
  8
0
 62
7
100
AcDbPolyline
 90
6
 70
0
 10
183.075580
 20
-190.841051
 30
0.0
 10
183.146700
 20
-190.912171
 30
0.0
 10
183.075580
 20
-190.983291
 30
0.0
 10
183.004460
 20
-190.912171
 30
0.0
 10
183.075580
 20
-190.841051
 30
0.0
 10
183.075580
 20
-190.983291
 30
0.0
  0
LWPOLYLINE
  5
176
100
AcDbEntity
  8
0
 62
7
100
AcDbPolyline
 90
2
 70
0
 10
184.861200
 20
-191.338891
 30
0.0
 10
185.574940
 20
-191.338891
 30
0.0
  0
LWPOLYLINE
  5
177
100
AcDbEntity
  8
0
 62
7
100
AcDbPolyline
 90
3
 70
0
 10
184.718960
 20
-191.768151
 30
0.0
 10
185.219340
 20
-190.269551
 30
0.0
 10
185.719720
 20
-191.768151
 30
0.0
  0
LWPOLYLINE
  5
178
100
AcDbEntity
  8
0
 62
7
100
AcDbPolyline
 90
2
 70
0
 10
186.862720
 20
-190.767391
 30
0.0
 10
186.862720
 20
-191.768151
 30
0.0
  0
LWPOLYLINE
  5
179
100
AcDbEntity
  8
0
 62
7
100
AcDbPolyline
 90
3
 70
0
 10
186.504580
 20
-190.195891
 30
0.0
 10
186.146440
 20
-191.267771
 30
0.0
 10
187.076080
 20
-191.267771
 30
0.0
  0
LWPOLYLINE
  5
17a
100
AcDbEntity
  8
0
 62
7
100
AcDbPolyline
 90
2
 70
0
 10
263.433560
 20
-194.567231
 30
0.0
 10
263.433560
 20
-193.068631
 30
0.0
  0
LWPOLYLINE
  5
17b
100
AcDbEntity
  8
0
 62
7
100
AcDbPolyline
 90
2
 70
0
 10
264.789920
 20
-194.567231
 30
0.0
 10
264.789920
 20
-193.068631
 30
0.0
  0
LWPOLYLINE
  5
17c
100
AcDbEntity
  8
0
 62
7
100
AcDbPolyline
 90
12
 70
0
 10
264.789920
 20
-194.496111
 30
0.0
 10
264.647680
 20
-194.567231
 30
0.0
 10
264.360660
 20
-194.567231
 30
0.0
 10
264.218420
 20
-194.496111
 30
0.0
 10
264.147300
 20
-194.424991
 30
0.0
 10
264.076180
 20
-194.282751
 30
0.0
 10
264.076180
 20
-193.853491
 30
0.0
 10
264.147300
 20
-193.711251
 30
0.0
 10
264.218420
 20
-193.640131
 30
0.0
 10
264.360660
 20
-193.569011
 30
0.0
 10
264.647680
 20
-193.569011
 30
0.0
 10
264.789920
 20
-193.640131
 30
0.0
  0
LWPOLYLINE
  5
17d
100
AcDbEntity
  8
0
 62
7
100
AcDbPolyline
 90
6
 70
0
 10
265.503660
 20
-194.424991
 30
0.0
 10
265.574780
 20
-194.496111
 30
0.0
 10
265.503660
 20
-194.567231
 30
0.0
 10
265.432540
 20
-194.496111
 30
0.0
 10
265.503660
 20
-194.424991
 30
0.0
 10
265.503660
 20
-194.567231
 30
0.0
  0
LWPOLYLINE
  5
17e
100
AcDbEntity
  8
0
 62
7
100
AcDbPolyline
 90
6
 70
0
 10
265.503660
 20
-193.640131
 30
0.0
 10
265.574780
 20
-193.711251
 30
0.0
 10
265.503660
 20
-193.782371
 30
0.0
 10
265.432540
 20
-193.711251
 30
0.0
 10
265.503660
 20
-193.640131
 30
0.0
 10
265.503660
 20
-193.782371
 30
0.0
  0
LWPOLYLINE
  5
17f
100
AcDbEntity
  8
0
 62
7
100
AcDbPolyline
 90
2
 70
0
 10
268.147800
 20
-194.567231
 30
0.0
 10
267.289280
 20
-194.567231
 30
0.0
  0
LWPOLYLINE
  5
180
100
AcDbEntity
  8
0
 62
7
100
AcDbPolyline
 90
5
 70
0
 10
267.718540
 20
-194.567231
 30
0.0
 10
267.718540
 20
-193.068631
 30
0.0
 10
267.576300
 20
-193.281991
 30
0.0
 10
267.434060
 20
-193.426771
 30
0.0
 10
267.289280
 20
-193.497891
 30
0.0
  0
LWPOLYLINE
  5
181
100
AcDbEntity
  8
0
 62
7
100
AcDbPolyline
 90
2
 70
0
 10
269.862300
 20
-192.997511
 30
0.0
 10
268.577060
 20
-194.925371
 30
0.0
  0
LWPOLYLINE
  5
182
100
AcDbEntity
  8
0
 62
7
100
AcDbPolyline
 90
2
 70
0
 10
271.147540
 20
-194.567231
 30
0.0
 10
270.289020
 20
-194.567231
 30
0.0
  0
LWPOLYLINE
  5
183
100
AcDbEntity
  8
0
 62
7
100
AcDbPolyline
 90
5
 70
0
 10
270.718280
 20
-194.567231
 30
0.0
 10
270.718280
 20
-193.068631
 30
0.0
 10
270.576040
 20
-193.281991
 30
0.0
 10
270.433800
 20
-193.426771
 30
0.0
 10
270.289020
 20
-193.497891
 30
0.0
  0
LWPOLYLINE
  5
184
100
AcDbEntity
  8
0
 62
7
100
AcDbPolyline
 90
2
 70
0
 10
176.999900
 20
-185.489271
 30
0.0
 10
285.000700
 20
-185.489271
 30
0.0
  0
LWPOLYLINE
  5
185
100
AcDbEntity
  8
0
 62
7
100
AcDbPolyline
 90
2
 70
0
 10
178.714400
 20
-186.195391
 30
0.0
 10
179.857400
 20
-186.195391
 30
0.0
  0
LWPOLYLINE
  5
186
100
AcDbEntity
  8
0
 62
7
100
AcDbPolyline
 90
2
 70
0
 10
179.034440
 20
-188.194371
 30
0.0
 10
179.285900
 20
-186.195391
 30
0.0
  0
LWPOLYLINE
  5
187
100
AcDbEntity
  8
0
 62
7
100
AcDbPolyline
 90
2
 70
0
 10
180.273960
 20
-188.194371
 30
0.0
 10
180.439060
 20
-186.860871
 30
0.0
  0
LWPOLYLINE
  5
188
100
AcDbEntity
  8
0
 62
7
100
AcDbPolyline
 90
6
 70
0
 10
180.522880
 20
-186.195391
 30
0.0
 10
180.416200
 20
-186.289371
 30
0.0
 10
180.500020
 20
-186.385891
 30
0.0
 10
180.606700
 20
-186.289371
 30
0.0
 10
180.522880
 20
-186.195391
 30
0.0
 10
180.500020
 20
-186.385891
 30
0.0
  0
LWPOLYLINE
  5
189
100
AcDbEntity
  8
0
 62
7
100
AcDbPolyline
 90
2
 70
0
 10
181.107080
 20
-186.860871
 30
0.0
 10
181.869080
 20
-186.860871
 30
0.0
  0
LWPOLYLINE
  5
18a
100
AcDbEntity
  8
0
 62
7
100
AcDbPolyline
 90
5
 70
0
 10
181.475380
 20
-186.195391
 30
0.0
 10
181.262020
 20
-187.909891
 30
0.0
 10
181.333140
 20
-188.100391
 30
0.0
 10
181.510940
 20
-188.194371
 30
0.0
 10
181.701440
 20
-188.194371
 30
0.0
  0
LWPOLYLINE
  5
18b
100
AcDbEntity
  8
0
 62
7
100
AcDbPolyline
 90
4
 70
0
 10
182.653940
 20
-188.194371
 30
0.0
 10
182.476140
 20
-188.100391
 30
0.0
 10
182.405020
 20
-187.909891
 30
0.0
 10
182.618380
 20
-186.195391
 30
0.0
  0
LWPOLYLINE
  5
18c
100
AcDbEntity
  8
0
 62
7
100
AcDbPolyline
 90
13
 70
0
 10
184.190640
 20
-188.100391
 30
0.0
 10
183.987440
 20
-188.194371
 30
0.0
 10
183.606440
 20
-188.194371
 30
0.0
 10
183.428640
 20
-188.100391
 30
0.0
 10
183.354980
 20
-187.909891
 30
0.0
 10
183.451500
 20
-187.147891
 30
0.0
 10
183.570880
 20
-186.957391
 30
0.0
 10
183.774080
 20
-186.860871
 30
0.0
 10
184.152540
 20
-186.860871
 30
0.0
 10
184.332880
 20
-186.957391
 30
0.0
 10
184.404000
 20
-187.147891
 30
0.0
 10
184.381140
 20
-187.338391
 30
0.0
 10
183.403240
 20
-187.528891
 30
0.0
  0
LWPOLYLINE
  5
18d
100
AcDbEntity
  8
0
 62
7
100
AcDbPolyline
 90
6
 70
0
 10
185.153300
 20
-188.003871
 30
0.0
 10
185.237120
 20
-188.100391
 30
0.0
 10
185.130440
 20
-188.194371
 30
0.0
 10
185.046620
 20
-188.100391
 30
0.0
 10
185.153300
 20
-188.003871
 30
0.0
 10
185.130440
 20
-188.194371
 30
0.0
  0
LWPOLYLINE
  5
18e
100
AcDbEntity
  8
0
 62
7
100
AcDbPolyline
 90
6
 70
0
 10
185.285380
 20
-186.957391
 30
0.0
 10
185.369200
 20
-187.051371
 30
0.0
 10
185.259980
 20
-187.147891
 30
0.0
 10
185.178700
 20
-187.051371
 30
0.0
 10
185.285380
 20
-186.957391
 30
0.0
 10
185.259980
 20
-187.147891
 30
0.0
  0
LWPOLYLINE
  5
18f
100
AcDbEntity
  8
0
 62
7
100
AcDbPolyline
 90
2
 70
0
 10
187.571380
 20
-186.195391
 30
0.0
 10
188.714380
 20
-186.195391
 30
0.0
  0
LWPOLYLINE
  5
190
100
AcDbEntity
  8
0
 62
7
100
AcDbPolyline
 90
2
 70
0
 10
187.891420
 20
-188.194371
 30
0.0
 10
188.142880
 20
-186.195391
 30
0.0
  0
LWPOLYLINE
  5
191
100
AcDbEntity
  8
0
 62
7
100
AcDbPolyline
 90
16
 70
1
 10
189.415420
 20
-188.194371
 30
0.0
 10
189.237620
 20
-188.100391
 30
0.0
 10
189.153800
 20
-188.003871
 30
0.0
 10
189.082680
 20
-187.813371
 30
0.0
 10
189.153800
 20
-187.241871
 30
0.0
 10
189.273180
 20
-187.051371
 30
0.0
 10
189.379860
 20
-186.957391
 30
0.0
 10
189.583060
 20
-186.860871
 30
0.0
 10
189.867540
 20
-186.860871
 30
0.0
 10
190.047880
 20
-186.957391
 30
0.0
 10
190.129160
 20
-187.051371
 30
0.0
 10
190.200280
 20
-187.241871
 30
0.0
 10
190.129160
 20
-187.813371
 30
0.0
 10
190.009780
 20
-188.003871
 30
0.0
 10
189.903100
 20
-188.100391
 30
0.0
 10
189.702440
 20
-188.194371
 30
0.0
  0
LWPOLYLINE
  5
192
100
AcDbEntity
  8
0
 62
7
100
AcDbPolyline
 90
2
 70
0
 10
190.939420
 20
-188.194371
 30
0.0
 10
191.107060
 20
-186.860871
 30
0.0
  0
LWPOLYLINE
  5
193
100
AcDbEntity
  8
0
 62
7
100
AcDbPolyline
 90
5
 70
0
 10
191.058800
 20
-187.241871
 30
0.0
 10
191.178180
 20
-187.051371
 30
0.0
 10
191.284860
 20
-186.957391
 30
0.0
 10
191.488060
 20
-186.860871
 30
0.0
 10
191.678560
 20
-186.860871
 30
0.0
  0
LWPOLYLINE
  5
194
100
AcDbEntity
  8
0
 62
7
100
AcDbPolyline
 90
2
 70
0
 10
192.344040
 20
-186.860871
 30
0.0
 10
192.176400
 20
-188.194371
 30
0.0
  0
LWPOLYLINE
  5
195
100
AcDbEntity
  8
0
 62
7
100
AcDbPolyline
 90
7
 70
0
 10
192.321180
 20
-187.051371
 30
0.0
 10
192.427860
 20
-186.957391
 30
0.0
 10
192.631060
 20
-186.860871
 30
0.0
 10
192.915540
 20
-186.860871
 30
0.0
 10
193.093340
 20
-186.957391
 30
0.0
 10
193.164460
 20
-187.147891
 30
0.0
 10
193.034920
 20
-188.194371
 30
0.0
  0
LWPOLYLINE
  5
196
100
AcDbEntity
  8
0
 62
7
100
AcDbPolyline
 90
2
 70
0
 10
195.511420
 20
-188.194371
 30
0.0
 10
195.760340
 20
-186.195391
 30
0.0
  0
LWPOLYLINE
  5
197
100
AcDbEntity
  8
0
 62
7
100
AcDbPolyline
 90
2
 70
0
 10
196.654420
 20
-188.194371
 30
0.0
 10
195.940680
 20
-187.051371
 30
0.0
  0
LWPOLYLINE
  5
198
100
AcDbEntity
  8
0
 62
7
100
AcDbPolyline
 90
2
 70
0
 10
196.903340
 20
-186.195391
 30
0.0
 10
195.618100
 20
-187.338391
 30
0.0
  0
LWPOLYLINE
  5
199
100
AcDbEntity
  8
0
 62
7
100
AcDbPolyline
 90
13
 70
0
 10
198.285100
 20
-188.100391
 30
0.0
 10
198.081900
 20
-188.194371
 30
0.0
 10
197.700900
 20
-188.194371
 30
0.0
 10
197.523100
 20
-188.100391
 30
0.0
 10
197.451980
 20
-187.909891
 30
0.0
 10
197.545960
 20
-187.147891
 30
0.0
 10
197.665340
 20
-186.957391
 30
0.0
 10
197.868540
 20
-186.860871
 30
0.0
 10
198.249540
 20
-186.860871
 30
0.0
 10
198.427340
 20
-186.957391
 30
0.0
 10
198.498460
 20
-187.147891
 30
0.0
 10
198.475600
 20
-187.338391
 30
0.0
 10
197.500240
 20
-187.528891
 30
0.0
  0
LWPOLYLINE
  5
19a
100
AcDbEntity
  8
0
 62
7
100
AcDbPolyline
 90
2
 70
0
 10
199.202040
 20
-186.860871
 30
0.0
 10
199.511920
 20
-188.194371
 30
0.0
  0
LWPOLYLINE
  5
19b
100
AcDbEntity
  8
0
 62
7
100
AcDbPolyline
 90
5
 70
0
 10
200.154540
 20
-186.860871
 30
0.0
 10
199.511920
 20
-188.194371
 30
0.0
 10
199.260460
 20
-188.671891
 30
0.0
 10
199.153780
 20
-188.765871
 30
0.0
 10
198.950580
 20
-188.862391
 30
0.0
  0
LWPOLYLINE
  5
19c
100
AcDbEntity
  8
0
 62
7
100
AcDbPolyline
 90
2
 70
0
 10
200.748900
 20
-188.194371
 30
0.0
 10
200.997820
 20
-186.195391
 30
0.0
  0
LWPOLYLINE
  5
19d
100
AcDbEntity
  8
0
 62
7
100
AcDbPolyline
 90
12
 70
0
 10
200.903840
 20
-186.957391
 30
0.0
 10
201.107040
 20
-186.860871
 30
0.0
 10
201.488040
 20
-186.860871
 30
0.0
 10
201.665840
 20
-186.957391
 30
0.0
 10
201.749660
 20
-187.051371
 30
0.0
 10
201.820780
 20
-187.241871
 30
0.0
 10
201.749660
 20
-187.813371
 30
0.0
 10
201.630280
 20
-188.003871
 30
0.0
 10
201.523600
 20
-188.100391
 30
0.0
 10
201.320400
 20
-188.194371
 30
0.0
 10
200.939400
 20
-188.194371
 30
0.0
 10
200.761600
 20
-188.100391
 30
0.0
  0
LWPOLYLINE
  5
19e
100
AcDbEntity
  8
0
 62
7
100
AcDbPolyline
 90
16
 70
1
 10
202.844400
 20
-188.194371
 30
0.0
 10
202.666600
 20
-188.100391
 30
0.0
 10
202.582780
 20
-188.003871
 30
0.0
 10
202.511660
 20
-187.813371
 30
0.0
 10
202.582780
 20
-187.241871
 30
0.0
 10
202.702160
 20
-187.051371
 30
0.0
 10
202.808840
 20
-186.957391
 30
0.0
 10
203.012040
 20
-186.860871
 30
0.0
 10
203.296520
 20
-186.860871
 30
0.0
 10
203.474320
 20
-186.957391
 30
0.0
 10
203.558140
 20
-187.051371
 30
0.0
 10
203.629260
 20
-187.241871
 30
0.0
 10
203.558140
 20
-187.813371
 30
0.0
 10
203.438760
 20
-188.003871
 30
0.0
 10
203.332080
 20
-188.100391
 30
0.0
 10
203.128880
 20
-188.194371
 30
0.0
  0
LWPOLYLINE
  5
19f
100
AcDbEntity
  8
0
 62
7
100
AcDbPolyline
 90
6
 70
0
 10
205.224380
 20
-188.194371
 30
0.0
 10
205.356460
 20
-187.147891
 30
0.0
 10
205.285340
 20
-186.957391
 30
0.0
 10
205.105000
 20
-186.860871
 30
0.0
 10
204.724000
 20
-186.860871
 30
0.0
 10
204.523340
 20
-186.957391
 30
0.0
  0
LWPOLYLINE
  5
1a0
100
AcDbEntity
  8
0
 62
7
100
AcDbPolyline
 90
10
 70
0
 10
205.237080
 20
-188.100391
 30
0.0
 10
205.033880
 20
-188.194371
 30
0.0
 10
204.558900
 20
-188.194371
 30
0.0
 10
204.381100
 20
-188.100391
 30
0.0
 10
204.307440
 20
-187.909891
 30
0.0
 10
204.332840
 20
-187.719391
 30
0.0
 10
204.452220
 20
-187.528891
 30
0.0
 10
204.652880
 20
-187.432371
 30
0.0
 10
205.130400
 20
-187.432371
 30
0.0
 10
205.333600
 20
-187.338391
 30
0.0
  0
LWPOLYLINE
  5
1a1
100
AcDbEntity
  8
0
 62
7
100
AcDbPolyline
 90
2
 70
0
 10
206.176880
 20
-188.194371
 30
0.0
 10
206.344520
 20
-186.860871
 30
0.0
  0
LWPOLYLINE
  5
1a2
100
AcDbEntity
  8
0
 62
7
100
AcDbPolyline
 90
5
 70
0
 10
206.296260
 20
-187.241871
 30
0.0
 10
206.415640
 20
-187.051371
 30
0.0
 10
206.522320
 20
-186.957391
 30
0.0
 10
206.725520
 20
-186.860871
 30
0.0
 10
206.916020
 20
-186.860871
 30
0.0
  0
LWPOLYLINE
  5
1a3
100
AcDbEntity
  8
0
 62
7
100
AcDbPolyline
 90
2
 70
0
 10
208.272380
 20
-188.194371
 30
0.0
 10
208.523840
 20
-186.195391
 30
0.0
  0
LWPOLYLINE
  5
1a4
100
AcDbEntity
  8
0
 62
7
100
AcDbPolyline
 90
12
 70
0
 10
208.285080
 20
-188.100391
 30
0.0
 10
208.081880
 20
-188.194371
 30
0.0
 10
207.700880
 20
-188.194371
 30
0.0
 10
207.523080
 20
-188.100391
 30
0.0
 10
207.439260
 20
-188.003871
 30
0.0
 10
207.368140
 20
-187.813371
 30
0.0
 10
207.439260
 20
-187.241871
 30
0.0
 10
207.558640
 20
-187.051371
 30
0.0
 10
207.665320
 20
-186.957391
 30
0.0
 10
207.868520
 20
-186.860871
 30
0.0
 10
208.249520
 20
-186.860871
 30
0.0
 10
208.427320
 20
-186.957391
 30
0.0
  0
LWPOLYLINE
  5
1a5
100
AcDbEntity
  8
0
 62
7
100
AcDbPolyline
 90
2
 70
0
 10
210.845400
 20
-187.432371
 30
0.0
 10
212.366860
 20
-187.432371
 30
0.0
  0
LWPOLYLINE
  5
1a6
100
AcDbEntity
  8
0
 62
7
100
AcDbPolyline
 90
2
 70
0
 10
215.892380
 20
-188.194371
 30
0.0
 10
215.343740
 20
-187.241871
 30
0.0
  0
LWPOLYLINE
  5
1a7
100
AcDbEntity
  8
0
 62
7
100
AcDbPolyline
 90
11
 70
0
 10
214.749380
 20
-188.194371
 30
0.0
 10
214.998300
 20
-186.195391
 30
0.0
 10
215.760300
 20
-186.195391
 30
0.0
 10
215.940640
 20
-186.289371
 30
0.0
 10
216.021920
 20
-186.385891
 30
0.0
 10
216.093040
 20
-186.576391
 30
0.0
 10
216.057480
 20
-186.860871
 30
0.0
 10
215.940640
 20
-187.051371
 30
0.0
 10
215.831420
 20
-187.147891
 30
0.0
 10
215.630760
 20
-187.241871
 30
0.0
 10
214.868760
 20
-187.241871
 30
0.0
  0
LWPOLYLINE
  5
1a8
100
AcDbEntity
  8
0
 62
7
100
AcDbPolyline
 90
2
 70
0
 10
216.748360
 20
-188.194371
 30
0.0
 10
216.916000
 20
-186.860871
 30
0.0
  0
LWPOLYLINE
  5
1a9
100
AcDbEntity
  8
0
 62
7
100
AcDbPolyline
 90
6
 70
0
 10
216.999820
 20
-186.195391
 30
0.0
 10
216.893140
 20
-186.289371
 30
0.0
 10
216.974420
 20
-186.385891
 30
0.0
 10
217.081100
 20
-186.289371
 30
0.0
 10
216.999820
 20
-186.195391
 30
0.0
 10
216.974420
 20
-186.385891
 30
0.0
  0
LWPOLYLINE
  5
1aa
100
AcDbEntity
  8
0
 62
7
100
AcDbPolyline
 90
7
 70
0
 10
218.724480
 20
-186.860871
 30
0.0
 10
218.523820
 20
-188.481391
 30
0.0
 10
218.404440
 20
-188.671891
 30
0.0
 10
218.297760
 20
-188.765871
 30
0.0
 10
218.094560
 20
-188.862391
 30
0.0
 10
217.807540
 20
-188.862391
 30
0.0
 10
217.629740
 20
-188.765871
 30
0.0
  0
LWPOLYLINE
  5
1ab
100
AcDbEntity
  8
0
 62
7
100
AcDbPolyline
 90
12
 70
0
 10
218.569540
 20
-188.100391
 30
0.0
 10
218.368880
 20
-188.194371
 30
0.0
 10
217.987880
 20
-188.194371
 30
0.0
 10
217.807540
 20
-188.100391
 30
0.0
 10
217.726260
 20
-188.003871
 30
0.0
 10
217.652600
 20
-187.813371
 30
0.0
 10
217.726260
 20
-187.241871
 30
0.0
 10
217.843100
 20
-187.051371
 30
0.0
 10
217.952320
 20
-186.957391
 30
0.0
 10
218.152980
 20
-186.860871
 30
0.0
 10
218.533980
 20
-186.860871
 30
0.0
 10
218.714320
 20
-186.957391
 30
0.0
  0
LWPOLYLINE
  5
1ac
100
AcDbEntity
  8
0
 62
7
100
AcDbPolyline
 90
2
 70
0
 10
219.511880
 20
-188.194371
 30
0.0
 10
219.760800
 20
-186.195391
 30
0.0
  0
LWPOLYLINE
  5
1ad
100
AcDbEntity
  8
0
 62
7
100
AcDbPolyline
 90
7
 70
0
 10
220.367860
 20
-188.194371
 30
0.0
 10
220.499940
 20
-187.147891
 30
0.0
 10
220.428820
 20
-186.957391
 30
0.0
 10
220.248480
 20
-186.860871
 30
0.0
 10
219.964000
 20
-186.860871
 30
0.0
 10
219.760800
 20
-186.957391
 30
0.0
 10
219.654120
 20
-187.051371
 30
0.0
  0
LWPOLYLINE
  5
1ae
100
AcDbEntity
  8
0
 62
7
100
AcDbPolyline
 90
2
 70
0
 10
221.200980
 20
-186.860871
 30
0.0
 10
221.962980
 20
-186.860871
 30
0.0
  0
LWPOLYLINE
  5
1af
100
AcDbEntity
  8
0
 62
7
100
AcDbPolyline
 90
5
 70
0
 10
221.569280
 20
-186.195391
 30
0.0
 10
221.355920
 20
-187.909891
 30
0.0
 10
221.427040
 20
-188.100391
 30
0.0
 10
221.607380
 20
-188.194371
 30
0.0
 10
221.797880
 20
-188.194371
 30
0.0
  0
LWPOLYLINE
  5
1b0
100
AcDbEntity
  8
0
 62
7
100
AcDbPolyline
 90
2
 70
0
 10
178.932840
 20
-183.581731
 30
0.0
 10
178.432460
 20
-183.581731
 30
0.0
  0
LWPOLYLINE
  5
1b1
100
AcDbEntity
  8
0
 62
7
100
AcDbPolyline
 90
3
 70
0
 10
178.432460
 20
-184.369131
 30
0.0
 10
178.432460
 20
-182.867991
 30
0.0
 10
179.146200
 20
-182.867991
 30
0.0
  0
LWPOLYLINE
  5
1b2
100
AcDbEntity
  8
0
 62
7
100
AcDbPolyline
 90
2
 70
0
 10
179.717700
 20
-184.369131
 30
0.0
 10
179.717700
 20
-183.368371
 30
0.0
  0
LWPOLYLINE
  5
1b3
100
AcDbEntity
  8
0
 62
7
100
AcDbPolyline
 90
6
 70
0
 10
179.717700
 20
-182.867991
 30
0.0
 10
179.646580
 20
-182.939111
 30
0.0
 10
179.717700
 20
-183.010231
 30
0.0
 10
179.791360
 20
-182.939111
 30
0.0
 10
179.717700
 20
-182.867991
 30
0.0
 10
179.717700
 20
-183.010231
 30
0.0
  0
LWPOLYLINE
  5
1b4
100
AcDbEntity
  8
0
 62
7
100
AcDbPolyline
 90
4
 70
0
 10
180.647340
 20
-184.369131
 30
0.0
 10
180.505100
 20
-184.298011
 30
0.0
 10
180.433980
 20
-184.153231
 30
0.0
 10
180.433980
 20
-182.867991
 30
0.0
  0
LWPOLYLINE
  5
1b5
100
AcDbEntity
  8
0
 62
7
100
AcDbPolyline
 90
13
 70
0
 10
181.790340
 20
-184.298011
 30
0.0
 10
181.648100
 20
-184.369131
 30
0.0
 10
181.361080
 20
-184.369131
 30
0.0
 10
181.218840
 20
-184.298011
 30
0.0
 10
181.147720
 20
-184.153231
 30
0.0
 10
181.147720
 20
-183.581731
 30
0.0
 10
181.218840
 20
-183.439491
 30
0.0
 10
181.361080
 20
-183.368371
 30
0.0
 10
181.648100
 20
-183.368371
 30
0.0
 10
181.790340
 20
-183.439491
 30
0.0
 10
181.861460
 20
-183.581731
 30
0.0
 10
181.861460
 20
-183.726511
 30
0.0
 10
181.147720
 20
-183.868751
 30
0.0
  0
LWPOLYLINE
  5
1b6
100
AcDbEntity
  8
0
 62
7
100
AcDbPolyline
 90
6
 70
0
 10
182.504080
 20
-184.224351
 30
0.0
 10
182.575200
 20
-184.298011
 30
0.0
 10
182.504080
 20
-184.369131
 30
0.0
 10
182.432960
 20
-184.298011
 30
0.0
 10
182.504080
 20
-184.224351
 30
0.0
 10
182.504080
 20
-184.369131
 30
0.0
  0
LWPOLYLINE
  5
1b7
100
AcDbEntity
  8
0
 62
7
100
AcDbPolyline
 90
6
 70
0
 10
182.504080
 20
-183.439491
 30
0.0
 10
182.575200
 20
-183.510611
 30
0.0
 10
182.504080
 20
-183.581731
 30
0.0
 10
182.432960
 20
-183.510611
 30
0.0
 10
182.504080
 20
-183.439491
 30
0.0
 10
182.504080
 20
-183.581731
 30
0.0
  0
LWPOLYLINE
  5
1b8
100
AcDbEntity
  8
0
 62
7
100
AcDbPolyline
 90
2
 70
0
 10
184.147460
 20
-183.368371
 30
0.0
 10
184.718960
 20
-183.368371
 30
0.0
  0
LWPOLYLINE
  5
1b9
100
AcDbEntity
  8
0
 62
7
100
AcDbPolyline
 90
5
 70
0
 10
184.360820
 20
-182.867991
 30
0.0
 10
184.360820
 20
-184.153231
 30
0.0
 10
184.431940
 20
-184.298011
 30
0.0
 10
184.576720
 20
-184.369131
 30
0.0
 10
184.718960
 20
-184.369131
 30
0.0
  0
LWPOLYLINE
  5
1ba
100
AcDbEntity
  8
0
 62
7
100
AcDbPolyline
 90
16
 70
1
 10
185.432700
 20
-184.369131
 30
0.0
 10
185.290460
 20
-184.298011
 30
0.0
 10
185.219340
 20
-184.224351
 30
0.0
 10
185.148220
 20
-184.082111
 30
0.0
 10
185.148220
 20
-183.655391
 30
0.0
 10
185.219340
 20
-183.510611
 30
0.0
 10
185.290460
 20
-183.439491
 30
0.0
 10
185.432700
 20
-183.368371
 30
0.0
 10
185.648600
 20
-183.368371
 30
0.0
 10
185.790840
 20
-183.439491
 30
0.0
 10
185.861960
 20
-183.510611
 30
0.0
 10
185.933080
 20
-183.655391
 30
0.0
 10
185.933080
 20
-184.082111
 30
0.0
 10
185.861960
 20
-184.224351
 30
0.0
 10
185.790840
 20
-184.298011
 30
0.0
 10
185.648600
 20
-184.369131
 30
0.0
  0
LWPOLYLINE
  5
1bb
100
AcDbEntity
  8
0
 62
7
100
AcDbPolyline
 90
2
 70
0
 10
186.575700
 20
-184.369131
 30
0.0
 10
186.575700
 20
-183.368371
 30
0.0
  0
LWPOLYLINE
  5
1bc
100
AcDbEntity
  8
0
 62
7
100
AcDbPolyline
 90
5
 70
0
 10
186.575700
 20
-183.655391
 30
0.0
 10
186.646820
 20
-183.510611
 30
0.0
 10
186.717940
 20
-183.439491
 30
0.0
 10
186.862720
 20
-183.368371
 30
0.0
 10
187.004960
 20
-183.368371
 30
0.0
  0
LWPOLYLINE
  5
1bd
100
AcDbEntity
  8
0
 62
7
100
AcDbPolyline
 90
2
 70
0
 10
187.505340
 20
-183.368371
 30
0.0
 10
187.505340
 20
-184.369131
 30
0.0
  0
LWPOLYLINE
  5
1be
100
AcDbEntity
  8
0
 62
7
100
AcDbPolyline
 90
7
 70
0
 10
187.505340
 20
-183.510611
 30
0.0
 10
187.576460
 20
-183.439491
 30
0.0
 10
187.718700
 20
-183.368371
 30
0.0
 10
187.932060
 20
-183.368371
 30
0.0
 10
188.076840
 20
-183.439491
 30
0.0
 10
188.147960
 20
-183.581731
 30
0.0
 10
188.147960
 20
-184.369131
 30
0.0
  0
LWPOLYLINE
  5
1bf
100
AcDbEntity
  8
0
 62
7
100
AcDbPolyline
 90
2
 70
0
 10
188.503560
 20
-184.511371
 30
0.0
 10
189.646560
 20
-184.511371
 30
0.0
  0
LWPOLYLINE
  5
1c0
100
AcDbEntity
  8
0
 62
7
100
AcDbPolyline
 90
2
 70
0
 10
190.004700
 20
-184.369131
 30
0.0
 10
190.004700
 20
-183.368371
 30
0.0
  0
LWPOLYLINE
  5
1c1
100
AcDbEntity
  8
0
 62
7
100
AcDbPolyline
 90
5
 70
0
 10
190.004700
 20
-183.655391
 30
0.0
 10
190.075820
 20
-183.510611
 30
0.0
 10
190.146940
 20
-183.439491
 30
0.0
 10
190.289180
 20
-183.368371
 30
0.0
 10
190.433960
 20
-183.368371
 30
0.0
  0
LWPOLYLINE
  5
1c2
100
AcDbEntity
  8
0
 62
7
100
AcDbPolyline
 90
2
 70
0
 10
190.934340
 20
-184.369131
 30
0.0
 10
190.934340
 20
-183.368371
 30
0.0
  0
LWPOLYLINE
  5
1c3
100
AcDbEntity
  8
0
 62
7
100
AcDbPolyline
 90
6
 70
0
 10
190.934340
 20
-182.867991
 30
0.0
 10
190.860680
 20
-182.939111
 30
0.0
 10
190.934340
 20
-183.010231
 30
0.0
 10
191.005460
 20
-182.939111
 30
0.0
 10
190.934340
 20
-182.867991
 30
0.0
 10
190.934340
 20
-183.010231
 30
0.0
  0
LWPOLYLINE
  5
1c4
100
AcDbEntity
  8
0
 62
7
100
AcDbPolyline
 90
7
 70
0
 10
192.290700
 20
-183.368371
 30
0.0
 10
192.290700
 20
-184.582491
 30
0.0
 10
192.219580
 20
-184.724731
 30
0.0
 10
192.148460
 20
-184.795851
 30
0.0
 10
192.003680
 20
-184.869511
 30
0.0
 10
191.790320
 20
-184.869511
 30
0.0
 10
191.648080
 20
-184.795851
 30
0.0
  0
LWPOLYLINE
  5
1c5
100
AcDbEntity
  8
0
 62
7
100
AcDbPolyline
 90
12
 70
0
 10
192.290700
 20
-184.298011
 30
0.0
 10
192.148460
 20
-184.369131
 30
0.0
 10
191.861440
 20
-184.369131
 30
0.0
 10
191.719200
 20
-184.298011
 30
0.0
 10
191.648080
 20
-184.224351
 30
0.0
 10
191.576960
 20
-184.082111
 30
0.0
 10
191.576960
 20
-183.655391
 30
0.0
 10
191.648080
 20
-183.510611
 30
0.0
 10
191.719200
 20
-183.439491
 30
0.0
 10
191.861440
 20
-183.368371
 30
0.0
 10
192.148460
 20
-183.368371
 30
0.0
 10
192.290700
 20
-183.439491
 30
0.0
  0
LWPOLYLINE
  5
1c6
100
AcDbEntity
  8
0
 62
7
100
AcDbPolyline
 90
2
 70
0
 10
193.004440
 20
-184.369131
 30
0.0
 10
193.004440
 20
-182.867991
 30
0.0
  0
LWPOLYLINE
  5
1c7
100
AcDbEntity
  8
0
 62
7
100
AcDbPolyline
 90
7
 70
0
 10
193.647060
 20
-184.369131
 30
0.0
 10
193.647060
 20
-183.581731
 30
0.0
 10
193.575940
 20
-183.439491
 30
0.0
 10
193.433700
 20
-183.368371
 30
0.0
 10
193.217800
 20
-183.368371
 30
0.0
 10
193.075560
 20
-183.439491
 30
0.0
 10
193.004440
 20
-183.510611
 30
0.0
  0
LWPOLYLINE
  5
1c8
100
AcDbEntity
  8
0
 62
7
100
AcDbPolyline
 90
2
 70
0
 10
194.147440
 20
-183.368371
 30
0.0
 10
194.718940
 20
-183.368371
 30
0.0
  0
LWPOLYLINE
  5
1c9
100
AcDbEntity
  8
0
 62
7
100
AcDbPolyline
 90
5
 70
0
 10
194.360800
 20
-182.867991
 30
0.0
 10
194.360800
 20
-184.153231
 30
0.0
 10
194.431920
 20
-184.298011
 30
0.0
 10
194.576700
 20
-184.369131
 30
0.0
 10
194.718940
 20
-184.369131
 30
0.0
  0
LWPOLYLINE
  5
1ca
100
AcDbEntity
  8
0
 62
7
100
AcDbPolyline
 90
6
 70
0
 10
195.219320
 20
-184.224351
 30
0.0
 10
195.290440
 20
-184.298011
 30
0.0
 10
195.219320
 20
-184.369131
 30
0.0
 10
195.148200
 20
-184.298011
 30
0.0
 10
195.219320
 20
-184.224351
 30
0.0
 10
195.219320
 20
-184.369131
 30
0.0
  0
LWPOLYLINE
  5
1cb
100
AcDbEntity
  8
0
 62
7
100
AcDbPolyline
 90
2
 70
0
 10
195.933060
 20
-184.369131
 30
0.0
 10
195.933060
 20
-182.867991
 30
0.0
  0
LWPOLYLINE
  5
1cc
100
AcDbEntity
  8
0
 62
7
100
AcDbPolyline
 90
2
 70
0
 10
196.075300
 20
-183.797631
 30
0.0
 10
196.504560
 20
-184.369131
 30
0.0
  0
LWPOLYLINE
  5
1cd
100
AcDbEntity
  8
0
 62
7
100
AcDbPolyline
 90
2
 70
0
 10
196.504560
 20
-183.368371
 30
0.0
 10
195.933060
 20
-183.939871
 30
0.0
  0
LWPOLYLINE
  5
1ce
100
AcDbEntity
  8
0
 62
7
100
AcDbPolyline
 90
2
 70
0
 10
197.147180
 20
-184.369131
 30
0.0
 10
197.147180
 20
-183.368371
 30
0.0
  0
LWPOLYLINE
  5
1cf
100
AcDbEntity
  8
0
 62
7
100
AcDbPolyline
 90
6
 70
0
 10
197.147180
 20
-182.867991
 30
0.0
 10
197.076060
 20
-182.939111
 30
0.0
 10
197.147180
 20
-183.010231
 30
0.0
 10
197.218300
 20
-182.939111
 30
0.0
 10
197.147180
 20
-182.867991
 30
0.0
 10
197.147180
 20
-183.010231
 30
0.0
  0
LWPOLYLINE
  5
1d0
100
AcDbEntity
  8
0
 62
7
100
AcDbPolyline
 90
12
 70
0
 10
198.503540
 20
-184.298011
 30
0.0
 10
198.361300
 20
-184.369131
 30
0.0
 10
198.076820
 20
-184.369131
 30
0.0
 10
197.932040
 20
-184.298011
 30
0.0
 10
197.860920
 20
-184.224351
 30
0.0
 10
197.789800
 20
-184.082111
 30
0.0
 10
197.789800
 20
-183.655391
 30
0.0
 10
197.860920
 20
-183.510611
 30
0.0
 10
197.932040
 20
-183.439491
 30
0.0
 10
198.076820
 20
-183.368371
 30
0.0
 10
198.361300
 20
-183.368371
 30
0.0
 10
198.503540
 20
-183.439491
 30
0.0
  0
LWPOLYLINE
  5
1d1
100
AcDbEntity
  8
0
 62
7
100
AcDbPolyline
 90
6
 70
0
 10
199.791320
 20
-184.369131
 30
0.0
 10
199.791320
 20
-183.581731
 30
0.0
 10
199.717660
 20
-183.439491
 30
0.0
 10
199.575420
 20
-183.368371
 30
0.0
 10
199.290940
 20
-183.368371
 30
0.0
 10
199.146160
 20
-183.439491
 30
0.0
  0
LWPOLYLINE
  5
1d2
100
AcDbEntity
  8
0
 62
7
100
AcDbPolyline
 90
10
 70
0
 10
199.791320
 20
-184.298011
 30
0.0
 10
199.646540
 20
-184.369131
 30
0.0
 10
199.290940
 20
-184.369131
 30
0.0
 10
199.146160
 20
-184.298011
 30
0.0
 10
199.075040
 20
-184.153231
 30
0.0
 10
199.075040
 20
-184.010991
 30
0.0
 10
199.146160
 20
-183.868751
 30
0.0
 10
199.290940
 20
-183.797631
 30
0.0
 10
199.646540
 20
-183.797631
 30
0.0
 10
199.791320
 20
-183.726511
 30
0.0
  0
LWPOLYLINE
  5
1d3
100
AcDbEntity
  8
0
 62
7
100
AcDbPolyline
 90
2
 70
0
 10
201.147680
 20
-184.369131
 30
0.0
 10
201.147680
 20
-182.867991
 30
0.0
  0
LWPOLYLINE
  5
1d4
100
AcDbEntity
  8
0
 62
7
100
AcDbPolyline
 90
12
 70
0
 10
201.147680
 20
-184.298011
 30
0.0
 10
201.005440
 20
-184.369131
 30
0.0
 10
200.718420
 20
-184.369131
 30
0.0
 10
200.576180
 20
-184.298011
 30
0.0
 10
200.505060
 20
-184.224351
 30
0.0
 10
200.433940
 20
-184.082111
 30
0.0
 10
200.433940
 20
-183.655391
 30
0.0
 10
200.505060
 20
-183.510611
 30
0.0
 10
200.576180
 20
-183.439491
 30
0.0
 10
200.718420
 20
-183.368371
 30
0.0
 10
201.005440
 20
-183.368371
 30
0.0
 10
201.147680
 20
-183.439491
 30
0.0
  0
LWPOLYLINE
  5
1d5
100
AcDbEntity
  8
0
 62
7
100
AcDbPolyline
 90
2
 70
0
 10
201.503280
 20
-184.511371
 30
0.0
 10
202.646280
 20
-184.511371
 30
0.0
  0
LWPOLYLINE
  5
1d6
100
AcDbEntity
  8
0
 62
7
100
AcDbPolyline
 90
2
 70
0
 10
203.004420
 20
-183.368371
 30
0.0
 10
203.004420
 20
-184.869511
 30
0.0
  0
LWPOLYLINE
  5
1d7
100
AcDbEntity
  8
0
 62
7
100
AcDbPolyline
 90
12
 70
0
 10
203.004420
 20
-183.439491
 30
0.0
 10
203.146660
 20
-183.368371
 30
0.0
 10
203.433680
 20
-183.368371
 30
0.0
 10
203.575920
 20
-183.439491
 30
0.0
 10
203.647040
 20
-183.510611
 30
0.0
 10
203.718160
 20
-183.655391
 30
0.0
 10
203.718160
 20
-184.082111
 30
0.0
 10
203.647040
 20
-184.224351
 30
0.0
 10
203.575920
 20
-184.298011
 30
0.0
 10
203.433680
 20
-184.369131
 30
0.0
 10
203.146660
 20
-184.369131
 30
0.0
 10
203.004420
 20
-184.298011
 30
0.0
  0
LWPOLYLINE
  5
1d8
100
AcDbEntity
  8
0
 62
7
100
AcDbPolyline
 90
12
 70
0
 10
205.003400
 20
-184.298011
 30
0.0
 10
204.861160
 20
-184.369131
 30
0.0
 10
204.576680
 20
-184.369131
 30
0.0
 10
204.431900
 20
-184.298011
 30
0.0
 10
204.360780
 20
-184.224351
 30
0.0
 10
204.289660
 20
-184.082111
 30
0.0
 10
204.289660
 20
-183.655391
 30
0.0
 10
204.360780
 20
-183.510611
 30
0.0
 10
204.431900
 20
-183.439491
 30
0.0
 10
204.576680
 20
-183.368371
 30
0.0
 10
204.861160
 20
-183.368371
 30
0.0
 10
205.003400
 20
-183.439491
 30
0.0
  0
LWPOLYLINE
  5
1d9
100
AcDbEntity
  8
0
 62
7
100
AcDbPolyline
 90
2
 70
0
 10
205.648560
 20
-184.369131
 30
0.0
 10
205.648560
 20
-182.867991
 30
0.0
  0
LWPOLYLINE
  5
1da
100
AcDbEntity
  8
0
 62
7
100
AcDbPolyline
 90
12
 70
0
 10
205.648560
 20
-183.439491
 30
0.0
 10
205.790800
 20
-183.368371
 30
0.0
 10
206.075280
 20
-183.368371
 30
0.0
 10
206.217520
 20
-183.439491
 30
0.0
 10
206.291180
 20
-183.510611
 30
0.0
 10
206.362300
 20
-183.655391
 30
0.0
 10
206.362300
 20
-184.082111
 30
0.0
 10
206.291180
 20
-184.224351
 30
0.0
 10
206.217520
 20
-184.298011
 30
0.0
 10
206.075280
 20
-184.369131
 30
0.0
 10
205.790800
 20
-184.369131
 30
0.0
 10
205.648560
 20
-184.298011
 30
0.0
  0
LWPOLYLINE
  5
1db
100
AcDbEntity
  8
0
 62
7
100
AcDbPolyline
 90
2
 70
0
 10
176.999900
 20
-179.489791
 30
0.0
 10
285.000700
 20
-179.489791
 30
0.0
  0
LWPOLYLINE
  5
1dc
100
AcDbEntity
  8
0
 62
7
100
AcDbPolyline
 90
20
 70
0
 10
178.361340
 20
-181.597991
 30
0.0
 10
178.574700
 20
-181.669111
 30
0.0
 10
178.932840
 20
-181.669111
 30
0.0
 10
179.075080
 20
-181.597991
 30
0.0
 10
179.146200
 20
-181.524331
 30
0.0
 10
179.219860
 20
-181.382091
 30
0.0
 10
179.219860
 20
-181.239851
 30
0.0
 10
179.146200
 20
-181.097611
 30
0.0
 10
179.075080
 20
-181.026491
 30
0.0
 10
178.932840
 20
-180.955371
 30
0.0
 10
178.648360
 20
-180.881711
 30
0.0
 10
178.503580
 20
-180.810591
 30
0.0
 10
178.432460
 20
-180.739471
 30
0.0
 10
178.361340
 20
-180.597231
 30
0.0
 10
178.361340
 20
-180.454991
 30
0.0
 10
178.432460
 20
-180.310211
 30
0.0
 10
178.503580
 20
-180.239091
 30
0.0
 10
178.648360
 20
-180.167971
 30
0.0
 10
179.003960
 20
-180.167971
 30
0.0
 10
179.219860
 20
-180.239091
 30
0.0
  0
LWPOLYLINE
  5
1dd
100
AcDbEntity
  8
0
 62
7
100
AcDbPolyline
 90
2
 70
0
 10
179.862480
 20
-181.669111
 30
0.0
 10
179.862480
 20
-180.167971
 30
0.0
  0
LWPOLYLINE
  5
1de
100
AcDbEntity
  8
0
 62
7
100
AcDbPolyline
 90
7
 70
0
 10
180.505100
 20
-181.669111
 30
0.0
 10
180.505100
 20
-180.881711
 30
0.0
 10
180.433980
 20
-180.739471
 30
0.0
 10
180.289200
 20
-180.668351
 30
0.0
 10
180.075840
 20
-180.668351
 30
0.0
 10
179.933600
 20
-180.739471
 30
0.0
 10
179.862480
 20
-180.810591
 30
0.0
  0
LWPOLYLINE
  5
1df
100
AcDbEntity
  8
0
 62
7
100
AcDbPolyline
 90
13
 70
0
 10
181.790340
 20
-181.597991
 30
0.0
 10
181.648100
 20
-181.669111
 30
0.0
 10
181.361080
 20
-181.669111
 30
0.0
 10
181.218840
 20
-181.597991
 30
0.0
 10
181.147720
 20
-181.453211
 30
0.0
 10
181.147720
 20
-180.881711
 30
0.0
 10
181.218840
 20
-180.739471
 30
0.0
 10
181.361080
 20
-180.668351
 30
0.0
 10
181.648100
 20
-180.668351
 30
0.0
 10
181.790340
 20
-180.739471
 30
0.0
 10
181.861460
 20
-180.881711
 30
0.0
 10
181.861460
 20
-181.026491
 30
0.0
 10
181.147720
 20
-181.168731
 30
0.0
  0
LWPOLYLINE
  5
1e0
100
AcDbEntity
  8
0
 62
7
100
AcDbPolyline
 90
13
 70
0
 10
183.075580
 20
-181.597991
 30
0.0
 10
182.933340
 20
-181.669111
 30
0.0
 10
182.646320
 20
-181.669111
 30
0.0
 10
182.504080
 20
-181.597991
 30
0.0
 10
182.432960
 20
-181.453211
 30
0.0
 10
182.432960
 20
-180.881711
 30
0.0
 10
182.504080
 20
-180.739471
 30
0.0
 10
182.646320
 20
-180.668351
 30
0.0
 10
182.933340
 20
-180.668351
 30
0.0
 10
183.075580
 20
-180.739471
 30
0.0
 10
183.146700
 20
-180.881711
 30
0.0
 10
183.146700
 20
-181.026491
 30
0.0
 10
182.432960
 20
-181.168731
 30
0.0
  0
LWPOLYLINE
  5
1e1
100
AcDbEntity
  8
0
 62
7
100
AcDbPolyline
 90
2
 70
0
 10
183.575960
 20
-180.668351
 30
0.0
 10
184.147460
 20
-180.668351
 30
0.0
  0
LWPOLYLINE
  5
1e2
100
AcDbEntity
  8
0
 62
7
100
AcDbPolyline
 90
5
 70
0
 10
183.789320
 20
-180.167971
 30
0.0
 10
183.789320
 20
-181.453211
 30
0.0
 10
183.860440
 20
-181.597991
 30
0.0
 10
184.005220
 20
-181.669111
 30
0.0
 10
184.147460
 20
-181.669111
 30
0.0
  0
LWPOLYLINE
  5
1e3
100
AcDbEntity
  8
0
 62
7
100
AcDbPolyline
 90
6
 70
0
 10
184.647840
 20
-181.524331
 30
0.0
 10
184.718960
 20
-181.597991
 30
0.0
 10
184.647840
 20
-181.669111
 30
0.0
 10
184.576720
 20
-181.597991
 30
0.0
 10
184.647840
 20
-181.524331
 30
0.0
 10
184.647840
 20
-181.669111
 30
0.0
  0
LWPOLYLINE
  5
1e4
100
AcDbEntity
  8
0
 62
7
100
AcDbPolyline
 90
6
 70
0
 10
184.647840
 20
-180.739471
 30
0.0
 10
184.718960
 20
-180.810591
 30
0.0
 10
184.647840
 20
-180.881711
 30
0.0
 10
184.576720
 20
-180.810591
 30
0.0
 10
184.647840
 20
-180.739471
 30
0.0
 10
184.647840
 20
-180.881711
 30
0.0
  0
LWPOLYLINE
  5
1e5
100
AcDbEntity
  8
0
 62
7
100
AcDbPolyline
 90
2
 70
0
 10
196.999860
 20
-189.489771
 30
0.0
 10
196.999860
 20
-192.489511
 30
0.0
  0
SPLINE
  5
1e6
100
AcDbEntity
  8
0
 62
7
100
AcDbSpline
 70
8
 71
3
 72
8
 73
4
 74
0
 40
0
 40
0
 40
0
 40
0
 40
1
 40
1
 40
1
 40
1
 10
83.820000
 20
-59.959931
 30
0.0
 10
83.685270
 20
-59.959931
 30
0.0
 10
83.556058
 20
-60.013452
 30
0.0
 10
83.460790
 20
-60.108721
 30
0.0
  0
SPLINE
  5
1e7
100
AcDbEntity
  8
0
 62
7
100
AcDbSpline
 70
8
 71
3
 72
8
 73
4
 74
0
 40
0
 40
0
 40
0
 40
0
 40
1
 40
1
 40
1
 40
1
 10
83.460790
 20
-60.108721
 30
0.0
 10
83.365521
 20
-60.203989
 30
0.0
 10
83.312000
 20
-60.333201
 30
0.0
 10
83.312000
 20
-60.467931
 30
0.0
  0
LWPOLYLINE
  5
1e8
100
AcDbEntity
  8
0
 62
7
100
AcDbPolyline
 90
2
 70
0
 10
261.000240
 20
-189.489771
 30
0.0
 10
261.000240
 20
-195.989631
 30
0.0
  0
LWPOLYLINE
  5
1e9
100
AcDbEntity
  8
0
 62
7
100
AcDbPolyline
 90
7
 70
0
 10
103.863140
 20
-77.323371
 30
0.0
 10
103.926640
 20
-77.544351
 30
0.0
 10
103.939340
 20
-77.767871
 30
0.0
 10
103.903780
 20
-77.988851
 30
0.0
 10
103.822500
 20
-78.194591
 30
0.0
 10
103.692960
 20
-78.382551
 30
0.0
 10
103.642160
 20
-78.440971
 30
0.0
  0
LWPOLYLINE
  5
1ea
100
AcDbEntity
  8
0
 62
7
100
AcDbPolyline
 90
7
 70
0
 10
102.918260
 20
-76.690911
 30
0.0
 10
103.144320
 20
-76.716311
 30
0.0
 10
103.357680
 20
-76.789971
 30
0.0
 10
103.545640
 20
-76.906811
 30
0.0
 10
103.705660
 20
-77.064291
 30
0.0
 10
103.830120
 20
-77.254791
 30
0.0
 10
103.863140
 20
-77.323371
 30
0.0
  0
LWPOLYLINE
  5
1eb
100
AcDbEntity
  8
0
 62
7
100
AcDbPolyline
 90
5
 70
0
 10
61.043820
 20
-45.494631
 30
0.0
 10
61.201300
 20
-45.367631
 30
0.0
 10
61.399420
 20
-45.263491
 30
0.0
 10
61.617860
 20
-45.207611
 30
0.0
 10
61.770260
 20
-45.194911
 30
0.0
  0
LWPOLYLINE
  5
1ec
100
AcDbEntity
  8
0
 62
7
100
AcDbPolyline
 90
5
 70
0
 10
60.744100
 20
-46.221071
 30
0.0
 10
60.764420
 20
-46.017871
 30
0.0
 10
60.833000
 20
-45.804511
 30
0.0
 10
60.944760
 20
-45.611471
 30
0.0
 10
61.043820
 20
-45.494631
 30
0.0
  0
LWPOLYLINE
  5
1ed
100
AcDbEntity
  8
0
 62
7
100
AcDbPolyline
 90
7
 70
0
 10
61.376560
 20
-47.165951
 30
0.0
 10
61.175900
 20
-47.054191
 30
0.0
 10
61.008260
 20
-46.906871
 30
0.0
 10
60.878720
 20
-46.726531
 30
0.0
 10
60.789820
 20
-46.520791
 30
0.0
 10
60.749180
 20
-46.297271
 30
0.0
 10
60.744100
 20
-46.221071
 30
0.0
  0
LWPOLYLINE
  5
1ee
100
AcDbEntity
  8
0
 62
7
100
AcDbPolyline
 90
3
 70
0
 10
140.078460
 20
-55.291411
 30
0.0
 10
139.885420
 20
-55.192351
 30
0.0
 10
139.760960
 20
-55.177111
 30
0.0
  0
LWPOLYLINE
  5
1ef
100
AcDbEntity
  8
0
 62
7
100
AcDbPolyline
 90
2
 70
0
 10
158.760160
 20
-57.427551
 30
0.0
 10
140.759180
 20
-57.427551
 30
0.0
  0
LWPOLYLINE
  5
1f0
100
AcDbEntity
  8
0
 62
7
100
AcDbPolyline
 90
4
 70
0
 10
159.545020
 20
-62.129091
 30
0.0
 10
159.374840
 20
-61.994471
 30
0.0
 10
159.275780
 20
-61.801431
 30
0.0
 10
159.260540
 20
-61.676971
 30
0.0
  0
LWPOLYLINE
  5
1f1
100
AcDbEntity
  8
0
 62
7
100
AcDbPolyline
 90
2
 70
0
 10
198.353680
 20
-118.014171
 30
0.0
 10
198.290180
 20
-64.869751
 30
0.0
  0
LWPOLYLINE
  5
1f2
100
AcDbEntity
  8
0
 62
7
100
AcDbPolyline
 90
7
 70
0
 10
195.303140
 20
-57.765371
 30
0.0
 10
195.366640
 20
-57.986351
 30
0.0
 10
195.379340
 20
-58.209871
 30
0.0
 10
195.343780
 20
-58.430851
 30
0.0
 10
195.262500
 20
-58.636591
 30
0.0
 10
195.132960
 20
-58.824551
 30
0.0
 10
195.082160
 20
-58.882971
 30
0.0
  0
LWPOLYLINE
  5
1f3
100
AcDbEntity
  8
0
 62
7
100
AcDbPolyline
 90
7
 70
0
 10
194.358260
 20
-57.132911
 30
0.0
 10
194.584320
 20
-57.158311
 30
0.0
 10
194.797680
 20
-57.231971
 30
0.0
 10
194.985640
 20
-57.348811
 30
0.0
 10
195.145660
 20
-57.506291
 30
0.0
 10
195.270120
 20
-57.696791
 30
0.0
 10
195.303140
 20
-57.765371
 30
0.0
  0
LWPOLYLINE
  5
1f4
100
AcDbEntity
  8
0
 62
7
100
AcDbPolyline
 90
1
 70
1
 10
178.991260
 20
-99.677911
 30
0.0
  0
LWPOLYLINE
  5
1f5
100
AcDbEntity
  8
0
 62
7
100
AcDbPolyline
 90
7
 70
0
 10
79.169260
 20
-120.632911
 30
0.0
 10
79.395320
 20
-120.658311
 30
0.0
 10
79.608680
 20
-120.731971
 30
0.0
 10
79.796640
 20
-120.848811
 30
0.0
 10
79.956660
 20
-121.006291
 30
0.0
 10
80.081120
 20
-121.196791
 30
0.0
 10
80.114140
 20
-121.265371
 30
0.0
  0
LWPOLYLINE
  5
1f6
100
AcDbEntity
  8
0
 62
7
100
AcDbPolyline
 90
1
 70
1
 10
61.770260
 20
-45.194911
 30
0.0
  0
LWPOLYLINE
  5
1f7
100
AcDbEntity
  8
0
 62
7
100
AcDbPolyline
 90
5
 70
0
 10
102.191820
 20
-76.990631
 30
0.0
 10
102.349300
 20
-76.863631
 30
0.0
 10
102.547420
 20
-76.759491
 30
0.0
 10
102.765860
 20
-76.703611
 30
0.0
 10
102.918260
 20
-76.690911
 30
0.0
  0
LWPOLYLINE
  5
1f8
100
AcDbEntity
  8
0
 62
7
100
AcDbPolyline
 90
5
 70
0
 10
101.892100
 20
-77.714531
 30
0.0
 10
101.912420
 20
-77.513871
 30
0.0
 10
101.981000
 20
-77.300511
 30
0.0
 10
102.092760
 20
-77.107471
 30
0.0
 10
102.191820
 20
-76.990631
 30
0.0
  0
LWPOLYLINE
  5
1f9
100
AcDbEntity
  8
0
 62
7
100
AcDbPolyline
 90
2
 70
0
 10
159.760920
 20
-62.177351
 30
0.0
 10
159.545020
 20
-62.129091
 30
0.0
  0
LWPOLYLINE
  5
1fa
100
AcDbEntity
  8
0
 62
7
100
AcDbPolyline
 90
7
 70
0
 10
79.893160
 20
-122.382971
 30
0.0
 10
79.712820
 20
-122.525211
 30
0.0
 10
79.512160
 20
-122.621731
 30
0.0
 10
79.293720
 20
-122.675071
 30
0.0
 10
79.070200
 20
-122.677611
 30
0.0
 10
78.849220
 20
-122.629351
 30
0.0
 10
78.775560
 20
-122.603951
 30
0.0
  0
LWPOLYLINE
  5
1fb
100
AcDbEntity
  8
0
 62
7
100
AcDbPolyline
 90
7
 70
0
 10
80.114140
 20
-121.265371
 30
0.0
 10
80.177640
 20
-121.486351
 30
0.0
 10
80.190340
 20
-121.709871
 30
0.0
 10
80.154780
 20
-121.930851
 30
0.0
 10
80.073500
 20
-122.136591
 30
0.0
 10
79.943960
 20
-122.324551
 30
0.0
 10
79.893160
 20
-122.382971
 30
0.0
  0
LWPOLYLINE
  5
1fc
100
AcDbEntity
  8
0
 62
7
100
AcDbPolyline
 90
2
 70
0
 10
157.406340
 20
-79.482371
 30
0.0
 10
157.406340
 20
-93.480311
 30
0.0
  0
LWPOLYLINE
  5
1fd
100
AcDbEntity
  8
0
 62
7
100
AcDbPolyline
 90
2
 70
0
 10
105.407460
 20
-79.482371
 30
0.0
 10
119.407940
 20
-79.482371
 30
0.0
  0
LWPOLYLINE
  5
1fe
100
AcDbEntity
  8
0
 62
7
100
AcDbPolyline
 90
2
 70
0
 10
119.407940
 20
-60.480631
 30
0.0
 10
119.407940
 20
-74.481111
 30
0.0
  0
LWPOLYLINE
  5
1ff
100
AcDbEntity
  8
0
 62
7
100
AcDbPolyline
 90
4
 70
0
 10
138.407140
 20
-117.005791
 30
0.0
 10
138.407140
 20
-131.006271
 30
0.0
 10
124.406660
 20
-131.006271
 30
0.0
 10
124.406660
 20
-117.005791
 30
0.0
  0
LWPOLYLINE
  5
200
100
AcDbEntity
  8
0
 62
7
100
AcDbPolyline
 90
3
 70
0
 10
102.069900
 20
-121.145991
 30
0.0
 10
115.709700
 20
-117.996391
 30
0.0
 10
118.859300
 20
-131.638731
 30
0.0
  0
LWPOLYLINE
  5
201
100
AcDbEntity
  8
0
 62
7
100
AcDbPolyline
 90
7
 70
0
 10
147.579080
 20
-120.853891
 30
0.0
 10
147.360640
 20
-121.018991
 30
0.0
 10
147.157440
 20
-121.199331
 30
0.0
 10
146.974560
 20
-121.394911
 30
0.0
 10
146.814540
 20
-121.600651
 30
0.0
 10
146.677380
 20
-121.811471
 30
0.0
 10
146.601180
 20
-121.956251
 30
0.0
  0
LWPOLYLINE
  5
202
100
AcDbEntity
  8
0
 62
7
100
AcDbPolyline
 90
2
 70
0
 10
138.056620
 20
-134.244771
 30
0.0
 10
138.333480
 20
-134.234611
 30
0.0
  0
LWPOLYLINE
  5
203
100
AcDbEntity
  8
0
 62
7
100
AcDbPolyline
 90
2
 70
0
 10
196.075300
 20
-62.230691
 30
0.0
 10
195.813680
 20
-62.202751
 30
0.0
  0
LWPOLYLINE
  5
204
100
AcDbEntity
  8
0
 62
7
100
AcDbPolyline
 90
2
 70
0
 10
196.326760
 20
-62.281491
 30
0.0
 10
196.075300
 20
-62.230691
 30
0.0
  0
LWPOLYLINE
  5
205
100
AcDbEntity
  8
0
 62
7
100
AcDbPolyline
 90
2
 70
0
 10
196.570600
 20
-62.355151
 30
0.0
 10
196.326760
 20
-62.281491
 30
0.0
  0
LWPOLYLINE
  5
206
100
AcDbEntity
  8
0
 62
7
100
AcDbPolyline
 90
2
 70
0
 10
196.801740
 20
-62.451671
 30
0.0
 10
196.570600
 20
-62.355151
 30
0.0
  0
LWPOLYLINE
  5
207
100
AcDbEntity
  8
0
 62
7
100
AcDbPolyline
 90
2
 70
0
 10
197.020180
 20
-62.568511
 30
0.0
 10
196.801740
 20
-62.451671
 30
0.0
  0
LWPOLYLINE
  5
208
100
AcDbEntity
  8
0
 62
7
100
AcDbPolyline
 90
2
 70
0
 10
197.225920
 20
-62.705671
 30
0.0
 10
197.020180
 20
-62.568511
 30
0.0
  0
LWPOLYLINE
  5
209
100
AcDbEntity
  8
0
 62
7
100
AcDbPolyline
 90
2
 70
0
 10
197.418960
 20
-62.860611
 30
0.0
 10
197.225920
 20
-62.705671
 30
0.0
  0
LWPOLYLINE
  5
20a
100
AcDbEntity
  8
0
 62
7
100
AcDbPolyline
 90
2
 70
0
 10
197.594220
 20
-63.033331
 30
0.0
 10
197.418960
 20
-62.860611
 30
0.0
  0
LWPOLYLINE
  5
20b
100
AcDbEntity
  8
0
 62
7
100
AcDbPolyline
 90
2
 70
0
 10
197.754240
 20
-63.221291
 30
0.0
 10
197.594220
 20
-63.033331
 30
0.0
  0
LWPOLYLINE
  5
20c
100
AcDbEntity
  8
0
 62
7
100
AcDbPolyline
 90
2
 70
0
 10
197.893940
 20
-63.424491
 30
0.0
 10
197.754240
 20
-63.221291
 30
0.0
  0
LWPOLYLINE
  5
20d
100
AcDbEntity
  8
0
 62
7
100
AcDbPolyline
 90
2
 70
0
 10
198.015860
 20
-63.640391
 30
0.0
 10
197.893940
 20
-63.424491
 30
0.0
  0
LWPOLYLINE
  5
20e
100
AcDbEntity
  8
0
 62
7
100
AcDbPolyline
 90
2
 70
0
 10
198.114920
 20
-63.866451
 30
0.0
 10
198.015860
 20
-63.640391
 30
0.0
  0
LWPOLYLINE
  5
20f
100
AcDbEntity
  8
0
 62
7
100
AcDbPolyline
 90
2
 70
0
 10
198.196200
 20
-64.105211
 30
0.0
 10
198.114920
 20
-63.866451
 30
0.0
  0
LWPOLYLINE
  5
210
100
AcDbEntity
  8
0
 62
7
100
AcDbPolyline
 90
2
 70
0
 10
198.252080
 20
-64.351591
 30
0.0
 10
198.196200
 20
-64.105211
 30
0.0
  0
LWPOLYLINE
  5
211
100
AcDbEntity
  8
0
 62
7
100
AcDbPolyline
 90
2
 70
0
 10
198.282560
 20
-64.608131
 30
0.0
 10
198.252080
 20
-64.351591
 30
0.0
  0
LWPOLYLINE
  5
212
100
AcDbEntity
  8
0
 62
7
100
AcDbPolyline
 90
2
 70
0
 10
198.290180
 20
-64.869751
 30
0.0
 10
198.282560
 20
-64.608131
 30
0.0
  0
LWPOLYLINE
  5
213
100
AcDbEntity
  8
0
 62
7
100
AcDbPolyline
 90
4
 70
0
 10
140.759180
 20
-57.427551
 30
0.0
 10
140.543280
 20
-57.376751
 30
0.0
 10
140.373100
 20
-57.244671
 30
0.0
 10
140.276580
 20
-57.051631
 30
0.0
  0
LWPOLYLINE
  5
214
100
AcDbEntity
  8
0
 62
7
100
AcDbPolyline
 90
2
 70
0
 10
198.325740
 20
-59.987871
 30
0.0
 10
198.353680
 20
-59.728791
 30
0.0
  0
LWPOLYLINE
  5
215
100
AcDbEntity
  8
0
 62
7
100
AcDbPolyline
 90
2
 70
0
 10
198.274940
 20
-60.241871
 30
0.0
 10
198.325740
 20
-59.987871
 30
0.0
  0
LWPOLYLINE
  5
216
100
AcDbEntity
  8
0
 62
7
100
AcDbPolyline
 90
2
 70
0
 10
198.201280
 20
-60.483171
 30
0.0
 10
198.274940
 20
-60.241871
 30
0.0
  0
LWPOLYLINE
  5
217
100
AcDbEntity
  8
0
 62
7
100
AcDbPolyline
 90
5
 70
0
 10
60.916820
 20
-134.902631
 30
0.0
 10
61.074300
 20
-134.775631
 30
0.0
 10
61.272420
 20
-134.671491
 30
0.0
 10
61.490860
 20
-134.615611
 30
0.0
 10
61.643260
 20
-134.602911
 30
0.0
  0
LWPOLYLINE
  5
218
100
AcDbEntity
  8
0
 62
7
100
AcDbPolyline
 90
5
 70
0
 10
60.617100
 20
-135.629071
 30
0.0
 10
60.637420
 20
-135.425871
 30
0.0
 10
60.706000
 20
-135.212511
 30
0.0
 10
60.817760
 20
-135.019471
 30
0.0
 10
60.916820
 20
-134.902631
 30
0.0
  0
LWPOLYLINE
  5
219
100
AcDbEntity
  8
0
 62
7
100
AcDbPolyline
 90
7
 70
0
 10
81.836260
 20
-138.285911
 30
0.0
 10
82.062320
 20
-138.311311
 30
0.0
 10
82.275680
 20
-138.384971
 30
0.0
 10
82.463640
 20
-138.501811
 30
0.0
 10
82.623660
 20
-138.659291
 30
0.0
 10
82.748120
 20
-138.849791
 30
0.0
 10
82.781140
 20
-138.918371
 30
0.0
  0
LWPOLYLINE
  5
21a
100
AcDbEntity
  8
0
 62
7
100
AcDbPolyline
 90
1
 70
1
 10
79.169260
 20
-120.632911
 30
0.0
  0
LWPOLYLINE
  5
21b
100
AcDbEntity
  8
0
 62
7
100
AcDbPolyline
 90
7
 70
0
 10
81.442560
 20
-140.256951
 30
0.0
 10
81.241900
 20
-140.145191
 30
0.0
 10
81.074260
 20
-139.997871
 30
0.0
 10
80.944720
 20
-139.817531
 30
0.0
 10
80.855820
 20
-139.611791
 30
0.0
 10
80.815180
 20
-139.388271
 30
0.0
 10
80.810100
 20
-139.312071
 30
0.0
  0
LWPOLYLINE
  5
21c
100
AcDbEntity
  8
0
 62
7
100
AcDbPolyline
 90
7
 70
0
 10
82.560160
 20
-140.035971
 30
0.0
 10
82.379820
 20
-140.178211
 30
0.0
 10
82.179160
 20
-140.274731
 30
0.0
 10
81.960720
 20
-140.328071
 30
0.0
 10
81.737200
 20
-140.330611
 30
0.0
 10
81.516220
 20
-140.282351
 30
0.0
 10
81.442560
 20
-140.256951
 30
0.0
  0
LWPOLYLINE
  5
21d
100
AcDbEntity
  8
0
 62
7
100
AcDbPolyline
 90
7
 70
0
 10
82.781140
 20
-138.918371
 30
0.0
 10
82.844640
 20
-139.139351
 30
0.0
 10
82.857340
 20
-139.362871
 30
0.0
 10
82.821780
 20
-139.583851
 30
0.0
 10
82.740500
 20
-139.789591
 30
0.0
 10
82.610960
 20
-139.977551
 30
0.0
 10
82.560160
 20
-140.035971
 30
0.0
  0
LWPOLYLINE
  5
21e
100
AcDbEntity
  8
0
 62
7
100
AcDbPolyline
 90
5
 70
0
 10
81.109820
 20
-138.585631
 30
0.0
 10
81.267300
 20
-138.458631
 30
0.0
 10
81.465420
 20
-138.354491
 30
0.0
 10
81.683860
 20
-138.298611
 30
0.0
 10
81.836260
 20
-138.285911
 30
0.0
  0
LWPOLYLINE
  5
21f
100
AcDbEntity
  8
0
 62
7
100
AcDbPolyline
 90
5
 70
0
 10
80.810100
 20
-139.312071
 30
0.0
 10
80.830420
 20
-139.108871
 30
0.0
 10
80.899000
 20
-138.895511
 30
0.0
 10
81.010760
 20
-138.702471
 30
0.0
 10
81.109820
 20
-138.585631
 30
0.0
  0
LWPOLYLINE
  5
220
100
AcDbEntity
  8
0
 62
7
100
AcDbPolyline
 90
5
 70
0
 10
193.332100
 20
-58.159071
 30
0.0
 10
193.352420
 20
-57.955871
 30
0.0
 10
193.421000
 20
-57.742511
 30
0.0
 10
193.532760
 20
-57.549471
 30
0.0
 10
193.631820
 20
-57.432631
 30
0.0
  0
LWPOLYLINE
  5
221
100
AcDbEntity
  8
0
 62
7
100
AcDbPolyline
 90
7
 70
0
 10
193.964560
 20
-59.103951
 30
0.0
 10
193.763900
 20
-58.992191
 30
0.0
 10
193.596260
 20
-58.844871
 30
0.0
 10
193.466720
 20
-58.664531
 30
0.0
 10
193.377820
 20
-58.458791
 30
0.0
 10
193.337180
 20
-58.235271
 30
0.0
 10
193.332100
 20
-58.159071
 30
0.0
  0
LWPOLYLINE
  5
222
100
AcDbEntity
  8
0
 62
7
100
AcDbPolyline
 90
7
 70
0
 10
195.082160
 20
-58.882971
 30
0.0
 10
194.901820
 20
-59.025211
 30
0.0
 10
194.701160
 20
-59.121731
 30
0.0
 10
194.482720
 20
-59.175071
 30
0.0
 10
194.259200
 20
-59.177611
 30
0.0
 10
194.038220
 20
-59.129351
 30
0.0
 10
193.964560
 20
-59.103951
 30
0.0
  0
LWPOLYLINE
  5
223
100
AcDbEntity
  8
0
 62
7
100
AcDbPolyline
 90
2
 70
0
 10
197.695820
 20
-61.334071
 30
0.0
 10
197.850760
 20
-61.141031
 30
0.0
  0
LWPOLYLINE
  5
224
100
AcDbEntity
  8
0
 62
7
100
AcDbPolyline
 90
2
 70
0
 10
197.523100
 20
-61.509331
 30
0.0
 10
197.695820
 20
-61.334071
 30
0.0
  0
LWPOLYLINE
  5
225
100
AcDbEntity
  8
0
 62
7
100
AcDbPolyline
 90
2
 70
0
 10
197.335140
 20
-61.666811
 30
0.0
 10
197.523100
 20
-61.509331
 30
0.0
  0
LWPOLYLINE
  5
226
100
AcDbEntity
  8
0
 62
7
100
AcDbPolyline
 90
2
 70
0
 10
197.134480
 20
-61.809051
 30
0.0
 10
197.335140
 20
-61.666811
 30
0.0
  0
LWPOLYLINE
  5
227
100
AcDbEntity
  8
0
 62
7
100
AcDbPolyline
 90
2
 70
0
 10
196.918580
 20
-61.928431
 30
0.0
 10
197.134480
 20
-61.809051
 30
0.0
  0
LWPOLYLINE
  5
228
100
AcDbEntity
  8
0
 62
7
100
AcDbPolyline
 90
2
 70
0
 10
196.689980
 20
-62.030031
 30
0.0
 10
196.918580
 20
-61.928431
 30
0.0
  0
LWPOLYLINE
  5
229
100
AcDbEntity
  8
0
 62
7
100
AcDbPolyline
 90
2
 70
0
 10
196.451220
 20
-62.108771
 30
0.0
 10
196.689980
 20
-62.030031
 30
0.0
  0
LWPOLYLINE
  5
22a
100
AcDbEntity
  8
0
 62
7
100
AcDbPolyline
 90
2
 70
0
 10
196.204840
 20
-62.164651
 30
0.0
 10
196.451220
 20
-62.108771
 30
0.0
  0
LWPOLYLINE
  5
22b
100
AcDbEntity
  8
0
 62
7
100
AcDbPolyline
 90
2
 70
0
 10
197.713600
 20
-119.583891
 30
0.0
 10
197.866000
 20
-119.395931
 30
0.0
  0
LWPOLYLINE
  5
22c
100
AcDbEntity
  8
0
 62
7
100
AcDbPolyline
 90
2
 70
0
 10
197.545960
 20
-119.754071
 30
0.0
 10
197.713600
 20
-119.583891
 30
0.0
  0
LWPOLYLINE
  5
22d
100
AcDbEntity
  8
0
 62
7
100
AcDbPolyline
 90
2
 70
0
 10
197.360540
 20
-119.909011
 30
0.0
 10
197.545960
 20
-119.754071
 30
0.0
  0
LWPOLYLINE
  5
22e
100
AcDbEntity
  8
0
 62
7
100
AcDbPolyline
 90
5
 70
0
 10
178.137820
 20
-80.927631
 30
0.0
 10
178.295300
 20
-80.800631
 30
0.0
 10
178.493420
 20
-80.696491
 30
0.0
 10
178.711860
 20
-80.640611
 30
0.0
 10
178.864260
 20
-80.627911
 30
0.0
  0
LWPOLYLINE
  5
22f
100
AcDbEntity
  8
0
 62
7
100
AcDbPolyline
 90
12
 70
0
 10
71.521320
 20
-157.724531
 30
0.0
 10
71.285100
 20
-157.691511
 30
0.0
 10
71.056500
 20
-157.643251
 30
0.0
 10
70.830440
 20
-157.577211
 30
0.0
 10
70.612000
 20
-157.495931
 30
0.0
 10
70.401180
 20
-157.396871
 30
0.0
 10
70.197980
 20
-157.282571
 30
0.0
 10
70.004940
 20
-157.153031
 30
0.0
 10
69.819520
 20
-157.008251
 30
0.0
 10
69.646800
 20
-156.848231
 30
0.0
 10
69.486780
 20
-156.675511
 30
0.0
 10
69.387720
 20
-156.553591
 30
0.0
  0
LWPOLYLINE
  5
230
100
AcDbEntity
  8
0
 62
7
100
AcDbPolyline
 90
12
 70
0
 10
73.835260
 20
-156.965071
 30
0.0
 10
73.649840
 20
-157.114931
 30
0.0
 10
73.456800
 20
-157.249551
 30
0.0
 10
73.256140
 20
-157.368931
 30
0.0
 10
73.045320
 20
-157.470531
 30
0.0
 10
72.829420
 20
-157.559431
 30
0.0
 10
72.608440
 20
-157.628011
 30
0.0
 10
72.379840
 20
-157.681351
 30
0.0
 10
72.148700
 20
-157.716911
 30
0.0
 10
71.915020
 20
-157.734691
 30
0.0
 10
71.678800
 20
-157.734691
 30
0.0
 10
71.521320
 20
-157.724531
 30
0.0
  0
LWPOLYLINE
  5
231
100
AcDbEntity
  8
0
 62
7
100
AcDbPolyline
 90
17
 70
0
 10
141.224000
 20
-132.349931
 30
0.0
 10
141.112240
 20
-132.550591
 30
0.0
 10
140.990320
 20
-132.743631
 30
0.0
 10
140.855700
 20
-132.926511
 30
0.0
 10
140.710920
 20
-133.099231
 30
0.0
 10
140.555980
 20
-133.261791
 30
0.0
 10
140.388340
 20
-133.411651
 30
0.0
 10
140.215620
 20
-133.551351
 30
0.0
 10
140.032740
 20
-133.680891
 30
0.0
 10
139.839700
 20
-133.797731
 30
0.0
 10
139.641580
 20
-133.899331
 30
0.0
 10
139.438380
 20
-133.990771
 30
0.0
 10
139.227560
 20
-134.066971
 30
0.0
 10
139.009120
 20
-134.130471
 30
0.0
 10
138.788140
 20
-134.181271
 30
0.0
 10
138.562080
 20
-134.214291
 30
0.0
 10
138.333480
 20
-134.234611
 30
0.0
  0
LWPOLYLINE
  5
232
100
AcDbEntity
  8
0
 62
7
100
AcDbPolyline
 90
1
 70
1
 10
194.231260
 20
-44.940911
 30
0.0
  0
LWPOLYLINE
  5
233
100
AcDbEntity
  8
0
 62
7
100
AcDbPolyline
 90
12
 70
0
 10
60.030360
 20
-143.254151
 30
0.0
 10
60.063380
 20
-143.028091
 30
0.0
 10
60.114180
 20
-142.809651
 30
0.0
 10
60.182760
 20
-142.593751
 30
0.0
 10
60.264040
 20
-142.382931
 30
0.0
 10
60.360560
 20
-142.182271
 30
0.0
 10
60.472320
 20
-141.986691
 30
0.0
 10
60.599320
 20
-141.801271
 30
0.0
 10
60.736480
 20
-141.626011
 30
0.0
 10
60.888880
 20
-141.458371
 30
0.0
 10
61.053980
 20
-141.303431
 30
0.0
 10
61.170820
 20
-141.206911
 30
0.0
  0
LWPOLYLINE
  5
234
100
AcDbEntity
  8
0
 62
7
100
AcDbPolyline
 90
12
 70
0
 10
60.678060
 20
-145.509671
 30
0.0
 10
60.540900
 20
-145.324251
 30
0.0
 10
60.421520
 20
-145.133751
 30
0.0
 10
60.314840
 20
-144.935631
 30
0.0
 10
60.225940
 20
-144.729891
 30
0.0
 10
60.149740
 20
-144.516531
 30
0.0
 10
60.091320
 20
-144.300631
 30
0.0
 10
60.048140
 20
-144.082191
 30
0.0
 10
60.020200
 20
-143.858671
 30
0.0
 10
60.010040
 20
-143.632611
 30
0.0
 10
60.015120
 20
-143.406551
 30
0.0
 10
60.030360
 20
-143.254151
 30
0.0
  0
LWPOLYLINE
  5
235
100
AcDbEntity
  8
0
 62
7
100
AcDbPolyline
 90
12
 70
0
 10
83.312000
 20
-122.316931
 30
0.0
 10
83.286600
 20
-122.553151
 30
0.0
 10
83.243420
 20
-122.781751
 30
0.0
 10
83.182460
 20
-123.005271
 30
0.0
 10
83.103720
 20
-123.218631
 30
0.0
 10
83.007200
 20
-123.421831
 30
0.0
 10
82.895440
 20
-123.614871
 30
0.0
 10
82.768440
 20
-123.797751
 30
0.0
 10
82.623660
 20
-123.967931
 30
0.0
 10
82.466180
 20
-124.122871
 30
0.0
 10
82.290920
 20
-124.262571
 30
0.0
 10
82.169000
 20
-124.348931
 30
0.0
  0
LWPOLYLINE
  5
236
100
AcDbEntity
  8
0
 62
7
100
AcDbPolyline
 90
2
 70
0
 10
198.104760
 20
-60.716851
 30
0.0
 10
198.201280
 20
-60.483171
 30
0.0
  0
LWPOLYLINE
  5
237
100
AcDbEntity
  8
0
 62
7
100
AcDbPolyline
 90
2
 70
0
 10
197.987920
 20
-60.935291
 30
0.0
 10
198.104760
 20
-60.716851
 30
0.0
  0
LWPOLYLINE
  5
238
100
AcDbEntity
  8
0
 62
7
100
AcDbPolyline
 90
2
 70
0
 10
197.850760
 20
-61.141031
 30
0.0
 10
197.987920
 20
-60.935291
 30
0.0
  0
LWPOLYLINE
  5
239
100
AcDbEntity
  8
0
 62
7
100
AcDbPolyline
 90
7
 70
0
 10
78.775560
 20
-122.603951
 30
0.0
 10
78.574900
 20
-122.492191
 30
0.0
 10
78.407260
 20
-122.344871
 30
0.0
 10
78.277720
 20
-122.164531
 30
0.0
 10
78.188820
 20
-121.958791
 30
0.0
 10
78.148180
 20
-121.735271
 30
0.0
 10
78.143100
 20
-121.659071
 30
0.0
  0
LWPOLYLINE
  5
23a
100
AcDbEntity
  8
0
 62
7
100
AcDbPolyline
 90
5
 70
0
 10
78.442820
 20
-120.932631
 30
0.0
 10
78.600300
 20
-120.805631
 30
0.0
 10
78.798420
 20
-120.701491
 30
0.0
 10
79.016860
 20
-120.645611
 30
0.0
 10
79.169260
 20
-120.632911
 30
0.0
  0
LWPOLYLINE
  5
23b
100
AcDbEntity
  8
0
 62
7
100
AcDbPolyline
 90
5
 70
0
 10
78.143100
 20
-121.659071
 30
0.0
 10
78.163420
 20
-121.455871
 30
0.0
 10
78.232000
 20
-121.242511
 30
0.0
 10
78.343760
 20
-121.049471
 30
0.0
 10
78.442820
 20
-120.932631
 30
0.0
  0
LWPOLYLINE
  5
23c
100
AcDbEntity
  8
0
 62
7
100
AcDbPolyline
 90
7
 70
0
 10
62.588140
 20
-135.235371
 30
0.0
 10
62.651640
 20
-135.456351
 30
0.0
 10
62.664340
 20
-135.679871
 30
0.0
 10
62.628780
 20
-135.900851
 30
0.0
 10
62.547500
 20
-136.106591
 30
0.0
 10
62.417960
 20
-136.294551
 30
0.0
 10
62.367160
 20
-136.352971
 30
0.0
  0
LWPOLYLINE
  5
23d
100
AcDbEntity
  8
0
 62
7
100
AcDbPolyline
 90
7
 70
0
 10
61.643260
 20
-134.602911
 30
0.0
 10
61.869320
 20
-134.628311
 30
0.0
 10
62.082680
 20
-134.701971
 30
0.0
 10
62.270640
 20
-134.818811
 30
0.0
 10
62.430660
 20
-134.976291
 30
0.0
 10
62.555120
 20
-135.166791
 30
0.0
 10
62.588140
 20
-135.235371
 30
0.0
  0
LWPOLYLINE
  5
23e
100
AcDbEntity
  8
0
 62
7
100
AcDbPolyline
 90
1
 70
1
 10
102.918260
 20
-76.690911
 30
0.0
  0
LWPOLYLINE
  5
23f
100
AcDbEntity
  8
0
 62
7
100
AcDbPolyline
 90
7
 70
0
 10
61.249560
 20
-136.573951
 30
0.0
 10
61.048900
 20
-136.462191
 30
0.0
 10
60.881260
 20
-136.314871
 30
0.0
 10
60.751720
 20
-136.134531
 30
0.0
 10
60.662820
 20
-135.928791
 30
0.0
 10
60.622180
 20
-135.705271
 30
0.0
 10
60.617100
 20
-135.629071
 30
0.0
  0
LWPOLYLINE
  5
240
100
AcDbEntity
  8
0
 62
7
100
AcDbPolyline
 90
7
 70
0
 10
62.367160
 20
-136.352971
 30
0.0
 10
62.186820
 20
-136.495211
 30
0.0
 10
61.986160
 20
-136.591731
 30
0.0
 10
61.767720
 20
-136.645071
 30
0.0
 10
61.544200
 20
-136.647611
 30
0.0
 10
61.323220
 20
-136.599351
 30
0.0
 10
61.249560
 20
-136.573951
 30
0.0
  0
LWPOLYLINE
  5
241
100
AcDbEntity
  8
0
 62
7
100
AcDbPolyline
 90
7
 70
0
 10
193.837560
 20
-46.911951
 30
0.0
 10
193.636900
 20
-46.800191
 30
0.0
 10
193.469260
 20
-46.652871
 30
0.0
 10
193.339720
 20
-46.472531
 30
0.0
 10
193.250820
 20
-46.266791
 30
0.0
 10
193.210180
 20
-46.043271
 30
0.0
 10
193.205100
 20
-45.967071
 30
0.0
  0
LWPOLYLINE
  5
242
100
AcDbEntity
  8
0
 62
7
100
AcDbPolyline
 90
5
 70
0
 10
193.504820
 20
-45.240631
 30
0.0
 10
193.662300
 20
-45.113631
 30
0.0
 10
193.860420
 20
-45.009491
 30
0.0
 10
194.078860
 20
-44.953611
 30
0.0
 10
194.231260
 20
-44.940911
 30
0.0
  0
LWPOLYLINE
  5
243
100
AcDbEntity
  8
0
 62
7
100
AcDbPolyline
 90
5
 70
0
 10
193.205100
 20
-45.967071
 30
0.0
 10
193.225420
 20
-45.763871
 30
0.0
 10
193.294000
 20
-45.550511
 30
0.0
 10
193.405760
 20
-45.357471
 30
0.0
 10
193.504820
 20
-45.240631
 30
0.0
  0
LWPOLYLINE
  5
244
100
AcDbEntity
  8
0
 62
7
100
AcDbPolyline
 90
1
 70
1
 10
194.358260
 20
-57.132911
 30
0.0
  0
LWPOLYLINE
  5
245
100
AcDbEntity
  8
0
 62
7
100
AcDbPolyline
 90
2
 70
0
 10
197.164960
 20
-120.048711
 30
0.0
 10
197.360540
 20
-119.909011
 30
0.0
  0
LWPOLYLINE
  5
246
100
AcDbEntity
  8
0
 62
7
100
AcDbPolyline
 90
2
 70
0
 10
196.954140
 20
-120.165551
 30
0.0
 10
197.164960
 20
-120.048711
 30
0.0
  0
LWPOLYLINE
  5
247
100
AcDbEntity
  8
0
 62
7
100
AcDbPolyline
 90
2
 70
0
 10
196.730620
 20
-120.264611
 30
0.0
 10
196.954140
 20
-120.165551
 30
0.0
  0
LWPOLYLINE
  5
248
100
AcDbEntity
  8
0
 62
7
100
AcDbPolyline
 90
2
 70
0
 10
196.499480
 20
-120.340811
 30
0.0
 10
196.730620
 20
-120.264611
 30
0.0
  0
LWPOLYLINE
  5
249
100
AcDbEntity
  8
0
 62
7
100
AcDbPolyline
 90
2
 70
0
 10
196.255640
 20
-120.396691
 30
0.0
 10
196.499480
 20
-120.340811
 30
0.0
  0
LWPOLYLINE
  5
24a
100
AcDbEntity
  8
0
 62
7
100
AcDbPolyline
 90
2
 70
0
 10
196.006720
 20
-120.427171
 30
0.0
 10
196.255640
 20
-120.396691
 30
0.0
  0
LWPOLYLINE
  5
24b
100
AcDbEntity
  8
0
 62
7
100
AcDbPolyline
 90
2
 70
0
 10
195.750180
 20
-120.432251
 30
0.0
 10
196.006720
 20
-120.427171
 30
0.0
  0
LWPOLYLINE
  5
24c
100
AcDbEntity
  8
0
 62
7
100
AcDbPolyline
 90
2
 70
0
 10
57.711340
 20
-44.867251
 30
0.0
 10
57.642760
 20
-140.307751
 30
0.0
  0
LWPOLYLINE
  5
24d
100
AcDbEntity
  8
0
 62
7
100
AcDbPolyline
 90
6
 70
0
 10
148.887180
 20
-120.432251
 30
0.0
 10
148.602700
 20
-120.450031
 30
0.0
 10
148.330920
 20
-120.505911
 30
0.0
 10
148.066760
 20
-120.594811
 30
0.0
 10
147.817840
 20
-120.711651
 30
0.0
 10
147.579080
 20
-120.853891
 30
0.0
  0
LWPOLYLINE
  5
24e
100
AcDbEntity
  8
0
 62
7
100
AcDbPolyline
 90
2
 70
0
 10
143.405860
 20
-79.482371
 30
0.0
 10
157.406340
 20
-79.482371
 30
0.0
  0
LWPOLYLINE
  5
24f
100
AcDbEntity
  8
0
 62
7
100
AcDbPolyline
 90
7
 70
0
 10
178.864260
 20
-80.627911
 30
0.0
 10
179.090320
 20
-80.653311
 30
0.0
 10
179.303680
 20
-80.726971
 30
0.0
 10
179.491640
 20
-80.843811
 30
0.0
 10
179.651660
 20
-81.001291
 30
0.0
 10
179.776120
 20
-81.191791
 30
0.0
 10
179.809140
 20
-81.260371
 30
0.0
  0
LWPOLYLINE
  5
250
100
AcDbEntity
  8
0
 62
7
100
AcDbPolyline
 90
1
 70
1
 10
120.952260
 20
-124.061911
 30
0.0
  0
LWPOLYLINE
  5
251
100
AcDbEntity
  8
0
 62
7
100
AcDbPolyline
 90
2
 70
0
 10
57.708800
 20
-44.801211
 30
0.0
 10
57.713880
 20
-44.867251
 30
0.0
  0
LWPOLYLINE
  5
252
100
AcDbEntity
  8
0
 62
7
100
AcDbPolyline
 90
2
 70
0
 10
57.703720
 20
-44.534511
 30
0.0
 10
57.708800
 20
-44.801211
 30
0.0
  0
LWPOLYLINE
  5
253
100
AcDbEntity
  8
0
 62
7
100
AcDbPolyline
 90
2
 70
0
 10
57.726580
 20
-44.270351
 30
0.0
 10
57.703720
 20
-44.534511
 30
0.0
  0
LWPOLYLINE
  5
254
100
AcDbEntity
  8
0
 62
7
100
AcDbPolyline
 90
2
 70
0
 10
57.774840
 20
-44.011271
 30
0.0
 10
57.726580
 20
-44.270351
 30
0.0
  0
LWPOLYLINE
  5
255
100
AcDbEntity
  8
0
 62
7
100
AcDbPolyline
 90
2
 70
0
 10
195.948300
 20
-62.197671
 30
0.0
 10
196.204840
 20
-62.164651
 30
0.0
  0
LWPOLYLINE
  5
256
100
AcDbEntity
  8
0
 62
7
100
AcDbPolyline
 90
2
 70
0
 10
195.686680
 20
-62.202751
 30
0.0
 10
195.948300
 20
-62.197671
 30
0.0
  0
LWPOLYLINE
  5
257
100
AcDbEntity
  8
0
 62
7
100
AcDbPolyline
 90
2
 70
0
 10
60.241180
 20
-42.075791
 30
0.0
 10
195.811140
 20
-41.946251
 30
0.0
  0
LWPOLYLINE
  5
258
100
AcDbEntity
  8
0
 62
7
100
AcDbPolyline
 90
2
 70
0
 10
198.290180
 20
-44.613251
 30
0.0
 10
198.353680
 20
-59.728791
 30
0.0
  0
LWPOLYLINE
  5
259
100
AcDbEntity
  8
0
 62
7
100
AcDbPolyline
 90
2
 70
0
 10
196.075300
 20
-41.974191
 30
0.0
 10
195.816220
 20
-41.948791
 30
0.0
  0
LWPOLYLINE
  5
25a
100
AcDbEntity
  8
0
 62
7
100
AcDbPolyline
 90
2
 70
0
 10
196.329300
 20
-42.024991
 30
0.0
 10
196.075300
 20
-41.974191
 30
0.0
  0
LWPOLYLINE
  5
25b
100
AcDbEntity
  8
0
 62
7
100
AcDbPolyline
 90
2
 70
0
 10
196.570600
 20
-42.098651
 30
0.0
 10
196.329300
 20
-42.024991
 30
0.0
  0
LWPOLYLINE
  5
25c
100
AcDbEntity
  8
0
 62
7
100
AcDbPolyline
 90
2
 70
0
 10
196.804280
 20
-42.195171
 30
0.0
 10
196.570600
 20
-42.098651
 30
0.0
  0
LWPOLYLINE
  5
25d
100
AcDbEntity
  8
0
 62
7
100
AcDbPolyline
 90
2
 70
0
 10
197.022720
 20
-42.314551
 30
0.0
 10
196.804280
 20
-42.195171
 30
0.0
  0
LWPOLYLINE
  5
25e
100
AcDbEntity
  8
0
 62
7
100
AcDbPolyline
 90
2
 70
0
 10
197.228460
 20
-42.449171
 30
0.0
 10
197.022720
 20
-42.314551
 30
0.0
  0
LWPOLYLINE
  5
25f
100
AcDbEntity
  8
0
 62
7
100
AcDbPolyline
 90
2
 70
0
 10
197.421500
 20
-42.606651
 30
0.0
 10
197.228460
 20
-42.449171
 30
0.0
  0
LWPOLYLINE
  5
260
100
AcDbEntity
  8
0
 62
7
100
AcDbPolyline
 90
2
 70
0
 10
197.596760
 20
-42.776831
 30
0.0
 10
197.421500
 20
-42.606651
 30
0.0
  0
LWPOLYLINE
  5
261
100
AcDbEntity
  8
0
 62
7
100
AcDbPolyline
 90
2
 70
0
 10
197.754240
 20
-42.964791
 30
0.0
 10
197.596760
 20
-42.776831
 30
0.0
  0
LWPOLYLINE
  5
262
100
AcDbEntity
  8
0
 62
7
100
AcDbPolyline
 90
2
 70
0
 10
197.896480
 20
-43.167991
 30
0.0
 10
197.754240
 20
-42.964791
 30
0.0
  0
LWPOLYLINE
  5
263
100
AcDbEntity
  8
0
 62
7
100
AcDbPolyline
 90
2
 70
0
 10
198.015860
 20
-43.383891
 30
0.0
 10
197.896480
 20
-43.167991
 30
0.0
  0
LWPOLYLINE
  5
264
100
AcDbEntity
  8
0
 62
7
100
AcDbPolyline
 90
2
 70
0
 10
198.117460
 20
-43.612491
 30
0.0
 10
198.015860
 20
-43.383891
 30
0.0
  0
LWPOLYLINE
  5
265
100
AcDbEntity
  8
0
 62
7
100
AcDbPolyline
 90
2
 70
0
 10
198.196200
 20
-43.848711
 30
0.0
 10
198.117460
 20
-43.612491
 30
0.0
  0
LWPOLYLINE
  5
266
100
AcDbEntity
  8
0
 62
7
100
AcDbPolyline
 90
2
 70
0
 10
198.252080
 20
-44.097631
 30
0.0
 10
198.196200
 20
-43.848711
 30
0.0
  0
LWPOLYLINE
  5
267
100
AcDbEntity
  8
0
 62
7
100
AcDbPolyline
 90
2
 70
0
 10
198.285100
 20
-44.351631
 30
0.0
 10
198.252080
 20
-44.097631
 30
0.0
  0
LWPOLYLINE
  5
268
100
AcDbEntity
  8
0
 62
7
100
AcDbPolyline
 90
2
 70
0
 10
198.290180
 20
-44.613251
 30
0.0
 10
198.285100
 20
-44.351631
 30
0.0
  0
LWPOLYLINE
  5
269
100
AcDbEntity
  8
0
 62
7
100
AcDbPolyline
 90
2
 70
0
 10
58.404760
 20
-42.863191
 30
0.0
 10
58.359040
 20
-42.911451
 30
0.0
  0
LWPOLYLINE
  5
26a
100
AcDbEntity
  8
0
 62
7
100
AcDbPolyline
 90
2
 70
0
 10
58.600340
 20
-42.677771
 30
0.0
 10
58.404760
 20
-42.863191
 30
0.0
  0
LWPOLYLINE
  5
26b
100
AcDbEntity
  8
0
 62
7
100
AcDbPolyline
 90
2
 70
0
 10
58.808620
 20
-42.517751
 30
0.0
 10
58.600340
 20
-42.677771
 30
0.0
  0
LWPOLYLINE
  5
26c
100
AcDbEntity
  8
0
 62
7
100
AcDbPolyline
 90
2
 70
0
 10
59.034680
 20
-42.380591
 30
0.0
 10
58.808620
 20
-42.517751
 30
0.0
  0
LWPOLYLINE
  5
26d
100
AcDbEntity
  8
0
 62
7
100
AcDbPolyline
 90
2
 70
0
 10
59.273440
 20
-42.268831
 30
0.0
 10
59.034680
 20
-42.380591
 30
0.0
  0
LWPOLYLINE
  5
26e
100
AcDbEntity
  8
0
 62
7
100
AcDbPolyline
 90
2
 70
0
 10
59.522360
 20
-42.179931
 30
0.0
 10
59.273440
 20
-42.268831
 30
0.0
  0
LWPOLYLINE
  5
26f
100
AcDbEntity
  8
0
 62
7
100
AcDbPolyline
 90
2
 70
0
 10
57.952640
 20
-43.515971
 30
0.0
 10
57.851040
 20
-43.759811
 30
0.0
  0
LWPOLYLINE
  5
270
100
AcDbEntity
  8
0
 62
7
100
AcDbPolyline
 90
2
 70
0
 10
58.079640
 20
-43.284831
 30
0.0
 10
57.952640
 20
-43.515971
 30
0.0
  0
LWPOLYLINE
  5
271
100
AcDbEntity
  8
0
 62
7
100
AcDbPolyline
 90
2
 70
0
 10
58.229500
 20
-43.066391
 30
0.0
 10
58.079640
 20
-43.284831
 30
0.0
  0
LWPOLYLINE
  5
272
100
AcDbEntity
  8
0
 62
7
100
AcDbPolyline
 90
2
 70
0
 10
58.359040
 20
-42.911451
 30
0.0
 10
58.229500
 20
-43.066391
 30
0.0
  0
LWPOLYLINE
  5
273
100
AcDbEntity
  8
0
 62
7
100
AcDbPolyline
 90
2
 70
0
 10
196.075300
 20
-41.974191
 30
0.0
 10
195.813680
 20
-41.948791
 30
0.0
  0
LWPOLYLINE
  5
274
100
AcDbEntity
  8
0
 62
7
100
AcDbPolyline
 90
2
 70
0
 10
196.329300
 20
-42.024991
 30
0.0
 10
196.075300
 20
-41.974191
 30
0.0
  0
LWPOLYLINE
  5
275
100
AcDbEntity
  8
0
 62
7
100
AcDbPolyline
 90
2
 70
0
 10
196.570600
 20
-42.098651
 30
0.0
 10
196.329300
 20
-42.024991
 30
0.0
  0
LWPOLYLINE
  5
276
100
AcDbEntity
  8
0
 62
7
100
AcDbPolyline
 90
2
 70
0
 10
196.801740
 20
-42.195171
 30
0.0
 10
196.570600
 20
-42.098651
 30
0.0
  0
LWPOLYLINE
  5
277
100
AcDbEntity
  8
0
 62
7
100
AcDbPolyline
 90
2
 70
0
 10
197.022720
 20
-42.312011
 30
0.0
 10
196.801740
 20
-42.195171
 30
0.0
  0
LWPOLYLINE
  5
278
100
AcDbEntity
  8
0
 62
7
100
AcDbPolyline
 90
2
 70
0
 10
197.228460
 20
-42.449171
 30
0.0
 10
197.022720
 20
-42.312011
 30
0.0
  0
LWPOLYLINE
  5
279
100
AcDbEntity
  8
0
 62
7
100
AcDbPolyline
 90
2
 70
0
 10
197.418960
 20
-42.604111
 30
0.0
 10
197.228460
 20
-42.449171
 30
0.0
  0
LWPOLYLINE
  5
27a
100
AcDbEntity
  8
0
 62
7
100
AcDbPolyline
 90
2
 70
0
 10
197.596760
 20
-42.776831
 30
0.0
 10
197.418960
 20
-42.604111
 30
0.0
  0
LWPOLYLINE
  5
27b
100
AcDbEntity
  8
0
 62
7
100
AcDbPolyline
 90
2
 70
0
 10
197.754240
 20
-42.964791
 30
0.0
 10
197.596760
 20
-42.776831
 30
0.0
  0
LWPOLYLINE
  5
27c
100
AcDbEntity
  8
0
 62
7
100
AcDbPolyline
 90
2
 70
0
 10
197.896480
 20
-43.167991
 30
0.0
 10
197.754240
 20
-42.964791
 30
0.0
  0
LWPOLYLINE
  5
27d
100
AcDbEntity
  8
0
 62
7
100
AcDbPolyline
 90
2
 70
0
 10
198.015860
 20
-43.383891
 30
0.0
 10
197.896480
 20
-43.167991
 30
0.0
  0
LWPOLYLINE
  5
27e
100
AcDbEntity
  8
0
 62
7
100
AcDbPolyline
 90
2
 70
0
 10
198.117460
 20
-43.612491
 30
0.0
 10
198.015860
 20
-43.383891
 30
0.0
  0
LWPOLYLINE
  5
27f
100
AcDbEntity
  8
0
 62
7
100
AcDbPolyline
 90
2
 70
0
 10
198.196200
 20
-43.848711
 30
0.0
 10
198.117460
 20
-43.612491
 30
0.0
  0
LWPOLYLINE
  5
280
100
AcDbEntity
  8
0
 62
7
100
AcDbPolyline
 90
2
 70
0
 10
198.252080
 20
-44.097631
 30
0.0
 10
198.196200
 20
-43.848711
 30
0.0
  0
LWPOLYLINE
  5
281
100
AcDbEntity
  8
0
 62
7
100
AcDbPolyline
 90
2
 70
0
 10
198.285100
 20
-44.351631
 30
0.0
 10
198.252080
 20
-44.097631
 30
0.0
  0
LWPOLYLINE
  5
282
100
AcDbEntity
  8
0
 62
7
100
AcDbPolyline
 90
2
 70
0
 10
198.290180
 20
-44.613251
 30
0.0
 10
198.285100
 20
-44.351631
 30
0.0
  0
LWPOLYLINE
  5
283
100
AcDbEntity
  8
0
 62
7
100
AcDbPolyline
 90
2
 70
0
 10
83.312000
 20
-60.467931
 30
0.0
 10
83.312000
 20
-122.316931
 30
0.0
  0
LWPOLYLINE
  5
284
100
AcDbEntity
  8
0
 62
7
100
AcDbPolyline
 90
2
 70
0
 10
102.758240
 20
-59.926911
 30
0.0
 10
83.820000
 20
-59.959931
 30
0.0
  0
LWPOLYLINE
  5
285
100
AcDbEntity
  8
0
 62
7
100
AcDbPolyline
 90
6
 70
0
 10
103.256080
 20
-57.927931
 30
0.0
 10
103.256080
 20
-59.426531
 30
0.0
 10
103.207820
 20
-59.644971
 30
0.0
 10
103.075740
 20
-59.812611
 30
0.0
 10
102.882700
 20
-59.911671
 30
0.0
 10
102.758240
 20
-59.926911
 30
0.0
  0
LWPOLYLINE
  5
286
100
AcDbEntity
  8
0
 62
7
100
AcDbPolyline
 90
6
 70
0
 10
121.757440
 20
-57.427551
 30
0.0
 10
103.756460
 20
-57.427551
 30
0.0
 10
103.540560
 20
-57.475811
 30
0.0
 10
103.370380
 20
-57.607891
 30
0.0
 10
103.273860
 20
-57.800931
 30
0.0
 10
103.256080
 20
-57.927931
 30
0.0
  0
LWPOLYLINE
  5
287
100
AcDbEntity
  8
0
 62
7
100
AcDbPolyline
 90
6
 70
0
 10
122.257820
 20
-55.677491
 30
0.0
 10
122.257820
 20
-56.927171
 30
0.0
 10
122.209560
 20
-57.143071
 30
0.0
 10
122.077480
 20
-57.313251
 30
0.0
 10
121.884440
 20
-57.409771
 30
0.0
 10
121.757440
 20
-57.427551
 30
0.0
  0
LWPOLYLINE
  5
288
100
AcDbEntity
  8
0
 62
7
100
AcDbPolyline
 90
6
 70
0
 10
139.760960
 20
-55.177111
 30
0.0
 10
122.758200
 20
-55.177111
 30
0.0
 10
122.542300
 20
-55.225371
 30
0.0
 10
122.372120
 20
-55.357451
 30
0.0
 10
122.275600
 20
-55.550491
 30
0.0
 10
122.257820
 20
-55.677491
 30
0.0
  0
LWPOLYLINE
  5
289
100
AcDbEntity
  8
0
 62
7
100
AcDbPolyline
 90
4
 70
0
 10
140.258800
 20
-56.927171
 30
0.0
 10
140.258800
 20
-55.677491
 30
0.0
 10
140.210540
 20
-55.459051
 30
0.0
 10
140.078460
 20
-55.291411
 30
0.0
  0
LWPOLYLINE
  5
28a
100
AcDbEntity
  8
0
 62
7
100
AcDbPolyline
 90
3
 70
0
 10
176.408080
 20
-79.230911
 30
0.0
 10
162.407600
 20
-79.230911
 30
0.0
 10
162.407600
 20
-65.230431
 30
0.0
  0
LWPOLYLINE
  5
28b
100
AcDbEntity
  8
0
 62
7
100
AcDbPolyline
 90
2
 70
0
 10
195.407280
 20
-65.230431
 30
0.0
 10
195.407280
 20
-79.230911
 30
0.0
  0
LWPOLYLINE
  5
28c
100
AcDbEntity
  8
0
 62
7
100
AcDbPolyline
 90
2
 70
0
 10
124.406660
 20
-58.105731
 30
0.0
 10
138.407140
 20
-58.105731
 30
0.0
  0
LWPOLYLINE
  5
28d
100
AcDbEntity
  8
0
 62
7
100
AcDbPolyline
 90
3
 70
0
 10
119.407940
 20
-112.482051
 30
0.0
 10
105.407460
 20
-112.482051
 30
0.0
 10
105.407460
 20
-98.481571
 30
0.0
  0
LWPOLYLINE
  5
28e
100
AcDbEntity
  8
0
 62
7
100
AcDbPolyline
 90
2
 70
0
 10
86.408260
 20
-100.856471
 30
0.0
 10
100.406200
 20
-100.856471
 30
0.0
  0
LWPOLYLINE
  5
28f
100
AcDbEntity
  8
0
 62
7
100
AcDbPolyline
 90
2
 70
0
 10
162.407600
 20
-65.230431
 30
0.0
 10
176.408080
 20
-65.230431
 30
0.0
  0
LWPOLYLINE
  5
290
100
AcDbEntity
  8
0
 62
7
100
AcDbPolyline
 90
2
 70
0
 10
140.276580
 20
-57.051631
 30
0.0
 10
140.258800
 20
-56.927171
 30
0.0
  0
LWPOLYLINE
  5
291
100
AcDbEntity
  8
0
 62
7
100
AcDbPolyline
 90
6
 70
0
 10
159.260540
 20
-61.676971
 30
0.0
 10
159.260540
 20
-57.927931
 30
0.0
 10
159.212280
 20
-57.709491
 30
0.0
 10
159.080200
 20
-57.541851
 30
0.0
 10
158.884620
 20
-57.442791
 30
0.0
 10
158.760160
 20
-57.427551
 30
0.0
  0
LWPOLYLINE
  5
292
100
AcDbEntity
  8
0
 62
7
100
AcDbPolyline
 90
2
 70
0
 10
195.686680
 20
-62.202751
 30
0.0
 10
159.760920
 20
-62.177351
 30
0.0
  0
LWPOLYLINE
  5
293
100
AcDbEntity
  8
0
 62
7
100
AcDbPolyline
 90
2
 70
0
 10
176.408080
 20
-65.230431
 30
0.0
 10
176.408080
 20
-79.230911
 30
0.0
  0
LWPOLYLINE
  5
294
100
AcDbEntity
  8
0
 62
7
100
AcDbPolyline
 90
2
 70
0
 10
157.406340
 20
-74.481111
 30
0.0
 10
143.405860
 20
-74.481111
 30
0.0
  0
LWPOLYLINE
  5
295
100
AcDbEntity
  8
0
 62
7
100
AcDbPolyline
 90
2
 70
0
 10
100.406200
 20
-62.855531
 30
0.0
 10
100.406200
 20
-76.856011
 30
0.0
  0
LWPOLYLINE
  5
296
100
AcDbEntity
  8
0
 62
7
100
AcDbPolyline
 90
2
 70
0
 10
143.405860
 20
-112.482051
 30
0.0
 10
143.405860
 20
-98.481571
 30
0.0
  0
LWPOLYLINE
  5
297
100
AcDbEntity
  8
0
 62
7
100
AcDbPolyline
 90
3
 70
0
 10
105.407460
 20
-98.481571
 30
0.0
 10
119.407940
 20
-98.481571
 30
0.0
 10
119.407940
 20
-112.482051
 30
0.0
  0
LWPOLYLINE
  5
298
100
AcDbEntity
  8
0
 62
7
100
AcDbPolyline
 90
2
 70
0
 10
86.408260
 20
-76.856011
 30
0.0
 10
86.408260
 20
-62.855531
 30
0.0
  0
LWPOLYLINE
  5
299
100
AcDbEntity
  8
0
 62
7
100
AcDbPolyline
 90
2
 70
0
 10
100.406200
 20
-76.856011
 30
0.0
 10
86.408260
 20
-76.856011
 30
0.0
  0
LWPOLYLINE
  5
29a
100
AcDbEntity
  8
0
 62
7
100
AcDbPolyline
 90
2
 70
0
 10
138.407140
 20
-58.105731
 30
0.0
 10
138.407140
 20
-72.106211
 30
0.0
  0
LWPOLYLINE
  5
29b
100
AcDbEntity
  8
0
 62
7
100
AcDbPolyline
 90
2
 70
0
 10
181.406800
 20
-79.230911
 30
0.0
 10
181.406800
 20
-65.230431
 30
0.0
  0
LWPOLYLINE
  5
29c
100
AcDbEntity
  8
0
 62
7
100
AcDbPolyline
 90
2
 70
0
 10
105.407460
 20
-74.481111
 30
0.0
 10
105.407460
 20
-60.480631
 30
0.0
  0
LWPOLYLINE
  5
29d
100
AcDbEntity
  8
0
 62
7
100
AcDbPolyline
 90
2
 70
0
 10
69.387720
 20
-156.553591
 30
0.0
 10
58.341260
 20
-142.509931
 30
0.0
  0
LWPOLYLINE
  5
29e
100
AcDbEntity
  8
0
 62
7
100
AcDbPolyline
 90
2
 70
0
 10
82.169000
 20
-124.348931
 30
0.0
 10
61.170820
 20
-141.206911
 30
0.0
  0
LWPOLYLINE
  5
29f
100
AcDbEntity
  8
0
 62
7
100
AcDbPolyline
 90
2
 70
0
 10
124.406660
 20
-117.005791
 30
0.0
 10
138.407140
 20
-117.005791
 30
0.0
  0
LWPOLYLINE
  5
2a0
100
AcDbEntity
  8
0
 62
7
100
AcDbPolyline
 90
2
 70
0
 10
105.407460
 20
-60.480631
 30
0.0
 10
119.407940
 20
-60.480631
 30
0.0
  0
LWPOLYLINE
  5
2a1
100
AcDbEntity
  8
0
 62
7
100
AcDbPolyline
 90
3
 70
0
 10
86.408260
 20
-81.857271
 30
0.0
 10
100.406200
 20
-81.857271
 30
0.0
 10
100.406200
 20
-95.855211
 30
0.0
  0
LWPOLYLINE
  5
2a2
100
AcDbEntity
  8
0
 62
7
100
AcDbPolyline
 90
2
 70
0
 10
143.405860
 20
-60.480631
 30
0.0
 10
157.406340
 20
-60.480631
 30
0.0
  0
LWPOLYLINE
  5
2a3
100
AcDbEntity
  8
0
 62
7
100
AcDbPolyline
 90
2
 70
0
 10
86.408260
 20
-62.855531
 30
0.0
 10
100.406200
 20
-62.855531
 30
0.0
  0
LWPOLYLINE
  5
2a4
100
AcDbEntity
  8
0
 62
7
100
AcDbPolyline
 90
2
 70
0
 10
157.406340
 20
-60.480631
 30
0.0
 10
157.406340
 20
-74.481111
 30
0.0
  0
LWPOLYLINE
  5
2a5
100
AcDbEntity
  8
0
 62
7
100
AcDbPolyline
 90
3
 70
0
 10
181.406800
 20
-103.231371
 30
0.0
 10
195.407280
 20
-103.231371
 30
0.0
 10
195.407280
 20
-117.231851
 30
0.0
  0
LWPOLYLINE
  5
2a6
100
AcDbEntity
  8
0
 62
7
100
AcDbPolyline
 90
2
 70
0
 10
181.406800
 20
-65.230431
 30
0.0
 10
195.407280
 20
-65.230431
 30
0.0
  0
LWPOLYLINE
  5
2a7
100
AcDbEntity
  8
0
 62
7
100
AcDbPolyline
 90
2
 70
0
 10
105.407460
 20
-93.480311
 30
0.0
 10
105.407460
 20
-79.482371
 30
0.0
  0
LWPOLYLINE
  5
2a8
100
AcDbEntity
  8
0
 62
7
100
AcDbPolyline
 90
2
 70
0
 10
124.406660
 20
-77.104931
 30
0.0
 10
138.407140
 20
-77.104931
 30
0.0
  0
LWPOLYLINE
  5
2a9
100
AcDbEntity
  8
0
 62
7
100
AcDbPolyline
 90
3
 70
0
 10
119.407940
 20
-79.482371
 30
0.0
 10
119.407940
 20
-93.480311
 30
0.0
 10
105.407460
 20
-93.480311
 30
0.0
  0
LWPOLYLINE
  5
2aa
100
AcDbEntity
  8
0
 62
7
100
AcDbPolyline
 90
3
 70
0
 10
138.407140
 20
-77.104931
 30
0.0
 10
138.407140
 20
-91.105411
 30
0.0
 10
124.406660
 20
-91.105411
 30
0.0
  0
LWPOLYLINE
  5
2ab
100
AcDbEntity
  8
0
 62
7
100
AcDbPolyline
 90
2
 70
0
 10
143.405860
 20
-74.481111
 30
0.0
 10
143.405860
 20
-60.480631
 30
0.0
  0
LWPOLYLINE
  5
2ac
100
AcDbEntity
  8
0
 62
7
100
AcDbPolyline
 90
3
 70
0
 10
100.406200
 20
-95.855211
 30
0.0
 10
86.408260
 20
-95.855211
 30
0.0
 10
86.408260
 20
-81.857271
 30
0.0
  0
LWPOLYLINE
  5
2ad
100
AcDbEntity
  8
0
 62
7
100
AcDbPolyline
 90
3
 70
0
 10
157.406340
 20
-93.480311
 30
0.0
 10
143.405860
 20
-93.480311
 30
0.0
 10
143.405860
 20
-79.482371
 30
0.0
  0
LWPOLYLINE
  5
2ae
100
AcDbEntity
  8
0
 62
7
100
AcDbPolyline
 90
2
 70
0
 10
124.406660
 20
-91.105411
 30
0.0
 10
124.406660
 20
-77.104931
 30
0.0
  0
LWPOLYLINE
  5
2af
100
AcDbEntity
  8
0
 62
7
100
AcDbPolyline
 90
2
 70
0
 10
195.407280
 20
-79.230911
 30
0.0
 10
181.406800
 20
-79.230911
 30
0.0
  0
LWPOLYLINE
  5
2b0
100
AcDbEntity
  8
0
 62
7
100
AcDbPolyline
 90
3
 70
0
 10
195.407280
 20
-117.231851
 30
0.0
 10
181.406800
 20
-117.231851
 30
0.0
 10
181.406800
 20
-103.231371
 30
0.0
  0
LWPOLYLINE
  5
2b1
100
AcDbEntity
  8
0
 62
7
100
AcDbPolyline
 90
2
 70
0
 10
162.407600
 20
-103.231371
 30
0.0
 10
176.408080
 20
-103.231371
 30
0.0
  0
LWPOLYLINE
  5
2b2
100
AcDbEntity
  8
0
 62
7
100
AcDbPolyline
 90
2
 70
0
 10
119.407940
 20
-74.481111
 30
0.0
 10
105.407460
 20
-74.481111
 30
0.0
  0
LWPOLYLINE
  5
2b3
100
AcDbEntity
  8
0
 62
7
100
AcDbPolyline
 90
4
 70
0
 10
143.405860
 20
-98.481571
 30
0.0
 10
157.406340
 20
-98.481571
 30
0.0
 10
157.406340
 20
-112.482051
 30
0.0
 10
143.405860
 20
-112.482051
 30
0.0
  0
LWPOLYLINE
  5
2b4
100
AcDbEntity
  8
0
 62
7
100
AcDbPolyline
 90
4
 70
1
 10
181.406800
 20
-84.232171
 30
0.0
 10
195.407280
 20
-84.232171
 30
0.0
 10
195.407280
 20
-98.230111
 30
0.0
 10
181.406800
 20
-98.230111
 30
0.0
  0
LWPOLYLINE
  5
2b5
100
AcDbEntity
  8
0
 62
7
100
AcDbPolyline
 90
4
 70
1
 10
162.407600
 20
-84.232171
 30
0.0
 10
176.408080
 20
-84.232171
 30
0.0
 10
176.408080
 20
-98.230111
 30
0.0
 10
162.407600
 20
-98.230111
 30
0.0
  0
LWPOLYLINE
  5
2b6
100
AcDbEntity
  8
0
 62
7
100
AcDbPolyline
 90
4
 70
0
 10
124.406660
 20
-96.106671
 30
0.0
 10
138.407140
 20
-96.106671
 30
0.0
 10
138.407140
 20
-110.107151
 30
0.0
 10
124.406660
 20
-110.107151
 30
0.0
  0
LWPOLYLINE
  5
2b7
100
AcDbEntity
  8
0
 62
7
100
AcDbPolyline
 90
7
 70
0
 10
62.494160
 20
-46.944971
 30
0.0
 10
62.313820
 20
-47.087211
 30
0.0
 10
62.113160
 20
-47.183731
 30
0.0
 10
61.894720
 20
-47.237071
 30
0.0
 10
61.671200
 20
-47.239611
 30
0.0
 10
61.450220
 20
-47.191351
 30
0.0
 10
61.376560
 20
-47.165951
 30
0.0
  0
LWPOLYLINE
  5
2b8
100
AcDbEntity
  8
0
 62
7
100
AcDbPolyline
 90
7
 70
0
 10
62.715140
 20
-45.827371
 30
0.0
 10
62.778640
 20
-46.048351
 30
0.0
 10
62.791340
 20
-46.271871
 30
0.0
 10
62.755780
 20
-46.492851
 30
0.0
 10
62.674500
 20
-46.698591
 30
0.0
 10
62.544960
 20
-46.886551
 30
0.0
 10
62.494160
 20
-46.944971
 30
0.0
  0
LWPOLYLINE
  5
2b9
100
AcDbEntity
  8
0
 62
7
100
AcDbPolyline
 90
7
 70
0
 10
61.770260
 20
-45.194911
 30
0.0
 10
61.996320
 20
-45.220311
 30
0.0
 10
62.209680
 20
-45.293971
 30
0.0
 10
62.397640
 20
-45.410811
 30
0.0
 10
62.557660
 20
-45.568291
 30
0.0
 10
62.682120
 20
-45.758791
 30
0.0
 10
62.715140
 20
-45.827371
 30
0.0
  0
LWPOLYLINE
  5
2ba
100
AcDbEntity
  8
0
 62
7
100
AcDbPolyline
 90
4
 70
0
 10
93.817440
 20
-124.066991
 30
0.0
 10
99.954080
 20
-136.650151
 30
0.0
 10
87.370920
 20
-142.789331
 30
0.0
 10
81.234280
 20
-130.206171
 30
0.0
  0
LWPOLYLINE
  5
2bb
100
AcDbEntity
  8
0
 62
7
100
AcDbPolyline
 90
3
 70
0
 10
62.971680
 20
-143.718971
 30
0.0
 10
73.853040
 20
-134.907711
 30
0.0
 10
82.661760
 20
-145.789071
 30
0.0
  0
LWPOLYLINE
  5
2bc
100
AcDbEntity
  8
0
 62
7
100
AcDbPolyline
 90
4
 70
0
 10
100.406200
 20
-100.856471
 30
0.0
 10
100.406200
 20
-114.856951
 30
0.0
 10
86.408260
 20
-114.856951
 30
0.0
 10
86.408260
 20
-100.856471
 30
0.0
  0
LWPOLYLINE
  5
2bd
100
AcDbEntity
  8
0
 62
7
100
AcDbPolyline
 90
4
 70
0
 10
176.408080
 20
-103.231371
 30
0.0
 10
176.408080
 20
-117.231851
 30
0.0
 10
162.407600
 20
-117.231851
 30
0.0
 10
162.407600
 20
-103.231371
 30
0.0
  0
LWPOLYLINE
  5
2be
100
AcDbEntity
  8
0
 62
7
100
AcDbPolyline
 90
3
 70
0
 10
118.859300
 20
-131.638731
 30
0.0
 10
105.216960
 20
-134.788331
 30
0.0
 10
102.069900
 20
-121.145991
 30
0.0
  0
LWPOLYLINE
  5
2bf
100
AcDbEntity
  8
0
 62
7
100
AcDbPolyline
 90
2
 70
0
 10
81.234280
 20
-130.206171
 30
0.0
 10
93.817440
 20
-124.066991
 30
0.0
  0
LWPOLYLINE
  5
2c0
100
AcDbEntity
  8
0
 62
7
100
AcDbPolyline
 90
2
 70
0
 10
195.750180
 20
-120.432251
 30
0.0
 10
148.887180
 20
-120.432251
 30
0.0
  0
LWPOLYLINE
  5
2c1
100
AcDbEntity
  8
0
 62
7
100
AcDbPolyline
 90
2
 70
0
 10
58.453020
 20
-42.814931
 30
0.0
 10
58.359040
 20
-42.911451
 30
0.0
  0
LWPOLYLINE
  5
2c2
100
AcDbEntity
  8
0
 62
7
100
AcDbPolyline
 90
2
 70
0
 10
58.600340
 20
-42.680311
 30
0.0
 10
58.453020
 20
-42.814931
 30
0.0
  0
LWPOLYLINE
  5
2c3
100
AcDbEntity
  8
0
 62
7
100
AcDbPolyline
 90
2
 70
0
 10
58.808620
 20
-42.517751
 30
0.0
 10
58.600340
 20
-42.680311
 30
0.0
  0
LWPOLYLINE
  5
2c4
100
AcDbEntity
  8
0
 62
7
100
AcDbPolyline
 90
2
 70
0
 10
59.034680
 20
-42.380591
 30
0.0
 10
58.808620
 20
-42.517751
 30
0.0
  0
LWPOLYLINE
  5
2c5
100
AcDbEntity
  8
0
 62
7
100
AcDbPolyline
 90
2
 70
0
 10
59.273440
 20
-42.268831
 30
0.0
 10
59.034680
 20
-42.380591
 30
0.0
  0
LWPOLYLINE
  5
2c6
100
AcDbEntity
  8
0
 62
7
100
AcDbPolyline
 90
2
 70
0
 10
59.522360
 20
-42.179931
 30
0.0
 10
59.273440
 20
-42.268831
 30
0.0
  0
LWPOLYLINE
  5
2c7
100
AcDbEntity
  8
0
 62
7
100
AcDbPolyline
 90
2
 70
0
 10
59.778900
 20
-42.118971
 30
0.0
 10
59.522360
 20
-42.179931
 30
0.0
  0
LWPOLYLINE
  5
2c8
100
AcDbEntity
  8
0
 62
7
100
AcDbPolyline
 90
2
 70
0
 10
60.040520
 20
-42.083411
 30
0.0
 10
59.778900
 20
-42.118971
 30
0.0
  0
LWPOLYLINE
  5
2c9
100
AcDbEntity
  8
0
 62
7
100
AcDbPolyline
 90
2
 70
0
 10
60.241180
 20
-42.075791
 30
0.0
 10
60.040520
 20
-42.083411
 30
0.0
  0
LWPOLYLINE
  5
2ca
100
AcDbEntity
  8
0
 62
7
100
AcDbPolyline
 90
2
 70
0
 10
57.706260
 20
-44.735171
 30
0.0
 10
57.713880
 20
-44.867251
 30
0.0
  0
LWPOLYLINE
  5
2cb
100
AcDbEntity
  8
0
 62
7
100
AcDbPolyline
 90
2
 70
0
 10
57.703720
 20
-44.534511
 30
0.0
 10
57.706260
 20
-44.735171
 30
0.0
  0
LWPOLYLINE
  5
2cc
100
AcDbEntity
  8
0
 62
7
100
AcDbPolyline
 90
2
 70
0
 10
57.726580
 20
-44.270351
 30
0.0
 10
57.703720
 20
-44.534511
 30
0.0
  0
LWPOLYLINE
  5
2cd
100
AcDbEntity
  8
0
 62
7
100
AcDbPolyline
 90
2
 70
0
 10
57.774840
 20
-44.011271
 30
0.0
 10
57.726580
 20
-44.270351
 30
0.0
  0
LWPOLYLINE
  5
2ce
100
AcDbEntity
  8
0
 62
7
100
AcDbPolyline
 90
2
 70
0
 10
57.851040
 20
-43.759811
 30
0.0
 10
57.774840
 20
-44.011271
 30
0.0
  0
LWPOLYLINE
  5
2cf
100
AcDbEntity
  8
0
 62
7
100
AcDbPolyline
 90
7
 70
0
 10
120.952260
 20
-124.061911
 30
0.0
 10
121.178320
 20
-124.087311
 30
0.0
 10
121.391680
 20
-124.160971
 30
0.0
 10
121.579640
 20
-124.277811
 30
0.0
 10
121.739660
 20
-124.435291
 30
0.0
 10
121.864120
 20
-124.625791
 30
0.0
 10
121.897140
 20
-124.694371
 30
0.0
  0
LWPOLYLINE
  5
2d0
100
AcDbEntity
  8
0
 62
7
100
AcDbPolyline
 90
1
 70
1
 10
61.643260
 20
-134.602911
 30
0.0
  0
LWPOLYLINE
  5
2d1
100
AcDbEntity
  8
0
 62
7
100
AcDbPolyline
 90
7
 70
0
 10
121.676160
 20
-125.811971
 30
0.0
 10
121.495820
 20
-125.954211
 30
0.0
 10
121.295160
 20
-126.050731
 30
0.0
 10
121.076720
 20
-126.104071
 30
0.0
 10
120.853200
 20
-126.106611
 30
0.0
 10
120.632220
 20
-126.058351
 30
0.0
 10
120.558560
 20
-126.032951
 30
0.0
  0
LWPOLYLINE
  5
2d2
100
AcDbEntity
  8
0
 62
7
100
AcDbPolyline
 90
7
 70
0
 10
121.897140
 20
-124.694371
 30
0.0
 10
121.960640
 20
-124.915351
 30
0.0
 10
121.973340
 20
-125.138871
 30
0.0
 10
121.937780
 20
-125.359851
 30
0.0
 10
121.856500
 20
-125.565591
 30
0.0
 10
121.726960
 20
-125.753551
 30
0.0
 10
121.676160
 20
-125.811971
 30
0.0
  0
LWPOLYLINE
  5
2d3
100
AcDbEntity
  8
0
 62
7
100
AcDbPolyline
 90
5
 70
0
 10
119.926100
 20
-125.088071
 30
0.0
 10
119.946420
 20
-124.884871
 30
0.0
 10
120.015000
 20
-124.671511
 30
0.0
 10
120.126760
 20
-124.478471
 30
0.0
 10
120.225820
 20
-124.361631
 30
0.0
  0
LWPOLYLINE
  5
2d4
100
AcDbEntity
  8
0
 62
7
100
AcDbPolyline
 90
7
 70
0
 10
120.558560
 20
-126.032951
 30
0.0
 10
120.357900
 20
-125.921191
 30
0.0
 10
120.190260
 20
-125.773871
 30
0.0
 10
120.060720
 20
-125.593531
 30
0.0
 10
119.971820
 20
-125.387791
 30
0.0
 10
119.931180
 20
-125.164271
 30
0.0
 10
119.926100
 20
-125.088071
 30
0.0
  0
LWPOLYLINE
  5
2d5
100
AcDbEntity
  8
0
 62
7
100
AcDbPolyline
 90
1
 70
1
 10
81.836260
 20
-138.285911
 30
0.0
  0
LWPOLYLINE
  5
2d6
100
AcDbEntity
  8
0
 62
7
100
AcDbPolyline
 90
5
 70
0
 10
120.225820
 20
-124.361631
 30
0.0
 10
120.383300
 20
-124.234631
 30
0.0
 10
120.581420
 20
-124.130491
 30
0.0
 10
120.799860
 20
-124.074611
 30
0.0
 10
120.952260
 20
-124.061911
 30
0.0
  0
LWPOLYLINE
  5
2d7
100
AcDbEntity
  8
0
 62
7
100
AcDbPolyline
 90
7
 70
0
 10
179.936140
 20
-100.310371
 30
0.0
 10
179.999640
 20
-100.531351
 30
0.0
 10
180.012340
 20
-100.754871
 30
0.0
 10
179.976780
 20
-100.975851
 30
0.0
 10
179.895500
 20
-101.181591
 30
0.0
 10
179.765960
 20
-101.369551
 30
0.0
 10
179.715160
 20
-101.427971
 30
0.0
  0
LWPOLYLINE
  5
2d8
100
AcDbEntity
  8
0
 62
7
100
AcDbPolyline
 90
7
 70
0
 10
178.991260
 20
-99.677911
 30
0.0
 10
179.217320
 20
-99.703311
 30
0.0
 10
179.430680
 20
-99.776971
 30
0.0
 10
179.618640
 20
-99.893811
 30
0.0
 10
179.778660
 20
-100.051291
 30
0.0
 10
179.903120
 20
-100.241791
 30
0.0
 10
179.936140
 20
-100.310371
 30
0.0
  0
LWPOLYLINE
  5
2d9
100
AcDbEntity
  8
0
 62
7
100
AcDbPolyline
 90
7
 70
0
 10
178.597560
 20
-101.648951
 30
0.0
 10
178.396900
 20
-101.537191
 30
0.0
 10
178.229260
 20
-101.389871
 30
0.0
 10
178.099720
 20
-101.209531
 30
0.0
 10
178.010820
 20
-101.003791
 30
0.0
 10
177.970180
 20
-100.780271
 30
0.0
 10
177.965100
 20
-100.704071
 30
0.0
  0
LWPOLYLINE
  5
2da
100
AcDbEntity
  8
0
 62
7
100
AcDbPolyline
 90
7
 70
0
 10
179.715160
 20
-101.427971
 30
0.0
 10
179.534820
 20
-101.570211
 30
0.0
 10
179.334160
 20
-101.666731
 30
0.0
 10
179.115720
 20
-101.720071
 30
0.0
 10
178.892200
 20
-101.722611
 30
0.0
 10
178.671220
 20
-101.674351
 30
0.0
 10
178.597560
 20
-101.648951
 30
0.0
  0
LWPOLYLINE
  5
2db
100
AcDbEntity
  8
0
 62
7
100
AcDbPolyline
 90
7
 70
0
 10
102.524560
 20
-78.661951
 30
0.0
 10
102.323900
 20
-78.550191
 30
0.0
 10
102.156260
 20
-78.402871
 30
0.0
 10
102.026720
 20
-78.222531
 30
0.0
 10
101.937820
 20
-78.016791
 30
0.0
 10
101.897180
 20
-77.793271
 30
0.0
 10
101.892100
 20
-77.714531
 30
0.0
  0
LWPOLYLINE
  5
2dc
100
AcDbEntity
  8
0
 62
7
100
AcDbPolyline
 90
7
 70
0
 10
103.642160
 20
-78.440971
 30
0.0
 10
103.461820
 20
-78.583211
 30
0.0
 10
103.261160
 20
-78.679731
 30
0.0
 10
103.042720
 20
-78.733071
 30
0.0
 10
102.819200
 20
-78.735611
 30
0.0
 10
102.598220
 20
-78.687351
 30
0.0
 10
102.524560
 20
-78.661951
 30
0.0
  0
LWPOLYLINE
  5
2dd
100
AcDbEntity
  8
0
 62
7
100
AcDbPolyline
 90
5
 70
0
 10
178.264820
 20
-99.977631
 30
0.0
 10
178.422300
 20
-99.850631
 30
0.0
 10
178.620420
 20
-99.746491
 30
0.0
 10
178.838860
 20
-99.690611
 30
0.0
 10
178.991260
 20
-99.677911
 30
0.0
  0
LWPOLYLINE
  5
2de
100
AcDbEntity
  8
0
 62
7
100
AcDbPolyline
 90
5
 70
0
 10
177.965100
 20
-100.704071
 30
0.0
 10
177.985420
 20
-100.500871
 30
0.0
 10
178.054000
 20
-100.287511
 30
0.0
 10
178.165760
 20
-100.094471
 30
0.0
 10
178.264820
 20
-99.977631
 30
0.0
  0
LWPOLYLINE
  5
2df
100
AcDbEntity
  8
0
 62
7
100
AcDbPolyline
 90
2
 70
0
 10
124.406660
 20
-110.107151
 30
0.0
 10
124.406660
 20
-96.106671
 30
0.0
  0
LWPOLYLINE
  5
2e0
100
AcDbEntity
  8
0
 62
7
100
AcDbPolyline
 90
2
 70
0
 10
124.406660
 20
-72.106211
 30
0.0
 10
124.406660
 20
-58.105731
 30
0.0
  0
LWPOLYLINE
  5
2e1
100
AcDbEntity
  8
0
 62
7
100
AcDbPolyline
 90
3
 70
0
 10
82.661760
 20
-145.789071
 30
0.0
 10
71.782940
 20
-154.597791
 30
0.0
 10
62.971680
 20
-143.718971
 30
0.0
  0
LWPOLYLINE
  5
2e2
100
AcDbEntity
  8
0
 62
7
100
AcDbPolyline
 90
2
 70
0
 10
138.407140
 20
-72.106211
 30
0.0
 10
124.406660
 20
-72.106211
 30
0.0
  0
LWPOLYLINE
  5
2e3
100
AcDbEntity
  8
0
 62
7
100
AcDbPolyline
 90
5
 70
0
 10
177.838100
 20
-81.654071
 30
0.0
 10
177.858420
 20
-81.450871
 30
0.0
 10
177.927000
 20
-81.237511
 30
0.0
 10
178.038760
 20
-81.044471
 30
0.0
 10
178.137820
 20
-80.927631
 30
0.0
  0
LWPOLYLINE
  5
2e4
100
AcDbEntity
  8
0
 62
7
100
AcDbPolyline
 90
7
 70
0
 10
178.470560
 20
-82.598951
 30
0.0
 10
178.269900
 20
-82.487191
 30
0.0
 10
178.102260
 20
-82.339871
 30
0.0
 10
177.972720
 20
-82.159531
 30
0.0
 10
177.883820
 20
-81.953791
 30
0.0
 10
177.843180
 20
-81.730271
 30
0.0
 10
177.838100
 20
-81.654071
 30
0.0
  0
LWPOLYLINE
  5
2e5
100
AcDbEntity
  8
0
 62
7
100
AcDbPolyline
 90
7
 70
0
 10
179.588160
 20
-82.377971
 30
0.0
 10
179.407820
 20
-82.520211
 30
0.0
 10
179.207160
 20
-82.616731
 30
0.0
 10
178.988720
 20
-82.670071
 30
0.0
 10
178.765200
 20
-82.672611
 30
0.0
 10
178.544220
 20
-82.624351
 30
0.0
 10
178.470560
 20
-82.598951
 30
0.0
  0
LWPOLYLINE
  5
2e6
100
AcDbEntity
  8
0
 62
7
100
AcDbPolyline
 90
7
 70
0
 10
179.809140
 20
-81.260371
 30
0.0
 10
179.872640
 20
-81.481351
 30
0.0
 10
179.885340
 20
-81.704871
 30
0.0
 10
179.849780
 20
-81.925851
 30
0.0
 10
179.768500
 20
-82.131591
 30
0.0
 10
179.638960
 20
-82.319551
 30
0.0
 10
179.588160
 20
-82.377971
 30
0.0
  0
LWPOLYLINE
  5
2e7
100
AcDbEntity
  8
0
 62
7
100
AcDbPolyline
 90
12
 70
0
 10
58.341260
 20
-142.509931
 30
0.0
 10
58.206640
 20
-142.329591
 30
0.0
 10
58.087260
 20
-142.141631
 30
0.0
 10
57.980580
 20
-141.948591
 30
0.0
 10
57.889140
 20
-141.747931
 30
0.0
 10
57.810400
 20
-141.542191
 30
0.0
 10
57.746900
 20
-141.331371
 30
0.0
 10
57.696100
 20
-141.118011
 30
0.0
 10
57.663080
 20
-140.899571
 30
0.0
 10
57.642760
 20
-140.678591
 30
0.0
 10
57.637680
 20
-140.457611
 30
0.0
 10
57.642760
 20
-140.307751
 30
0.0
  0
LWPOLYLINE
  5
2e8
100
AcDbEntity
  8
0
 62
7
100
AcDbPolyline
 90
33
 70
0
 10
73.835260
 20
-156.965071
 30
0.0
 10
75.521820
 20
-155.433451
 30
0.0
 10
77.231240
 20
-153.952631
 30
0.0
 10
78.966060
 20
-152.525151
 30
0.0
 10
80.726280
 20
-151.151011
 30
0.0
 10
82.506820
 20
-149.827671
 30
0.0
 10
84.312760
 20
-148.557671
 30
0.0
 10
86.141560
 20
-147.338471
 30
0.0
 10
87.990680
 20
-146.175151
 30
0.0
 10
89.862660
 20
-145.062631
 30
0.0
 10
91.754960
 20
-144.000911
 30
0.0
 10
93.670120
 20
-142.995071
 30
0.0
 10
95.603060
 20
-142.040031
 30
0.0
 10
97.558860
 20
-141.140871
 30
0.0
 10
99.534980
 20
-140.292511
 30
0.0
 10
101.528880
 20
-139.500031
 30
0.0
 10
103.543100
 20
-138.758351
 30
0.0
 10
105.575100
 20
-138.070011
 30
0.0
 10
107.624880
 20
-137.437551
 30
0.0
 10
109.694980
 20
-136.858431
 30
0.0
 10
111.780320
 20
-136.330111
 30
0.0
 10
113.885980
 20
-135.857671
 30
0.0
 10
116.004340
 20
-135.441111
 30
0.0
 10
118.143020
 20
-135.075351
 30
0.0
 10
120.296940
 20
-134.765471
 30
0.0
 10
122.466100
 20
-134.508931
 30
0.0
 10
124.647960
 20
-134.308271
 30
0.0
 10
126.847600
 20
-134.160951
 30
0.0
 10
129.062480
 20
-134.066971
 30
0.0
 10
131.290060
 20
-134.028871
 30
0.0
 10
133.532880
 20
-134.046651
 30
0.0
 10
135.788400
 20
-134.117771
 30
0.0
 10
138.056620
 20
-134.244771
 30
0.0
  0
LWPOLYLINE
  5
2e9
100
AcDbEntity
  8
0
 62
7
100
AcDbPolyline
 90
7
 70
0
 10
194.955160
 20
-46.690971
 30
0.0
 10
194.774820
 20
-46.833211
 30
0.0
 10
194.574160
 20
-46.929731
 30
0.0
 10
194.355720
 20
-46.983071
 30
0.0
 10
194.132200
 20
-46.985611
 30
0.0
 10
193.911220
 20
-46.937351
 30
0.0
 10
193.837560
 20
-46.911951
 30
0.0
  0
LWPOLYLINE
  5
2ea
100
AcDbEntity
  8
0
 62
7
100
AcDbPolyline
 90
7
 70
0
 10
195.176140
 20
-45.573371
 30
0.0
 10
195.239640
 20
-45.794351
 30
0.0
 10
195.252340
 20
-46.017871
 30
0.0
 10
195.216780
 20
-46.238851
 30
0.0
 10
195.135500
 20
-46.444591
 30
0.0
 10
195.005960
 20
-46.632551
 30
0.0
 10
194.955160
 20
-46.690971
 30
0.0
  0
LWPOLYLINE
  5
2eb
100
AcDbEntity
  8
0
 62
7
100
AcDbPolyline
 90
7
 70
0
 10
194.231260
 20
-44.940911
 30
0.0
 10
194.457320
 20
-44.966311
 30
0.0
 10
194.670680
 20
-45.039971
 30
0.0
 10
194.858640
 20
-45.156811
 30
0.0
 10
195.018660
 20
-45.314291
 30
0.0
 10
195.143120
 20
-45.504791
 30
0.0
 10
195.176140
 20
-45.573371
 30
0.0
  0
LWPOLYLINE
  5
2ec
100
AcDbEntity
  8
0
 62
7
100
AcDbPolyline
 90
1
 70
1
 10
178.864260
 20
-80.627911
 30
0.0
  0
LWPOLYLINE
  5
2ed
100
AcDbEntity
  8
0
 62
7
100
AcDbPolyline
 90
5
 70
0
 10
193.631820
 20
-57.432631
 30
0.0
 10
193.789300
 20
-57.305631
 30
0.0
 10
193.987420
 20
-57.201491
 30
0.0
 10
194.205860
 20
-57.145611
 30
0.0
 10
194.358260
 20
-57.132911
 30
0.0
  0
LWPOLYLINE
  5
2ee
100
AcDbEntity
  8
0
 62
7
100
AcDbPolyline
 90
2
 70
0
 10
59.778900
 20
-42.118971
 30
0.0
 10
59.522360
 20
-42.179931
 30
0.0
  0
LWPOLYLINE
  5
2ef
100
AcDbEntity
  8
0
 62
7
100
AcDbPolyline
 90
2
 70
0
 10
60.040520
 20
-42.083411
 30
0.0
 10
59.778900
 20
-42.118971
 30
0.0
  0
LWPOLYLINE
  5
2f0
100
AcDbEntity
  8
0
 62
7
100
AcDbPolyline
 90
2
 70
0
 10
60.241180
 20
-42.075791
 30
0.0
 10
60.040520
 20
-42.083411
 30
0.0
  0
LWPOLYLINE
  5
2f1
100
AcDbEntity
  8
0
 62
7
100
AcDbPolyline
 90
2
 70
0
 10
57.851040
 20
-43.759811
 30
0.0
 10
57.774840
 20
-44.011271
 30
0.0
  0
LWPOLYLINE
  5
2f2
100
AcDbEntity
  8
0
 62
7
100
AcDbPolyline
 90
2
 70
0
 10
57.952640
 20
-43.515971
 30
0.0
 10
57.851040
 20
-43.759811
 30
0.0
  0
LWPOLYLINE
  5
2f3
100
AcDbEntity
  8
0
 62
7
100
AcDbPolyline
 90
2
 70
0
 10
58.079640
 20
-43.284831
 30
0.0
 10
57.952640
 20
-43.515971
 30
0.0
  0
LWPOLYLINE
  5
2f4
100
AcDbEntity
  8
0
 62
7
100
AcDbPolyline
 90
2
 70
0
 10
58.229500
 20
-43.066391
 30
0.0
 10
58.079640
 20
-43.284831
 30
0.0
  0
LWPOLYLINE
  5
2f5
100
AcDbEntity
  8
0
 62
7
100
AcDbPolyline
 90
2
 70
0
 10
58.359040
 20
-42.911451
 30
0.0
 10
58.229500
 20
-43.066391
 30
0.0
  0
LWPOLYLINE
  5
2f6
100
AcDbEntity
  8
0
 62
7
100
AcDbPolyline
 90
2
 70
0
 10
141.224000
 20
-132.349931
 30
0.0
 10
146.601180
 20
-121.956251
 30
0.0
  0
LWPOLYLINE
  5
2f7
100
AcDbEntity
  8
0
 62
7
100
AcDbPolyline
 90
2
 70
0
 10
198.328280
 20
-118.270711
 30
0.0
 10
198.353680
 20
-118.014171
 30
0.0
  0
LWPOLYLINE
  5
2f8
100
AcDbEntity
  8
0
 62
7
100
AcDbPolyline
 90
2
 70
0
 10
198.280020
 20
-118.517091
 30
0.0
 10
198.328280
 20
-118.270711
 30
0.0
  0
LWPOLYLINE
  5
2f9
100
AcDbEntity
  8
0
 62
7
100
AcDbPolyline
 90
2
 70
0
 10
198.206360
 20
-118.753311
 30
0.0
 10
198.280020
 20
-118.517091
 30
0.0
  0
LWPOLYLINE
  5
2fa
100
AcDbEntity
  8
0
 62
7
100
AcDbPolyline
 90
2
 70
0
 10
198.112380
 20
-118.979371
 30
0.0
 10
198.206360
 20
-118.753311
 30
0.0
  0
LWPOLYLINE
  5
2fb
100
AcDbEntity
  8
0
 62
7
100
AcDbPolyline
 90
2
 70
0
 10
197.998080
 20
-119.195271
 30
0.0
 10
198.112380
 20
-118.979371
 30
0.0
  0
LWPOLYLINE
  5
2fc
100
AcDbEntity
  8
0
 62
7
100
AcDbPolyline
 90
2
 70
0
 10
197.866000
 20
-119.395931
 30
0.0
 10
197.998080
 20
-119.195271
 30
0.0
  0
LWPOLYLINE
  5
2fd
100
AcDbEntity
  8
0
 62
7
100
AcDbPolyline
 90
33
 70
0
 10
73.825100
 20
-156.929511
 30
0.0
 10
75.537060
 20
-155.400431
 30
0.0
 10
77.271880
 20
-153.922151
 30
0.0
 10
79.029560
 20
-152.497211
 30
0.0
 10
80.810100
 20
-151.123071
 30
0.0
 10
82.613500
 20
-149.802271
 30
0.0
 10
84.434680
 20
-148.534811
 30
0.0
 10
86.281260
 20
-147.318151
 30
0.0
 10
88.145620
 20
-146.154831
 30
0.0
 10
90.032840
 20
-145.042311
 30
0.0
 10
91.937840
 20
-143.983131
 30
0.0
 10
93.865700
 20
-142.977291
 30
0.0
 10
95.811340
 20
-142.024791
 30
0.0
 10
97.777300
 20
-141.125631
 30
0.0
 10
99.761040
 20
-140.279811
 30
0.0
 10
101.762560
 20
-139.484791
 30
0.0
 10
103.784400
 20
-138.745651
 30
0.0
 10
105.821480
 20
-138.057311
 30
0.0
 10
107.878880
 20
-137.424851
 30
0.0
 10
109.951520
 20
-136.845731
 30
0.0
 10
112.041940
 20
-136.319951
 30
0.0
 10
114.150140
 20
-135.847511
 30
0.0
 10
116.273580
 20
-135.428411
 30
0.0
 10
118.412260
 20
-135.065191
 30
0.0
 10
120.568720
 20
-134.755311
 30
0.0
 10
122.737880
 20
-134.498771
 30
0.0
 10
124.924820
 20
-134.298111
 30
0.0
 10
127.124460
 20
-134.150791
 30
0.0
 10
129.339340
 20
-134.056811
 30
0.0
 10
131.566920
 20
-134.018711
 30
0.0
 10
133.809740
 20
-134.036491
 30
0.0
 10
136.065260
 20
-134.107611
 30
0.0
 10
138.333480
 20
-134.234611
 30
0.0
  0
LWPOLYLINE
  5
2fe
100
AcDbEntity
  8
0
 62
7
100
AcDbPolyline
 90
12
 70
0
 10
58.420000
 20
-142.636931
 30
0.0
 10
58.285380
 20
-142.456591
 30
0.0
 10
58.166000
 20
-142.268631
 30
0.0
 10
58.059320
 20
-142.075591
 30
0.0
 10
57.967880
 20
-141.874931
 30
0.0
 10
57.889140
 20
-141.669191
 30
0.0
 10
57.825640
 20
-141.458371
 30
0.0
 10
57.774840
 20
-141.245011
 30
0.0
 10
57.741820
 20
-141.026571
 30
0.0
 10
57.721500
 20
-140.805591
 30
0.0
 10
57.716420
 20
-140.584611
 30
0.0
 10
57.721500
 20
-140.434751
 30
0.0
  0
LWPOLYLINE
  5
2ff
100
AcDbEntity
  8
0
 62
7
100
AcDbPolyline
 90
2
 70
0
 10
69.377560
 20
-156.520571
 30
0.0
 10
58.420000
 20
-142.636931
 30
0.0
  0
LWPOLYLINE
  5
300
100
AcDbEntity
  8
0
 62
7
100
AcDbPolyline
 90
12
 70
0
 10
71.511160
 20
-157.688971
 30
0.0
 10
71.274940
 20
-157.658491
 30
0.0
 10
71.046340
 20
-157.610231
 30
0.0
 10
70.820280
 20
-157.544191
 30
0.0
 10
70.601840
 20
-157.462911
 30
0.0
 10
70.391020
 20
-157.363851
 30
0.0
 10
70.187820
 20
-157.247011
 30
0.0
 10
69.994780
 20
-157.117471
 30
0.0
 10
69.809360
 20
-156.972691
 30
0.0
 10
69.636640
 20
-156.815211
 30
0.0
 10
69.476620
 20
-156.642491
 30
0.0
 10
69.377560
 20
-156.520571
 30
0.0
  0
LWPOLYLINE
  5
301
100
AcDbEntity
  8
0
 62
7
100
AcDbPolyline
 90
12
 70
0
 10
73.825100
 20
-156.929511
 30
0.0
 10
73.639680
 20
-157.079371
 30
0.0
 10
73.446640
 20
-157.216531
 30
0.0
 10
73.245980
 20
-157.335911
 30
0.0
 10
73.035160
 20
-157.437511
 30
0.0
 10
72.819260
 20
-157.523871
 30
0.0
 10
72.598280
 20
-157.594991
 30
0.0
 10
72.369680
 20
-157.648331
 30
0.0
 10
72.138540
 20
-157.683891
 30
0.0
 10
71.904860
 20
-157.701671
 30
0.0
 10
71.668640
 20
-157.699131
 30
0.0
 10
71.511160
 20
-157.688971
 30
0.0
  0
LWPOLYLINE
  5
302
100
AcDbEntity
  8
0
 62
7
100
AcDbPolyline
 90
17
 70
0
 10
141.224000
 20
-132.349931
 30
0.0
 10
141.112240
 20
-132.550591
 30
0.0
 10
140.990320
 20
-132.743631
 30
0.0
 10
140.855700
 20
-132.926511
 30
0.0
 10
140.710920
 20
-133.099231
 30
0.0
 10
140.555980
 20
-133.261791
 30
0.0
 10
140.388340
 20
-133.411651
 30
0.0
 10
140.215620
 20
-133.551351
 30
0.0
 10
140.032740
 20
-133.680891
 30
0.0
 10
139.839700
 20
-133.797731
 30
0.0
 10
139.641580
 20
-133.899331
 30
0.0
 10
139.438380
 20
-133.990771
 30
0.0
 10
139.227560
 20
-134.066971
 30
0.0
 10
139.009120
 20
-134.130471
 30
0.0
 10
138.788140
 20
-134.181271
 30
0.0
 10
138.562080
 20
-134.214291
 30
0.0
 10
138.333480
 20
-134.234611
 30
0.0
  0
SPLINE
  5
303
100
AcDbEntity
  8
0
 62
7
100
AcDbSpline
 70
8
 71
3
 72
8
 73
4
 74
0
 40
0
 40
0
 40
0
 40
0
 40
1
 40
1
 40
1
 40
1
 10
195.772024
 20
-120.415233
 30
0.0
 10
197.151630
 20
-120.450090
 30
0.0
 10
198.306812
 20
-119.377341
 30
0.0
 10
198.374000
 20
-117.998931
 30
0.0
  0
LWPOLYLINE
  5
304
100
AcDbEntity
  8
0
 62
7
100
AcDbPolyline
 90
2
 70
0
 10
62.776100
 20
-42.012291
 30
0.0
 10
60.198000
 20
-42.052931
 30
0.0
  0
LWPOLYLINE
  5
305
100
AcDbEntity
  8
0
 62
7
100
AcDbPolyline
 90
12
 70
0
 10
148.844000
 20
-120.411931
 30
0.0
 10
148.559520
 20
-120.429711
 30
0.0
 10
148.287740
 20
-120.485591
 30
0.0
 10
148.023580
 20
-120.574491
 30
0.0
 10
147.774660
 20
-120.691331
 30
0.0
 10
147.535900
 20
-120.833571
 30
0.0
 10
147.317460
 20
-120.998671
 30
0.0
 10
147.114260
 20
-121.179011
 30
0.0
 10
146.931380
 20
-121.374591
 30
0.0
 10
146.771360
 20
-121.580331
 30
0.0
 10
146.634200
 20
-121.791151
 30
0.0
 10
146.558000
 20
-121.935931
 30
0.0
  0
LWPOLYLINE
  5
306
100
AcDbEntity
  8
0
 62
7
100
AcDbPolyline
 90
2
 70
0
 10
195.770500
 20
-120.414471
 30
0.0
 10
148.844000
 20
-120.411931
 30
0.0
  0
SPLINE
  5
307
100
AcDbEntity
  8
0
 62
7
100
AcDbSpline
 70
8
 71
3
 72
8
 73
4
 74
0
 40
0
 40
0
 40
0
 40
0
 40
1
 40
1
 40
1
 40
1
 10
60.198000
 20
-42.054201
 30
0.0
 10
59.480395
 20
-42.054228
 30
0.0
 10
58.796285
 20
-42.357801
 30
0.0
 10
58.314777
 20
-42.889879
 30
0.0
  0
SPLINE
  5
308
100
AcDbEntity
  8
0
 62
7
100
AcDbSpline
 70
8
 71
3
 72
8
 73
4
 74
0
 40
0
 40
0
 40
0
 40
0
 40
1
 40
1
 40
1
 40
1
 10
58.314777
 20
-42.889879
 30
0.0
 10
57.833269
 20
-43.421958
 30
0.0
 10
57.599298
 20
-44.132887
 30
0.0
 10
57.670700
 20
-44.846931
 30
0.0
  0
SPLINE
  5
309
100
AcDbEntity
  8
0
 62
7
100
AcDbSpline
 70
8
 71
3
 72
8
 73
4
 74
0
 40
0
 40
0
 40
0
 40
0
 40
1
 40
1
 40
1
 40
1
 10
198.374000
 20
-44.592931
 30
0.0
 10
198.408901
 20
-43.179499
 30
0.0
 10
197.309681
 20
-41.996400
 30
0.0
 10
195.897500
 20
-41.927455
 30
0.0
  0
LWPOLYLINE
  5
30a
100
AcDbEntity
  8
0
 62
7
100
AcDbPolyline
 90
2
 70
0
 10
141.224000
 20
-132.349931
 30
0.0
 10
146.558000
 20
-121.935931
 30
0.0
  0
LWPOLYLINE
  5
30b
100
AcDbEntity
  8
0
 62
7
100
AcDbPolyline
 90
2
 70
0
 10
57.668160
 20
-44.846931
 30
0.0
 10
57.721500
 20
-140.434751
 30
0.0
  0
LWPOLYLINE
  5
30c
100
AcDbEntity
  8
0
 62
7
100
AcDbPolyline
 90
2
 70
0
 10
198.374000
 20
-44.592931
 30
0.0
 10
198.374000
 20
-117.998931
 30
0.0
  0
LWPOLYLINE
  5
30d
100
AcDbEntity
  8
0
 62
7
100
AcDbPolyline
 90
2
 70
0
 10
79.976980
 20
-42.012291
 30
0.0
 10
195.894960
 20
-41.925931
 30
0.0
  0
LWPOLYLINE
  5
30e
100
AcDbEntity
  8
0
 62
7
100
AcDbPolyline
 90
2
 70
0
 10
69.377560
 20
-42.012291
 30
0.0
 10
62.776100
 20
-42.012291
 30
0.0
  0
LWPOLYLINE
  5
30f
100
AcDbEntity
  8
0
 62
7
100
AcDbPolyline
 90
2
 70
0
 10
69.377560
 20
-43.312771
 30
0.0
 10
69.377560
 20
-42.012291
 30
0.0
  0
LWPOLYLINE
  5
310
100
AcDbEntity
  8
0
 62
7
100
AcDbPolyline
 90
2
 70
0
 10
73.875900
 20
-43.312771
 30
0.0
 10
69.377560
 20
-43.312771
 30
0.0
  0
LWPOLYLINE
  5
311
100
AcDbEntity
  8
0
 62
7
100
AcDbPolyline
 90
2
 70
0
 10
73.875900
 20
-42.012291
 30
0.0
 10
73.875900
 20
-43.312771
 30
0.0
  0
LWPOLYLINE
  5
312
100
AcDbEntity
  8
0
 62
7
100
AcDbPolyline
 90
2
 70
0
 10
79.976980
 20
-42.012291
 30
0.0
 10
73.875900
 20
-42.012291
 30
0.0
  0
ENDSEC
  0
SECTION
  2
OBJECTS
  0
DICTIONARY
  5
C
330
0
100
AcDbDictionary
  3
ACAD_GROUP
350
D
  3
ACAD_MLINESTYLE
350
17
  0
DICTIONARY
  5
D
330
C
100
AcDbDictionary
  0
DICTIONARY
  5
1A
330
C
100
AcDbDictionary
  0
DICTIONARY
  5
17
330
C
100
AcDbDictionary
  3
STANDARD
350
18
  0
DICTIONARY
  5
19
330
C
100
AcDbDictionary
  0
ENDSEC
  0
EOF
