999
"DXF R12 Output" (www.mydxf.blogspot.com)
 0 
SECTION
 2 
HEADER
 9 
$ACADVER
 1 
AC1009
 9 
$EXTMIN
 10 
 0 
 20 
 0 
 9 
$EXTMAX
 10 
 8.5 
 20 
 11 
 0 
ENDSEC
 0 
SECTION
 2 
ENTITIES
0
LINE
8
Layer 1
10
3.000000
20
-3.000000
11
-3.000000
21
3.000000
0
LINE
8
Layer 1
10
0.000000
20
-5.000000
11
0.000000
21
5.000000
0
LINE
8
Layer 1
10
8.000000
20
4.000000
11
4.000000
21
8.000000
0
LINE
8
Layer 1
10
6.000000
20
2.000000
11
2.000000
21
6.000000
0
LINE
8
Layer 1
10
4.000000
20
0.000000
11
0.000000
21
4.000000
0
LINE
8
0
10
725.280000
20
1245.430000
11
724.145406
21
1245.599531
0
LINE
8
0
10
724.145406
20
1245.599531
11
723.130250
21
1246.081250
0
LINE
8
0
10
723.130250
20
1246.081250
11
722.296219
21
1246.834844
0
LINE
8
0
10
722.296219
20
1246.834844
11
721.705000
21
1247.820000
0
LINE
8
0
10
721.705000
20
1247.820000
11
721.427719
21
1248.935000
0
LINE
8
0
10
721.427719
20
1248.935000
11
721.484750
21
1250.057500
0
LINE
8
0
10
721.484750
20
1250.057500
11
721.861656
21
1251.116250
0
LINE
8
0
10
721.861656
20
1251.116250
11
722.544000
21
1252.040000
0
LINE
8
0
10
722.544000
20
1252.040000
11
723.466156
21
1252.718281
0
LINE
8
0
10
723.466156
20
1252.718281
11
724.525000
21
1253.093750
0
LINE
8
0
10
724.525000
20
1253.093750
11
725.647594
21
1253.152344
0
LINE
8
0
10
725.647594
20
1253.152344
11
726.761000
21
1252.880000
0
LINE
8
0
10
726.761000
20
1252.880000
11
727.744312
21
1252.288281
0
LINE
8
0
10
727.744312
20
1252.288281
11
728.497750
21
1251.453750
0
LINE
8
0
10
728.497750
20
1251.453750
11
728.980062
21
1250.437344
0
LINE
8
0
10
728.980062
20
1250.437344
11
729.150000
21
1249.300000
0
LINE
8
0
10
729.150000
20
1249.300000
11
729.074906
21
1248.540000
0
LINE
8
0
10
729.074906
20
1248.540000
11
728.855250
21
1247.817500
0
LINE
8
0
10
728.855250
20
1247.817500
11
728.016000
21
1246.560000
0
LINE
8
0
10
728.016000
20
1246.560000
11
726.760875
21
1245.725000
0
LINE
8
0
10
726.760875
20
1245.725000
11
726.038391
21
1245.505312
0
LINE
8
0
10
726.038391
20
1245.505312
11
725.280000
21
1245.430000
0
LINE
8
0
10
572.640000
20
1361.590000
11
571.505406
21
1361.759531
0
LINE
8
0
10
571.505406
20
1361.759531
11
570.490250
21
1362.241250
0
LINE
8
0
10
570.490250
20
1362.241250
11
569.656219
21
1362.994844
0
LINE
8
0
10
569.656219
20
1362.994844
11
569.065000
21
1363.980000
0
LINE
8
0
10
569.065000
20
1363.980000
11
568.787719
21
1365.095000
0
LINE
8
0
10
568.787719
20
1365.095000
11
568.844750
21
1366.217500
0
LINE
8
0
10
568.844750
20
1366.217500
11
569.221656
21
1367.276250
0
LINE
8
0
10
569.221656
20
1367.276250
11
569.904000
21
1368.200000
0
LINE
8
0
10
569.904000
20
1368.200000
11
570.826156
21
1368.878281
0
LINE
8
0
10
570.826156
20
1368.878281
11
571.885000
21
1369.253750
0
LINE
8
0
10
571.885000
20
1369.253750
11
573.007594
21
1369.312344
0
LINE
8
0
10
573.007594
20
1369.312344
11
574.121000
21
1369.040000
0
LINE
8
0
10
574.121000
20
1369.040000
11
575.104312
21
1368.448281
0
LINE
8
0
10
575.104312
20
1368.448281
11
575.857750
21
1367.613750
0
LINE
8
0
10
575.857750
20
1367.613750
11
576.340063
21
1366.597344
0
LINE
8
0
10
576.340063
20
1366.597344
11
576.510000
21
1365.460000
0
LINE
8
0
10
576.510000
20
1365.460000
11
576.434906
21
1364.700000
0
LINE
8
0
10
576.434906
20
1364.700000
11
576.215250
21
1363.977500
0
LINE
8
0
10
576.215250
20
1363.977500
11
575.376000
21
1362.720000
0
LINE
8
0
10
575.376000
20
1362.720000
11
574.120875
21
1361.885000
0
LINE
8
0
10
574.120875
20
1361.885000
11
573.398391
21
1361.665313
0
LINE
8
0
10
573.398391
20
1361.665313
11
572.640000
21
1361.590000
0
LINE
8
0
10
660.480000
20
1515.670000
11
659.345406
21
1515.839531
0
LINE
8
0
10
659.345406
20
1515.839531
11
658.330250
21
1516.321250
0
LINE
8
0
10
658.330250
20
1516.321250
11
657.496219
21
1517.074844
0
LINE
8
0
10
657.496219
20
1517.074844
11
656.905000
21
1518.060000
0
LINE
8
0
10
656.905000
20
1518.060000
11
656.627719
21
1519.175000
0
LINE
8
0
10
656.627719
20
1519.175000
11
656.684750
21
1520.297500
0
LINE
8
0
10
656.684750
20
1520.297500
11
657.061656
21
1521.356250
0
LINE
8
0
10
657.061656
20
1521.356250
11
657.744000
21
1522.280000
0
LINE
8
0
10
657.744000
20
1522.280000
11
658.666156
21
1522.958281
0
LINE
8
0
10
658.666156
20
1522.958281
11
659.725000
21
1523.333750
0
LINE
8
0
10
659.725000
20
1523.333750
11
660.847594
21
1523.392344
0
LINE
8
0
10
660.847594
20
1523.392344
11
661.961000
21
1523.120000
0
LINE
8
0
10
661.961000
20
1523.120000
11
662.944313
21
1522.528281
0
LINE
8
0
10
662.944313
20
1522.528281
11
663.697750
21
1521.693750
0
LINE
8
0
10
663.697750
20
1521.693750
11
664.180062
21
1520.677344
0
LINE
8
0
10
664.180062
20
1520.677344
11
664.350000
21
1519.540000
0
LINE
8
0
10
664.350000
20
1519.540000
11
664.274906
21
1518.780000
0
LINE
8
0
10
664.274906
20
1518.780000
11
664.055250
21
1518.057500
0
LINE
8
0
10
664.055250
20
1518.057500
11
663.216000
21
1516.800000
0
LINE
8
0
10
663.216000
20
1516.800000
11
661.960875
21
1515.965000
0
LINE
8
0
10
661.960875
20
1515.965000
11
661.238391
21
1515.745313
0
LINE
8
0
10
661.238391
20
1515.745313
11
660.480000
21
1515.670000
0
LINE
8
0
10
724.800000
20
1567.510000
11
723.665406
21
1567.679531
0
LINE
8
0
10
723.665406
20
1567.679531
11
722.650250
21
1568.161250
0
LINE
8
0
10
722.650250
20
1568.161250
11
721.816219
21
1568.914844
0
LINE
8
0
10
721.816219
20
1568.914844
11
721.225000
21
1569.900000
0
LINE
8
0
10
721.225000
20
1569.900000
11
720.947719
21
1571.015000
0
LINE
8
0
10
720.947719
20
1571.015000
11
721.004750
21
1572.137500
0
LINE
8
0
10
721.004750
20
1572.137500
11
721.381656
21
1573.196250
0
LINE
8
0
10
721.381656
20
1573.196250
11
722.064000
21
1574.120000
0
LINE
8
0
10
722.064000
20
1574.120000
11
722.986156
21
1574.798281
0
LINE
8
0
10
722.986156
20
1574.798281
11
724.045000
21
1575.173750
0
LINE
8
0
10
724.045000
20
1575.173750
11
725.167594
21
1575.232344
0
LINE
8
0
10
725.167594
20
1575.232344
11
726.281000
21
1574.960000
0
LINE
8
0
10
726.281000
20
1574.960000
11
727.264312
21
1574.368281
0
LINE
8
0
10
727.264312
20
1574.368281
11
728.017750
21
1573.533750
0
LINE
8
0
10
728.017750
20
1573.533750
11
728.500062
21
1572.517344
0
LINE
8
0
10
728.500062
20
1572.517344
11
728.670000
21
1571.380000
0
LINE
8
0
10
728.670000
20
1571.380000
11
728.594906
21
1570.620000
0
LINE
8
0
10
728.594906
20
1570.620000
11
728.375250
21
1569.897500
0
LINE
8
0
10
728.375250
20
1569.897500
11
727.536000
21
1568.640000
0
LINE
8
0
10
727.536000
20
1568.640000
11
726.280875
21
1567.805000
0
LINE
8
0
10
726.280875
20
1567.805000
11
725.558391
21
1567.585313
0
LINE
8
0
10
725.558391
20
1567.585313
11
724.800000
21
1567.510000
0
LINE
8
0
10
652.320000
20
1594.390000
11
651.185406
21
1594.559531
0
LINE
8
0
10
651.185406
20
1594.559531
11
650.170250
21
1595.041250
0
LINE
8
0
10
650.170250
20
1595.041250
11
649.336219
21
1595.794844
0
LINE
8
0
10
649.336219
20
1595.794844
11
648.745000
21
1596.780000
0
LINE
8
0
10
648.745000
20
1596.780000
11
648.467719
21
1597.895000
0
LINE
8
0
10
648.467719
20
1597.895000
11
648.524750
21
1599.017500
0
LINE
8
0
10
648.524750
20
1599.017500
11
648.901656
21
1600.076250
0
LINE
8
0
10
648.901656
20
1600.076250
11
649.584000
21
1601.000000
0
LINE
8
0
10
649.584000
20
1601.000000
11
650.506156
21
1601.678281
0
LINE
8
0
10
650.506156
20
1601.678281
11
651.565000
21
1602.053750
0
LINE
8
0
10
651.565000
20
1602.053750
11
652.687594
21
1602.112344
0
LINE
8
0
10
652.687594
20
1602.112344
11
653.801000
21
1601.840000
0
LINE
8
0
10
653.801000
20
1601.840000
11
654.784313
21
1601.248281
0
LINE
8
0
10
654.784313
20
1601.248281
11
655.537750
21
1600.413750
0
LINE
8
0
10
655.537750
20
1600.413750
11
656.020062
21
1599.397344
0
LINE
8
0
10
656.020062
20
1599.397344
11
656.190000
21
1598.260000
0
LINE
8
0
10
656.190000
20
1598.260000
11
656.114906
21
1597.500000
0
LINE
8
0
10
656.114906
20
1597.500000
11
655.895250
21
1596.777500
0
LINE
8
0
10
655.895250
20
1596.777500
11
655.056000
21
1595.520000
0
LINE
8
0
10
655.056000
20
1595.520000
11
653.800875
21
1594.685000
0
LINE
8
0
10
653.800875
20
1594.685000
11
653.078391
21
1594.465312
0
LINE
8
0
10
653.078391
20
1594.465312
11
652.320000
21
1594.390000
0
LINE
8
0
10
504.480000
20
1540.630000
11
503.345406
21
1540.799531
0
LINE
8
0
10
503.345406
20
1540.799531
11
502.330250
21
1541.281250
0
LINE
8
0
10
502.330250
20
1541.281250
11
501.496219
21
1542.034844
0
LINE
8
0
10
501.496219
20
1542.034844
11
500.905000
21
1543.020000
0
LINE
8
0
10
500.905000
20
1543.020000
11
500.627719
21
1544.135000
0
LINE
8
0
10
500.627719
20
1544.135000
11
500.684750
21
1545.257500
0
LINE
8
0
10
500.684750
20
1545.257500
11
501.061656
21
1546.316250
0
LINE
8
0
10
501.061656
20
1546.316250
11
501.744000
21
1547.240000
0
LINE
8
0
10
501.744000
20
1547.240000
11
502.666156
21
1547.918281
0
LINE
8
0
10
502.666156
20
1547.918281
11
503.725000
21
1548.293750
0
LINE
8
0
10
503.725000
20
1548.293750
11
504.847594
21
1548.352344
0
LINE
8
0
10
504.847594
20
1548.352344
11
505.961000
21
1548.080000
0
LINE
8
0
10
505.961000
20
1548.080000
11
506.944313
21
1547.488281
0
LINE
8
0
10
506.944313
20
1547.488281
11
507.697750
21
1546.653750
0
LINE
8
0
10
507.697750
20
1546.653750
11
508.180063
21
1545.637344
0
LINE
8
0
10
508.180063
20
1545.637344
11
508.350000
21
1544.500000
0
LINE
8
0
10
508.350000
20
1544.500000
11
508.274906
21
1543.740000
0
LINE
8
0
10
508.274906
20
1543.740000
11
508.055250
21
1543.017500
0
LINE
8
0
10
508.055250
20
1543.017500
11
507.216000
21
1541.760000
0
LINE
8
0
10
507.216000
20
1541.760000
11
505.960875
21
1540.925000
0
LINE
8
0
10
505.960875
20
1540.925000
11
505.238391
21
1540.705313
0
LINE
8
0
10
505.238391
20
1540.705313
11
504.480000
21
1540.630000
0
LINE
8
0
10
285.120000
20
1448.470000
11
283.985406
21
1448.639531
0
LINE
8
0
10
283.985406
20
1448.639531
11
282.970250
21
1449.121250
0
LINE
8
0
10
282.970250
20
1449.121250
11
282.136219
21
1449.874844
0
LINE
8
0
10
282.136219
20
1449.874844
11
281.545000
21
1450.860000
0
LINE
8
0
10
281.545000
20
1450.860000
11
281.267719
21
1451.975000
0
LINE
8
0
10
281.267719
20
1451.975000
11
281.324750
21
1453.097500
0
LINE
8
0
10
281.324750
20
1453.097500
11
281.701656
21
1454.156250
0
LINE
8
0
10
281.701656
20
1454.156250
11
282.384000
21
1455.080000
0
LINE
8
0
10
282.384000
20
1455.080000
11
283.306156
21
1455.758281
0
LINE
8
0
10
283.306156
20
1455.758281
11
284.365000
21
1456.133750
0
LINE
8
0
10
284.365000
20
1456.133750
11
285.487594
21
1456.192344
0
LINE
8
0
10
285.487594
20
1456.192344
11
286.601000
21
1455.920000
0
LINE
8
0
10
286.601000
20
1455.920000
11
287.584313
21
1455.328281
0
LINE
8
0
10
287.584313
20
1455.328281
11
288.337750
21
1454.493750
0
LINE
8
0
10
288.337750
20
1454.493750
11
288.820063
21
1453.477344
0
LINE
8
0
10
288.820063
20
1453.477344
11
288.990000
21
1452.340000
0
LINE
8
0
10
288.990000
20
1452.340000
11
288.914906
21
1451.580000
0
LINE
8
0
10
288.914906
20
1451.580000
11
288.695250
21
1450.857500
0
LINE
8
0
10
288.695250
20
1450.857500
11
287.856000
21
1449.600000
0
LINE
8
0
10
287.856000
20
1449.600000
11
286.600875
21
1448.765000
0
LINE
8
0
10
286.600875
20
1448.765000
11
285.878391
21
1448.545313
0
LINE
8
0
10
285.878391
20
1448.545313
11
285.120000
21
1448.470000
0
LINE
8
0
10
285.600000
20
1376.470000
11
284.465406
21
1376.639531
0
LINE
8
0
10
284.465406
20
1376.639531
11
283.450250
21
1377.121250
0
LINE
8
0
10
283.450250
20
1377.121250
11
282.616219
21
1377.874844
0
LINE
8
0
10
282.616219
20
1377.874844
11
282.025000
21
1378.860000
0
LINE
8
0
10
282.025000
20
1378.860000
11
281.747719
21
1379.975000
0
LINE
8
0
10
281.747719
20
1379.975000
11
281.804750
21
1381.097500
0
LINE
8
0
10
281.804750
20
1381.097500
11
282.181656
21
1382.156250
0
LINE
8
0
10
282.181656
20
1382.156250
11
282.864000
21
1383.080000
0
LINE
8
0
10
282.864000
20
1383.080000
11
283.786156
21
1383.758281
0
LINE
8
0
10
283.786156
20
1383.758281
11
284.845000
21
1384.133750
0
LINE
8
0
10
284.845000
20
1384.133750
11
285.967594
21
1384.192344
0
LINE
8
0
10
285.967594
20
1384.192344
11
287.081000
21
1383.920000
0
LINE
8
0
10
287.081000
20
1383.920000
11
288.064313
21
1383.328281
0
LINE
8
0
10
288.064313
20
1383.328281
11
288.817750
21
1382.493750
0
LINE
8
0
10
288.817750
20
1382.493750
11
289.300063
21
1381.477344
0
LINE
8
0
10
289.300063
20
1381.477344
11
289.470000
21
1380.340000
0
LINE
8
0
10
289.470000
20
1380.340000
11
289.394906
21
1379.580000
0
LINE
8
0
10
289.394906
20
1379.580000
11
289.175250
21
1378.857500
0
LINE
8
0
10
289.175250
20
1378.857500
11
288.336000
21
1377.600000
0
LINE
8
0
10
288.336000
20
1377.600000
11
287.080875
21
1376.765000
0
LINE
8
0
10
287.080875
20
1376.765000
11
286.358391
21
1376.545313
0
LINE
8
0
10
286.358391
20
1376.545313
11
285.600000
21
1376.470000
0
LINE
8
0
10
233.760000
20
1287.670000
11
232.625406
21
1287.839531
0
LINE
8
0
10
232.625406
20
1287.839531
11
231.610250
21
1288.321250
0
LINE
8
0
10
231.610250
20
1288.321250
11
230.776219
21
1289.074844
0
LINE
8
0
10
230.776219
20
1289.074844
11
230.185000
21
1290.060000
0
LINE
8
0
10
230.185000
20
1290.060000
11
229.907719
21
1291.175000
0
LINE
8
0
10
229.907719
20
1291.175000
11
229.964750
21
1292.297500
0
LINE
8
0
10
229.964750
20
1292.297500
11
230.341656
21
1293.356250
0
LINE
8
0
10
230.341656
20
1293.356250
11
231.024000
21
1294.280000
0
LINE
8
0
10
231.024000
20
1294.280000
11
231.946156
21
1294.958281
0
LINE
8
0
10
231.946156
20
1294.958281
11
233.005000
21
1295.333750
0
LINE
8
0
10
233.005000
20
1295.333750
11
234.127594
21
1295.392344
0
LINE
8
0
10
234.127594
20
1295.392344
11
235.241000
21
1295.120000
0
LINE
8
0
10
235.241000
20
1295.120000
11
236.224312
21
1294.528281
0
LINE
8
0
10
236.224312
20
1294.528281
11
236.977750
21
1293.693750
0
LINE
8
0
10
236.977750
20
1293.693750
11
237.460062
21
1292.677344
0
LINE
8
0
10
237.460062
20
1292.677344
11
237.630000
21
1291.540000
0
LINE
8
0
10
237.630000
20
1291.540000
11
237.554906
21
1290.780000
0
LINE
8
0
10
237.554906
20
1290.780000
11
237.335250
21
1290.057500
0
LINE
8
0
10
237.335250
20
1290.057500
11
236.496000
21
1288.800000
0
LINE
8
0
10
236.496000
20
1288.800000
11
235.240875
21
1287.965000
0
LINE
8
0
10
235.240875
20
1287.965000
11
234.518391
21
1287.745313
0
LINE
8
0
10
234.518391
20
1287.745313
11
233.760000
21
1287.670000
0
LINE
8
0
10
233.760000
20
1244.950000
11
232.625406
21
1245.119531
0
LINE
8
0
10
232.625406
20
1245.119531
11
231.610250
21
1245.601250
0
LINE
8
0
10
231.610250
20
1245.601250
11
230.776219
21
1246.354844
0
LINE
8
0
10
230.776219
20
1246.354844
11
230.185000
21
1247.340000
0
LINE
8
0
10
230.185000
20
1247.340000
11
229.907719
21
1248.455000
0
LINE
8
0
10
229.907719
20
1248.455000
11
229.964750
21
1249.577500
0
LINE
8
0
10
229.964750
20
1249.577500
11
230.341656
21
1250.636250
0
LINE
8
0
10
230.341656
20
1250.636250
11
231.024000
21
1251.560000
0
LINE
8
0
10
231.024000
20
1251.560000
11
231.946156
21
1252.238281
0
LINE
8
0
10
231.946156
20
1252.238281
11
233.005000
21
1252.613750
0
LINE
8
0
10
233.005000
20
1252.613750
11
234.127594
21
1252.672344
0
LINE
8
0
10
234.127594
20
1252.672344
11
235.241000
21
1252.400000
0
LINE
8
0
10
235.241000
20
1252.400000
11
236.224312
21
1251.808281
0
LINE
8
0
10
236.224312
20
1251.808281
11
236.977750
21
1250.973750
0
LINE
8
0
10
236.977750
20
1250.973750
11
237.460062
21
1249.957344
0
LINE
8
0
10
237.460062
20
1249.957344
11
237.630000
21
1248.820000
0
LINE
8
0
10
237.630000
20
1248.820000
11
237.554906
21
1248.060000
0
LINE
8
0
10
237.554906
20
1248.060000
11
237.335250
21
1247.337500
0
LINE
8
0
10
237.335250
20
1247.337500
11
236.496000
21
1246.080000
0
LINE
8
0
10
236.496000
20
1246.080000
11
235.240875
21
1245.245000
0
LINE
8
0
10
235.240875
20
1245.245000
11
234.518391
21
1245.025312
0
LINE
8
0
10
234.518391
20
1245.025312
11
233.760000
21
1244.950000
0
LINE
8
0
10
642.240000
20
1525.590000
11
642.542641
21
1527.813750
0
LINE
8
0
10
642.542641
20
1527.813750
11
643.368125
21
1529.865000
0
LINE
8
0
10
643.368125
20
1529.865000
11
644.667047
21
1531.653750
0
LINE
8
0
10
644.667047
20
1531.653750
11
646.390000
21
1533.090000
0
LINE
8
0
10
732.768000
20
1617.840000
11
734.007703
21
1615.926562
0
LINE
8
0
10
734.007703
20
1615.926562
11
734.840625
21
1613.827500
0
LINE
8
0
10
734.840625
20
1613.827500
11
735.248484
21
1611.604687
0
LINE
8
0
10
735.248484
20
1611.604687
11
735.213000
21
1609.320000
0
LINE
8
0
10
735.213000
20
1609.320000
11
734.729594
21
1607.092500
0
LINE
8
0
10
734.729594
20
1607.092500
11
733.827500
21
1605.022500
0
LINE
8
0
10
733.827500
20
1605.022500
11
732.539156
21
1603.166250
0
LINE
8
0
10
732.539156
20
1603.166250
11
730.897000
21
1601.580000
0
LINE
8
0
10
430.099000
20
1575.870000
11
430.979361
21
1577.363770
0
LINE
8
0
10
430.979361
20
1577.363770
11
432.035328
21
1578.709531
0
LINE
8
0
10
432.035328
20
1578.709531
11
433.248350
21
1579.895215
0
LINE
8
0
10
433.248350
20
1579.895215
11
434.599875
21
1580.908750
0
LINE
8
0
10
434.599875
20
1580.908750
11
436.071354
21
1581.738066
0
LINE
8
0
10
436.071354
20
1581.738066
11
437.644234
21
1582.371094
0
LINE
8
0
10
437.644234
20
1582.371094
11
439.299967
21
1582.795762
0
LINE
8
0
10
439.299967
20
1582.795762
11
441.020000
21
1583.000000
0
LINE
8
0
10
676.800000
20
1667.860000
11
678.726594
21
1669.247813
0
LINE
8
0
10
678.726594
20
1669.247813
11
680.872750
21
1670.202500
0
LINE
8
0
10
680.872750
20
1670.202500
11
683.167781
21
1670.703438
0
LINE
8
0
10
683.167781
20
1670.703438
11
685.541000
21
1670.730000
0
LINE
8
0
10
685.541000
20
1670.730000
11
687.869406
21
1670.272813
0
LINE
8
0
10
687.869406
20
1670.272813
11
690.033750
21
1669.360000
0
LINE
8
0
10
690.033750
20
1669.360000
11
691.968969
21
1668.027187
0
LINE
8
0
10
691.968969
20
1668.027187
11
693.610000
21
1666.310000
0
LINE
8
0
10
676.800000
20
1667.860000
11
670.528646
21
1662.868254
0
LINE
8
0
10
670.528646
20
1662.868254
11
664.163982
21
1658.018613
0
LINE
8
0
10
664.163982
20
1658.018613
11
657.708482
21
1653.311970
0
LINE
8
0
10
657.708482
20
1653.311970
11
651.164621
21
1648.749219
0
LINE
8
0
10
651.164621
20
1648.749219
11
644.534872
21
1644.331252
0
LINE
8
0
10
644.534872
20
1644.331252
11
637.821708
21
1640.058965
0
LINE
8
0
10
637.821708
20
1640.058965
11
631.027603
21
1635.933250
0
LINE
8
0
10
631.027603
20
1635.933250
11
624.155031
21
1631.955000
0
LINE
8
0
10
624.155031
20
1631.955000
11
617.206466
21
1628.125110
0
LINE
8
0
10
617.206466
20
1628.125110
11
610.184382
21
1624.444473
0
LINE
8
0
10
610.184382
20
1624.444473
11
603.091253
21
1620.913982
0
LINE
8
0
10
603.091253
20
1620.913982
11
595.929551
21
1617.534531
0
LINE
8
0
10
595.929551
20
1617.534531
11
588.701751
21
1614.307014
0
LINE
8
0
10
588.701751
20
1614.307014
11
581.410327
21
1611.232324
0
LINE
8
0
10
581.410327
20
1611.232324
11
574.057752
21
1608.311355
0
LINE
8
0
10
574.057752
20
1608.311355
11
566.646500
21
1605.545000
0
LINE
8
0
10
566.646500
20
1605.545000
11
559.179045
21
1602.934153
0
LINE
8
0
10
559.179045
20
1602.934153
11
551.657861
21
1600.479707
0
LINE
8
0
10
551.657861
20
1600.479707
11
544.085421
21
1598.182556
0
LINE
8
0
10
544.085421
20
1598.182556
11
536.464199
21
1596.043594
0
LINE
8
0
10
536.464199
20
1596.043594
11
528.796669
21
1594.063713
0
LINE
8
0
10
528.796669
20
1594.063713
11
521.085305
21
1592.243809
0
LINE
8
0
10
521.085305
20
1592.243809
11
513.332580
21
1590.584773
0
LINE
8
0
10
513.332580
20
1590.584773
11
505.540969
21
1589.087500
0
LINE
8
0
10
505.540969
20
1589.087500
11
497.712944
21
1587.752883
0
LINE
8
0
10
497.712944
20
1587.752883
11
489.850980
21
1586.581816
0
LINE
8
0
10
489.850980
20
1586.581816
11
481.957550
21
1585.575193
0
LINE
8
0
10
481.957550
20
1585.575193
11
474.035129
21
1584.733906
0
LINE
8
0
10
474.035129
20
1584.733906
11
466.086189
21
1584.058850
0
LINE
8
0
10
466.086189
20
1584.058850
11
458.113206
21
1583.550918
0
LINE
8
0
10
458.113206
20
1583.550918
11
450.118651
21
1583.211003
0
LINE
8
0
10
450.118651
20
1583.211003
11
442.105000
21
1583.040000
0
LINE
8
0
10
741.120000
20
1607.380000
11
742.348844
21
1605.511875
0
LINE
8
0
10
742.348844
20
1605.511875
11
743.208500
21
1603.467500
0
LINE
8
0
10
743.208500
20
1603.467500
11
743.681906
21
1601.299375
0
LINE
8
0
10
743.681906
20
1601.299375
11
743.752000
21
1599.060000
0
LINE
8
0
10
646.387000
20
1533.090000
11
730.896000
21
1601.580000
0
LINE
8
0
10
693.610000
20
1666.300000
11
741.120000
21
1607.380000
0
LINE
8
0
10
563.232000
20
1353.230000
11
563.232000
21
1300.310000
0
LINE
8
0
10
275.990000
20
1371.180000
11
275.990000
21
1318.270000
0
LINE
8
0
10
438.509000
20
1291.340000
11
438.509000
21
1344.250000
0
LINE
8
0
10
582.134000
20
1362.210000
11
635.040000
21
1362.210000
0
LINE
8
0
10
635.040000
20
1362.210000
11
635.040000
21
1309.290000
0
LINE
8
0
10
510.317000
20
1443.940000
11
510.317000
21
1496.860000
0
LINE
8
0
10
563.232000
20
1443.940000
11
510.317000
21
1443.940000
0
LINE
8
0
10
419.616000
20
1496.860000
11
419.616000
21
1443.940000
0
LINE
8
0
10
582.134000
20
1309.290000
11
582.134000
21
1362.210000
0
LINE
8
0
10
366.701000
20
1353.230000
11
419.616000
21
1353.230000
0
LINE
8
0
10
294.883000
20
1318.270000
11
294.883000
21
1371.180000
0
LINE
8
0
10
347.798000
20
1318.270000
11
294.883000
21
1318.270000
0
LINE
8
0
10
635.040000
20
1452.920000
11
582.134000
21
1452.920000
0
LINE
8
0
10
563.232000
20
1496.860000
11
563.232000
21
1443.940000
0
LINE
8
0
10
510.317000
20
1496.860000
11
563.232000
21
1496.860000
0
LINE
8
0
10
491.424000
20
1291.340000
11
438.509000
21
1291.340000
0
LINE
8
0
10
223.075000
20
1318.270000
11
223.075000
21
1371.180000
0
LINE
8
0
10
347.798000
20
1371.180000
11
347.798000
21
1318.270000
0
LINE
8
0
10
294.883000
20
1371.180000
11
347.798000
21
1371.180000
0
LINE
8
0
10
438.509000
20
1344.250000
11
491.424000
21
1344.250000
0
LINE
8
0
10
690.317000
20
1656.030000
11
723.619000
21
1614.920000
0
LINE
8
0
10
649.200000
20
1622.740000
11
690.317000
21
1656.030000
0
LINE
8
0
10
491.424000
20
1344.250000
11
491.424000
21
1291.340000
0
LINE
8
0
10
491.424000
20
1487.880000
11
491.424000
21
1434.960000
0
LINE
8
0
10
438.509000
20
1487.880000
11
491.424000
21
1487.880000
0
LINE
8
0
10
438.509000
20
1434.960000
11
438.509000
21
1487.880000
0
LINE
8
0
10
491.424000
20
1434.960000
11
438.509000
21
1434.960000
0
LINE
8
0
10
347.798000
20
1442.990000
11
347.798000
21
1390.080000
0
LINE
8
0
10
294.883000
20
1442.990000
11
347.798000
21
1442.990000
0
LINE
8
0
10
294.883000
20
1390.080000
11
294.883000
21
1442.990000
0
LINE
8
0
10
347.798000
20
1390.080000
11
294.883000
21
1390.080000
0
LINE
8
0
10
275.990000
20
1442.990000
11
275.990000
21
1390.080000
0
LINE
8
0
10
223.075000
20
1442.990000
11
275.990000
21
1442.990000
0
LINE
8
0
10
223.075000
20
1390.080000
11
223.075000
21
1442.990000
0
LINE
8
0
10
275.990000
20
1390.080000
11
223.075000
21
1390.080000
0
LINE
8
0
10
366.701000
20
1496.860000
11
419.616000
21
1496.860000
0
LINE
8
0
10
366.701000
20
1443.940000
11
366.701000
21
1496.860000
0
LINE
8
0
10
419.616000
20
1443.940000
11
366.701000
21
1443.940000
0
LINE
8
0
10
510.317000
20
1353.230000
11
563.232000
21
1353.230000
0
LINE
8
0
10
347.798000
20
1461.890000
11
294.883000
21
1461.890000
0
LINE
8
0
10
275.990000
20
1514.810000
11
275.990000
21
1461.890000
0
LINE
8
0
10
223.075000
20
1514.810000
11
275.990000
21
1514.810000
0
LINE
8
0
10
223.075000
20
1371.180000
11
275.990000
21
1371.180000
0
LINE
8
0
10
491.424000
20
1416.060000
11
491.424000
21
1363.150000
0
LINE
8
0
10
419.616000
20
1425.040000
11
419.616000
21
1372.130000
0
LINE
8
0
10
366.701000
20
1425.040000
11
419.616000
21
1425.040000
0
LINE
8
0
10
635.040000
20
1434.010000
11
635.040000
21
1381.110000
0
LINE
8
0
10
582.134000
20
1434.010000
11
635.040000
21
1434.010000
0
LINE
8
0
10
419.616000
20
1353.230000
11
419.616000
21
1300.310000
0
LINE
8
0
10
438.509000
20
1416.060000
11
491.424000
21
1416.060000
0
LINE
8
0
10
438.509000
20
1363.150000
11
438.509000
21
1416.060000
0
LINE
8
0
10
510.317000
20
1425.040000
11
563.232000
21
1425.040000
0
LINE
8
0
10
510.317000
20
1372.130000
11
510.317000
21
1425.040000
0
LINE
8
0
10
491.424000
20
1363.150000
11
438.509000
21
1363.150000
0
LINE
8
0
10
563.232000
20
1425.040000
11
563.232000
21
1372.130000
0
LINE
8
0
10
275.990000
20
1318.270000
11
223.075000
21
1318.270000
0
LINE
8
0
10
223.075000
20
1461.890000
11
223.075000
21
1514.810000
0
LINE
8
0
10
275.990000
20
1461.890000
11
223.075000
21
1461.890000
0
LINE
8
0
10
366.701000
20
1300.310000
11
366.701000
21
1353.230000
0
LINE
8
0
10
635.040000
20
1309.290000
11
582.134000
21
1309.290000
0
LINE
8
0
10
419.616000
20
1300.310000
11
366.701000
21
1300.310000
0
LINE
8
0
10
582.134000
20
1381.110000
11
582.134000
21
1434.010000
0
LINE
8
0
10
635.040000
20
1381.110000
11
582.134000
21
1381.110000
0
LINE
8
0
10
563.232000
20
1300.310000
11
510.317000
21
1300.310000
0
LINE
8
0
10
491.424000
20
1513.950000
11
438.509000
21
1513.950000
0
LINE
8
0
10
347.798000
20
1514.810000
11
347.798000
21
1461.890000
0
LINE
8
0
10
294.883000
20
1514.810000
11
347.798000
21
1514.810000
0
LINE
8
0
10
294.883000
20
1461.890000
11
294.883000
21
1514.810000
0
LINE
8
0
10
635.040000
20
1505.830000
11
635.040000
21
1452.920000
0
LINE
8
0
10
582.134000
20
1505.830000
11
635.040000
21
1505.830000
0
LINE
8
0
10
582.134000
20
1452.920000
11
582.134000
21
1505.830000
0
LINE
8
0
10
682.493000
20
1581.610000
11
649.200000
21
1622.740000
0
LINE
8
0
10
723.619000
20
1614.920000
11
682.493000
21
1581.610000
0
LINE
8
0
10
631.402000
20
1611.400000
11
654.595000
21
1563.840000
0
LINE
8
0
10
583.843000
20
1588.200000
11
631.402000
21
1611.400000
0
LINE
8
0
10
607.037000
20
1540.640000
11
583.843000
21
1588.200000
0
LINE
8
0
10
654.595000
20
1563.840000
11
607.037000
21
1540.640000
0
LINE
8
0
10
563.952000
20
1581.160000
11
575.846000
21
1529.600000
0
LINE
8
0
10
512.390000
20
1569.260000
11
563.952000
21
1581.160000
0
LINE
8
0
10
524.294000
20
1517.700000
11
512.390000
21
1569.260000
0
LINE
8
0
10
575.846000
20
1529.600000
11
524.294000
21
1517.700000
0
LINE
8
0
10
491.424000
20
1566.870000
11
491.424000
21
1513.950000
0
LINE
8
0
10
438.509000
20
1566.870000
11
491.424000
21
1566.870000
0
LINE
8
0
10
438.509000
20
1513.950000
11
438.509000
21
1566.870000
0
LINE
8
0
10
510.317000
20
1300.310000
11
510.317000
21
1353.230000
0
LINE
8
0
10
563.232000
20
1372.130000
11
510.317000
21
1372.130000
0
LINE
8
0
10
366.701000
20
1372.130000
11
366.701000
21
1425.040000
0
LINE
8
0
10
419.616000
20
1372.130000
11
366.701000
21
1372.130000
0
LINE
8
0
10
402.941000
20
1523.640000
11
403.843000
21
1524.180000
0
LINE
8
0
10
402.000000
20
1523.200000
11
402.941000
21
1523.640000
0
LINE
8
0
10
401.002000
20
1522.860000
11
402.000000
21
1523.200000
0
LINE
8
0
10
399.974000
20
1522.650000
11
401.002000
21
1522.860000
0
LINE
8
0
10
398.899000
20
1522.580000
11
399.974000
21
1522.650000
0
LINE
8
0
10
743.501000
20
1241.300000
11
743.750000
21
1599.060000
0
LINE
8
0
10
225.139000
20
1522.580000
11
224.170000
21
1522.560000
0
LINE
8
0
10
224.170000
20
1522.560000
11
223.229000
21
1522.450000
0
LINE
8
0
10
223.229000
20
1522.450000
11
222.307000
21
1522.240000
0
LINE
8
0
10
222.307000
20
1522.240000
11
221.434000
21
1521.950000
0
LINE
8
0
10
221.434000
20
1521.950000
11
220.589000
21
1521.580000
0
LINE
8
0
10
220.589000
20
1521.580000
11
219.792000
21
1521.130000
0
LINE
8
0
10
219.792000
20
1521.130000
11
219.053000
21
1520.610000
0
LINE
8
0
10
219.053000
20
1520.610000
11
218.352000
21
1520.020000
0
LINE
8
0
10
218.352000
20
1520.020000
11
217.718000
21
1519.380000
0
LINE
8
0
10
217.718000
20
1519.380000
11
217.142000
21
1518.670000
0
LINE
8
0
10
217.142000
20
1518.670000
11
216.643000
21
1517.910000
0
LINE
8
0
10
216.643000
20
1517.910000
11
216.211000
21
1517.090000
0
LINE
8
0
10
216.211000
20
1517.090000
11
215.856000
21
1516.240000
0
LINE
8
0
10
215.856000
20
1516.240000
11
215.578000
21
1515.340000
0
LINE
8
0
10
215.578000
20
1515.340000
11
215.395000
21
1514.410000
0
LINE
8
0
10
215.395000
20
1514.410000
11
215.299000
21
1513.440000
0
LINE
8
0
10
225.139000
20
1522.580000
11
398.899000
21
1522.580000
0
LINE
8
0
10
430.099000
20
1575.860000
11
407.539000
21
1528.340000
0
LINE
8
0
10
741.053000
20
1233.910000
11
741.542000
21
1234.500000
0
LINE
8
0
10
741.542000
20
1234.500000
11
742.109000
21
1235.320000
0
LINE
8
0
10
742.109000
20
1235.320000
11
742.589000
21
1236.200000
0
LINE
8
0
10
742.589000
20
1236.200000
11
742.973000
21
1237.120000
0
LINE
8
0
10
742.973000
20
1237.120000
11
743.261000
21
1238.070000
0
LINE
8
0
10
743.261000
20
1238.070000
11
743.443000
21
1239.050000
0
LINE
8
0
10
743.443000
20
1239.050000
11
743.530000
21
1240.050000
0
LINE
8
0
10
743.530000
20
1240.050000
11
743.510000
21
1241.050000
0
LINE
8
0
10
743.510000
20
1241.050000
11
743.491000
21
1241.300000
0
LINE
8
0
10
733.939000
20
1230.750000
11
734.698000
21
1230.780000
0
LINE
8
0
10
734.698000
20
1230.780000
11
735.686000
21
1230.920000
0
LINE
8
0
10
735.686000
20
1230.920000
11
736.656000
21
1231.150000
0
LINE
8
0
10
736.656000
20
1231.150000
11
737.597000
21
1231.480000
0
LINE
8
0
10
737.597000
20
1231.480000
11
738.499000
21
1231.900000
0
LINE
8
0
10
738.499000
20
1231.900000
11
739.354000
21
1232.420000
0
LINE
8
0
10
739.354000
20
1232.420000
11
740.141000
21
1233.030000
0
LINE
8
0
10
740.141000
20
1233.030000
11
740.880000
21
1233.730000
0
LINE
8
0
10
740.880000
20
1233.730000
11
741.053000
21
1233.910000
0
LINE
8
0
10
215.059000
20
1240.340000
11
215.078000
21
1239.350000
0
LINE
8
0
10
215.078000
20
1239.350000
11
215.203000
21
1238.390000
0
LINE
8
0
10
215.203000
20
1238.390000
11
215.414000
21
1237.450000
0
LINE
8
0
10
215.414000
20
1237.450000
11
215.712000
21
1236.560000
0
LINE
8
0
10
215.712000
20
1236.560000
11
216.096000
21
1235.700000
0
LINE
8
0
10
216.096000
20
1235.700000
11
216.547000
21
1234.880000
0
LINE
8
0
10
216.547000
20
1234.880000
11
217.085000
21
1234.110000
0
LINE
8
0
10
217.085000
20
1234.110000
11
217.680000
21
1233.400000
0
LINE
8
0
10
217.680000
20
1233.400000
11
218.342000
21
1232.760000
0
LINE
8
0
10
218.342000
20
1232.760000
11
219.072000
21
1232.160000
0
LINE
8
0
10
219.072000
20
1232.160000
11
219.850000
21
1231.660000
0
LINE
8
0
10
219.850000
20
1231.660000
11
220.675000
21
1231.200000
0
LINE
8
0
10
220.675000
20
1231.200000
11
221.558000
21
1230.840000
0
LINE
8
0
10
221.558000
20
1230.840000
11
222.470000
21
1230.560000
0
LINE
8
0
10
222.470000
20
1230.560000
11
223.430000
21
1230.370000
0
LINE
8
0
10
223.430000
20
1230.370000
11
224.410000
21
1230.270000
0
LINE
8
0
10
215.059000
20
1240.340000
11
214.829000
21
1300.820000
0
LINE
8
0
10
733.939000
20
1230.740000
11
224.429000
21
1230.260000
0
LINE
8
0
10
224.899000
20
1310.180000
11
223.910000
21
1310.160000
0
LINE
8
0
10
223.910000
20
1310.160000
11
222.941000
21
1310.040000
0
LINE
8
0
10
222.941000
20
1310.040000
11
222.010000
21
1309.830000
0
LINE
8
0
10
222.010000
20
1309.830000
11
221.107000
21
1309.530000
0
LINE
8
0
10
221.107000
20
1309.530000
11
220.243000
21
1309.150000
0
LINE
8
0
10
220.243000
20
1309.150000
11
219.427000
21
1308.700000
0
LINE
8
0
10
219.427000
20
1308.700000
11
218.669000
21
1308.160000
0
LINE
8
0
10
218.669000
20
1308.160000
11
217.958000
21
1307.560000
0
LINE
8
0
10
217.958000
20
1307.560000
11
217.306000
21
1306.900000
0
LINE
8
0
10
217.306000
20
1306.900000
11
216.720000
21
1306.170000
0
LINE
8
0
10
216.720000
20
1306.170000
11
216.202000
21
1305.390000
0
LINE
8
0
10
216.202000
20
1305.390000
11
215.760000
21
1304.570000
0
LINE
8
0
10
215.760000
20
1304.570000
11
215.395000
21
1303.680000
0
LINE
8
0
10
215.395000
20
1303.680000
11
215.117000
21
1302.770000
0
LINE
8
0
10
215.117000
20
1302.770000
11
214.925000
21
1301.810000
0
LINE
8
0
10
214.925000
20
1301.810000
11
214.819000
21
1300.830000
0
LINE
8
0
10
215.539000
20
1320.260000
11
215.568000
21
1319.270000
0
LINE
8
0
10
215.568000
20
1319.270000
11
215.683000
21
1318.300000
0
LINE
8
0
10
215.683000
20
1318.300000
11
215.894000
21
1317.370000
0
LINE
8
0
10
215.894000
20
1317.370000
11
216.202000
21
1316.470000
0
LINE
8
0
10
216.202000
20
1316.470000
11
216.576000
21
1315.620000
0
LINE
8
0
10
216.576000
20
1315.620000
11
217.037000
21
1314.800000
0
LINE
8
0
10
217.037000
20
1314.800000
11
217.565000
21
1314.030000
0
LINE
8
0
10
217.565000
20
1314.030000
11
218.170000
21
1313.320000
0
LINE
8
0
10
218.170000
20
1313.320000
11
218.832000
21
1312.670000
0
LINE
8
0
10
218.832000
20
1312.670000
11
219.562000
21
1312.080000
0
LINE
8
0
10
219.562000
20
1312.080000
11
220.339000
21
1311.570000
0
LINE
8
0
10
220.339000
20
1311.570000
11
221.165000
21
1311.120000
0
LINE
8
0
10
221.165000
20
1311.120000
11
222.038000
21
1310.760000
0
LINE
8
0
10
222.038000
20
1310.760000
11
222.960000
21
1310.480000
0
LINE
8
0
10
222.960000
20
1310.480000
11
223.910000
21
1310.290000
0
LINE
8
0
10
223.910000
20
1310.290000
11
224.899000
21
1310.180000
0
LINE
8
0
10
442.099000
20
1583.030000
11
441.053000
21
1583.000000
0
LINE
8
0
10
407.251000
20
1527.800000
11
407.539000
21
1528.340000
0
LINE
8
0
10
406.733000
20
1527.000000
11
407.251000
21
1527.800000
0
LINE
8
0
10
406.128000
20
1526.220000
11
406.733000
21
1527.000000
0
LINE
8
0
10
405.437000
20
1525.480000
11
406.128000
21
1526.220000
0
LINE
8
0
10
404.669000
20
1524.800000
11
405.437000
21
1525.480000
0
LINE
8
0
10
403.843000
20
1524.180000
11
404.669000
21
1524.800000
0
LINE
8
0
10
215.309000
20
1513.430000
11
215.549000
21
1320.250000
0
LINE
8
0
10
359.155000
20
1308.670000
11
359.213000
21
1308.200000
0
LINE
8
0
10
358.781000
20
1309.400000
11
359.155000
21
1308.670000
0
LINE
8
0
10
358.138000
20
1309.900000
11
358.781000
21
1309.400000
0
LINE
8
0
10
357.322000
20
1310.090000
11
358.138000
21
1309.900000
0
LINE
8
0
10
224.909000
20
1310.180000
11
281.722000
21
1310.090000
0
LINE
8
0
10
281.722000
20
1310.090000
11
289.286000
21
1310.090000
0
LINE
8
0
10
289.286000
20
1310.090000
11
357.322000
21
1310.090000
0
LINE
8
0
10
360.634000
20
1292.190000
11
361.104000
21
1292.140000
0
LINE
8
0
10
359.894000
20
1292.570000
11
360.634000
21
1292.190000
0
LINE
8
0
10
359.395000
20
1293.200000
11
359.894000
21
1292.570000
0
LINE
8
0
10
359.213000
20
1294.030000
11
359.395000
21
1293.200000
0
LINE
8
0
10
359.213000
20
1308.200000
11
359.213000
21
1294.030000
0
LINE
8
0
10
430.963000
20
1290.710000
11
431.030000
21
1290.240000
0
LINE
8
0
10
430.598000
20
1291.440000
11
430.963000
21
1290.710000
0
LINE
8
0
10
429.955000
20
1291.940000
11
430.598000
21
1291.440000
0
LINE
8
0
10
429.139000
20
1292.140000
11
429.955000
21
1291.940000
0
LINE
8
0
10
361.104000
20
1292.140000
11
429.139000
21
1292.140000
0
LINE
8
0
10
432.442000
20
1283.690000
11
432.912000
21
1283.630000
0
LINE
8
0
10
431.712000
20
1284.060000
11
432.442000
21
1283.690000
0
LINE
8
0
10
431.213000
20
1284.700000
11
431.712000
21
1284.060000
0
LINE
8
0
10
431.030000
20
1285.520000
11
431.213000
21
1284.700000
0
LINE
8
0
10
431.030000
20
1290.240000
11
431.030000
21
1285.520000
0
LINE
8
0
10
498.998000
20
1285.040000
11
499.066000
21
1285.520000
0
LINE
8
0
10
498.634000
20
1284.310000
11
498.998000
21
1285.040000
0
LINE
8
0
10
497.990000
20
1283.810000
11
498.634000
21
1284.310000
0
LINE
8
0
10
497.174000
20
1283.630000
11
497.990000
21
1283.810000
0
LINE
8
0
10
432.912000
20
1283.630000
11
497.174000
21
1283.630000
0
LINE
8
0
10
500.477000
20
1292.070000
11
500.957000
21
1292.140000
0
LINE
8
0
10
499.747000
20
1291.700000
11
500.477000
21
1292.070000
0
LINE
8
0
10
499.248000
20
1291.060000
11
499.747000
21
1291.700000
0
LINE
8
0
10
499.066000
20
1290.240000
11
499.248000
21
1291.060000
0
LINE
8
0
10
499.066000
20
1285.520000
11
499.066000
21
1290.240000
0
LINE
8
0
10
570.816000
20
1293.550000
11
570.883000
21
1294.030000
0
LINE
8
0
10
570.451000
20
1292.820000
11
570.816000
21
1293.550000
0
LINE
8
0
10
569.808000
20
1292.320000
11
570.451000
21
1292.820000
0
LINE
8
0
10
568.992000
20
1292.140000
11
569.808000
21
1292.320000
0
LINE
8
0
10
500.957000
20
1292.140000
11
568.992000
21
1292.140000
0
LINE
8
0
10
572.294000
20
1301.520000
11
572.765000
21
1301.580000
0
LINE
8
0
10
571.565000
20
1301.150000
11
572.294000
21
1301.520000
0
LINE
8
0
10
571.066000
20
1300.520000
11
571.565000
21
1301.150000
0
LINE
8
0
10
570.883000
20
1299.690000
11
571.066000
21
1300.520000
0
LINE
8
0
10
570.883000
20
1294.030000
11
570.883000
21
1299.690000
0
LINE
8
0
10
642.634000
20
1303.000000
11
642.691000
21
1303.470000
0
LINE
8
0
10
642.259000
20
1302.270000
11
642.634000
21
1303.000000
0
LINE
8
0
10
641.626000
20
1301.760000
11
642.259000
21
1302.270000
0
LINE
8
0
10
640.810000
20
1301.580000
11
641.626000
21
1301.760000
0
LINE
8
0
10
572.765000
20
1301.580000
11
640.810000
21
1301.580000
0
LINE
8
0
10
642.691000
20
1303.470000
11
642.691000
21
1308.140000
0
LINE
8
0
10
642.691000
20
1308.140000
11
642.691000
21
1369.600000
0
LINE
8
0
10
642.691000
20
1369.600000
11
642.240000
21
1525.580000
0
LINE
8
0
10
733.939000
20
1230.740000
11
224.429000
21
1230.260000
0
LINE
8
0
10
215.059000
20
1240.340000
11
215.078000
21
1239.350000
0
LINE
8
0
10
215.078000
20
1239.350000
11
215.203000
21
1238.390000
0
LINE
8
0
10
215.203000
20
1238.390000
11
215.414000
21
1237.450000
0
LINE
8
0
10
215.414000
20
1237.450000
11
215.712000
21
1236.560000
0
LINE
8
0
10
215.712000
20
1236.560000
11
216.096000
21
1235.700000
0
LINE
8
0
10
216.096000
20
1235.700000
11
216.547000
21
1234.880000
0
LINE
8
0
10
216.547000
20
1234.880000
11
217.085000
21
1234.110000
0
LINE
8
0
10
217.085000
20
1234.110000
11
217.680000
21
1233.400000
0
LINE
8
0
10
217.680000
20
1233.400000
11
218.352000
21
1232.750000
0
LINE
8
0
10
218.352000
20
1232.750000
11
219.072000
21
1232.160000
0
LINE
8
0
10
219.072000
20
1232.160000
11
219.850000
21
1231.650000
0
LINE
8
0
10
219.850000
20
1231.650000
11
220.685000
21
1231.200000
0
LINE
8
0
10
220.685000
20
1231.200000
11
221.558000
21
1230.840000
0
LINE
8
0
10
221.558000
20
1230.840000
11
222.470000
21
1230.560000
0
LINE
8
0
10
222.470000
20
1230.560000
11
223.430000
21
1230.370000
0
LINE
8
0
10
223.430000
20
1230.370000
11
224.419000
21
1230.270000
0
LINE
8
0
10
741.053000
20
1233.910000
11
741.542000
21
1234.500000
0
LINE
8
0
10
741.542000
20
1234.500000
11
742.109000
21
1235.320000
0
LINE
8
0
10
742.109000
20
1235.320000
11
742.589000
21
1236.200000
0
LINE
8
0
10
742.589000
20
1236.200000
11
742.973000
21
1237.120000
0
LINE
8
0
10
742.973000
20
1237.120000
11
743.261000
21
1238.070000
0
LINE
8
0
10
743.261000
20
1238.070000
11
743.443000
21
1239.050000
0
LINE
8
0
10
743.443000
20
1239.050000
11
743.530000
21
1240.050000
0
LINE
8
0
10
743.530000
20
1240.050000
11
743.520000
21
1240.800000
0
LINE
8
0
10
743.520000
20
1240.800000
11
743.491000
21
1241.300000
0
LINE
8
0
10
733.939000
20
1230.750000
11
734.698000
21
1230.780000
0
LINE
8
0
10
734.698000
20
1230.780000
11
735.686000
21
1230.920000
0
LINE
8
0
10
735.686000
20
1230.920000
11
736.656000
21
1231.150000
0
LINE
8
0
10
736.656000
20
1231.150000
11
737.597000
21
1231.480000
0
LINE
8
0
10
737.597000
20
1231.480000
11
738.499000
21
1231.900000
0
LINE
8
0
10
738.499000
20
1231.900000
11
739.354000
21
1232.420000
0
LINE
8
0
10
739.354000
20
1232.420000
11
740.141000
21
1233.040000
0
LINE
8
0
10
740.141000
20
1233.040000
11
740.698000
21
1233.550000
0
LINE
8
0
10
740.698000
20
1233.550000
11
741.053000
21
1233.910000
0
LINE
8
0
10
224.909000
20
1522.580000
11
398.419000
21
1522.580000
 0 
ENDSEC
 0 
EOF