<svg version="1.1" xmlns="http://www.w3.org/2000/svg" xmlns:xlink="http://www.w3.org/1999/xlink" stroke-linecap="round" stroke-linejoin="round" stroke-width="0" fill-rule="evenodd" clip-rule="evenodd" id="thaEY8iPjsnh_top" viewBox="58117.7 -144067.741 134017.62699999998 98091.241" width="134.01762699999998mm" height="98.091241mm"><defs><style>.thaEY8iPjsnh_fr4 {color: #666666;}
.thaEY8iPjsnh_cu {color: #cccccc;}
.thaEY8iPjsnh_cf {color: #cc9933;}
.thaEY8iPjsnh_sm {color: #000000; opacity: 0.75;}
.thaEY8iPjsnh_ss {color: #ffffff;}
.thaEY8iPjsnh_sp {color: #999999;}
.thaEY8iPjsnh_out {color: #000000;}</style><rect x="-750" y="-7500" width="1500" height="15000" rx="750" ry="750" id="IsxYxqcrk8RY_pad-11"/><rect x="-7500" y="-750" width="15000" height="1500" rx="750" ry="750" id="IsxYxqcrk8RY_pad-12"/><circle cx="0" cy="0" r="2200" id="IsxYxqcrk8RY_pad-13"/><circle cx="0" cy="0" r="43.3" id="ltXIfizC2Peo_pad-1"/><g id="thaEY8iPjsnh_top_copper"><path d="M 106625.041 -107236.388 107345.354 -107236.388 M 105713.323 -105930.14 106625.041 -107236.388 M 105707.071 -105930.14 105713.323 -105930.14 M 105707.071 -107236.388 105707.071 -105930.14 M 105119.571 -107236.388 105707.071 -107236.388 M 105119.571 -103939.512 105119.571 -107236.388 M 106684.416 -104189.512 106511.207 -104078.263 106295.32 -104000.346 106071.655 -103958.529 105854.283 -103941.603 105736.76 -103939.512 M 109078.165 -103905.92 111405.508 -106341.856 M 111300.04 -106077.796 108972.696 -103643.42 M 111300.04 -103939.512 111300.04 -106077.796 M 111887.54 -103939.512 111300.04 -103939.512 M 111887.54 -107509.828 111887.54 -103939.512 M 109560.196 -105080.92 111887.54 -107509.828 M 109560.196 -107236.388 109560.196 -105080.92 M 109025.821 -107236.388 109560.196 -107236.388 M 108972.696 -107236.388 109025.821 -107236.388 M 101590.666 -104331.7 101371.705 -104349.3 101167.029 -104401.859 100977.415 -104489.011 100803.644 -104610.394 100711.759 -104694.984 M 100450.821 -104453.576 100451.621 -104453.576 M 106293.79 -104609.828 106414.765 -104773.549 106438.321 -104934.828 M 105825.82 -104497.328 106026.695 -104511.396 106221.562 -104567.327 106293.79 -104609.828 M 105825.82 -104391.856 105600.821 -104391.856 M 105653.946 -105510.608 105807.07 -105510.608 M 105600.821 -105510.608 105653.946 -105510.608 M 105600.821 -104391.856 105600.821 -105510.608 M 106356.29 -104524.672 106162.584 -104432.597 105948.903 -104396.26 105825.82 -104391.856 M 106544.571 -104934.828 106508.201 -104724.806 106389.7 -104551.787 106356.29 -104524.672 M 106352.383 -105369.2 106483.524 -105212.068 106539.843 -105019.326 106544.571 -104934.828 M 105807.07 -105510.608 106011.901 -105497.448 106216.678 -105445.201 106352.383 -105369.2 M 105225.04 -107130.932 105225.04 -104044.984 M 105600.821 -107130.932 105225.04 -107130.932 M 105600.821 -105824.684 105600.821 -107130.932 M 105768.79 -105824.684 105600.821 -105824.684 M 106679.727 -107130.932 105768.79 -105824.684 M 107137.54 -107130.932 106679.727 -107130.932 M 106210.977 -105854.368 107137.54 -107130.932 M 106163.321 -105788.744 106210.977 -105854.368 M 106242.227 -105771.544 106163.321 -105788.744 M 105225.04 -104044.984 105736.758 -104044.984 M 106725.04 -105478.576 106571.741 -105627.318 106385.582 -105729.112 106242.227 -105771.544 M 106907.852 -104928.576 106886.3 -105139.093 106813.505 -105342.548 106725.04 -105478.576 M 106616.446 -104269.984 106757.993 -104422.596 106852.58 -104599.731 106900.834 -104803.324 106907.852 -104928.576 M 105736.758 -104044.984 105957.284 -104053.25 106181.972 -104083.34 106396.024 -104143.73 106582.704 -104243.423 106616.446 -104269.984 M 105736.76 -103939.512 105119.571 -103939.512 M 107345.354 -107236.388 106328.166 -105837.168 M 101590.666 -104437.952 101793.2 -104453.649 102005.102 -104510.256 102197.292 -104608.478 102370.977 -104748.7 102391.447 -104769.2 M 102764.38 -106759.896 102605.001 -106898.645 102435.63 -107013.877 102256.267 -107105.593 102066.911 -107173.791 101867.564 -107218.473 101658.225 -107239.638 101571.692 -107241.52 M 103256.338 -105592.012 103244.327 -105802.017 103208.295 -106001.828 103133.348 -106228.146 103023.81 -106439.785 102906.106 -106604.937 102764.38 -106759.896 M 102766.447 -104419.996 102907.577 -104577.235 103024.787 -104744.062 103133.865 -104956.912 103208.497 -105183.568 103244.377 -105382.996 103256.338 -105592.012 M 102801.602 -106798.108 102947.392 -106638.464 103068.725 -106467.724 103165.498 -106286.173 103237.606 -106094.094 103284.946 -105891.773 103307.414 -105679.492 103309.415 -105591.856 M 101571.915 -107294.2 101791.184 -107282.03 102000.766 -107245.564 102200.414 -107184.866 102389.882 -107100 102568.924 -106991.032 102737.296 -106858.026 102801.602 -106798.108 M 100426.602 -106853.576 100587.742 -106980.081 100790.206 -107103.864 101002.252 -107196.93 101223.518 -107259.125 101453.643 -107290.296 101571.915 -107294.2 M 99867.227 -105573.108 99880.958 -105811.812 99922.097 -106036.716 99990.56 -106247.475 100086.264 -106443.741 100209.127 -106625.168 100359.064 -106791.409 100426.602 -106853.576 M 100377.384 -104377.796 100231.074 -104538.139 100109.231 -104708.636 100011.991 -104889.038 99939.489 -105079.092 99891.86 -105278.549 99869.241 -105487.158 99867.227 -105573.108 M 101596.134 -103879.356 101379.263 -103891.596 101171.875 -103928.264 100974.181 -103989.281 100786.393 -104074.567 100608.722 -104184.043 100441.381 -104317.628 100377.384 -104377.796 M 100749.006 -104732.116 100615.305 -104889.951 100514.443 -105063.217 100446.42 -105251.912 100411.236 -105456.037 100405.875 -105579.608 M 101590.295 -104384.852 101379.768 -104401.469 101184.079 -104451.32 100978.601 -104548.989 100814.705 -104670.056 100749.006 -104732.116 M 102429.518 -104732.116 102273.491 -104596.805 102076.282 -104482.859 101858.918 -104412.321 101652.193 -104386.208 101590.295 -104384.852 M 102770.581 -105587.876 102754.26 -105372.417 102705.299 -105172.785 102623.697 -104988.979 102509.454 -104820.999 102429.518 -104732.116 M 102425.384 -106443.636 102559.889 -106282.578 102661.358 -106106.882 102729.791 -105916.548 102765.187 -105711.575 102770.581 -105587.876 M 101577.893 -106790.9 101790.128 -106774.282 101987.33 -106724.431 102169.497 -106641.345 102336.629 -106525.025 102425.384 -106443.636 M 100761.408 -106449.836 100921.291 -106582.731 101116.853 -106694.642 101326.11 -106763.921 101549.061 -106790.566 101577.893 -106790.9 M 100405.875 -105579.608 100422.887 -105802.116 100473.926 -106006.622 100558.99 -106193.127 100678.079 -106361.63 100761.408 -106449.836 M 96448.477 -104391.856 96448.477 -104044.984 M 97182.852 -104391.856 96448.477 -104391.856 M 102728.946 -104457.484 102866.123 -104610.121 102999.683 -104804.842 103099.555 -105012.589 103165.94 -105233.806 103199.037 -105468.935 103203.165 -105591.856 M 101596.134 -103984.828 101798.447 -103996.281 102028.414 -104040.355 102244.791 -104117.671 102447.985 -104228.396 102638.402 -104372.693 102728.946 -104457.484 M 102803.946 -104382.484 102642.142 -104238.034 102469.976 -104117.819 102287.715 -104021.94 102095.628 -103950.499 101893.983 -103903.597 101683.048 -103881.337 101596.134 -103879.356 M 108972.696 -103643.42 108972.696 -107236.388 M 109507.1 -107183.644 109025.477 -107183.644 M 109507.1 -104949.16 109507.1 -107183.644 M 111834.599 -107377.944 109507.1 -104949.16 M 111834.599 -103992.116 111834.599 -107377.944 M 111352.976 -103992.116 111834.599 -103992.116 M 101596.496 -103932.172 101804.916 -103944.081 102003.85 -103979.811 102230.047 -104054.128 102442.582 -104162.745 102609.258 -104279.46 102766.447 -104419.996 M 100414.143 -104415.86 100572.724 -104276.515 100740.995 -104160.789 100918.955 -104068.681 101145.297 -103989.326 101344.574 -103949.176 101553.54 -103932.644 101596.496 -103932.172 M 103309.415 -105591.856 103296.974 -105376.714 103259.726 -105170.91 103197.782 -104974.688 103111.254 -104788.291 103000.252 -104611.963 102864.888 -104445.948 102803.946 -104382.484 M 105654.117 -105457.656 105807.077 -105457.656 M 106491.272 -104934.692 106449.672 -104720.363 106303.424 -104552.441 106116.877 -104475.418 105906.28 -104446.713 105825.681 -104444.8 M 105807.077 -105457.656 106039.596 -105439.27 106250.066 -105371.346 106410.424 -105232.434 106485.258 -105028.151 106491.272 -104934.692 M 106253.56 -105823.524 106253.56 -105823.524 M 105172.494 -103992.116 105736.799 -103992.116 M 105172.494 -107183.644 105172.494 -103992.116 M 105654.117 -107183.644 105172.494 -107183.644 M 105654.117 -105877.268 105654.117 -107183.644 M 105740.933 -105877.268 105654.117 -105877.268 M 100725.04 -106487.952 100891.287 -106625.919 101069.448 -106730.606 101258.935 -106801.614 101459.158 -106838.547 101578.166 -106844.2 M 100353.166 -105579.356 100371.076 -105810.254 100424.677 -106023.841 100513.775 -106219.313 100638.177 -106395.867 100725.04 -106487.952 M 100711.759 -104694.984 100572.491 -104859.666 100467.101 -105041.015 100395.804 -105238.384 100358.815 -105451.131 100353.166 -105579.356 M 106288.321 -105284.828 106093 -105373.401 105887.17 -105402.371 105807.07 -105404.356 M 106438.321 -104934.828 106401.011 -105142.06 106288.321 -105284.828 M 109078.165 -107130.92 109078.165 -103905.92 M 109453.946 -107130.92 109078.165 -107130.92 M 109453.946 -104817.64 109453.946 -107130.92 M 111782.071 -107246.544 109453.946 -104817.64 M 106652.502 -107183.644 105740.933 -105877.268 M 107241.612 -107183.644 106652.502 -107183.644 M 106253.56 -105823.524 107241.612 -107183.644 M 106766.19 -105511.4 106617.951 -105658.327 106440.402 -105763.732 106253.56 -105823.524 M 106960.493 -104928.488 106941.518 -105131.077 106876.813 -105332.474 106766.19 -105511.4 M 106650.435 -104229.828 106800.316 -104392.062 106901.145 -104581.111 106952.923 -104796.975 106960.493 -104928.488 M 105736.799 -103992.116 105961.639 -104000.472 106161.771 -104025.543 106364.031 -104075.918 106554.006 -104161.346 106650.435 -104229.828 M 100786.759 -104769.2 100960.105 -104623.617 101151.191 -104520.176 101361.038 -104458.434 101560.845 -104438.271 101590.666 -104437.952 M 100458.634 -105579.356 100474.241 -105374.77 100530.438 -105160.417 100627.779 -104965.817 100766.497 -104789.923 100786.759 -104769.2 M 100797.697 -106411.388 100665.135 -106260.317 100553.884 -106067.226 100485.264 -105851.217 100459.946 -105642.489 100458.634 -105579.356 M 101578.184 -106737.952 101363.584 -106717.773 101162.708 -106656.93 100974.649 -106554.956 100798.497 -106411.388 M 102387.559 -106406.7 102213.199 -106552.286 102020.965 -106655.729 101809.684 -106717.47 101608.267 -106737.632 101578.184 -106737.952 M 102718.028 -105587.952 102702.321 -105792.929 102645.747 -106008.778 102547.721 -106205.951 102407.974 -106385.454 102387.559 -106406.7 M 102392.247 -104769.2 102535.206 -104944.093 102636.965 -105138.173 102697.81 -105352.454 102717.712 -105557.319 102718.028 -105587.952 M 97076.602 -107236.388 97664.102 -107236.388 M 97076.602 -104497.328 97076.602 -107236.388 M 96343.008 -104497.328 97076.602 -104497.328 M 101571.915 -107188.732 101351.563 -107174.275 101140.122 -107130.787 100937.316 -107058.091 100742.87 -106956.01 100556.506 -106824.368 100496.134 -106773.888 M 102727.384 -106722.328 102572.674 -106857.172 102374.867 -106988.508 102163.38 -107086.754 101937.772 -107152.084 101738.659 -107181.503 101571.915 -107188.732 M 99920.118 -105573.408 99932.179 -105367.471 99978.494 -105132.602 100059.544 -104911.105 100175.332 -104702.978 100298.355 -104539.753 100414.143 -104415.86 M 98396.134 -103939.512 96343.008 -103939.512 M 107013.323 -104928.576 106992.527 -104711.806 106930.46 -104515.424 106827.597 -104340.851 106684.416 -104189.512 M 106807.854 -105544.2 106916.206 -105372.778 106984.428 -105181.784 107012.52 -104972.51 107013.323 -104928.576 M 106328.166 -105837.168 106530.962 -105760.22 106708.424 -105646.239 106807.854 -105544.2 M 105654.117 -104444.8 105654.117 -105457.656 M 105825.681 -104444.8 105654.117 -104444.8 M 102467.246 -104694.984 102304.374 -104553.979 102124.757 -104447.213 101929.065 -104374.945 101717.968 -104337.432 101590.684 -104331.7 M 102823.496 -105587.952 102806.341 -105364.251 102754.998 -105155.829 102669.647 -104963.392 102550.467 -104787.645 102467.246 -104694.984 M 102463.34 -106480.92 102603.232 -106313.037 102709.082 -106129.183 102780.681 -105930.053 102817.823 -105716.346 102823.496 -105587.952 M 101578.166 -106844.2 101798.794 -106826.639 102004.747 -106774.157 102195.394 -106687.049 102370.104 -106565.611 102462.54 -106480.92 M 100496.134 -106773.888 100344.863 -106623.726 100219.47 -106460.146 100119.858 -106282.837 100045.928 -106091.487 99997.583 -105885.788 99974.725 -105665.427 99972.696 -105573.108 M 111782.071 -104044.984 111782.071 -107246.544 M 111405.508 -104044.984 111782.071 -104044.984 M 111405.508 -106341.856 111405.508 -104044.984 M 103203.165 -105591.856 103191.655 -105795.746 103147.345 -106026.645 103069.57 -106242.917 102958.126 -106444.976 102812.809 -106633.24 102727.384 -106722.328 M 97611.222 -104444.8 97611.222 -107183.644 97129.6 -107183.644 M 98396.134 -104497.328 98396.134 -103939.512 M 97664.102 -104497.328 98396.134 -104497.328 M 97664.102 -107236.388 97664.102 -104497.328 M 97182.852 -107130.92 97182.852 -104391.856 M 97558.634 -107130.92 97182.852 -107130.92 M 97558.634 -104444.984 97558.634 -107130.92 M 97558.634 -104391.856 97558.634 -104444.984 M 98289.884 -104391.856 97558.634 -104391.856 M 98289.884 -104044.984 98289.884 -104391.856 M 96448.477 -104044.984 98289.884 -104044.984 M 100461.685 -106813.64 100305.667 -106658.549 100176.092 -106489.128 100072.962 -106305.374 99996.275 -106107.288 99946.032 -105894.871 99922.233 -105668.121 99920.118 -105573.408 M 101571.692 -107241.52 101344.356 -107226.477 101125.887 -107181.349 100916.283 -107106.135 100715.545 -107000.836 100523.672 -106865.453 100461.685 -106813.64 M 111352.976 -106210.06 111352.976 -103992.116 M 109025.477 -103775.076 111352.976 -106210.06 M 109025.477 -107183.644 109025.477 -103775.076 M 105707.071 -105404.356 105707.071 -104497.328 M 105807.07 -105404.356 105707.071 -105404.356 M 105707.071 -104497.328 105825.82 -104497.328 M 100451.621 -104453.576 100605.539 -104318.107 100801.911 -104186.13 101011.463 -104087.374 101234.675 -104021.687 101472.025 -103988.917 101596.152 -103984.828 M 99972.696 -105573.108 99989.348 -105334.67 100039.451 -105109.902 100123.22 -104898.349 100240.872 -104699.56 100392.622 -104513.079 100450.821 -104453.576 M 98342.958 -103992.116 98342.958 -104444.8 M 96395.797 -103992.116 98342.958 -103992.116 M 96343.008 -103939.512 96343.008 -104497.328 M 98342.958 -104444.8 97611.222 -104444.8 M 97129.6 -107183.644 97129.6 -104444.8 M 96395.797 -104444.8 96395.797 -103992.116 M 97129.6 -104444.8 96395.797 -104444.8" fill="none" stroke-width="200"/><use xlink:href="#IsxYxqcrk8RY_pad-11" x="72910.7" y="-60858.4"/><use xlink:href="#IsxYxqcrk8RY_pad-11" x="59067.7" y="-60858.4"/><use xlink:href="#IsxYxqcrk8RY_pad-12" x="65989.2" y="-67779.9"/><use xlink:href="#IsxYxqcrk8RY_pad-12" x="65989.2" y="-53936.9"/><path d="M 181009.563 -124360.635 172513.737 -134852.105 A 749.9994493 749.9994493 0 0 0 171458.888 -134962.974 L 171458.888 -134962.974 A 749.9994493 749.9994493 0 0 0 171348.019 -133908.125 L 179843.845 -123416.655 A 749.9994493 749.9994493 0 0 0 180898.694 -123305.786 L 180898.694 -123305.786 A 749.9994493 749.9994493 0 0 0 181009.563 -124360.635"/><path d="M 191767.595 -133072.317 183271.769 -143563.787 A 749.9994493 749.9994493 0 0 0 182216.92 -143674.656 L 182216.92 -143674.656 A 749.9994493 749.9994493 0 0 0 182106.051 -142619.807 L 190601.877 -132128.337 A 749.9994493 749.9994493 0 0 0 191656.726 -132017.468 L 191656.726 -132017.468 A 749.9994493 749.9994493 0 0 0 191767.595 -133072.317"/><path d="M 181139.903 -123280.433 191631.373 -131776.259 A 749.9994493 749.9994493 0 0 0 191742.242 -132831.108 L 191742.242 -132831.108 A 749.9994493 749.9994493 0 0 0 190687.393 -132941.977 L 180195.923 -124446.151 A 749.9994493 749.9994493 0 0 0 180085.054 -123391.302 L 180085.054 -123391.302 A 749.9994493 749.9994493 0 0 0 181139.903 -123280.433"/><path d="M 172428.221 -134038.465 182919.691 -142534.291 A 749.9994493 749.9994493 0 0 0 183030.56 -143589.14 L 183030.56 -143589.14 A 749.9994493 749.9994493 0 0 0 181975.711 -143700.009 L 171484.241 -135204.183 A 749.9994493 749.9994493 0 0 0 171373.372 -134149.334 L 171373.372 -134149.334 A 749.9994493 749.9994493 0 0 0 172428.221 -134038.465"/><path d="M 161175.022 -113385.933 155257.012 -125519.652 A 750.0002603 750.0002603 0 0 0 154254.138 -125864.97 L 154254.138 -125864.97 A 750.0002603 750.0002603 0 0 0 153908.82 -124862.096 L 159826.83 -112728.376 A 750.0002603 750.0002603 0 0 0 160829.704 -112383.058 L 160829.704 -112383.058 A 750.0002603 750.0002603 0 0 0 161175.022 -113385.932"/><path d="M 173617.028 -119454.305 167699.018 -131588.024 A 750.0002603 750.0002603 0 0 0 166696.144 -131933.342 L 166696.144 -131933.342 A 750.0002603 750.0002603 0 0 0 166350.826 -130930.468 L 172268.836 -118796.748 A 750.0002603 750.0002603 0 0 0 173271.71 -118451.43 L 173271.71 -118451.43 A 750.0002603 750.0002603 0 0 0 173617.028 -119454.304"/><path d="M 161059.029 -112304.096 173192.748 -118222.106 A 750.0002603 750.0002603 0 0 0 173538.066 -119224.98 L 173538.066 -119224.98 A 750.0002603 750.0002603 0 0 0 172535.192 -119570.298 L 160401.472 -113652.288 A 750.0002603 750.0002603 0 0 0 160056.154 -112649.414 L 160056.154 -112649.414 A 750.0002603 750.0002603 0 0 0 161059.028 -112304.096"/><path d="M 154990.657 -124746.102 167124.376 -130664.112 A 750.0002603 750.0002603 0 0 0 167469.694 -131666.986 L 167469.694 -131666.986 A 750.0002603 750.0002603 0 0 0 166466.82 -132012.304 L 154333.1 -126094.294 A 750.0002603 750.0002603 0 0 0 153987.782 -125091.42 L 153987.782 -125091.42 A 750.0002603 750.0002603 0 0 0 154990.656 -124746.102"/><path d="M 139370.695 -107045.916 136333.856 -120199.912 A 750.0003744 750.0003744 0 0 0 135434.365 -120761.977 L 135434.365 -120761.977 A 750.0003744 750.0003744 0 0 0 134872.3 -119862.486 L 137909.14 -106708.49 A 750.0003744 750.0003744 0 0 0 138808.631 -106146.425 L 138808.631 -106146.425 A 750.0003744 750.0003744 0 0 0 139370.696 -107045.916"/><path d="M 152858.899 -110159.914 149822.06 -123313.91 A 750.0003744 750.0003744 0 0 0 148922.569 -123875.975 L 148922.569 -123875.975 A 750.0003744 750.0003744 0 0 0 148360.504 -122976.484 L 151397.344 -109822.488 A 750.0003744 750.0003744 0 0 0 152296.835 -109260.423 L 152296.835 -109260.423 A 750.0003744 750.0003744 0 0 0 152858.9 -110159.914"/><path d="M 139014.314 -106017.901 152168.31 -109054.74 A 750.0003744 750.0003744 0 0 0 152730.375 -109954.231 L 152730.375 -109954.231 A 750.0003744 750.0003744 0 0 0 151830.884 -110516.296 L 138676.888 -107479.456 A 750.0003744 750.0003744 0 0 0 138114.823 -106579.965 L 138114.823 -106579.965 A 750.0003744 750.0003744 0 0 0 139014.314 -106017.9"/><path d="M 135900.316 -119506.105 149054.312 -122542.944 A 750.0003744 750.0003744 0 0 0 149616.377 -123442.435 L 149616.377 -123442.435 A 750.0003744 750.0003744 0 0 0 148716.886 -124004.5 L 135562.89 -120967.66 A 750.0003744 750.0003744 0 0 0 135000.825 -120068.169 L 135000.825 -120068.169 A 750.0003744 750.0003744 0 0 0 135900.316 -119506.104"/><use xlink:href="#IsxYxqcrk8RY_pad-11" x="129857.5" y="-112725.2"/><use xlink:href="#IsxYxqcrk8RY_pad-11" x="116014.5" y="-112725.2"/><use xlink:href="#IsxYxqcrk8RY_pad-12" x="122936" y="-119646.7"/><use xlink:href="#IsxYxqcrk8RY_pad-12" x="122936" y="-105803.7"/><use xlink:href="#IsxYxqcrk8RY_pad-11" x="167957.5" y="-58470.8"/><use xlink:href="#IsxYxqcrk8RY_pad-11" x="154114.5" y="-58470.8"/><use xlink:href="#IsxYxqcrk8RY_pad-12" x="161036" y="-65392.3"/><use xlink:href="#IsxYxqcrk8RY_pad-12" x="161036" y="-51549.3"/><use xlink:href="#IsxYxqcrk8RY_pad-11" x="167957.5" y="-96570.8"/><use xlink:href="#IsxYxqcrk8RY_pad-11" x="154114.5" y="-96570.8"/><use xlink:href="#IsxYxqcrk8RY_pad-12" x="161036" y="-103492.3"/><use xlink:href="#IsxYxqcrk8RY_pad-12" x="161036" y="-89649.3"/><use xlink:href="#IsxYxqcrk8RY_pad-11" x="167957.5" y="-77520.8"/><use xlink:href="#IsxYxqcrk8RY_pad-11" x="154114.5" y="-77520.8"/><use xlink:href="#IsxYxqcrk8RY_pad-12" x="161036" y="-84442.3"/><use xlink:href="#IsxYxqcrk8RY_pad-12" x="161036" y="-70599.3"/><use xlink:href="#IsxYxqcrk8RY_pad-11" x="148958.3" y="-56184.8"/><use xlink:href="#IsxYxqcrk8RY_pad-11" x="135115.3" y="-56184.8"/><use xlink:href="#IsxYxqcrk8RY_pad-12" x="142036.8" y="-63106.3"/><use xlink:href="#IsxYxqcrk8RY_pad-12" x="142036.8" y="-49263.3"/><use xlink:href="#IsxYxqcrk8RY_pad-11" x="148958.3" y="-94284.8"/><use xlink:href="#IsxYxqcrk8RY_pad-11" x="135115.3" y="-94284.8"/><use xlink:href="#IsxYxqcrk8RY_pad-12" x="142036.8" y="-101206.3"/><use xlink:href="#IsxYxqcrk8RY_pad-12" x="142036.8" y="-87363.3"/><use xlink:href="#IsxYxqcrk8RY_pad-11" x="148958.3" y="-75234.8"/><use xlink:href="#IsxYxqcrk8RY_pad-11" x="135115.3" y="-75234.8"/><use xlink:href="#IsxYxqcrk8RY_pad-12" x="142036.8" y="-82156.3"/><use xlink:href="#IsxYxqcrk8RY_pad-12" x="142036.8" y="-68313.3"/><use xlink:href="#IsxYxqcrk8RY_pad-11" x="129959.1" y="-53848"/><use xlink:href="#IsxYxqcrk8RY_pad-11" x="116116.1" y="-53848"/><use xlink:href="#IsxYxqcrk8RY_pad-12" x="123037.6" y="-60769.5"/><use xlink:href="#IsxYxqcrk8RY_pad-12" x="123037.6" y="-46926.5"/><use xlink:href="#IsxYxqcrk8RY_pad-11" x="129959.1" y="-91897.2"/><use xlink:href="#IsxYxqcrk8RY_pad-11" x="116116.1" y="-91897.2"/><use xlink:href="#IsxYxqcrk8RY_pad-12" x="123037.6" y="-98818.7"/><use xlink:href="#IsxYxqcrk8RY_pad-12" x="123037.6" y="-84975.7"/><use xlink:href="#IsxYxqcrk8RY_pad-11" x="129959.1" y="-72898"/><use xlink:href="#IsxYxqcrk8RY_pad-11" x="116116.1" y="-72898"/><use xlink:href="#IsxYxqcrk8RY_pad-12" x="123037.6" y="-79819.5"/><use xlink:href="#IsxYxqcrk8RY_pad-12" x="123037.6" y="-65976.5"/><use xlink:href="#IsxYxqcrk8RY_pad-11" x="110909.1" y="-56134"/><use xlink:href="#IsxYxqcrk8RY_pad-11" x="97066.1" y="-56134"/><use xlink:href="#IsxYxqcrk8RY_pad-12" x="103987.6" y="-63055.5"/><use xlink:href="#IsxYxqcrk8RY_pad-12" x="103987.6" y="-49212.5"/><use xlink:href="#IsxYxqcrk8RY_pad-11" x="110909.1" y="-94234"/><use xlink:href="#IsxYxqcrk8RY_pad-11" x="97066.1" y="-94234"/><use xlink:href="#IsxYxqcrk8RY_pad-12" x="103987.6" y="-101155.5"/><use xlink:href="#IsxYxqcrk8RY_pad-12" x="103987.6" y="-87312.5"/><use xlink:href="#IsxYxqcrk8RY_pad-11" x="110909.1" y="-75184"/><use xlink:href="#IsxYxqcrk8RY_pad-11" x="97066.1" y="-75184"/><use xlink:href="#IsxYxqcrk8RY_pad-12" x="103987.6" y="-82105.5"/><use xlink:href="#IsxYxqcrk8RY_pad-12" x="103987.6" y="-68262.5"/><use xlink:href="#IsxYxqcrk8RY_pad-11" x="91909.9" y="-98958.4"/><use xlink:href="#IsxYxqcrk8RY_pad-11" x="78066.9" y="-98958.4"/><use xlink:href="#IsxYxqcrk8RY_pad-12" x="84988.4" y="-105879.9"/><use xlink:href="#IsxYxqcrk8RY_pad-12" x="84988.4" y="-92036.9"/><use xlink:href="#IsxYxqcrk8RY_pad-11" x="72910.7" y="-98958.4"/><use xlink:href="#IsxYxqcrk8RY_pad-11" x="59067.7" y="-98958.4"/><use xlink:href="#IsxYxqcrk8RY_pad-12" x="65989.2" y="-105879.9"/><use xlink:href="#IsxYxqcrk8RY_pad-12" x="65989.2" y="-92036.9"/><use xlink:href="#IsxYxqcrk8RY_pad-11" x="91909.9" y="-79908.4"/><use xlink:href="#IsxYxqcrk8RY_pad-11" x="78066.9" y="-79908.4"/><use xlink:href="#IsxYxqcrk8RY_pad-12" x="84988.4" y="-86829.9"/><use xlink:href="#IsxYxqcrk8RY_pad-12" x="84988.4" y="-72986.9"/><use xlink:href="#IsxYxqcrk8RY_pad-11" x="72910.7" y="-79908.4"/><use xlink:href="#IsxYxqcrk8RY_pad-11" x="59067.7" y="-79908.4"/><use xlink:href="#IsxYxqcrk8RY_pad-12" x="65989.2" y="-86829.9"/><use xlink:href="#IsxYxqcrk8RY_pad-12" x="65989.2" y="-72986.9"/><use xlink:href="#IsxYxqcrk8RY_pad-11" x="91909.9" y="-60858.4"/><use xlink:href="#IsxYxqcrk8RY_pad-11" x="78066.9" y="-60858.4"/><use xlink:href="#IsxYxqcrk8RY_pad-12" x="84988.4" y="-67779.9"/><use xlink:href="#IsxYxqcrk8RY_pad-12" x="84988.4" y="-53936.9"/><use xlink:href="#IsxYxqcrk8RY_pad-13" x="75565" y="-70231"/><use xlink:href="#IsxYxqcrk8RY_pad-13" x="151511" y="-66294"/><use xlink:href="#IsxYxqcrk8RY_pad-13" x="133477" y="-113665"/><use xlink:href="#IsxYxqcrk8RY_pad-13" x="172593" y="-127889"/><use xlink:href="#IsxYxqcrk8RY_pad-13" x="75438" y="-89281"/></g><g id="thaEY8iPjsnh_top_soldermask"><path d="M 180939.03 -122948.006 180939.032 -122948.007 180939.033 -122948.007 181112.387 -123018.487 181229.502 -123095.637 191793.501 -131650.195 191893.317 -131748.712 191967.696 -131858.467 191998.298 -131903.623 192071.041 -132076.04 192104.935 -132240.796 192108.749 -132259.337 192109.482 -132371.337 192111.53 -132390.825 192122.976 -132446.465 192134.102 -132500.547 192135.327 -132687.676 192100.022 -132871.446 192029.541 -133044.803 191952.391 -133161.917 183397.832 -143725.915 183299.315 -143825.731 183144.406 -143930.711 183144.405 -143930.712 183144.404 -143930.712 182971.987 -144003.455 182788.692 -144041.163 182676.689 -144041.896 182657.203 -144043.944 182547.483 -144066.516 182360.353 -144067.741 182360.352 -144067.741 182176.582 -144032.436 182003.225 -143961.955 181886.111 -143884.805 171322.113 -135330.246 171222.297 -135231.729 171117.317 -135076.82 171090.912 -135014.234 171044.573 -134904.401 171006.865 -134721.106 171006.132 -134609.106 171004.083 -134589.611 170981.512 -134479.896 170980.656 -134349.029 173200.158 -134349.029 173200.286 -134368.632 173204.236 -134387.833 173211.856 -134405.894 173222.854 -134422.122 173236.806 -134435.893 182362.834 -141826.004 182379.204 -141836.788 182397.364 -141844.171 182416.615 -141847.869 182436.218 -141847.741 182455.419 -141843.791 182473.48 -141836.171 182489.708 -141825.173 182503.479 -141811.221 189893.59 -132685.194 189904.374 -132668.824 189911.757 -132650.664 189915.455 -132631.413 189915.327 -132611.81 189911.377 -132592.609 189903.757 -132574.548 189892.759 -132558.32 189878.807 -132544.549 180752.781 -125154.438 180736.411 -125143.654 180718.251 -125136.271 180699 -125132.573 180679.397 -125132.701 180660.196 -125136.651 180642.135 -125144.271 180625.907 -125155.269 180612.136 -125169.221 173222.023 -134295.248 173211.239 -134311.618 173203.856 -134329.778 173200.158 -134349.029 170980.656 -134349.029 170980.287 -134292.767 171015.592 -134108.998 171051.541 -134020.578 171086.073 -133935.641 171117.858 -133887.391 171163.223 -133818.526 179717.781 -123254.527 179816.298 -123154.711 179971.209 -123049.73 179985.17 -123043.84 180143.626 -122976.987 180326.921 -122939.279 180438.922 -122938.546 180458.414 -122936.497 180568.131 -122913.926 180755.26 -122912.701 180755.261 -122912.701 180939.03 -122948.006"/><path d="M 160973.291 -112055.053 161104.75 -112103.877 173322.371 -118062.807 173441.783 -118136.342 173578.919 -118263.665 173688.584 -118415.301 173766.558 -118585.413 173792.469 -118694.388 173798.851 -118712.923 173845.52 -118814.74 173876.793 -118946.268 173888.808 -118996.799 173895.747 -119183.803 173866.07 -119368.569 173831.938 -119460.468 173817.244 -119500.033 173817.242 -119500.037 170523.312 -126253.595 170424.551 -126456.084 170417.726 -126474.461 170414.618 -126493.816 170415.344 -126513.406 170419.879 -126532.477 170428.047 -126550.298 170439.535 -126566.182 170453.901 -126579.52 170470.593 -126589.8 170488.97 -126596.625 170508.325 -126599.733 170527.915 -126599.007 170546.986 -126594.472 170564.807 -126586.304 170580.691 -126574.816 170597.576 -126555.477 170625.687 -126513.406 170728.798 -126359.089 171063.089 -126024.798 171456.174 -125762.147 171892.946 -125581.23 172356.621 -125489 172829.379 -125489 173293.054 -125581.23 173729.826 -125762.147 174122.911 -126024.798 174457.202 -126359.089 174719.853 -126752.174 174900.77 -127188.946 174993 -127652.621 174993 -128125.379 174900.77 -128589.054 174719.853 -129025.826 174457.202 -129418.911 174122.911 -129753.202 173729.826 -130015.853 173293.054 -130196.77 172829.379 -130289 172356.621 -130289 171892.946 -130196.77 171456.174 -130015.853 171063.089 -129753.202 170728.798 -129418.911 170466.147 -129025.826 170285.23 -128589.054 170193 -128125.379 170193 -127652.621 170284.728 -127191.47 170286.648 -127171.971 170284.727 -127152.462 170279.036 -127133.703 170269.795 -127116.415 170257.359 -127101.261 170242.205 -127088.825 170224.917 -127079.584 170206.158 -127073.893 170186.649 -127071.972 170167.14 -127073.893 170148.381 -127079.584 170131.093 -127088.825 170115.939 -127101.261 170103.503 -127116.415 170096.774 -127128.127 169384.232 -128589.054 167858.316 -131717.647 167784.781 -131837.059 167657.458 -131974.195 167505.822 -132083.86 167335.71 -132161.834 167226.737 -132187.744 167208.201 -132194.127 167106.386 -132240.796 166963.878 -132274.679 166924.325 -132284.084 166737.321 -132291.023 166737.319 -132291.023 166675.732 -132281.131 166552.555 -132261.346 166454.903 -132225.077 166421.091 -132212.52 154203.477 -126253.592 154084.065 -126180.057 153946.929 -126052.734 153837.264 -125901.098 153759.29 -125730.986 153733.38 -125622.013 153726.997 -125603.477 153680.328 -125501.662 153637.04 -125319.599 153630.1 -125132.596 153659.777 -124947.833 153694.081 -124855.469 155811.945 -124855.469 155812.671 -124875.059 155817.206 -124894.13 155825.374 -124911.951 155836.862 -124927.835 155851.228 -124941.173 155867.92 -124951.453 157466.2 -125730.986 166422.467 -130099.248 166440.838 -130106.071 166460.193 -130109.179 166479.783 -130108.453 166498.854 -130103.918 166516.675 -130095.75 166532.559 -130084.262 166545.897 -130069.896 166556.177 -130053.204 171703.969 -119498.663 171710.794 -119480.286 171713.902 -119460.931 171713.176 -119441.341 171708.641 -119422.269 171700.473 -119404.449 171688.985 -119388.565 171674.619 -119375.227 171657.927 -119364.947 161103.387 -114217.154 161085.01 -114210.329 161065.655 -114207.221 161046.065 -114207.947 161026.994 -114212.482 161009.173 -114220.65 160993.289 -114232.138 160979.951 -114246.504 160969.672 -114263.194 158799.394 -118712.923 155821.878 -124817.737 155815.053 -124836.114 155811.945 -124855.469 153694.081 -124855.469 153708.601 -124816.374 159667.531 -112598.753 159741.066 -112479.341 159868.389 -112342.205 160020.025 -112232.54 160190.137 -112154.566 160299.112 -112128.655 160317.647 -112122.273 160419.464 -112075.604 160550.992 -112044.331 160601.523 -112032.316 160615.403 -112031.801 160788.528 -112025.376 160973.291 -112055.053"/><path d="M 139013.837 -105812.53 152258.769 -108870.363 152391.666 -108915.152 152553.933 -109008.366 152682.748 -109120.837 152694.898 -109131.446 152809.14 -109279.656 152858.901 -109380.011 152869.29 -109396.636 152937.665 -109485.341 152993.164 -109597.268 153020.798 -109652.997 153042.159 -109732.029 153069.627 -109833.65 153080.911 -110000.255 153082.272 -110020.354 153071.985 -110099.829 153064.27 -110159.439 150110.958 -122951.634 150006.436 -123404.369 149961.646 -123537.267 149868.433 -123699.533 149745.355 -123840.497 149721.12 -123859.177 149597.141 -123954.741 149496.792 -124004.499 149480.166 -124014.888 149391.459 -124083.265 149279.532 -124138.764 149223.803 -124166.398 149126.145 -124192.794 149043.15 -124215.227 148856.45 -124227.872 148856.446 -124227.872 148776.971 -124217.585 148717.361 -124209.87 135472.431 -121152.036 135339.533 -121107.246 135177.267 -121014.033 135116.903 -120961.328 135036.303 -120890.955 135020.248 -120870.126 134922.06 -120742.743 134872.302 -120642.394 134861.913 -120625.769 134793.534 -120537.058 134710.402 -120369.404 134661.573 -120188.75 134648.927 -120002.051 134666.93 -119862.963 134771.883 -119408.36 136723.833 -119408.36 136725.157 -119427.919 136730.272 -119446.843 136738.981 -119464.405 136750.949 -119479.932 136765.715 -119492.825 136782.714 -119502.589 136801.29 -119508.85 148243.319 -122150.45 148262.76 -122152.966 148282.319 -122151.642 148301.243 -122146.527 148318.805 -122137.818 148334.332 -122125.85 148347.225 -122111.084 148356.989 -122094.085 148363.25 -122075.509 151004.85 -110633.481 151007.366 -110614.04 151006.042 -110594.481 151000.927 -110575.557 150992.218 -110557.995 150980.25 -110542.468 150965.484 -110529.575 150948.485 -110519.811 150929.909 -110513.55 139487.881 -107871.949 139468.44 -107869.433 139448.881 -107870.757 139429.957 -107875.872 139412.395 -107884.581 139396.868 -107896.549 139383.975 -107911.315 139374.211 -107928.314 139367.95 -107946.89 136726.349 -119388.919 136723.833 -119408.36 134771.883 -119408.36 135856.214 -114711.607 135858.73 -114692.166 135857.406 -114672.607 135852.291 -114653.683 135843.582 -114636.121 135831.614 -114620.594 135816.848 -114607.701 135799.849 -114597.937 135781.273 -114591.676 135761.832 -114589.16 135742.273 -114590.484 135723.349 -114595.599 135705.787 -114604.308 135690.26 -114616.276 135677.367 -114631.042 135666.394 -114650.838 135603.853 -114801.826 135341.202 -115194.911 135006.911 -115529.202 134613.826 -115791.853 134177.054 -115972.77 133713.379 -116065 133240.621 -116065 132776.946 -115972.77 132340.174 -115791.853 131947.089 -115529.202 131612.798 -115194.911 131350.147 -114801.826 131169.23 -114365.054 131077 -113901.379 131077 -113428.621 131169.23 -112964.946 131350.147 -112528.174 131612.798 -112135.089 131947.089 -111800.798 132340.174 -111538.147 132776.946 -111357.23 133240.621 -111265 133713.379 -111265 134177.054 -111357.23 134613.826 -111538.147 135006.911 -111800.798 135341.202 -112135.089 135603.853 -112528.174 135784.77 -112964.946 135877 -113428.621 135877 -113743.892 135878.921 -113763.401 135884.612 -113782.16 135893.853 -113799.448 135906.289 -113814.602 135921.443 -113827.038 135938.731 -113836.279 135957.49 -113841.97 135976.999 -113843.891 135996.508 -113841.97 136015.267 -113836.279 136032.555 -113827.038 136047.709 -113814.602 136060.145 -113799.448 136069.386 -113782.16 136074.435 -113766.387 137724.763 -106618.031 137769.552 -106485.134 137862.766 -106322.867 137985.846 -106181.902 138134.058 -106067.659 138234.407 -106017.901 138251.033 -106007.512 138339.742 -105939.134 138507.396 -105856.002 138688.05 -105807.173 138874.749 -105794.527 139013.837 -105812.53"/><path d="M 129848.971 -104865.155 129872.232 -104867.446 129931.606 -104885.457 130051.309 -104921.768 130193.868 -104997.968 130216.345 -105009.982 130251.637 -105038.946 130361.002 -105128.698 130432.057 -105215.28 130445.92 -105229.143 130532.502 -105300.198 130620.293 -105407.173 130651.218 -105444.855 130651.219 -105444.857 130739.432 -105609.891 130741.73 -105617.468 130793.754 -105788.968 130794.302 -105794.528 130807.5 -105928.53 130807.5 -119521.87 130793.754 -119661.431 130739.432 -119840.509 130661.307 -119986.669 130651.218 -120005.545 130620.293 -120043.227 130532.502 -120150.202 130445.92 -120221.257 130432.057 -120235.12 130361.002 -120321.702 130272.375 -120394.435 130216.345 -120440.418 130216.343 -120440.419 130051.309 -120528.632 129961.77 -120555.793 129872.232 -120582.954 129848.971 -120585.245 129732.67 -120596.7 116139.33 -120596.7 116023.029 -120585.245 115999.768 -120582.954 115910.23 -120555.793 115820.691 -120528.632 115655.657 -120440.419 115655.655 -120440.418 115599.625 -120394.435 115510.998 -120321.702 115439.941 -120235.117 115426.078 -120221.254 115339.499 -120150.202 115251.708 -120043.227 115220.783 -120005.545 115210.694 -119986.669 115132.569 -119840.509 115078.247 -119661.431 115064.501 -119521.87 115064.501 -106853.699 116964.5 -106853.699 116964.5 -118596.701 116966.421 -118616.21 116972.112 -118634.969 116981.353 -118652.257 116993.789 -118667.411 117008.943 -118679.847 117026.231 -118689.088 117044.99 -118694.779 117064.499 -118696.7 128807.502 -118696.7 128827.011 -118694.779 128845.77 -118689.088 128863.058 -118679.847 128878.212 -118667.411 128890.648 -118652.257 128899.889 -118634.969 128905.58 -118616.21 128907.501 -118596.701 128907.5 -106853.699 128905.579 -106834.19 128899.888 -106815.431 128890.647 -106798.143 128878.211 -106782.989 128863.057 -106770.553 128845.769 -106761.312 128827.01 -106755.621 128807.501 -106753.7 117064.499 -106753.7 117044.99 -106755.621 117026.231 -106761.312 117008.943 -106770.553 116993.789 -106782.989 116981.353 -106798.143 116972.112 -106815.431 116966.421 -106834.19 116964.5 -106853.699 115064.501 -106853.699 115064.5 -105928.531 115076.795 -105803.7 115078.246 -105788.969 115132.568 -105609.893 115132.568 -105609.892 115220.781 -105444.857 115220.782 -105444.855 115251.707 -105407.173 115339.498 -105300.198 115426.08 -105229.143 115439.943 -105215.28 115510.998 -105128.698 115620.363 -105038.946 115655.655 -105009.982 115678.132 -104997.968 115820.691 -104921.768 115940.394 -104885.457 115999.768 -104867.446 116023.029 -104865.155 116139.33 -104853.7 129732.67 -104853.7 129848.971 -104865.155"/><path d="M 91901.371 -91098.355 91924.632 -91100.646 92014.17 -91127.807 92103.709 -91154.968 92249.869 -91233.093 92268.745 -91243.182 92304.037 -91272.146 92413.402 -91361.898 92484.457 -91448.48 92498.32 -91462.343 92584.902 -91533.398 92672.693 -91640.373 92703.618 -91678.055 92703.619 -91678.057 92791.832 -91843.091 92846.154 -92022.169 92859.9 -92161.73 92859.9 -105755.07 92849.959 -105856.002 92846.154 -105894.632 92835.869 -105928.536 92791.832 -106073.709 92777.751 -106100.052 92703.618 -106238.745 92672.693 -106276.427 92584.902 -106383.402 92498.32 -106454.457 92484.457 -106468.32 92413.402 -106554.902 92306.427 -106642.693 92268.745 -106673.618 92268.743 -106673.619 92103.709 -106761.832 92074.959 -106770.553 91924.632 -106816.154 91901.371 -106818.445 91785.07 -106829.9 78191.73 -106829.9 78075.429 -106818.445 78052.168 -106816.154 77901.841 -106770.553 77873.091 -106761.832 77708.057 -106673.619 77708.055 -106673.618 77670.373 -106642.693 77563.398 -106554.902 77492.341 -106468.317 77478.478 -106454.454 77391.899 -106383.402 77304.108 -106276.427 77273.183 -106238.745 77199.05 -106100.052 77184.969 -106073.709 77140.932 -105928.536 77130.647 -105894.632 77126.842 -105856.002 77116.901 -105755.07 77116.901 -93086.899 79016.9 -93086.899 79016.9 -104829.901 79018.821 -104849.41 79024.512 -104868.169 79033.753 -104885.457 79046.189 -104900.611 79061.343 -104913.047 79078.631 -104922.288 79097.39 -104927.979 79116.899 -104929.9 90859.902 -104929.9 90879.411 -104927.979 90898.17 -104922.288 90915.458 -104913.047 90930.612 -104900.611 90943.048 -104885.457 90952.289 -104868.169 90957.98 -104849.41 90959.901 -104829.901 90959.9 -93086.899 90957.979 -93067.39 90952.288 -93048.631 90943.047 -93031.343 90930.611 -93016.189 90915.457 -93003.753 90898.169 -92994.512 90879.41 -92988.821 90859.901 -92986.9 79116.899 -92986.9 79097.39 -92988.821 79078.631 -92994.512 79061.343 -93003.753 79046.189 -93016.189 79033.753 -93031.343 79024.512 -93048.631 79018.821 -93067.39 79016.9 -93086.899 77116.901 -93086.899 77116.9 -92161.731 77130.646 -92022.17 77130.647 -92022.168 77184.968 -91843.093 77184.968 -91843.092 77273.181 -91678.057 77273.182 -91678.055 77304.107 -91640.373 77391.898 -91533.398 77478.48 -91462.343 77492.343 -91448.48 77563.398 -91361.898 77672.763 -91272.146 77708.055 -91243.182 77726.931 -91233.093 77873.091 -91154.968 77962.63 -91127.807 78052.168 -91100.646 78075.429 -91098.355 78191.73 -91086.9 91785.07 -91086.9 91901.371 -91098.355"/><path d="M 72902.171 -91098.355 72925.432 -91100.646 73014.97 -91127.807 73104.509 -91154.968 73250.669 -91233.093 73269.545 -91243.182 73304.837 -91272.146 73414.202 -91361.898 73485.257 -91448.48 73499.12 -91462.343 73585.702 -91533.398 73673.493 -91640.373 73704.418 -91678.055 73704.419 -91678.057 73792.632 -91843.091 73846.954 -92022.169 73860.7 -92161.73 73860.7 -105755.07 73850.759 -105856.002 73846.954 -105894.632 73836.669 -105928.536 73792.632 -106073.709 73778.551 -106100.052 73704.418 -106238.745 73673.493 -106276.427 73585.702 -106383.402 73499.12 -106454.457 73485.257 -106468.32 73414.202 -106554.902 73307.227 -106642.693 73269.545 -106673.618 73269.543 -106673.619 73104.509 -106761.832 73075.759 -106770.553 72925.432 -106816.154 72902.171 -106818.445 72785.87 -106829.9 59192.53 -106829.9 59076.229 -106818.445 59052.968 -106816.154 58902.641 -106770.553 58873.891 -106761.832 58708.857 -106673.619 58708.855 -106673.618 58671.173 -106642.693 58564.198 -106554.902 58493.141 -106468.317 58479.278 -106454.454 58392.699 -106383.402 58304.908 -106276.427 58273.983 -106238.745 58199.85 -106100.052 58185.769 -106073.709 58141.732 -105928.536 58131.447 -105894.632 58127.642 -105856.002 58117.701 -105755.07 58117.701 -93086.899 60017.7 -93086.899 60017.7 -104829.901 60019.621 -104849.41 60025.312 -104868.169 60034.553 -104885.457 60046.989 -104900.611 60062.143 -104913.047 60079.431 -104922.288 60098.19 -104927.979 60117.699 -104929.9 71860.702 -104929.9 71880.211 -104927.979 71898.97 -104922.288 71916.258 -104913.047 71931.412 -104900.611 71943.848 -104885.457 71953.089 -104868.169 71958.78 -104849.41 71960.701 -104829.901 71960.7 -93086.899 71958.779 -93067.39 71953.088 -93048.631 71943.847 -93031.343 71931.411 -93016.189 71916.257 -93003.753 71898.969 -92994.512 71880.21 -92988.821 71860.701 -92986.9 60117.699 -92986.9 60098.19 -92988.821 60079.431 -92994.512 60062.143 -93003.753 60046.989 -93016.189 60034.553 -93031.343 60025.312 -93048.631 60019.621 -93067.39 60017.7 -93086.899 58117.701 -93086.899 58117.7 -92161.731 58131.446 -92022.17 58131.447 -92022.168 58185.768 -91843.093 58185.768 -91843.092 58273.981 -91678.057 58273.982 -91678.055 58304.907 -91640.373 58392.698 -91533.398 58479.28 -91462.343 58493.143 -91448.48 58564.198 -91361.898 58673.563 -91272.146 58708.855 -91243.182 58727.731 -91233.093 58873.891 -91154.968 58963.43 -91127.807 59052.968 -91100.646 59076.229 -91098.355 59192.53 -91086.9 72785.87 -91086.9 72902.171 -91098.355"/><path d="M 167948.971 -88710.755 167972.232 -88713.046 168061.77 -88740.207 168151.309 -88767.368 168297.469 -88845.493 168316.345 -88855.582 168351.637 -88884.546 168461.002 -88974.298 168532.057 -89060.88 168545.92 -89074.743 168632.502 -89145.798 168720.293 -89252.773 168751.218 -89290.455 168751.219 -89290.457 168839.432 -89455.491 168893.754 -89634.569 168907.5 -89774.13 168907.5 -103367.47 168893.754 -103507.031 168839.432 -103686.109 168761.307 -103832.269 168751.218 -103851.145 168720.293 -103888.827 168632.502 -103995.802 168545.92 -104066.857 168532.057 -104080.72 168461.002 -104167.302 168354.027 -104255.093 168316.345 -104286.018 168316.343 -104286.019 168151.309 -104374.232 168061.77 -104401.393 167972.232 -104428.554 167948.971 -104430.845 167832.67 -104442.3 154239.33 -104442.3 154123.029 -104430.845 154099.768 -104428.554 154010.23 -104401.393 153920.691 -104374.232 153755.657 -104286.019 153755.655 -104286.018 153717.973 -104255.093 153610.998 -104167.302 153539.941 -104080.717 153526.078 -104066.854 153439.499 -103995.802 153351.708 -103888.827 153320.783 -103851.145 153310.694 -103832.269 153232.569 -103686.109 153178.247 -103507.031 153164.501 -103367.47 153164.501 -90699.299 155064.5 -90699.299 155064.5 -102442.301 155066.421 -102461.81 155072.112 -102480.569 155081.353 -102497.857 155093.789 -102513.011 155108.943 -102525.447 155126.231 -102534.688 155144.99 -102540.379 155164.499 -102542.3 166907.502 -102542.3 166927.011 -102540.379 166945.77 -102534.688 166963.058 -102525.447 166978.212 -102513.011 166990.648 -102497.857 166999.889 -102480.569 167005.58 -102461.81 167007.501 -102442.301 167007.5 -90699.299 167005.579 -90679.79 166999.888 -90661.031 166990.647 -90643.743 166978.211 -90628.589 166963.057 -90616.153 166945.769 -90606.912 166927.01 -90601.221 166907.501 -90599.3 155164.499 -90599.3 155144.99 -90601.221 155126.231 -90606.912 155108.943 -90616.153 155093.789 -90628.589 155081.353 -90643.743 155072.112 -90661.031 155066.421 -90679.79 155064.5 -90699.299 153164.501 -90699.299 153164.5 -89774.131 153178.246 -89634.57 153178.247 -89634.568 153232.568 -89455.493 153232.568 -89455.492 153320.781 -89290.457 153320.782 -89290.455 153351.707 -89252.773 153439.498 -89145.798 153526.08 -89074.743 153539.943 -89060.88 153610.998 -88974.298 153720.363 -88884.546 153755.655 -88855.582 153774.531 -88845.493 153920.691 -88767.368 154010.23 -88740.207 154099.768 -88713.046 154123.029 -88710.755 154239.33 -88699.3 167832.67 -88699.3 167948.971 -88710.755"/><path d="M 148949.771 -86424.755 148973.032 -86427.046 149062.57 -86454.207 149152.109 -86481.368 149276.293 -86547.746 149317.145 -86569.582 149352.437 -86598.546 149461.802 -86688.298 149532.857 -86774.88 149546.72 -86788.743 149633.302 -86859.798 149705.023 -86947.192 149752.018 -87004.455 149752.019 -87004.457 149840.232 -87169.491 149848.033 -87195.208 149879.145 -87297.77 149894.554 -87348.569 149908.3 -87488.13 149908.3 -101081.47 149894.554 -101221.031 149840.232 -101400.109 149779.172 -101514.343 149752.018 -101565.145 149721.093 -101602.827 149633.302 -101709.802 149546.72 -101780.857 149532.857 -101794.72 149461.802 -101881.302 149354.827 -101969.093 149317.145 -102000.018 149317.143 -102000.019 149152.109 -102088.232 149095.183 -102105.5 148973.032 -102142.554 148949.771 -102144.845 148833.47 -102156.3 135240.13 -102156.3 135123.829 -102144.845 135100.568 -102142.554 134978.417 -102105.5 134921.491 -102088.232 134756.457 -102000.019 134756.455 -102000.018 134718.773 -101969.093 134611.798 -101881.302 134540.741 -101794.717 134526.878 -101780.854 134523.057 -101777.718 134516.047 -101771.966 134440.299 -101709.802 134352.508 -101602.827 134321.583 -101565.145 134294.429 -101514.343 134233.369 -101400.109 134179.047 -101221.031 134165.301 -101081.47 134165.301 -88413.299 136065.3 -88413.299 136065.3 -100156.301 136067.221 -100175.81 136072.912 -100194.569 136082.153 -100211.857 136094.589 -100227.011 136109.743 -100239.447 136127.031 -100248.688 136145.79 -100254.379 136165.299 -100256.3 147908.302 -100256.3 147927.811 -100254.379 147946.57 -100248.688 147963.858 -100239.447 147979.012 -100227.011 147991.448 -100211.857 148000.689 -100194.569 148006.38 -100175.81 148008.301 -100156.301 148008.3 -88413.299 148006.379 -88393.79 148000.688 -88375.031 147991.447 -88357.743 147979.011 -88342.589 147963.857 -88330.153 147946.569 -88320.912 147927.81 -88315.221 147908.301 -88313.3 136165.299 -88313.3 136145.79 -88315.221 136127.031 -88320.912 136109.743 -88330.153 136094.589 -88342.589 136082.153 -88357.743 136072.912 -88375.031 136067.221 -88393.79 136065.3 -88413.299 134165.301 -88413.299 134165.3 -87488.131 134179.046 -87348.57 134179.047 -87348.568 134227.528 -87188.745 134233.368 -87169.492 134321.581 -87004.457 134321.582 -87004.455 134368.577 -86947.192 134440.298 -86859.798 134526.88 -86788.743 134540.743 -86774.88 134611.798 -86688.298 134721.163 -86598.546 134756.455 -86569.582 134797.307 -86547.746 134921.491 -86481.368 135011.03 -86454.207 135100.568 -86427.046 135123.829 -86424.755 135240.13 -86413.3 148833.47 -86413.3 148949.771 -86424.755"/><path d="M 110900.571 -86373.955 110923.832 -86376.246 111013.37 -86403.407 111102.909 -86430.568 111249.069 -86508.693 111267.945 -86518.782 111303.237 -86547.746 111412.602 -86637.498 111483.657 -86724.08 111497.52 -86737.943 111584.102 -86808.998 111671.893 -86915.973 111702.818 -86953.655 111702.819 -86953.657 111791.032 -87118.691 111845.354 -87297.769 111859.1 -87437.33 111859.1 -101030.67 111845.354 -101170.231 111791.032 -101349.309 111712.907 -101495.469 111702.818 -101514.345 111671.893 -101552.027 111584.102 -101659.002 111497.52 -101730.057 111483.657 -101743.92 111412.602 -101830.502 111307.529 -101916.732 111267.945 -101949.218 111267.943 -101949.219 111102.909 -102037.432 111013.37 -102064.593 110923.832 -102091.754 110900.571 -102094.045 110784.27 -102105.5 97190.93 -102105.5 97074.629 -102094.045 97051.368 -102091.754 96961.83 -102064.593 96872.291 -102037.432 96707.257 -101949.219 96707.255 -101949.218 96667.671 -101916.732 96562.598 -101830.502 96491.541 -101743.917 96477.678 -101730.054 96391.099 -101659.002 96303.308 -101552.027 96272.383 -101514.345 96262.294 -101495.469 96184.169 -101349.309 96129.847 -101170.231 96116.101 -101030.67 96116.101 -88362.499 98016.1 -88362.499 98016.1 -100105.501 98018.021 -100125.01 98023.712 -100143.769 98032.953 -100161.057 98045.389 -100176.211 98060.543 -100188.647 98077.831 -100197.888 98096.59 -100203.579 98116.099 -100205.5 109859.102 -100205.5 109878.611 -100203.579 109897.37 -100197.888 109914.658 -100188.647 109929.812 -100176.211 109942.248 -100161.057 109951.489 -100143.769 109957.18 -100125.01 109959.101 -100105.501 109959.1 -88362.499 109957.179 -88342.99 109951.488 -88324.231 109942.247 -88306.943 109929.811 -88291.789 109914.657 -88279.353 109897.369 -88270.112 109878.61 -88264.421 109859.101 -88262.5 98116.099 -88262.5 98096.59 -88264.421 98077.831 -88270.112 98060.543 -88279.353 98045.389 -88291.789 98032.953 -88306.943 98023.712 -88324.231 98018.021 -88342.99 98016.1 -88362.499 96116.101 -88362.499 96116.1 -87437.331 96129.846 -87297.77 96129.847 -87297.768 96168.758 -87169.492 96184.168 -87118.692 96272.381 -86953.657 96272.382 -86953.655 96303.307 -86915.973 96391.098 -86808.998 96477.68 -86737.943 96491.543 -86724.08 96562.598 -86637.498 96671.963 -86547.746 96707.255 -86518.782 96726.131 -86508.693 96872.291 -86430.568 96961.83 -86403.407 97051.368 -86376.246 97074.629 -86373.955 97190.93 -86362.5 110784.27 -86362.5 110900.571 -86373.955"/><path d="M 129950.571 -84037.155 129973.832 -84039.446 130063.37 -84066.607 130152.909 -84093.768 130299.069 -84171.893 130317.945 -84181.982 130353.237 -84210.946 130462.602 -84300.698 130533.657 -84387.28 130547.52 -84401.143 130634.102 -84472.198 130721.893 -84579.173 130752.818 -84616.855 130752.819 -84616.857 130841.032 -84781.891 130895.354 -84960.969 130909.1 -85100.53 130909.1 -98693.87 130895.354 -98833.431 130841.032 -99012.509 130762.907 -99158.669 130752.818 -99177.545 130721.893 -99215.227 130634.102 -99322.202 130547.52 -99393.257 130533.657 -99407.12 130462.602 -99493.702 130355.627 -99581.493 130317.945 -99612.418 130317.943 -99612.419 130152.909 -99700.632 130063.37 -99727.793 129973.832 -99754.954 129950.571 -99757.245 129834.27 -99768.7 116240.93 -99768.7 116124.629 -99757.245 116101.368 -99754.954 116011.83 -99727.793 115922.291 -99700.632 115757.257 -99612.419 115757.255 -99612.418 115719.573 -99581.493 115612.598 -99493.702 115541.541 -99407.117 115527.678 -99393.254 115441.099 -99322.202 115353.308 -99215.227 115322.383 -99177.545 115312.294 -99158.669 115234.169 -99012.509 115179.847 -98833.431 115166.101 -98693.87 115166.101 -86025.699 117066.1 -86025.699 117066.1 -97768.701 117068.021 -97788.21 117073.712 -97806.969 117082.953 -97824.257 117095.389 -97839.411 117110.543 -97851.847 117127.831 -97861.088 117146.59 -97866.779 117166.099 -97868.7 128909.102 -97868.7 128928.611 -97866.779 128947.37 -97861.088 128964.658 -97851.847 128979.812 -97839.411 128992.248 -97824.257 129001.489 -97806.969 129007.18 -97788.21 129009.101 -97768.701 129009.1 -86025.699 129007.179 -86006.19 129001.488 -85987.431 128992.247 -85970.143 128979.811 -85954.989 128964.657 -85942.553 128947.369 -85933.312 128928.61 -85927.621 128909.101 -85925.7 117166.099 -85925.7 117146.59 -85927.621 117127.831 -85933.312 117110.543 -85942.553 117095.389 -85954.989 117082.953 -85970.143 117073.712 -85987.431 117068.021 -86006.19 117066.1 -86025.699 115166.101 -86025.699 115166.1 -85100.531 115179.846 -84960.97 115179.847 -84960.968 115228.328 -84801.145 115234.168 -84781.892 115322.381 -84616.857 115322.382 -84616.855 115353.307 -84579.173 115441.098 -84472.198 115527.68 -84401.143 115541.543 -84387.28 115612.598 -84300.698 115721.963 -84210.946 115757.255 -84181.982 115776.131 -84171.893 115922.291 -84093.768 116011.83 -84066.607 116101.368 -84039.446 116124.629 -84037.155 116240.93 -84025.7 129834.27 -84025.7 129950.571 -84037.155"/><path d="M 76138.054 -86973.23 76574.826 -87154.147 76967.911 -87416.798 77302.202 -87751.089 77564.853 -88144.174 77745.77 -88580.946 77838 -89044.621 77838 -89517.379 77745.77 -89981.054 77564.853 -90417.826 77302.202 -90810.911 76967.911 -91145.202 76574.826 -91407.853 76138.054 -91588.77 75674.379 -91681 75201.621 -91681 74737.946 -91588.77 74301.174 -91407.853 73908.089 -91145.202 73573.798 -90810.911 73311.147 -90417.826 73130.23 -89981.054 73038 -89517.379 73038 -89044.621 73130.23 -88580.946 73311.147 -88144.174 73573.798 -87751.089 73908.089 -87416.798 74301.174 -87154.147 74737.946 -86973.23 75201.621 -86881 75674.379 -86881 76138.054 -86973.23"/><path d="M 91901.371 -72048.355 91924.632 -72050.646 92014.17 -72077.807 92103.709 -72104.968 92249.869 -72183.093 92268.745 -72193.182 92304.037 -72222.146 92413.402 -72311.898 92484.457 -72398.48 92498.32 -72412.343 92584.902 -72483.398 92672.693 -72590.373 92703.618 -72628.055 92703.619 -72628.057 92791.832 -72793.091 92846.154 -72972.169 92859.9 -73111.73 92859.9 -86705.07 92846.154 -86844.631 92791.832 -87023.709 92741.063 -87118.691 92703.618 -87188.745 92672.693 -87226.427 92584.902 -87333.402 92498.32 -87404.457 92484.457 -87418.32 92413.402 -87504.902 92306.427 -87592.693 92268.745 -87623.618 92268.743 -87623.619 92103.709 -87711.832 92048.405 -87728.608 91924.632 -87766.154 91901.371 -87768.445 91785.07 -87779.9 78191.73 -87779.9 78075.429 -87768.445 78052.168 -87766.154 77928.395 -87728.608 77873.091 -87711.832 77708.057 -87623.619 77708.055 -87623.618 77670.373 -87592.693 77563.398 -87504.902 77492.341 -87418.317 77478.478 -87404.454 77391.899 -87333.402 77304.108 -87226.427 77273.183 -87188.745 77235.738 -87118.691 77184.969 -87023.709 77130.647 -86844.631 77116.901 -86705.07 77116.901 -74036.899 79016.9 -74036.899 79016.9 -85779.901 79018.821 -85799.41 79024.512 -85818.169 79033.753 -85835.457 79046.189 -85850.611 79061.343 -85863.047 79078.631 -85872.288 79097.39 -85877.979 79116.899 -85879.9 90859.902 -85879.9 90879.411 -85877.979 90898.17 -85872.288 90915.458 -85863.047 90930.612 -85850.611 90943.048 -85835.457 90952.289 -85818.169 90957.98 -85799.41 90959.901 -85779.901 90959.9 -74036.899 90957.979 -74017.39 90952.288 -73998.631 90943.047 -73981.343 90930.611 -73966.189 90915.457 -73953.753 90898.169 -73944.512 90879.41 -73938.821 90859.901 -73936.9 79116.899 -73936.9 79097.39 -73938.821 79078.631 -73944.512 79061.343 -73953.753 79046.189 -73966.189 79033.753 -73981.343 79024.512 -73998.631 79018.821 -74017.39 79016.9 -74036.899 77116.901 -74036.899 77116.9 -73111.731 77130.646 -72972.17 77130.647 -72972.168 77184.968 -72793.093 77184.968 -72793.092 77273.181 -72628.057 77273.182 -72628.055 77304.107 -72590.373 77391.898 -72483.398 77478.48 -72412.343 77492.343 -72398.48 77563.398 -72311.898 77672.763 -72222.146 77708.055 -72193.182 77726.931 -72183.093 77873.091 -72104.968 77962.63 -72077.807 78052.168 -72050.646 78075.429 -72048.355 78191.73 -72036.9 91785.07 -72036.9 91901.371 -72048.355"/><path d="M 72902.171 -72048.355 72925.432 -72050.646 73014.97 -72077.807 73104.509 -72104.968 73250.669 -72183.093 73269.545 -72193.182 73304.837 -72222.146 73414.202 -72311.898 73485.257 -72398.48 73499.12 -72412.343 73585.702 -72483.398 73673.493 -72590.373 73704.418 -72628.055 73704.419 -72628.057 73792.632 -72793.091 73846.954 -72972.169 73860.7 -73111.73 73860.7 -86705.07 73846.954 -86844.631 73792.632 -87023.709 73741.863 -87118.691 73704.418 -87188.745 73673.493 -87226.427 73585.702 -87333.402 73499.12 -87404.457 73485.257 -87418.32 73414.202 -87504.902 73307.227 -87592.693 73269.545 -87623.618 73269.543 -87623.619 73104.509 -87711.832 73049.205 -87728.608 72925.432 -87766.154 72902.171 -87768.445 72785.87 -87779.9 59192.53 -87779.9 59076.229 -87768.445 59052.968 -87766.154 58929.195 -87728.608 58873.891 -87711.832 58708.857 -87623.619 58708.855 -87623.618 58671.173 -87592.693 58564.198 -87504.902 58493.141 -87418.317 58479.278 -87404.454 58392.699 -87333.402 58304.908 -87226.427 58273.983 -87188.745 58236.538 -87118.691 58185.769 -87023.709 58131.447 -86844.631 58117.701 -86705.07 58117.701 -74036.899 60017.7 -74036.899 60017.7 -85779.901 60019.621 -85799.41 60025.312 -85818.169 60034.553 -85835.457 60046.989 -85850.611 60062.143 -85863.047 60079.431 -85872.288 60098.19 -85877.979 60117.699 -85879.9 71860.702 -85879.9 71880.211 -85877.979 71898.97 -85872.288 71916.258 -85863.047 71931.412 -85850.611 71943.848 -85835.457 71953.089 -85818.169 71958.78 -85799.41 71960.701 -85779.901 71960.7 -74036.899 71958.779 -74017.39 71953.088 -73998.631 71943.847 -73981.343 71931.411 -73966.189 71916.257 -73953.753 71898.969 -73944.512 71880.21 -73938.821 71860.701 -73936.9 60117.699 -73936.9 60098.19 -73938.821 60079.431 -73944.512 60062.143 -73953.753 60046.989 -73966.189 60034.553 -73981.343 60025.312 -73998.631 60019.621 -74017.39 60017.7 -74036.899 58117.701 -74036.899 58117.7 -73111.731 58131.446 -72972.17 58131.447 -72972.168 58185.768 -72793.093 58185.768 -72793.092 58273.981 -72628.057 58273.982 -72628.055 58304.907 -72590.373 58392.698 -72483.398 58479.28 -72412.343 58493.143 -72398.48 58564.198 -72311.898 58673.563 -72222.146 58708.855 -72193.182 58727.731 -72183.093 58873.891 -72104.968 58963.43 -72077.807 59052.968 -72050.646 59076.229 -72048.355 59192.53 -72036.9 72785.87 -72036.9 72902.171 -72048.355"/><path d="M 167948.971 -69660.755 167972.232 -69663.046 168061.77 -69690.207 168151.309 -69717.368 168297.469 -69795.493 168316.345 -69805.582 168351.637 -69834.546 168461.002 -69924.298 168532.057 -70010.88 168545.92 -70024.743 168632.502 -70095.798 168720.293 -70202.773 168751.218 -70240.455 168751.219 -70240.457 168839.432 -70405.491 168893.754 -70584.569 168907.5 -70724.13 168907.5 -84317.47 168893.754 -84457.031 168839.432 -84636.109 168761.509 -84781.891 168751.218 -84801.145 168720.293 -84838.827 168632.502 -84945.802 168545.92 -85016.857 168532.057 -85030.72 168461.002 -85117.302 168354.027 -85205.093 168316.345 -85236.018 168316.343 -85236.019 168151.309 -85324.232 168096.005 -85341.008 167972.232 -85378.554 167948.971 -85380.845 167832.67 -85392.3 154239.33 -85392.3 154123.029 -85380.845 154099.768 -85378.554 153975.995 -85341.008 153920.691 -85324.232 153755.657 -85236.019 153755.655 -85236.018 153717.973 -85205.093 153610.998 -85117.302 153539.941 -85030.717 153526.078 -85016.854 153439.499 -84945.802 153351.708 -84838.827 153320.783 -84801.145 153310.492 -84781.891 153232.569 -84636.109 153178.247 -84457.031 153164.501 -84317.47 153164.501 -71649.299 155064.5 -71649.299 155064.5 -83392.301 155066.421 -83411.81 155072.112 -83430.569 155081.353 -83447.857 155093.789 -83463.011 155108.943 -83475.447 155126.231 -83484.688 155144.99 -83490.379 155164.499 -83492.3 166907.502 -83492.3 166927.011 -83490.379 166945.77 -83484.688 166963.058 -83475.447 166978.212 -83463.011 166990.648 -83447.857 166999.889 -83430.569 167005.58 -83411.81 167007.501 -83392.301 167007.5 -71649.299 167005.579 -71629.79 166999.888 -71611.031 166990.647 -71593.743 166978.211 -71578.589 166963.057 -71566.153 166945.769 -71556.912 166927.01 -71551.221 166907.501 -71549.3 155164.499 -71549.3 155144.99 -71551.221 155126.231 -71556.912 155108.943 -71566.153 155093.789 -71578.589 155081.353 -71593.743 155072.112 -71611.031 155066.421 -71629.79 155064.5 -71649.299 153164.501 -71649.299 153164.5 -70724.131 153178.246 -70584.57 153178.247 -70584.568 153232.568 -70405.493 153232.568 -70405.492 153320.781 -70240.457 153320.782 -70240.455 153351.707 -70202.773 153439.498 -70095.798 153526.08 -70024.743 153539.943 -70010.88 153610.998 -69924.298 153720.363 -69834.546 153755.655 -69805.582 153774.531 -69795.493 153920.691 -69717.368 154010.23 -69690.207 154099.768 -69663.046 154123.029 -69660.755 154239.33 -69649.3 167832.67 -69649.3 167948.971 -69660.755"/><path d="M 167948.971 -50610.755 167972.232 -50613.046 168061.77 -50640.207 168151.309 -50667.368 168297.469 -50745.493 168316.345 -50755.582 168351.637 -50784.546 168461.002 -50874.298 168532.057 -50960.88 168545.92 -50974.743 168632.502 -51045.798 168720.293 -51152.773 168751.218 -51190.455 168751.219 -51190.457 168839.432 -51355.491 168893.754 -51534.569 168907.5 -51674.13 168907.5 -65267.47 168893.754 -65407.031 168839.432 -65586.109 168822.57 -65617.655 168751.218 -65751.145 168725.329 -65782.691 168632.502 -65895.802 168545.92 -65966.857 168532.057 -65980.72 168461.002 -66067.302 168354.027 -66155.093 168316.345 -66186.018 168316.343 -66186.019 168151.309 -66274.232 168061.77 -66301.393 167972.232 -66328.554 167969.48 -66328.825 167832.67 -66342.3 154239.33 -66342.3 154102.52 -66328.825 154099.768 -66328.554 154063.57 -66317.574 154040.027 -66310.432 154020.801 -66306.608 154001.197 -66306.608 153981.971 -66310.432 153963.86 -66317.934 153947.56 -66328.825 153933.699 -66342.686 153922.808 -66358.986 153915.306 -66377.097 153911.482 -66396.323 153911 -66406.125 153911 -66530.379 153818.77 -66994.054 153637.853 -67430.826 153375.202 -67823.911 153040.911 -68158.202 152647.826 -68420.853 152211.054 -68601.77 151747.379 -68694 151274.621 -68694 150810.946 -68601.77 150374.174 -68420.853 150049.453 -68203.882 150032.168 -68194.642 150013.409 -68188.951 149993.9 -68187.03 149974.391 -68188.951 149955.632 -68194.642 149938.343 -68203.883 149923.19 -68216.319 149910.754 -68231.473 149901.513 -68248.761 149895.822 -68267.52 149893.901 -68287.029 149894.383 -68296.831 149908.3 -68438.13 149908.3 -82031.47 149894.554 -82171.031 149840.232 -82350.109 149779.172 -82464.343 149752.018 -82515.145 149721.093 -82552.827 149633.302 -82659.802 149546.72 -82730.857 149532.857 -82744.72 149461.802 -82831.302 149354.827 -82919.093 149317.145 -82950.018 149317.143 -82950.019 149152.109 -83038.232 149095.183 -83055.5 148973.032 -83092.554 148949.771 -83094.845 148833.47 -83106.3 135240.13 -83106.3 135123.829 -83094.845 135100.568 -83092.554 134978.417 -83055.5 134921.491 -83038.232 134756.457 -82950.019 134756.455 -82950.018 134718.773 -82919.093 134611.798 -82831.302 134540.741 -82744.717 134526.878 -82730.854 134523.057 -82727.718 134516.047 -82721.966 134440.299 -82659.802 134352.508 -82552.827 134321.583 -82515.145 134294.429 -82464.343 134233.369 -82350.109 134179.047 -82171.031 134165.301 -82031.47 134165.301 -69363.299 136065.3 -69363.299 136065.3 -81106.301 136067.221 -81125.81 136072.912 -81144.569 136082.153 -81161.857 136094.589 -81177.011 136109.743 -81189.447 136127.031 -81198.688 136145.79 -81204.379 136165.299 -81206.3 147908.302 -81206.3 147927.811 -81204.379 147946.57 -81198.688 147963.858 -81189.447 147979.012 -81177.011 147991.448 -81161.857 148000.689 -81144.569 148006.38 -81125.81 148008.301 -81106.301 148008.3 -69363.299 148006.379 -69343.79 148000.688 -69325.031 147991.447 -69307.743 147979.011 -69292.589 147963.857 -69280.153 147946.569 -69270.912 147927.81 -69265.221 147908.301 -69263.3 136165.299 -69263.3 136145.79 -69265.221 136127.031 -69270.912 136109.743 -69280.153 136094.589 -69292.589 136082.153 -69307.743 136072.912 -69325.031 136067.221 -69343.79 136065.3 -69363.299 134165.301 -69363.299 134165.3 -68438.131 134179.046 -68298.57 134179.047 -68298.568 134227.528 -68138.745 134233.368 -68119.492 134321.581 -67954.457 134321.582 -67954.455 134368.577 -67897.192 134440.298 -67809.798 134526.88 -67738.743 134540.743 -67724.88 134611.798 -67638.298 134721.163 -67548.546 134756.455 -67519.582 134797.307 -67497.746 134921.491 -67431.368 135025.195 -67399.91 135100.568 -67377.046 135123.829 -67374.755 135240.13 -67363.3 148833.47 -67363.3 148949.771 -67374.755 148973.032 -67377.046 149048.405 -67399.91 149152.109 -67431.368 149203.941 -67459.073 149222.052 -67466.575 149241.278 -67470.399 149260.882 -67470.399 149280.108 -67466.575 149298.219 -67459.073 149314.519 -67448.182 149328.38 -67434.321 149339.271 -67418.021 149346.773 -67399.91 149350.597 -67380.684 149350.597 -67361.08 149343.468 -67332.619 149203.23 -66994.054 149111 -66530.379 149111 -66057.621 149203.23 -65593.946 149384.147 -65157.174 149646.798 -64764.089 149981.089 -64429.798 150374.174 -64167.147 150810.946 -63986.23 151274.621 -63894 151747.379 -63894 152211.054 -63986.23 152647.826 -64167.147 153008.946 -64408.44 153026.234 -64417.681 153044.993 -64423.372 153064.502 -64425.293 153084.011 -64423.372 153102.77 -64417.681 153120.059 -64408.44 153135.212 -64396.004 153147.648 -64380.85 153156.889 -64363.562 153162.58 -64344.803 153164.501 -64325.294 153164.501 -52599.299 155064.5 -52599.299 155064.5 -64342.301 155066.421 -64361.81 155072.112 -64380.569 155081.353 -64397.857 155093.789 -64413.011 155108.943 -64425.447 155126.231 -64434.688 155144.99 -64440.379 155164.499 -64442.3 166907.502 -64442.3 166927.011 -64440.379 166945.77 -64434.688 166963.058 -64425.447 166978.212 -64413.011 166990.648 -64397.857 166999.889 -64380.569 167005.58 -64361.81 167007.501 -64342.301 167007.5 -52599.299 167005.579 -52579.79 166999.888 -52561.031 166990.647 -52543.743 166978.211 -52528.589 166963.057 -52516.153 166945.769 -52506.912 166927.01 -52501.221 166907.501 -52499.3 155164.499 -52499.3 155144.99 -52501.221 155126.231 -52506.912 155108.943 -52516.153 155093.789 -52528.589 155081.353 -52543.743 155072.112 -52561.031 155066.421 -52579.79 155064.5 -52599.299 153164.501 -52599.299 153164.5 -51674.131 153178.246 -51534.57 153178.247 -51534.568 153232.568 -51355.493 153232.568 -51355.492 153320.781 -51190.457 153320.782 -51190.455 153351.707 -51152.773 153439.498 -51045.798 153526.08 -50974.743 153539.943 -50960.88 153610.998 -50874.298 153720.363 -50784.546 153755.655 -50755.582 153774.531 -50745.493 153920.691 -50667.368 154010.23 -50640.207 154099.768 -50613.046 154123.029 -50610.755 154239.33 -50599.3 167832.67 -50599.3 167948.971 -50610.755"/><path d="M 110900.571 -67323.955 110923.832 -67326.246 111013.37 -67353.407 111102.909 -67380.568 111203.473 -67434.321 111267.945 -67468.782 111303.237 -67497.746 111412.602 -67587.498 111483.657 -67674.08 111497.52 -67687.943 111584.102 -67758.998 111671.893 -67865.973 111702.818 -67903.655 111702.819 -67903.657 111791.032 -68068.691 111845.354 -68247.769 111859.1 -68387.33 111859.1 -81980.67 111845.354 -82120.231 111791.032 -82299.309 111712.907 -82445.469 111702.818 -82464.345 111671.893 -82502.027 111584.102 -82609.002 111497.52 -82680.057 111483.657 -82693.92 111412.602 -82780.502 111307.529 -82866.732 111267.945 -82899.218 111267.943 -82899.219 111102.909 -82987.432 111013.37 -83014.593 110923.832 -83041.754 110900.571 -83044.045 110784.27 -83055.5 97190.93 -83055.5 97074.629 -83044.045 97051.368 -83041.754 96961.83 -83014.593 96872.291 -82987.432 96707.257 -82899.219 96707.255 -82899.218 96667.671 -82866.732 96562.598 -82780.502 96491.541 -82693.917 96477.678 -82680.054 96391.099 -82609.002 96303.308 -82502.027 96272.383 -82464.345 96262.294 -82445.469 96184.169 -82299.309 96129.847 -82120.231 96116.101 -81980.67 96116.101 -69312.499 98016.1 -69312.499 98016.1 -81055.501 98018.021 -81075.01 98023.712 -81093.769 98032.953 -81111.057 98045.389 -81126.211 98060.543 -81138.647 98077.831 -81147.888 98096.59 -81153.579 98116.099 -81155.5 109859.102 -81155.5 109878.611 -81153.579 109897.37 -81147.888 109914.658 -81138.647 109929.812 -81126.211 109942.248 -81111.057 109951.489 -81093.769 109957.18 -81075.01 109959.101 -81055.501 109959.1 -69312.499 109957.179 -69292.99 109951.488 -69274.231 109942.247 -69256.943 109929.811 -69241.789 109914.657 -69229.353 109897.369 -69220.112 109878.61 -69214.421 109859.101 -69212.5 98116.099 -69212.5 98096.59 -69214.421 98077.831 -69220.112 98060.543 -69229.353 98045.389 -69241.789 98032.953 -69256.943 98023.712 -69274.231 98018.021 -69292.99 98016.1 -69312.499 96116.101 -69312.499 96116.1 -68387.331 96129.846 -68247.77 96129.847 -68247.768 96168.758 -68119.492 96184.168 -68068.692 96272.381 -67903.657 96272.382 -67903.655 96303.307 -67865.973 96391.098 -67758.998 96477.68 -67687.943 96491.543 -67674.08 96562.598 -67587.498 96671.963 -67497.746 96707.255 -67468.782 96771.727 -67434.321 96872.291 -67380.568 96961.83 -67353.407 97051.368 -67326.246 97074.629 -67323.955 97190.93 -67312.5 110784.27 -67312.5 110900.571 -67323.955"/><path d="M 129950.571 -65037.955 129973.832 -65040.246 130063.37 -65067.407 130152.909 -65094.568 130270.034 -65157.173 130317.945 -65182.782 130346.319 -65206.068 130462.602 -65301.498 130533.657 -65388.08 130547.52 -65401.943 130634.102 -65472.998 130720.71 -65578.532 130752.818 -65617.655 130752.819 -65617.657 130841.032 -65782.691 130895.354 -65961.769 130909.1 -66101.33 130909.1 -79694.67 130895.354 -79834.231 130841.032 -80013.309 130762.907 -80159.469 130752.818 -80178.345 130721.893 -80216.027 130634.102 -80323.002 130547.52 -80394.057 130533.657 -80407.92 130462.602 -80494.502 130355.627 -80582.293 130317.945 -80613.218 130317.943 -80613.219 130152.909 -80701.432 130063.37 -80728.593 129973.832 -80755.754 129950.571 -80758.045 129834.27 -80769.5 116240.93 -80769.5 116124.629 -80758.045 116101.368 -80755.754 116011.83 -80728.593 115922.291 -80701.432 115757.257 -80613.219 115757.255 -80613.218 115719.573 -80582.293 115612.598 -80494.502 115541.541 -80407.917 115527.678 -80394.054 115441.099 -80323.002 115353.308 -80216.027 115322.383 -80178.345 115312.294 -80159.469 115234.169 -80013.309 115179.847 -79834.231 115166.101 -79694.67 115166.101 -67026.499 117066.1 -67026.499 117066.1 -78769.501 117068.021 -78789.01 117073.712 -78807.769 117082.953 -78825.057 117095.389 -78840.211 117110.543 -78852.647 117127.831 -78861.888 117146.59 -78867.579 117166.099 -78869.5 128909.102 -78869.5 128928.611 -78867.579 128947.37 -78861.888 128964.658 -78852.647 128979.812 -78840.211 128992.248 -78825.057 129001.489 -78807.769 129007.18 -78789.01 129009.101 -78769.501 129009.1 -67026.499 129007.179 -67006.99 129001.488 -66988.231 128992.247 -66970.943 128979.811 -66955.789 128964.657 -66943.353 128947.369 -66934.112 128928.61 -66928.421 128909.101 -66926.5 117166.099 -66926.5 117146.59 -66928.421 117127.831 -66934.112 117110.543 -66943.353 117095.389 -66955.789 117082.953 -66970.943 117073.712 -66988.231 117068.021 -67006.99 117066.1 -67026.499 115166.101 -67026.499 115166.1 -66101.331 115179.846 -65961.77 115179.847 -65961.768 115234.168 -65782.693 115234.168 -65782.692 115322.381 -65617.657 115322.382 -65617.655 115354.49 -65578.532 115441.098 -65472.998 115527.68 -65401.943 115541.543 -65388.08 115612.598 -65301.498 115728.881 -65206.068 115757.255 -65182.782 115805.166 -65157.173 115922.291 -65094.568 116011.83 -65067.407 116101.368 -65040.246 116124.629 -65037.955 116240.93 -65026.5 129834.27 -65026.5 129950.571 -65037.955"/><path d="M 76265.054 -67923.23 76701.826 -68104.147 77094.911 -68366.798 77429.202 -68701.089 77691.853 -69094.174 77872.77 -69530.946 77965 -69994.621 77965 -70467.379 77872.77 -70931.054 77691.853 -71367.826 77429.202 -71760.911 77094.911 -72095.202 76701.826 -72357.853 76265.054 -72538.77 75801.379 -72631 75328.621 -72631 74864.946 -72538.77 74428.174 -72357.853 74035.089 -72095.202 73700.798 -71760.911 73438.147 -71367.826 73257.23 -70931.054 73165 -70467.379 73165 -69994.621 73257.23 -69530.946 73438.147 -69094.174 73700.798 -68701.089 74035.089 -68366.798 74428.174 -68104.147 74864.946 -67923.23 75328.621 -67831 75801.379 -67831 76265.054 -67923.23"/><path d="M 72902.171 -52998.355 72925.432 -53000.646 73014.97 -53027.807 73104.509 -53054.968 73250.669 -53133.093 73269.545 -53143.182 73304.837 -53172.146 73414.202 -53261.898 73485.257 -53348.48 73499.12 -53362.343 73585.702 -53433.398 73673.493 -53540.373 73704.418 -53578.055 73704.419 -53578.057 73792.632 -53743.091 73846.954 -53922.169 73860.7 -54061.73 73860.7 -67655.07 73846.954 -67794.631 73792.632 -67973.709 73741.863 -68068.691 73704.418 -68138.745 73688.45 -68158.202 73585.702 -68283.402 73499.12 -68354.457 73485.257 -68368.32 73414.202 -68454.902 73307.227 -68542.693 73269.545 -68573.618 73269.543 -68573.619 73104.509 -68661.832 73049.205 -68678.608 72925.432 -68716.154 72902.171 -68718.445 72785.87 -68729.9 59192.53 -68729.9 59076.229 -68718.445 59052.968 -68716.154 58929.195 -68678.608 58873.891 -68661.832 58708.857 -68573.619 58708.855 -68573.618 58671.173 -68542.693 58564.198 -68454.902 58493.141 -68368.317 58479.278 -68354.454 58392.699 -68283.402 58289.951 -68158.202 58273.983 -68138.745 58236.538 -68068.691 58185.769 -67973.709 58131.447 -67794.631 58117.701 -67655.07 58117.701 -54986.899 60017.7 -54986.899 60017.7 -66729.901 60019.621 -66749.41 60025.312 -66768.169 60034.553 -66785.457 60046.989 -66800.611 60062.143 -66813.047 60079.431 -66822.288 60098.19 -66827.979 60117.699 -66829.9 71860.702 -66829.9 71880.211 -66827.979 71898.97 -66822.288 71916.258 -66813.047 71931.412 -66800.611 71943.848 -66785.457 71953.089 -66768.169 71958.78 -66749.41 71960.701 -66729.901 71960.7 -54986.899 71958.779 -54967.39 71953.088 -54948.631 71943.847 -54931.343 71931.411 -54916.189 71916.257 -54903.753 71898.969 -54894.512 71880.21 -54888.821 71860.701 -54886.9 60117.699 -54886.9 60098.19 -54888.821 60079.431 -54894.512 60062.143 -54903.753 60046.989 -54916.189 60034.553 -54931.343 60025.312 -54948.631 60019.621 -54967.39 60017.7 -54986.899 58117.701 -54986.899 58117.7 -54061.731 58131.446 -53922.17 58131.447 -53922.168 58185.768 -53743.093 58185.768 -53743.092 58273.981 -53578.057 58273.982 -53578.055 58304.907 -53540.373 58392.698 -53433.398 58479.28 -53362.343 58493.143 -53348.48 58564.198 -53261.898 58673.563 -53172.146 58708.855 -53143.182 58727.731 -53133.093 58873.891 -53054.968 58963.43 -53027.807 59052.968 -53000.646 59076.229 -52998.355 59192.53 -52986.9 72785.87 -52986.9 72902.171 -52998.355"/><path d="M 91901.371 -52998.355 91924.632 -53000.646 92014.17 -53027.807 92103.709 -53054.968 92249.869 -53133.093 92268.745 -53143.182 92304.037 -53172.146 92413.402 -53261.898 92484.457 -53348.48 92498.32 -53362.343 92584.902 -53433.398 92672.693 -53540.373 92703.618 -53578.055 92703.619 -53578.057 92791.832 -53743.091 92846.154 -53922.169 92859.9 -54061.73 92859.9 -67655.07 92846.154 -67794.631 92791.832 -67973.709 92741.063 -68068.691 92703.618 -68138.745 92687.65 -68158.202 92584.902 -68283.402 92498.32 -68354.457 92484.457 -68368.32 92413.402 -68454.902 92306.427 -68542.693 92268.745 -68573.618 92268.743 -68573.619 92103.709 -68661.832 92048.405 -68678.608 91924.632 -68716.154 91901.371 -68718.445 91785.07 -68729.9 78191.73 -68729.9 78075.429 -68718.445 78052.168 -68716.154 77928.395 -68678.608 77873.091 -68661.832 77708.057 -68573.619 77708.055 -68573.618 77670.373 -68542.693 77563.398 -68454.902 77492.341 -68368.317 77478.478 -68354.454 77391.899 -68283.402 77289.151 -68158.202 77273.183 -68138.745 77235.738 -68068.691 77184.969 -67973.709 77130.647 -67794.631 77116.901 -67655.07 77116.901 -54986.899 79016.9 -54986.899 79016.9 -66729.901 79018.821 -66749.41 79024.512 -66768.169 79033.753 -66785.457 79046.189 -66800.611 79061.343 -66813.047 79078.631 -66822.288 79097.39 -66827.979 79116.899 -66829.9 90859.902 -66829.9 90879.411 -66827.979 90898.17 -66822.288 90915.458 -66813.047 90930.612 -66800.611 90943.048 -66785.457 90952.289 -66768.169 90957.98 -66749.41 90959.901 -66729.901 90959.9 -54986.899 90957.979 -54967.39 90952.288 -54948.631 90943.047 -54931.343 90930.611 -54916.189 90915.457 -54903.753 90898.169 -54894.512 90879.41 -54888.821 90859.901 -54886.9 79116.899 -54886.9 79097.39 -54888.821 79078.631 -54894.512 79061.343 -54903.753 79046.189 -54916.189 79033.753 -54931.343 79024.512 -54948.631 79018.821 -54967.39 79016.9 -54986.899 77116.901 -54986.899 77116.9 -54061.731 77130.646 -53922.17 77130.647 -53922.168 77184.968 -53743.093 77184.968 -53743.092 77273.181 -53578.057 77273.182 -53578.055 77304.107 -53540.373 77391.898 -53433.398 77478.48 -53362.343 77492.343 -53348.48 77563.398 -53261.898 77672.763 -53172.146 77708.055 -53143.182 77726.931 -53133.093 77873.091 -53054.968 77962.63 -53027.807 78052.168 -53000.646 78075.429 -52998.355 78191.73 -52986.9 91785.07 -52986.9 91901.371 -52998.355"/><path d="M 148949.771 -48324.755 148973.032 -48327.046 149062.57 -48354.207 149152.109 -48381.368 149276.293 -48447.746 149317.145 -48469.582 149352.437 -48498.546 149461.802 -48588.298 149532.857 -48674.88 149546.72 -48688.743 149633.302 -48759.798 149705.023 -48847.192 149752.018 -48904.455 149752.019 -48904.457 149840.232 -49069.491 149842.53 -49077.068 149879.145 -49197.77 149894.554 -49248.569 149908.3 -49388.13 149908.3 -62981.47 149894.554 -63121.031 149840.232 -63300.109 149779.172 -63414.343 149752.018 -63465.145 149721.093 -63502.827 149633.302 -63609.802 149546.72 -63680.857 149532.857 -63694.72 149461.802 -63781.302 149354.827 -63869.093 149317.145 -63900.018 149317.143 -63900.019 149152.109 -63988.232 149095.183 -64005.5 148973.032 -64042.554 148949.771 -64044.845 148833.47 -64056.3 135240.13 -64056.3 135123.829 -64044.845 135100.568 -64042.554 134978.417 -64005.5 134921.491 -63988.232 134756.457 -63900.019 134756.455 -63900.018 134718.773 -63869.093 134611.798 -63781.302 134540.741 -63694.717 134526.878 -63680.854 134523.057 -63677.718 134516.047 -63671.966 134440.299 -63609.802 134352.508 -63502.827 134321.583 -63465.145 134294.429 -63414.343 134233.369 -63300.109 134179.047 -63121.031 134165.301 -62981.47 134165.301 -50313.299 136065.3 -50313.299 136065.3 -62056.301 136067.221 -62075.81 136072.912 -62094.569 136082.153 -62111.857 136094.589 -62127.011 136109.743 -62139.447 136127.031 -62148.688 136145.79 -62154.379 136165.299 -62156.3 147908.302 -62156.3 147927.811 -62154.379 147946.57 -62148.688 147963.858 -62139.447 147979.012 -62127.011 147991.448 -62111.857 148000.689 -62094.569 148006.38 -62075.81 148008.301 -62056.301 148008.3 -50313.299 148006.379 -50293.79 148000.688 -50275.031 147991.447 -50257.743 147979.011 -50242.589 147963.857 -50230.153 147946.569 -50220.912 147927.81 -50215.221 147908.301 -50213.3 136165.299 -50213.3 136145.79 -50215.221 136127.031 -50220.912 136109.743 -50230.153 136094.589 -50242.589 136082.153 -50257.743 136072.912 -50275.031 136067.221 -50293.79 136065.3 -50313.299 134165.301 -50313.299 134165.3 -49388.131 134179.046 -49248.57 134179.047 -49248.568 134233.368 -49069.493 134233.368 -49069.492 134321.581 -48904.457 134321.582 -48904.455 134368.577 -48847.192 134440.298 -48759.798 134526.88 -48688.743 134540.743 -48674.88 134611.798 -48588.298 134721.163 -48498.546 134756.455 -48469.582 134797.307 -48447.746 134921.491 -48381.368 135011.03 -48354.207 135100.568 -48327.046 135123.829 -48324.755 135240.13 -48313.3 148833.47 -48313.3 148949.771 -48324.755"/><path d="M 110900.571 -48273.955 110923.832 -48276.246 111013.37 -48303.407 111102.909 -48330.568 111249.069 -48408.693 111267.945 -48418.782 111303.237 -48447.746 111412.602 -48537.498 111483.657 -48624.08 111497.52 -48637.943 111584.102 -48708.998 111671.893 -48815.973 111702.818 -48853.655 111702.819 -48853.657 111791.032 -49018.691 111845.354 -49197.769 111859.1 -49337.33 111859.1 -62930.67 111845.354 -63070.231 111791.032 -63249.309 111712.907 -63395.469 111702.818 -63414.345 111671.893 -63452.027 111584.102 -63559.002 111497.52 -63630.057 111483.657 -63643.92 111412.602 -63730.502 111307.529 -63816.732 111267.945 -63849.218 111267.943 -63849.219 111102.909 -63937.432 111013.37 -63964.593 110923.832 -63991.754 110900.571 -63994.045 110784.27 -64005.5 97190.93 -64005.5 97074.629 -63994.045 97051.368 -63991.754 96961.83 -63964.593 96872.291 -63937.432 96707.257 -63849.219 96707.255 -63849.218 96667.671 -63816.732 96562.598 -63730.502 96491.541 -63643.917 96477.678 -63630.054 96391.099 -63559.002 96303.308 -63452.027 96272.383 -63414.345 96262.294 -63395.469 96184.169 -63249.309 96129.847 -63070.231 96116.101 -62930.67 96116.101 -50262.499 98016.1 -50262.499 98016.1 -62005.501 98018.021 -62025.01 98023.712 -62043.769 98032.953 -62061.057 98045.389 -62076.211 98060.543 -62088.647 98077.831 -62097.888 98096.59 -62103.579 98116.099 -62105.5 109859.102 -62105.5 109878.611 -62103.579 109897.37 -62097.888 109914.658 -62088.647 109929.812 -62076.211 109942.248 -62061.057 109951.489 -62043.769 109957.18 -62025.01 109959.101 -62005.501 109959.1 -50262.499 109957.179 -50242.99 109951.488 -50224.231 109942.247 -50206.943 109929.811 -50191.789 109914.657 -50179.353 109897.369 -50170.112 109878.61 -50164.421 109859.101 -50162.5 98116.099 -50162.5 98096.59 -50164.421 98077.831 -50170.112 98060.543 -50179.353 98045.389 -50191.789 98032.953 -50206.943 98023.712 -50224.231 98018.021 -50242.99 98016.1 -50262.499 96116.101 -50262.499 96116.1 -49337.331 96129.846 -49197.77 96129.847 -49197.768 96168.758 -49069.492 96184.168 -49018.692 96272.381 -48853.657 96272.382 -48853.655 96303.307 -48815.973 96391.098 -48708.998 96477.68 -48637.943 96491.543 -48624.08 96562.598 -48537.498 96671.963 -48447.746 96707.255 -48418.782 96726.131 -48408.693 96872.291 -48330.568 96961.83 -48303.407 97051.368 -48276.246 97074.629 -48273.955 97190.93 -48262.5 110784.27 -48262.5 110900.571 -48273.955"/><path d="M 129950.571 -45987.955 129973.832 -45990.246 130063.37 -46017.407 130152.909 -46044.568 130299.069 -46122.693 130317.945 -46132.782 130353.237 -46161.746 130462.602 -46251.498 130533.657 -46338.08 130547.52 -46351.943 130634.102 -46422.998 130721.893 -46529.973 130752.818 -46567.655 130752.819 -46567.657 130841.032 -46732.691 130895.354 -46911.769 130909.1 -47051.33 130909.1 -60644.67 130895.354 -60784.231 130841.032 -60963.309 130762.907 -61109.469 130752.818 -61128.345 130721.893 -61166.027 130634.102 -61273.002 130547.52 -61344.057 130533.657 -61357.92 130462.602 -61444.502 130355.627 -61532.293 130317.945 -61563.218 130317.943 -61563.219 130152.909 -61651.432 130063.37 -61678.593 129973.832 -61705.754 129950.571 -61708.045 129834.27 -61719.5 116240.93 -61719.5 116124.629 -61708.045 116101.368 -61705.754 116011.83 -61678.593 115922.291 -61651.432 115757.257 -61563.219 115757.255 -61563.218 115719.573 -61532.293 115612.598 -61444.502 115541.541 -61357.917 115527.678 -61344.054 115441.099 -61273.002 115353.308 -61166.027 115322.383 -61128.345 115312.294 -61109.469 115234.169 -60963.309 115179.847 -60784.231 115166.101 -60644.67 115166.101 -47976.499 117066.1 -47976.499 117066.1 -59719.501 117068.021 -59739.01 117073.712 -59757.769 117082.953 -59775.057 117095.389 -59790.211 117110.543 -59802.647 117127.831 -59811.888 117146.59 -59817.579 117166.099 -59819.5 128909.102 -59819.5 128928.611 -59817.579 128947.37 -59811.888 128964.658 -59802.647 128979.812 -59790.211 128992.248 -59775.057 129001.489 -59757.769 129007.18 -59739.01 129009.101 -59719.501 129009.1 -47976.499 129007.179 -47956.99 129001.488 -47938.231 128992.247 -47920.943 128979.811 -47905.789 128964.657 -47893.353 128947.369 -47884.112 128928.61 -47878.421 128909.101 -47876.5 117166.099 -47876.5 117146.59 -47878.421 117127.831 -47884.112 117110.543 -47893.353 117095.389 -47905.789 117082.953 -47920.943 117073.712 -47938.231 117068.021 -47956.99 117066.1 -47976.499 115166.101 -47976.499 115166.1 -47051.331 115179.846 -46911.77 115179.847 -46911.768 115234.168 -46732.693 115234.168 -46732.692 115322.381 -46567.657 115322.382 -46567.655 115353.307 -46529.973 115441.098 -46422.998 115527.68 -46351.943 115541.543 -46338.08 115612.598 -46251.498 115721.963 -46161.746 115757.255 -46132.782 115776.131 -46122.693 115922.291 -46044.568 116011.83 -46017.407 116101.368 -45990.246 116124.629 -45987.955 116240.93 -45976.5 129834.27 -45976.5 129950.571 -45987.955"/></g><g id="thaEY8iPjsnh_top_silkscreen"><path d="M 75050.704 -84425.847 75622.133 -84425.847 75736.419 -84473.466 75812.609 -84568.704 75850.704 -84711.561 75850.704 -84806.8 M 75850.704 -83473.466 75850.704 -83949.657 75050.704 -83949.657 M 75774.514 -82568.704 75812.609 -82616.323 75850.704 -82759.18 75850.704 -82854.419 75812.609 -82997.276 75736.419 -83092.514 75660.228 -83140.133 75507.847 -83187.752 75393.561 -83187.752 75241.18 -83140.133 75164.99 -83092.514 75088.8 -82997.276 75050.704 -82854.419 75050.704 -82759.18 75088.8 -82616.323 75126.895 -82568.704 M 75050.704 -81854.419 75622.133 -81854.419 75736.419 -81902.038 75812.609 -81997.276 75850.704 -82140.133 75850.704 -82235.371 M 75850.704 -80902.038 75850.704 -81378.228 75050.704 -81378.228 M 75774.514 -79997.276 75812.609 -80044.895 75850.704 -80187.752 75850.704 -80282.99 75812.609 -80425.847 75736.419 -80521.085 75660.228 -80568.704 75507.847 -80616.323 75393.561 -80616.323 75241.18 -80568.704 75164.99 -80521.085 75088.8 -80425.847 75050.704 -80282.99 75050.704 -80187.752 75088.8 -80044.895 75126.895 -79997.276 M 75050.704 -79282.99 75622.133 -79282.99 75736.419 -79330.609 75812.609 -79425.847 75850.704 -79568.704 75850.704 -79663.942 M 75850.704 -78330.609 75850.704 -78806.8 75050.704 -78806.8 M 75774.514 -77425.847 75812.609 -77473.466 75850.704 -77616.323 75850.704 -77711.561 75812.609 -77854.419 75736.419 -77949.657 75660.228 -77997.276 75507.847 -78044.895 75393.561 -78044.895 75241.18 -77997.276 75164.99 -77949.657 75088.8 -77854.419 75050.704 -77711.561 75050.704 -77616.323 75088.8 -77473.466 75126.895 -77425.847 M 75050.704 -76711.561 75622.133 -76711.561 75736.419 -76759.18 75812.609 -76854.419 75850.704 -76997.276 75850.704 -77092.514 M 75850.704 -75759.18 75850.704 -76235.371 75050.704 -76235.371 M 75774.514 -74854.419 75812.609 -74902.038 75850.704 -75044.895 75850.704 -75140.133 75812.609 -75282.99 75736.419 -75378.228 75660.228 -75425.847 75507.847 -75473.466 75393.561 -75473.466 75241.18 -75425.847 75164.99 -75378.228 75088.8 -75282.99 75050.704 -75140.133 75050.704 -75044.895 75088.8 -74902.038 75126.895 -74854.419" fill="none" stroke-width="150"/></g><g id="thaEY8iPjsnh_top_drill1" transform="scale(25.4,25.4)"><path d="M 3821.5 -2687.4 3821.5 -3232.6 M 3821.4 -2687.5 4366.6 -2687.5 M 3821.4 -3232.5 4366.6 -3232.5 M 4366.5 -2687.4 4366.5 -3232.6 M 6067.5 -2029.4 6067.5 -2574.6 M 6067.4 -2029.5 6612.6 -2029.5 M 6067.4 -2574.5 6612.6 -2574.5 M 6612.5 -2029.4 6612.5 -2574.6 M 3073.5 -2873.4 3073.5 -3418.6 M 3073.4 -2873.5 3618.6 -2873.5 M 3073.4 -3418.5 3618.6 -3418.5 M 3618.5 -2873.4 3618.5 -3418.6 M 6082.9 -4935 6322 -4444.9 M 6572.9 -5173.8 6082.9 -4934.8 M 6811.9 -4684 6321.8 -4444.9 M 6572.8 -5173.9 6811.8 -4683.8 M 5319.5 -1939.4 5319.5 -2484.6 M 5319.4 -1939.5 5864.6 -1939.5 M 5319.4 -2484.5 5864.6 -2484.5 M 5864.5 -1939.4 5864.5 -2484.6 M 2325.5 -2123.4 2325.5 -2668.6 M 2325.4 -2123.5 2870.6 -2123.5 M 2325.4 -2668.5 2870.6 -2668.5 M 2870.5 -2123.4 2870.5 -2668.6 M 3073.5 -2123.4 3073.5 -2668.6 M 3073.4 -2123.5 3618.6 -2123.5 M 3073.4 -2668.5 3618.6 -2668.5 M 3618.5 -2123.4 3618.5 -2668.6 M 4567.5 -4165.4 4567.5 -4710.6 M 4567.4 -4165.5 5112.6 -4165.5 M 4567.4 -4710.5 5112.6 -4710.5 M 5112.5 -4165.4 5112.5 -4710.6 M 5319.5 -2689.4 5319.5 -3234.6 M 5319.4 -2689.5 5864.6 -2689.5 M 5319.4 -3234.5 5864.6 -3234.5 M 5864.5 -2689.4 5864.5 -3234.6 M 4571.5 -3345.4 4571.5 -3890.6 M 4571.4 -3345.5 5116.6 -3345.5 M 4571.4 -3890.5 5116.6 -3890.5 M 5116.5 -3345.4 5116.5 -3890.6 M 2325.5 -2873.4 2325.5 -3418.6 M 2325.4 -2873.5 2870.6 -2873.5 M 2325.4 -3418.5 2870.6 -3418.5 M 2870.5 -2873.4 2870.5 -3418.6 M 6067.5 -3529.4 6067.5 -4074.6 M 6067.4 -3529.5 6612.6 -3529.5 M 6067.4 -4074.5 6612.6 -4074.5 M 6612.5 -3529.4 6612.5 -4074.6 M 3821.5 -3437.4 3821.5 -3982.6 M 3821.4 -3437.5 4366.6 -3437.5 M 3821.4 -3982.5 4366.6 -3982.5 M 4366.5 -3437.4 4366.5 -3982.6 M 5337.2 -4732.4 5459.8 -4201.1 M 5868.4 -4854.8 5337.1 -4732.2 M 5990.9 -4323.8 5459.6 -4201.2 M 5868.2 -4854.9 5990.8 -4323.6 M 5319.5 -3439.4 5319.5 -3984.6 M 5319.4 -3439.5 5864.6 -3439.5 M 5319.4 -3984.5 5864.6 -3984.5 M 5864.5 -3439.4 5864.5 -3984.6 M 4571.5 -1847.4 4571.5 -2392.6 M 4571.4 -1847.5 5116.6 -1847.5 M 4571.4 -2392.5 5116.6 -2392.5 M 5116.5 -1847.4 5116.5 -2392.6 M 3821.5 -1937.4 3821.5 -2482.6 M 3821.4 -1937.5 4366.6 -1937.5 M 3821.4 -2482.5 4366.6 -2482.5 M 4366.5 -1937.4 4366.5 -2482.6 M 2325.5 -3623.4 2325.5 -4168.6 M 2325.4 -3623.5 2870.6 -3623.5 M 2325.4 -4168.5 2870.6 -4168.5 M 2870.5 -3623.4 2870.5 -4168.6 M 4571.5 -2597.4 4571.5 -3142.6 M 4571.4 -2597.5 5116.6 -2597.5 M 4571.4 -3142.5 5116.6 -3142.5 M 5116.5 -2597.4 5116.5 -3142.6 M 6067.5 -2779.4 6067.5 -3324.6 M 6067.4 -2779.5 6612.6 -2779.5 M 6067.4 -3324.5 6612.6 -3324.5 M 6612.5 -2779.4 6612.5 -3324.6 M 3073.5 -3623.4 3073.5 -4168.6 M 3073.4 -3623.5 3618.6 -3623.5 M 3073.4 -4168.5 3618.6 -4168.5 M 3618.5 -3623.4 3618.5 -4168.6 M 6764.6 -5295.9 7107.7 -4872.2 M 7188.3 -5638.9 6764.6 -5295.7 M 7531.3 -5215.3 7107.6 -4872.2 M 7188.1 -5638.9 7531.3 -5215.1" fill="none" stroke-width="5.9"/></g><g id="thaEY8iPjsnh_top_drill2" transform="scale(25.4,25.4)"><use xlink:href="#ltXIfizC2Peo_pad-1" x="2975" y="-2765"/><use xlink:href="#ltXIfizC2Peo_pad-1" x="5965" y="-2610"/><use xlink:href="#ltXIfizC2Peo_pad-1" x="5255" y="-4475"/><use xlink:href="#ltXIfizC2Peo_pad-1" x="6795" y="-5035"/><use xlink:href="#ltXIfizC2Peo_pad-1" x="2970" y="-3515"/></g><mask id="thaEY8iPjsnh_top_mech-mask"><g fill="#000" stroke="#000"><rect x="58117.7" y="-144067.741" width="134017.62699999998" height="98091.241" fill="#fff"/><use xlink:href="#thaEY8iPjsnh_top_drill1"/><use xlink:href="#thaEY8iPjsnh_top_drill2"/></g></mask><mask id="thaEY8iPjsnh_top_cf-mask"><g fill="#fff" stroke="#fff"><use xlink:href="#thaEY8iPjsnh_top_soldermask"/></g></mask><mask id="thaEY8iPjsnh_top_sm-mask"><g fill="#000" stroke="#000"><rect x="58117.7" y="-144067.741" width="134017.62699999998" height="98091.241" fill="#fff"/><use xlink:href="#thaEY8iPjsnh_top_soldermask"/></g></mask></defs><g transform="translate(0,-190044.24100000004) scale(1,-1)"><g mask="url(#thaEY8iPjsnh_top_mech-mask)"><rect x="58117.7" y="-144067.741" width="134017.62699999998" height="98091.241" fill="currentColor" class="thaEY8iPjsnh_fr4"/><use xlink:href="#thaEY8iPjsnh_top_copper" fill="currentColor" stroke="currentColor" class="thaEY8iPjsnh_cu"/><use xlink:href="#thaEY8iPjsnh_top_copper" fill="currentColor" stroke="currentColor" class="thaEY8iPjsnh_cf" mask="url(#thaEY8iPjsnh_top_cf-mask)"/><g mask="url(#thaEY8iPjsnh_top_sm-mask)"><rect x="58117.7" y="-144067.741" width="134017.62699999998" height="98091.241" fill="currentColor" class="thaEY8iPjsnh_sm"/><use xlink:href="#thaEY8iPjsnh_top_silkscreen" fill="currentColor" stroke="currentColor" class="thaEY8iPjsnh_ss"/></g></g></g></svg>